<svg width="200" height="200" viewBox="0 0 200 200" fill="none" xmlns="http://www.w3.org/2000/svg"><path fill-rule="evenodd" clip-rule="evenodd" d="M50.4 15.95c-13.83 2.77-25.65 7.58-33.53 14.83C9.02 38.01 4.4 48.93 2.32 61.7c-2.07 12.76-1.6 27.25.66 41.5a171.82 171.82 0 0011.27 39.83c5 11.67 10.91 20.91 16.89 25.86 24.42 20.25 70.28 42.47 130.37 21.96 14.8-5.06 24.53-16.04 30.36-30.1 5.85-14.1 7.77-31.24 6.95-48.46a172.66 172.66 0 00-9.48-48.62c-5.1-14.25-11.66-25.27-18.36-30.3-6.79-5.09-17.81-9.66-31.1-13.18a226.12 226.12 0 00-44.35-6.83c-15.6-.87-31.33-.16-45.14 2.6zm121.18 16.62C143.81 11.75 48.5.32 16.2 30.05c-32.3 29.72-10.3 119.2 14.3 139.6 24.62 20.4 70.83 42.79 131.35 22.13 60.51-20.66 37.51-138.4 9.74-159.21z" fill="#C9CDD6"/><mask id="a" maskUnits="userSpaceOnUse" x="10" y="0" width="190" height="195"><path d="M33.92 22.53c31.54-39.21 94.95-19.26 136.56 0 41.6 19.25 37.06 103.67 0 142.34S56.74 204.22 29.9 171.3C3.06 138.41 2.39 61.75 33.92 22.53z" fill="#fff"/></mask><g mask="url(#a)"><path d="M105 233c66.83 0 121-54.17 121-121S171.83-9 105-9-16 45.17-16 112s54.17 121 121 121z" fill="#E0E2E2"/><path d="M107.74 201.84c27 0 56.98-19.83 56.98-19.83 0-6.96 3.63-3.55 1.04-6.07-5.77-5.7-28.35-10.95-28.35-10.95l-8.36-14.73c-4.59 6.3-10.14 11.77-17.98 14.43a6.37 6.37 0 01-8 .67l-1.25-.89-.82-.07c-9.62-1.04-11.54-6.3-17.76-12.66l-13.17 13.54s-20.58 3.56-26.57 12C30 193 81.17 201.83 107.74 201.83z" fill="#47519F"/><path d="M146.96 113.26c.15-3.26-4.07-3.26-5.7-3.92-2.36-.97-2.88-4-2.88-4 .3-5.77-4-8.73-4-16.73 0-4.29 3.55-9.62 1.4-13.32l-4.73-7.32c-3.4 4.07-5.77 14.2-20.28 17.61-10.73 2.52-21.09 1.78-27.53-7.1l9.1-1.41-9.4-3.85c-5.7 1.56-9.76 2.89-10.28 10.58-.3 4.15 1.33 10.3.81 14.66-.44 4.07-2 5.77-3.62 6.51-3.33 1.55-5.92 4.44-6.66 8.07l-.15.59 1.4 1.4c2.82 4.3 2.52 9.4-1.33 9.92 0 0-1.55 1.26-5.92-.44-3.4-1.33-7.55-8.8-5.25-14.66-7.7-3.84-12.21-13.98-8.51-21.75 3.55-7.63.74-16.8 12.36-25.17l4.73-9.32a15.56 15.56 0 018.22-5.1l9.1-2.15c7.03-8.14 17.17-12.66 27.97-13.25 15.55-.89 20.95 10 20.95 10a6.26 6.26 0 004 4.06c5.25 1.85 3.7 2.96 5.18 10.07l5.77 2.96c11.4 4.58 10.21 15.39 10.95 24.05.67 8.06 6.44 13.47 6.59 14.06 3.1 12.43-5.48 10.43-5.85 16.65-.81 14.28-6.59 16.06-13.17 15.99l-2.52-1.04c0 .15 8.36 4.66 9.25-16.65z" fill="#EB5C2C"/><path d="M85.76 156.92l-3.55 15.91a7.8 7.8 0 002.8 7.03l6.23 5.33 8.28 7.1c4.52 3.86 11.92 3.34 15.62-1.18l9.7-11.76a11.35 11.35 0 002.66-8.07l-2.52-14.36-23.31-4.8-15.91 4.8z" fill="#fff"/><path d="M138.08 130.2c-.22-.07-.37-.14-.37-.14l.37.15c1.63.59 8.14 1.7 8.88-16.88.15-3.25-4.07-3.25-5.7-3.92-2.37-.96-2.88-4-2.88-4 .3-5.77-4-8.73-4-16.72 0-4.3 3.55-9.62 1.4-13.32l-4.73-7.4c-3.4 4.07-5.77 14.2-20.28 17.61-10.73 2.52-21.09 1.78-27.53-7.1l9.1-1.41-9.4-3.85c-5.7 1.55-9.76 2.89-10.28 10.58-.3 4.15 1.33 10.3.81 14.66-.44 4.07-2 5.77-3.62 6.5-3.33 1.56-5.92 4.45-6.66 8.08l-.15.59 1.4 1.4c2.82 4.3 2.52 9.4-1.33 9.92 0 0-.15.15-.44.22a44.48 44.48 0 005.25 3.63s1.19 1.55 3.11.52l3.18-.08c.82 2.45 2 5.18 3.56 9.92 2.59 7.84 8.8 14.58 14.06 19.02 3.7 3.1 5.92 5.18 10.73 5.7 0 0 5.92 4.07 9.7.37 5.1-1.48 7.24-3.7 9.83-6.3 4.37-4.36 6.96-9.76 9.55-14.64.15-.3 1.4-2.15 2.22-4.3a47.43 47.43 0 002.6-10.5h.51c.6 3.18 5.25 3.7 8.29 2.06-1.55.45-3.18.52-4.96.52l-2.22-.88z" fill="#fff"/><path d="M105.96 154.63s-1.03 1.18.45 3.62zM73.4 128.58c-8.29 1.7-10.06-3.93-10.06-3.93z" fill="#fff"/><path d="M96.57 127.1c.14.74.59 1.4 1.33 1.77 1.18.67 2.81.52 3.7.3a7.09 7.09 0 006.73-.07l.9.14a4.6 4.6 0 004.58-2.36c.67-1.41.44-2.9-.67-4-.59-.6-1.55-.52-2.07.07-.59.6-.52 1.56.08 2.08.14.14.22.3.07.51-.22.52-.96.9-1.4.82l-1.41-.22c-.37-.08-.74 0-1.04.22a4.29 4.29 0 01-4.59 0 1.5 1.5 0 00-1.25-.15c-.67.22-1.63.3-1.93.15-.6-2.67.45-3.26.52-3.26h-.08l-.96-2.81c-.37.07-3.77 1.33-2.51 6.8zM118.18 139.97a1.5 1.5 0 00-.74-1.47l-4.3-2.3a5.9 5.9 0 00-7.32-.22.63.63 0 01-.52 0c-2.6-1.56-5.33-1.11-7.4 1.18l-3.92 1.93h-.08a2 2 0 00-.59.51s0 .08-.07.08c0 0 0 .07-.08.07 0 .08-.07.15-.07.22v.52c0 .15.07.22.07.37v.08c.08.07.08.22.15.3 0 0 0 .07.07.07.08.07.15.15.3.22h.07c.08 0 .08.07.15.07.82.37 1.4 1.11 2.15 2.08 1.63 2.14 3.92 5.03 10.06 5.03 5.7 0 7.63-2.96 9.03-5.18.67-1.04 1.26-1.93 2-2.22.74-.08 1.11-.67 1.04-1.34zm-18.73-.3c.15-.06.37-.21.45-.36 1.18-1.4 2.36-1.63 3.84-.81 1.19.66 2.67.59 3.78-.15a2.84 2.84 0 013.77.22c.08.07.15.15.22.15l1.04.59a43.97 43.97 0 01-13.54.6l.44-.23zm6.74 6.3c-4.07 0-5.7-1.4-7.1-3.1 1.62.14 3.25.29 4.95.29 2.89 0 5.77-.3 8.59-.82-1.26 1.93-2.45 3.63-6.44 3.63zM107.15 155.52c.44-.6.37-1.49-.15-2-.6-.52-1.56-.52-2.07.07-.15.22-1.7 2.07.3 5.4.29.45.73.74 1.25.74.3 0 .52-.07.74-.22.67-.44.96-1.33.52-2-.82-1.25-.6-1.85-.6-2zM131.72 104c.67-.44.81-1.4.37-2.06-6-8.66-20.5-3.93-21.17-3.78-.74.3-1.18 1.11-.96 1.85.22.74 1.11 1.18 1.85.96.15-.07 13.03-4.29 17.76 2.6.3.44.74.66 1.26.66.37.07.67-.08.89-.22zM114.03 106.52l-.15-.44a1.37 1.37 0 00-1.7-.74c-.67.3-.96 1.04-.74 1.7l.66 1.7c.15.3.37.6.74.74.37.15.67.15 1.04 0 1.4-.59 2.67-.96 3.78-1.25-.08.3-.08.59 0 .96a2.54 2.54 0 002.8 2.14 2.52 2.52 0 002.08-2.88c0-.15-.08-.3-.08-.45 2.97.45 4.22 2 4.37 2.08.22.3.67.51 1.04.51.3 0 .59-.07.81-.3.6-.44.67-1.25.22-1.84-.37-.3-4.8-5.7-14.87-1.93zM96.79 109.34c.3.14.66.14 1.03 0 .37-.15.6-.37.74-.74l.67-1.7c.3-.67-.08-1.41-.74-1.7-.67-.3-1.4.07-1.7.73l-.15.45c-10.07-3.78-14.5 1.62-14.66 1.85-.44.59-.37 1.33.23 1.77.22.22.51.3.81.3.37 0 .74-.15 1.04-.45.07-.07 1.4-1.62 4.36-2.07-.07.15-.07.3-.07.45a2.52 2.52 0 002.07 2.88 2.49 2.49 0 002.81-2.14c.08-.3 0-.67 0-.97.9.37 2.15.74 3.56 1.34zM96.93 100.75c.82.3 1.63-.15 1.85-.96.3-.74-.14-1.63-.96-1.85-.59-.22-14.35-4.74-21.16 3.85a1.5 1.5 0 00.22 2.07c.3.22.6.3.89.3.44 0 .88-.23 1.18-.6 5.63-6.8 17.84-2.8 17.98-2.8zM78.36 107.12a1.3 1.3 0 00-.81-1.63 1.3 1.3 0 00-1.63.81c-.08.3-.9 2.96.07 5.1.22.53.67.75 1.19.75.14 0 .37 0 .51-.15.67-.3.97-1.04.67-1.7-.52-.96-.15-2.67 0-3.18zM132.76 106.3a1.3 1.3 0 00-1.63-.81 1.3 1.3 0 00-.81 1.63c.14.59.51 2.22.07 3.25-.3.67 0 1.4.67 1.7.14.08.37.15.51.15.52 0 .97-.3 1.19-.74.96-2.22.15-4.88 0-5.18z" fill="#000"/><path d="M142.38 111.04c-1.04-3.04.51 7.1 0 8.8z" fill="#EB5C2C"/><path d="M141.86 118.8c-.15 0-.3 0-.45-.07-.81-.22-1.26-.88-.96-1.62.15-.52-.07-3.11-.22-4.52-.3-3.4-.37-4.22 1.03-4.51.9-.15 1.56.3 2 1.33.15.44.08.89-.22 1.26.07.52.07 1.18.15 1.7.3 2.81.44 4.59.15 5.48-.23.59-.82.96-1.48.96z" fill="#000"/><path d="M59.34 97.35c.44.74 1.18 4.73-1.78 11.32zM118.03 42.95s4.44 3.55 9.62 2.81z" fill="#EB5C2C"/><path d="M126.17 47.4c-4.96 0-8.96-3.12-9.1-3.26a1.44 1.44 0 01-.23-2.08c.52-.66 1.4-.74 2.07-.22.08 0 4.07 3.18 8.51 2.52.82-.15 1.56.44 1.7 1.26.15.81-.44 1.55-1.25 1.7-.6.07-1.11.07-1.7.07zM78.28 62.2c.67.44 1.56.3 2.08-.38.44-.66.3-1.62-.38-2.07-.14-.07-2.96-2.07-7.03-1.03-4.14 1.03-7.91 4.73-11.17 11.1-.96 1.92-1.7 4.88-2.37 9.47-.07.81.45 1.55 1.26 1.63h.22a1.5 1.5 0 001.48-1.26c.37-2.66.96-6.44 2-8.51 2.81-5.4 6-8.73 9.18-9.55a5.8 5.8 0 014.73.6zM107.14 76.25c1.63 0 3.34-.22 5.19-.59a1.5 1.5 0 001.1-1.77 1.5 1.5 0 00-1.77-1.11c-6.3 1.48-11.84 0-16.65-4.52-3.63-3.4-5.48-7.4-5.48-7.4a1.4 1.4 0 00-1.92-.74 1.4 1.4 0 00-.74 1.93c.07.14 6.44 14.2 20.27 14.2zM102.78 65.23a28 28 0 009.1 1.4c5.62 0 11.84-1.4 16.58-4.51.66-.44.88-1.33.44-2.07a1.52 1.52 0 00-2.07-.45c-6.8 4.44-17.24 4.89-23.02 2.82-6.58-2.45-12.06-8.14-12.13-8.22a1.5 1.5 0 00-2.08-.07c-.59.59-.59 1.48-.07 2.07.22.3 6 6.36 13.25 9.03zM146.37 98.97c-.15.82.44 1.56 1.25 1.7h.22a1.5 1.5 0 001.48-1.25c.45-2.74-.8-4.81-2.07-6.81-1.77-2.89-3.7-6.07-2-12.8.23-.82-.3-1.63-1.03-1.78-.81-.22-1.63.3-1.78 1.04-2.07 7.92.45 12.06 2.3 15.1 1.1 1.84 1.92 3.18 1.63 4.8zM58.52 96.01c-.74.45-.96 1.34-.52 2 .3.6.82 4.15-1.77 10-.37.73 0 1.62.74 1.92.22.07.37.14.59.14.6 0 1.1-.3 1.33-.88 3.18-7.18 2.3-11.55 1.7-12.66a1.61 1.61 0 00-2.07-.52z" fill="#000"/><path fill-rule="evenodd" clip-rule="evenodd" d="M168.8 179.97a70.55 70.55 0 00-3.77-6.85l-.16.16c-6.76-4.63-21.75-8.44-25.97-9.51l-.45-.11s-6.51-11.25-8.5-14.21a165.48 165.48 0 012.47-4.6c.17-.29.33-.58.48-.88 0-.07.08-.15.15-.22l.13-.22c.5-.81 1.4-2.32 2.02-4.07a53.7 53.7 0 002.22-8c.03 0 .07.02.1.04.04.02.08.04.12.04l2.07.89c.15.07.37.14.52.14h.52c6.88 0 13.32-2.3 14.13-17.39.08-1.77 1.04-2.66 2.44-3.85 2.45-2.14 5.48-4.8 3.33-13.32-.06-.37-.28-.64-.7-1.15l-.26-.33c-1.55-1.92-5.1-6.36-5.62-12.43a457 457 0 01-.22-3.55v-.07c-.45-7.76-1-17.34-11.62-21.7l-5.11-2.58c-.3-1.48-.44-2.6-.52-3.63-.44-3.7-.81-5.25-5.47-6.88a4.87 4.87 0 01-3.08-3.22c-.01-.04-.03-.07-.03-.11-.23-.44-6.07-11.7-22.35-10.8-11.47.66-21.61 5.4-28.64 13.39l-8.66 2.3a17 17 0 00-9.03 5.54c-.07.08-.15.15-.15.3l-4.59 9.03c-8.14 6-9.4 12.5-10.5 18.28l-.1.5c-.48 2.4-.94 4.68-1.9 6.75-3.7 7.85.07 18.35 8.14 23.1-.67 2.8-.37 5.99 1.03 9.1 1.34 3.03 3.48 5.4 5.48 6.21 3.1 1.19 5.03 1.11 6.14.74 1.26 1.78 3.7 3.63 7.7 3.63.74 0 1.48-.08 2.37-.22.3.88.66 1.92 1.1 2.95l.36.93c.59 1.57 1.28 3.38 2.02 5.66a35.93 35.93 0 006.06 10.96s-.07 0-.07.07l-.74.74-12.14 12.43c-2.81.52-16.94 3.4-24.35 9.62-5.2 5.1-6.22 9.93-6.7 10.93 16.63 15.74 41.74 20.97 66.43 20.97 24.73 0 47.22-9.7 63.86-25.5zM42 183.5c3.26 2.96 2.95 2.36 6.65 4.8 1.26.74 11.48 2.3 13.03 2.96-1.68-5.76 2.77-16.2 5.87-21.54.52-.88 1.11-1.85 1.7-2.73-3.84.74-23.75 4.01-27.25 16.51zm40.87 11.68a4.3 4.3 0 01.9-1.85l1.1-1.4a11.87 11.87 0 00-13.91-3.63c-.14.1-.3.2-.44.32-.41.3-4.52 2.38-6.02 5.38 4.3 1.92 13 2 18.15 1.1.04 0 .08.03.11.05l.11.03zm44.48-5.18a5.81 5.81 0 01.74 4.81c1.43-.4 2.86-.85 4.3-1.31l2.14-.69c-.3-.22-.52-.44-.74-.66l-2.59-2.81a6.94 6.94 0 00-4.96-2.3h-.07c-.2-.05-.37-.03-.53-.01l-.21.01 1.92 2.96zm13.62 0a2.8 2.8 0 00.74-2c-.67-9.25-2.3-19.6-13.77-34.85l-.37.54c-.53.76-1.03 1.5-1.63 2.27.3.22.52.6.6.96l2.51 14.36v.15c.23 3.25-.89 6.5-3.03 9.1l-9.7 11.77a12.23 12.23 0 01-8.36 4.21c-.44.08-.81.08-1.18.08-3.04 0-6-1.04-8.22-2.96l-14.5-12.44a9.48 9.48 0 01-3.26-8.36v-.15l3.55-15.9c.15-.53.6-1.63 1.11-2.38-.18-.22-.38-.44-.59-.66l-.59-.67a6 6 0 00-.81.81v.3l-.15-.15c-2.52 2.6-8.8 9.63-13.32 17.32-.8 1.38-7.98 14.15-5 16.65.51.43 3.44-1.73 4.55-2.29a14.7 14.7 0 0118.36 5.55c.37.52.3 1.18-.08 1.7l-1.77 2.22c-.23.22-.3.45-.37.74a85.92 85.92 0 0037.81.08 3.22 3.22 0 001.7-1.85 2.9 2.9 0 00-.3-2.6l-2.5-3.84a1.24 1.24 0 01-.08-.19l-.07-.18a2.27 2.27 0 01.3-2.07c.66-.82 1.92-1.26 3.7-1.26h.06c2.6 0 5.19 1.18 7.04 3.18l2.59 2.81a3.5 3.5 0 002.51 1.11c.89-.37 1.7-.74 2.52-1.1zm-67.43-83.15c.47.87.91 1.68 1.04 2.56.3 1.62.24 4.53.2 6.42-.01 1.04-.03 1.77.03 1.8-.6 7.4.14 9.47 2.07 14.5.67 1.7 1.48 3.85 2.37 6.66 2.59 7.84 8.8 14.28 13.61 18.35l.52.45c3.4 2.88 5.26 4.44 9.4 4.88.22 0 .44.08.67.22l.13.08c.8.47 5.08 3 7.71.44.15-.15.37-.3.6-.37 4.58-1.33 6.5-3.25 8.95-5.7l.22-.22c3.62-3.62 5.98-8.12 8.28-12.48l.01-.03c.15-.3.31-.59.48-.88l.48-.9a20.39 20.39 0 002.15-4.07 48.54 48.54 0 002.96-19.75 43.44 43.44 0 00-1.11-7.48c-.08 0-.08-.07-.08-.14-.59-3.04.9-6.66 2.22-9.63-.2-.63-.46-1.27-.72-1.94l-.31-.8-.04-.1c-1.1-2.63-2.33-5.58-2.33-10.03 0-1.75.53-3.63 1.02-5.4l.09-.3c.81-2.67 1.48-5.18.52-6.88l-3.63-5.55-.89 1.55c-2.8 4.81-7.1 12.06-19.02 14.88-13.24 3.18-23.09.59-29.08-7.63-.3-.44-.3-1.03-.15-1.48.15-.44.6-.81 1.11-.89l3.78-.59-4-1.63c-5.4 1.56-8.29 2.82-8.73 9.1-.08 1.78.15 4.08.44 6.45l.08.72c.28 2.6.56 5.26.3 7.56-.3 2.74-1.12 4.74-2.38 6.15.16.47.4.91.63 1.34l.26.5.14.26zm-8.13 7.22l.22.22c2.07 3.19 2.74 6.81 1.55 9.4-.37.82-.88 1.4-1.55 1.93.96 1.03 2.81 2.14 6.36 1.7-.59-2.52-.74-5.26-.37-9.92.15-1.63.3-5.77 0-7.4a8.44 8.44 0 00-.88-1.92c-.15-.26-.28-.52-.41-.78l-.4-.78a9.92 9.92 0 00-5.41 6.66l.89.9zm6.23-22.6l-.09-.78-.03-.24c-.28-2.43-.56-4.8-.56-6.94.66-8.84 5.8-10.28 11.31-11.82l.09-.02c.3-.08.66-.08.96.07l9.4 3.85c.59.3.96.89.88 1.55-.07.67-.59 1.19-1.25 1.26l-6.52.96c5.4 5.7 13.4 7.18 24.43 4.6 10.62-2.5 14.35-8.76 17.08-13.33l.08-.15a25.7 25.7 0 012.37-3.62c.3-.37.82-.52 1.26-.52.52 0 .96.3 1.19.66l4.8 7.48c1.69 2.85.77 6.06-.1 9.13l-.04.12c-.52 1.78-.96 3.4-.96 4.88 0 3.76 1.02 6.23 2.01 8.64l.13.32c1.04 2.37 2 4.66 1.85 7.62.08.45.6 2.15 1.93 2.74.22.07.74.22 1.18.3h.03c1.94.45 5.52 1.27 5.37 5.03-.3 7.62-1.63 12.95-3.92 15.9 3.92-.88 6.88-4.06 7.47-14.2.15-2.96 1.86-4.52 3.41-5.85 2.15-1.85 4.07-3.55 2.52-10.14-.08-.07-.15-.16-.23-.25a3.2 3.2 0 00-.22-.26l-.02-.03c-1.56-1.94-5.68-7.03-6.27-13.96l-.11-1.81-.11-1.82v-.04c-.45-7.61-.9-15.5-9.84-19.12-.08-.08-.15-.08-.15-.08l-5.77-2.96c-.45-.22-.74-.6-.82-1.04-.37-1.85-.59-3.33-.74-4.5-.37-3.2-.44-3.34-3.48-4.45a7.81 7.81 0 01-4.88-4.88c-.6-1.04-5.7-9.85-19.54-9.1-10.88.59-20.42 5.1-26.94 12.72-.22.22-.51.37-.81.45l-9.1 2.14c-2.82.74-5.4 2.3-7.33 4.52l-4.66 9.17a1 1 0 01-.45.52c-7.47 5.4-8.58 11.1-9.62 16.65l-.06.32c-.5 2.5-1.02 5.12-2.16 7.6-3.18 6.74.6 16.2 7.85 19.83.74.38 1.03 1.11.74 1.85-.9 2.3-.67 5.26.59 8.07 1.1 2.67 2.81 4.3 3.85 4.66 2.74 1.11 4.29.97 6.14 0 .3-.14.52-.44.67-.81.66-1.55.14-4.14-1.26-6.36l-1.33-1.34c-.3-.37-.45-.81-.37-1.33l.14-.59c.82-4 3.56-7.33 7.48-9.1 1.03-.45 2.37-1.48 2.81-5.33.27-2 0-4.43-.28-6.84zm65.4 19.12a41.82 41.82 0 011.26 8c.23 3.33.08 6.66-.37 9.99.15 0 .23 0 .37.07l.45.15c.37.15 1.33.37 2.3-.22 1.47-.9 4.06-4 4.5-15.32 0-1.04-.66-1.4-3.1-2a5.75 5.75 0 01-1.7-.45c-1.85-.73-2.82-2.44-3.33-3.62-.37 1.26-.6 2.44-.37 3.4zm-10.95 60.84l-2.3-13.18c-.06.1-.13.18-.2.26-.14.18-.28.35-.38.56l-.22.22c-2.52 2.52-4.81 4.81-9.92 6.36a7 7 0 01-4.66 1.7 12.5 12.5 0 01-6.37-2c-4.8-.58-7.25-2.65-10.65-5.54l-.52-.45a59.16 59.16 0 01-3.33-3.03 7.73 7.73 0 00-.3.89l-3.55 15.84a6.14 6.14 0 002.3 5.62l14.5 12.43a9.85 9.85 0 007.18 2.22 9.3 9.3 0 006.36-3.18l9.7-11.77a10.2 10.2 0 002.36-6.95zm13.84-4.3c3.11 7.03 4.22 13.47 4.74 20.43v.6a86.39 86.39 0 0018.06-12.74c-5.4-3.4-16.36-6.66-22.8-8.29z" fill="#000"/></g><path opacity=".55" d="M21.93 38.95C53.47.3 132.99-10.3 160.07 10.35c27.08 20.67 53.8 123.3 16.73 161.4-37.06 38.11-128.02 36.02-154.87 3.59-26.84-32.44-31.54-97.75 0-136.4z" fill="url(#paint0_linear)"/><defs><linearGradient id="paint0_linear" x1="97.5" y1="0" x2="97.5" y2="200" gradientUnits="userSpaceOnUse"><stop stop-color="#F90"/><stop offset="1" stop-color="#FF6B00"/></linearGradient></defs></svg>