<svg width="1000" height="150" viewBox="0 0 1000 150" fill="none" xmlns="http://www.w3.org/2000/svg">
<path d="M0 0H1000V67.8082C1000 67.8082 895.262 150 500 150C104.738 150 0 67.8082 0 67.8082V0Z" fill="url(#paint0_linear)"/>
<path opacity="0.2" fill-rule="evenodd" clip-rule="evenodd" d="M0 39.1735V40.6003C22.177 62.4975 44.6519 81.9304 67.2871 98.6178C68.3264 98.9672 69.3796 99.3177 70.4468 99.6692C46.746 82.4244 23.2107 62.1516 0 39.1735ZM193.904 128.727C193.12 128.598 192.338 128.467 191.559 128.337C146.079 96.5365 101.193 52.9164 58.1339 0H59.4385C102.847 53.2482 148.092 97.0169 193.904 128.727ZM240.206 135.499C239.63 135.425 239.056 135.351 238.483 135.276C200.245 99.3769 163.09 53.412 128.299 0H129.503C164.472 53.6048 201.809 99.6533 240.206 135.499ZM267.228 138.715C266.641 138.65 266.056 138.586 265.471 138.521C229.433 106.572 194.962 57.9634 165.631 0H166.759C168.019 2.48489 169.288 4.95249 170.566 7.4022C199.274 62.4147 232.571 108.347 267.228 138.715ZM290.286 141.081C289.611 141.016 288.938 140.951 288.266 140.886C251.553 114.236 216.252 62.4663 189.42 0H190.514C195.959 12.6509 201.753 24.8597 207.835 36.5057C232.046 82.8648 260.783 120.219 290.286 141.081ZM312.983 143.096C312.183 143.03 311.385 142.964 310.589 142.898C301.247 137.493 292.576 132.023 284.6 126.604C253.466 105.456 223.613 56.5768 204.851 0H205.908C212.522 19.887 220.508 38.8128 229.436 55.8995C245.788 87.1944 265.252 112.229 285.151 125.746C293.647 131.517 302.934 137.348 312.983 143.096ZM334.403 144.734C333.406 144.663 332.412 144.592 331.42 144.52C313.434 136.378 297.875 127.387 284.95 118.593C257.902 100.192 232.251 51.5093 221.422 0H222.445C227.691 24.853 236.397 49.0343 247.037 69.4283C258.344 91.1017 271.787 108.406 285.501 117.736C298.996 126.916 315.375 136.316 334.403 144.734ZM609.861 147.904C609.12 147.936 608.378 147.968 607.635 148C627.318 136.987 641.39 121.067 650.885 102.284C664.157 76.0291 668.511 44.1284 666.646 12.1398C666.41 8.08967 666.074 4.03925 665.645 0H666.651C672.829 58.3054 659.493 118.919 609.861 147.904ZM798.092 130.036C797.608 130.112 797.123 130.189 796.637 130.265C803.173 121.869 808.825 112.834 813.658 103.288C829.128 72.7316 836.225 36.9043 837 0H838C836.991 48.2086 825.229 94.6652 798.092 130.036ZM536.635 0H535.597C538.846 11.8914 541.03 24.5441 541.769 37.1926C543.029 58.7618 540.085 80.2458 531.135 97.9117C522.201 115.546 507.26 129.427 484.39 135.821C392.123 161.616 321.712 133.664 284.237 108.225C275.016 101.966 265.946 90.3304 258.304 75.7133C250.672 61.1164 244.51 43.6366 241.057 25.7924C239.387 17.1608 238.354 8.47217 238.087 0H237.089C238.458 43.9699 260.301 93.2091 283.686 109.084C321.352 134.653 392.057 162.7 484.652 136.814C544.423 120.104 550.95 52.7034 536.635 0ZM254.346 0C243.016 33.7148 262.575 86.8814 283.962 101.162C310.55 118.915 360.459 138.389 425.82 120.415C478.855 105.831 472.504 35.6345 452.196 0H451.035C452.66 2.80572 454.203 5.84461 455.638 9.07342C461.115 21.3939 464.958 36.3354 465.845 51.2659C466.732 66.2021 464.657 81.0548 458.374 93.2531C452.107 105.42 441.628 115.003 425.562 119.422C360.524 137.306 310.903 117.924 284.507 100.299C278.056 95.9915 271.683 87.9624 266.301 77.8367C260.929 67.7302 256.59 55.6243 254.159 43.2659C251.158 28.0151 251.087 12.562 255.408 0H254.346ZM299.814 9.85955C290.272 11.3889 282.164 14.0421 276.778 18.0112C266.139 25.8512 264.268 41.7492 267.381 57.4811C268.927 65.2947 271.686 72.9486 275.1 79.3343C278.525 85.7394 282.56 90.7797 286.61 93.4689C303.406 104.619 335.005 116.899 376.443 105.569C386.61 102.789 393.223 96.7696 397.18 89.1316C401.153 81.4624 402.474 72.1032 401.91 62.6618C401.347 53.2257 398.903 43.7803 395.423 35.9951C391.927 28.1762 387.452 22.1765 382.92 19.4556C378.27 16.6645 370.694 14.1393 361.517 12.1928C352.364 10.2514 341.703 8.90263 330.94 8.42317C320.174 7.94345 309.333 8.33426 299.814 9.85955ZM383.424 18.5673C364.258 7.06137 298.49 0.745188 276.195 17.1749C253.9 33.6045 269.081 83.0563 286.068 94.3334C303.055 105.61 334.941 117.981 376.7 106.563C418.459 95.1461 402.59 30.073 383.424 18.5673ZM298.267 36.0217C292.204 37.0025 287.1 38.6978 283.734 41.2011C277.131 46.1123 275.904 56.1422 277.883 66.2358C278.862 71.2299 280.61 76.121 282.769 80.1981C284.939 84.2945 287.478 87.4787 289.99 89.162C300.631 96.2914 320.674 104.16 346.979 96.9013C353.361 95.1401 357.498 91.3355 359.976 86.5072C362.471 81.648 363.31 75.696 362.953 69.6631C362.596 63.636 361.049 57.6004 358.847 52.6294C356.629 47.6243 353.814 43.8441 351.018 42.15C348.105 40.3851 343.321 38.7701 337.481 37.5199C331.666 36.2751 324.887 35.4094 318.042 35.1014C311.194 34.7935 304.306 35.0449 298.267 36.0217ZM351.526 41.2637C339.304 33.859 297.365 29.7939 283.148 40.3675C268.931 50.9411 278.612 82.7664 289.444 90.024C300.276 97.2815 320.609 105.243 347.238 97.8948C373.867 90.5471 363.748 48.6684 351.526 41.2637Z" fill="white"/>
<defs>
<linearGradient id="paint0_linear" x1="500" y1="0" x2="500" y2="150" gradientUnits="userSpaceOnUse">
<stop stop-color="#FF9900"/>
<stop offset="1" stop-color="#FF7A00"/>
</linearGradient>
</defs>
</svg>
