<svg width="70" height="54" viewBox="0 0 70 54" fill="none" xmlns="http://www.w3.org/2000/svg"><path fill-rule="evenodd" clip-rule="evenodd" d="M18.26 11.18c7.9-3.86 15.42 5.04 16.74 7.8 1.32-2.76 8.85-11.66 16.74-7.8 3.46 1.94 6.2 4.5 8.36 7.46 1.8 2.49 3.23 5.3 4.31 8.35A43.43 43.43 0 0050.6 23.4c-3.87-.42-7.64 1.67-8.45 5.56-.81 3.88 1.99 6.74 5.51 8.51 4.85 2.43 7.7 5.63 10.02 9.44-6.02 2.16-13.98 4.17-22.67 4.17-8.69 0-16.65-2.01-22.67-4.17 2.32-3.81 5.17-7.01 10.02-9.44 3.53-1.77 6.32-4.63 5.5-8.51-.8-3.89-4.57-5.98-8.44-5.56-6.25.68-10.2 2-13.82 3.6a32.95 32.95 0 014.31-8.36 25.82 25.82 0 018.36-7.46zm29.8-4.8c-3.77-1.3-8.1-2-13.06-2-4.96 0-9.29.7-13.05 2C20.9 4.5 18.05.4 12.6 0c-3.32 6.9-1.03 10.73-.24 11.76C3.4 19.38 0 31.92 0 44.5c0 0 15.67 9.49 35 9.49s35-9.49 35-9.49c0-12.6-3.39-25.13-12.36-32.75.79-1.03 3.07-4.87-.24-11.76-5.46.4-8.32 4.5-9.35 6.37zM35 36.47c3.1 0 5.6 3 5.6 5.48 0 2.47-2.5 3.28-5.6 3.28-3.1 0-5.6-.8-5.6-3.28 0-2.48 2.5-5.47 5.6-5.47zm-10.5-6.56a2.86 2.86 0 01-2.8 2.92c-1.55 0-2.8-1.31-2.8-2.92A2.86 2.86 0 0121.7 27c1.55 0 2.8 1.3 2.8 2.92zm26.6 0a2.86 2.86 0 01-2.8 2.92c-1.55 0-2.8-1.3-2.8-2.92A2.86 2.86 0 0148.3 27c1.54 0 2.8 1.3 2.8 2.92z" fill="url(#paint0_linear)"/><defs><linearGradient id="paint0_linear" x1="35" y1="0" x2="35" y2="54" gradientUnits="userSpaceOnUse"><stop stop-color="#F90"/><stop offset="1" stop-color="#FF7A00"/></linearGradient></defs></svg>