<svg viewBox="0 0 500 500" width="500" height="500" xmlns="http://www.w3.org/2000/svg"><path fill="#00C817" d="M 0 0 L 500.011 0 L 500.011 500 L 0 500 Z"/><path d="M 189.276 371.543 C 166.011 352.196 145.216 333.883 139.396 302.718 C 162.008 318.328 191.924 322.028 207.776 340.9 C 224.134 360.37 221.232 387.3 222.122 414.557 C 203.088 405.614 184.234 400.657 164.942 396.273 C 128.022 387.881 112.404 348.143 131.129 311.207 C 151.873 348.313 166.922 364.462 189.275 371.543 Z" fill="#19FF00" transform="matrix(-1, 0, 0, -1, 345.306669, 717.275042)"/><path d="M170.494 98.01c-5.463-7.203-14.947-10.063-23.48-7.082-1.352.47-2.65 1.074-3.877 1.804-6.827-14.512-26.802-16.184-35.956-3.016-3.352 4.832-4.512 10.855-3.185 16.587-1.415.186-2.807.52-4.155.98-15.163 5.207-19.005 24.87-6.918 35.398 3.327 2.9 7.487 4.666 11.88 5.044-1.97 10.462 4.24 20.73 14.42 23.838 4.185 1.28 8.672 1.194 12.81-.24 5.58-1.94 10.09-6.137 12.42-11.568 5.19 2.824 11.33 3.328 16.913 1.398 4.137-1.434 7.715-4.144 10.21-7.742 6.072-8.74 4.592-20.65-3.432-27.646 7.742-7.296 8.756-19.255 2.35-27.755zm-30.725 48.24c-15.237 5.283-30.48-7.908-27.436-23.747 3.045-15.84 22.09-22.443 34.282-11.886 2.78 2.406 4.88 5.503 6.084 8.977 3.79 10.93-2 22.866-12.93 26.656z" fill="#FFF"/><ellipse transform="rotate(144.782 323.327 160.23)" cx="459.235" cy="297.399" rx="21.868" ry="21.868" fill="#EFE700"/><g transform="rotate(27.646 293.1 281.913)"><path d="M400.764 189.143c-6.013-7.927-16.45-11.074-25.843-7.793-1.486.515-2.914 1.182-4.264 1.985-7.514-15.972-29.5-17.812-39.574-3.32-3.69 5.32-4.967 11.948-3.506 18.256-1.558.205-3.09.572-4.573 1.08-16.688 5.73-20.917 27.372-7.615 38.958 3.663 3.19 8.242 5.135 13.077 5.55-2.17 11.515 4.665 22.818 15.868 26.236 4.607 1.41 9.546 1.315 14.1-.263 6.14-2.135 11.104-6.753 13.668-12.73 5.715 3.107 12.472 3.662 18.617 1.537 4.553-1.578 8.49-4.56 11.237-8.52 6.682-9.62 5.054-22.727-3.778-30.427 8.52-8.03 9.638-21.192 2.588-30.547zm-33.816 53.094c-16.77 5.814-33.546-8.704-30.195-26.137 3.352-17.432 24.314-24.7 37.73-13.08 3.06 2.647 5.372 6.056 6.697 9.88 4.17 12.03-2.2 25.166-14.232 29.337z" fill="#FFF"/><ellipse transform="rotate(144.782 449.512 250.804)" cx="505.43" cy="327.315" rx="24.068" ry="24.068" fill="#FF8247"/></g></svg>
