<svg viewBox="0 0 500 500" width="500" height="500" xmlns="http://www.w3.org/2000/svg"><rect x="0" y="0" width="500" height="500" fill="rgb(100, 113, 127)"/><polygon stroke-width="0" stroke="rgb(65, 83, 97)" paint-order="stroke" fill="rgb(65, 83, 97)" points="14.984 8.038 59.63 200.573 44.283 373.576 76.372 437.754 215.89 261.961 59.63 196.387 148.921 144.766 14.984 9.433 14.984 10.828"/><polyline paint-order="stroke" stroke-width="0" fill="rgb(41, 56, 73)" points="135.759 141.185 59.025 198.387 180.405 258.381 152.502 336.511 245.979 245.824 222.261 176.064 322.714 88.168 241.794 43.522 117.622 109.096 60.419 198.388" transform=""/><polygon stroke-width="0" fill="rgb(65, 83, 97)" points="387.498 -0.333 485.161 1.061 423.772 77.797 352.618 83.378 305.182 197.783 245.189 246.614 221.471 175.46"/><polygon stroke-width="0" fill="rgb(44, 61, 77)" points="499.112 1.062 480.975 1.062 423.772 76.402 436.329 243.824 454.466 310.792 404.24 393.108 433.539 446.125 294.02 497.747 499.112 500.537"/><polygon stroke-width="0" fill="rgb(65, 83, 97)" points="292.625 499.142 227.052 407.06 319.134 249.404 434.934 229.872 455.862 310.792 407.03 393.108 434.934 448.915"/><polygon stroke-width="0" fill="rgb(44, 61, 79)" points="228.447 405.665 309.367 499.142 65.21 499.142 55.444 465.658"/></svg>
