<svg viewBox="0 0 500 500" width="500" height="500" xmlns="http://www.w3.org/2000/svg"><path d="M.052 0h499.934v500H.052z" fill="#F9C301"/><ellipse transform="rotate(126.47 141.814 148.78)" cx="171.214" cy="143.929" rx="19.509" ry="19.509" fill="#E29E00"/><ellipse transform="rotate(126.47 180.588 199.14)" cx="171.214" cy="143.929" rx="19.509" ry="19.509" fill="#E29E00"/><ellipse transform="rotate(126.47 168.09 304.5)" cx="171.214" cy="143.929" rx="19.509" ry="19.509" fill="#E29E00"/><ellipse transform="rotate(126.47 253.713 196.663)" cx="171.214" cy="143.929" rx="19.509" ry="19.509" fill="#E29E00"/><ellipse transform="rotate(126.47 47.1 267.007)" cx="171.214" cy="143.929" rx="19.509" ry="19.509" fill="#E29E00"/><ellipse transform="rotate(126.47 189.515 88.985)" cx="171.214" cy="143.929" rx="19.509" ry="19.509" fill="#E29E00"/><ellipse transform="rotate(126.47 334.64 161.755)" cx="171.214" cy="143.929" rx="19.509" ry="19.509" fill="#E29E00"/><ellipse transform="rotate(126.47 239.267 272.804)" cx="171.214" cy="143.929" rx="19.509" ry="19.509" fill="#E29E00"/><ellipse transform="rotate(126.47 226.818 364.498)" cx="171.214" cy="143.929" rx="19.509" ry="19.509" fill="#E29E00"/><ellipse transform="rotate(126.47 111.505 315.75)" cx="171.214" cy="143.929" rx="19.509" ry="19.509" fill="#E29E00"/><ellipse transform="rotate(126.47 100.655 243.107)" cx="171.214" cy="143.929" rx="19.509" ry="19.509" fill="#E29E00"/><ellipse transform="rotate(126.47 79.015 178.286)" cx="171.214" cy="143.929" rx="19.509" ry="19.509" fill="#E29E00"/><ellipse transform="rotate(126.47 205.677 157.033)" cx="171.214" cy="143.929" rx="19.509" ry="19.509" fill="#E29E00"/><ellipse transform="rotate(126.47 294.554 242.077)" cx="171.214" cy="143.929" rx="19.509" ry="19.509" fill="#E29E00"/><ellipse transform="rotate(126.47 126.117 94.23)" cx="171.214" cy="143.929" rx="19.509" ry="19.509" fill="#E29E00"/><ellipse transform="rotate(126.47 185.36 251.603)" cx="171.214" cy="143.929" rx="19.509" ry="19.509" fill="#E29E00"/><ellipse transform="rotate(126.47 256.102 148.668)" cx="171.214" cy="143.929" rx="19.509" ry="19.509" fill="#E29E00"/><ellipse transform="rotate(126.47 221.353 315.108)" cx="171.214" cy="143.929" rx="19.509" ry="19.509" fill="#E29E00"/></svg>
