<svg width="67" height="91" viewBox="0 0 67 71" xmlns="http://www.w3.org/2000/svg"><g fill="none" fill-rule="evenodd"><path fill="#F05B29" d="M93.11 127.028c4.055.884 6.822 5.343 3.556 12.032-1.345 2.756-6.66 3.885-11.76 4.34-5.41.483-13.884-1.454-16.728-3.17-2.845-1.717-7.438-5.5-7.873-10.864-.164-2.01.647-4.356 1.697-5.023 1.72-1.09 3.97-.746 5.416.69 4.3 4.274 14.362 6.936 19.78 4.56l-5.115.688-6.997-1.246-5.585-2.416.22-3.92 1.523-3.394 4.767 4.474 6.816 2.454 10.283.798z"/><path fill="#F05B29" d="M62.365 81.716c-1.257-4.577-1.38-9.507-5.51-16.01-3.133-4.93-11.176-3.464-22.377-1.435-11.2-2.027-13.27-7.407-18.078-4.1-8.29 5.7-9.885 17.693-10.336 22.3-.338 3.453-2.206 7.95-3.244 10.284-.736 1.656-3.524 4.47-4.13 5.412-2.127 3.308-2.41 5.63-1.772 13.205 1.153 13.697 5.962 23.204 5.962 23.204l.8 6.768 9.88.477 20.918-.93 20.92.928 9.877-.476.8-6.767s4.81-9.507 5.963-23.203c.695-8.246-1.28-13.356-5.644-16.525-2.75-1.997-2.66-8.15-4.03-13.13"/><path fill="#131741" d="M55.397 142.44l-.027-.002-20.892-.926-20.892.926h-.057l-9.88-.475c-.3-.015-.55-.247-.586-.548l-.788-6.663c-.52-1.074-4.89-10.425-5.977-23.33-.656-7.772-.325-10.186 1.867-13.594.237-.37.715-.925 1.32-1.63.982-1.143 2.326-2.71 2.766-3.7 1.85-4.16 2.954-7.65 3.192-10.09 1.063-10.845 4.73-18.713 10.602-22.753 1.15-.79 2.206-1.16 3.324-1.16 1.55 0 3.043.723 4.93 1.64 2.42 1.17 5.43 2.628 10.178 3.502 5.58-1.01 10.4-1.882 14.237-1.882 4.342 0 7.093 1.15 8.66 3.616 3.17 4.99 4.033 9.108 4.793 12.74.25 1.197.488 2.328.794 3.44.444 1.617.735 3.34 1.016 5.005.57 3.38 1.11 6.575 2.778 7.787 4.717 3.427 6.592 8.855 5.9 17.082-1.088 12.905-5.46 22.256-5.98 23.33l-.787 6.663c-.036.3-.283.533-.586.548l-9.878.475h-.03m-20.92-2.172h.028l20.89.927 9.326-.448.74-6.246c.008-.073.03-.143.062-.21.048-.092 4.77-9.57 5.898-22.972.652-7.75-1.06-12.823-5.39-15.968-2.08-1.51-2.66-4.95-3.274-8.588-.276-1.635-.562-3.326-.99-4.88-.315-1.152-.555-2.3-.81-3.517-.74-3.528-1.577-7.526-4.625-12.325C54.997 63.938 52.65 63 48.72 63c-3.737 0-8.524.867-14.067 1.872l-.06.01c-.073.014-.15.014-.22 0-4.98-.9-8.23-2.476-10.606-3.627-1.814-.88-3.125-1.514-4.39-1.514-.856 0-1.69.3-2.622.94-5.56 3.828-9.043 11.384-10.068 21.85-.256 2.61-1.364 6.133-3.294 10.477-.515 1.156-1.87 2.735-2.96 4.005-.528.616-1.026 1.197-1.217 1.492-2.025 3.15-2.307 5.307-1.674 12.815 1.13 13.402 5.85 22.88 5.897 22.973.033.066.054.136.063.21l.74 6.245 9.323.448 20.89-.927h.028"/><path fill="#F05B29" d="M56.854 65.706c-1.15-2.648-4.46-6.446-5.838-9.117-1.038-1.88.67-3.516-1.61-3.29 0 0-3.317.996-4.603 1.222-1.264.34-5.506 3.532-7.02 4.098-1.85.68-3.903.227-5.844.227-.566 0-5.734-2.218-5.847-2.332-1.15-.882-8.598-2.76-8.846-2.105-.226.657-7.222 16.163-6.658 16.842.337.34 17.805 10.186 18.71 10.413.47.113 9.183 5.257 9.183 5.257.564.68 4.175-6.79 9.41-10.894 0 0 9.98 3.198 10.68 2.97 2.528-.927-.908-11.64-1.72-13.292"/><path fill="#EDA65B" d="M16.393 137.095s.81-2.63.678-4.825c-.67.56-2.685-.445-4.312-.866-.77-.2-10.185-1.572-11.78 3.317-1.31 4.01.36 5.784.647 6.357 1.166 2.325 5.36.62 5.36.62l1.06.222c1.657.343 3.367.325 5.015-.053l.214-.05s2.052-2.15 2.762-3.96c.096-.248.22-.503.357-.76z"/><path fill="#131741" d="M4.056 142.92c-1.82 0-2.628-.85-2.986-1.564-.022-.043-.075-.127-.13-.215-.537-.842-1.792-2.82-.554-6.61.607-1.86 2.587-4.076 8.575-4.076 1.97 0 3.61.26 3.954.348.493.128 1.01.305 1.513.475.78.265 1.585.538 2.064.538.144 0 .19-.026.19-.026.18-.15.427-.184.64-.09.216.092.358.3.37.534.133 2.183-.6 4.702-.695 5.017-.012.048-.03.095-.054.14-.14.26-.245.487-.326.693-.745 1.904-2.804 4.073-2.89 4.165-.085.088-.193.15-.31.176l-.216.05c-.905.208-1.835.313-2.763.313-.843 0-1.69-.087-2.515-.26l-.884-.182c-.462.167-1.72.577-2.98.577M8.96 131.7c-2.37 0-6.48.417-7.394 3.216-1.055 3.233-.06 4.802.42 5.556.077.12.142.225.192.324.11.218.442.88 1.878.88 1.304 0 2.683-.55 2.697-.556.114-.046.24-.057.358-.032l1.06.22c1.563.324 3.197.308 4.75-.05l.03-.006c.443-.485 1.95-2.197 2.51-3.624.09-.237.21-.488.356-.768.093-.32.593-2.1.645-3.802-.677-.008-1.53-.298-2.43-.604-.48-.163-.978-.33-1.427-.447-.262-.068-1.776-.308-3.64-.308"/><path fill="#131741" d="M5.598 139.38c-.075 0-.15-.012-.224-.04-.32-.125-.48-.486-.355-.806.4-1.037.317-1.69-.016-2.757-.102-.328.08-.677.408-.78.326-.102.675.08.777.41.395 1.27.51 2.217-.014 3.576-.096.247-.33.398-.58.398m4.88.477c-.09 0-.18-.02-.265-.06-.31-.147-.44-.52-.295-.83.756-1.6.278-2.595.1-2.97-.045-.092-.076-.163-.09-.21-.11-.326.068-.678.394-.786.32-.105.666.067.78.385.007.02.02.043.033.073.225.472.912 1.906-.096 4.042-.106.224-.33.356-.56.356"/><path fill="#EDA65B" d="M50.966 137.095s-.81-2.63-.68-4.825c.673.56 2.688-.445 4.315-.866.773-.2 10.187-1.572 11.783 3.317 1.308 4.01-.36 5.784-.648 6.357-1.166 2.325-5.36.62-5.36.62l-1.06.222c-1.656.343-3.367.325-5.015-.053l-.215-.05s-2.053-2.15-2.762-3.96c-.097-.248-.22-.503-.358-.76z"/><path fill="#131741" d="M63.303 142.922c-1.26 0-2.52-.41-2.98-.578l-.884.183c-1.737.36-3.553.342-5.28-.054l-.215-.05c-.118-.027-.225-.088-.31-.176-.087-.092-2.146-2.26-2.89-4.165-.082-.206-.19-.433-.328-.693-.024-.047-.042-.094-.055-.143-.096-.322-.826-2.836-.695-5.016.014-.233.158-.44.372-.533.213-.093.462-.057.643.093 0 0 .05.023.185.023.477 0 1.283-.273 2.062-.538.502-.17 1.02-.347 1.514-.474.344-.087 1.985-.345 3.95-.345 5.99 0 7.97 2.215 8.576 4.074 1.238 3.79-.017 5.77-.553 6.612-.057.09-.11.173-.13.216-.36.714-1.17 1.566-2.987 1.566m-2.93-1.847c.08 0 .158.015.233.045.013.005 1.393.557 2.697.557 1.435 0 1.768-.664 1.876-.88.05-.1.115-.205.192-.326.48-.754 1.476-2.324.42-5.557-.392-1.2-1.874-3.217-7.395-3.217-1.865 0-3.38.24-3.64.31-.45.115-.946.283-1.427.446-.902.306-1.755.596-2.432.604.053 1.703.552 3.482.645 3.802.147.28.264.53.356.768.56 1.43 2.067 3.14 2.51 3.624l.028.007c1.554.357 3.19.374 4.75.05l1.06-.22c.04-.01.083-.014.125-.014"/><path fill="#131741" d="M61.76 139.38c-.248 0-.483-.15-.578-.397-.525-1.36-.41-2.306-.014-3.577.102-.328.45-.51.778-.41.327.104.51.453.407.78-.333 1.07-.414 1.72-.014 2.758.122.32-.037.68-.356.805-.074.027-.15.04-.224.04m-4.878.475c-.233 0-.456-.132-.562-.357-1.01-2.137-.32-3.57-.095-4.043l.035-.077c.108-.327.457-.496.78-.388.327.108.5.468.394.794-.016.047-.047.118-.09.21-.18.375-.657 1.37.098 2.97.147.31.014.683-.295.83-.086.04-.177.06-.265.06"/><path fill="#EDA65B" d="M38.12 104.027c2.827-.428 4.236-5.77 6.733-4.85 2.496.917 4.49 1.046 4.49 1.046s1.165-3.027 3.14-3.074c1.973-.05 4.257 2.05 4.257 2.05l-1.753 7.453-2.598-4.197s-2.656 3.267-3.504 3.066c-.848-.2-2.205-1.496-3.238-1.74-1.033-.245-10.385 5.71-10.076 4.62.31-1.094 2.545-4.376 2.545-4.376m-.533 15.806c2.162-.093 3.324-3.583 5.21-2.795 1.887.79 3.404 1.012 3.404 1.012s.94-1.954 2.444-1.85c1.505.106 3.21 1.673 3.21 1.673l-1.46 4.885-1.91-3s-2.075 2.012-2.718 1.82c-.643-.194-1.655-1.158-2.437-1.393-.784-.235-8.008 3.12-7.754 2.41.253-.714 2.01-2.764 2.01-2.764m-6.926 2.804c-2.163-.092-3.325-3.583-5.21-2.795-1.887.79-3.405 1.013-3.405 1.013s-.937-1.953-2.442-1.848c-1.505.104-3.21 1.67-3.21 1.67l1.46 4.887 1.908-3s2.078 2.013 2.72 1.82c.643-.194 1.656-1.157 2.438-1.392.783-.235 8.007 3.122 7.753 2.41-.253-.713-2.01-2.764-2.01-2.764m.206-19.105c-3.07-.19-4.805-5.436-7.46-4.304-2.655 1.13-4.802 1.427-4.802 1.427s-1.378-2.94-3.51-2.823c-2.13.117-3.335.93-3.335.93l1.015 8.822 2.633-4.432s1.17 2.198 1.51 1.41c.46-1.076 1.92 1.516 2.39 1.375.907-.272 2.32-1.687 3.423-2.02.54-.162 6.886 5.248 5.633 2.68-.723-1.48 5.616 1.66 5.423 1.114-.377-1.073-2.92-4.18-2.92-4.18M22.88 57.48c-1.238 2.09-3.067 2.386-4.687 7.95-.693 2.38 3.528.587 3.808 1.266.28.68-3.683 10.962-.383 8.314.823-.66 2.518-1.898 3.74-2.78.7-.505 1.684-.186 1.954.634.93 2.822 2.84 8.354 3.79 9.267 1.285 1.235 2.684-4.94 3.115-2 .282 1.93 1.65-1.623 2.558-4.3.33-.977 1.657-1.102 2.164-.205l1.778 3.15s0-7.47 1.94-8.65c.695-.42 3.5 5.027 3.95 4.122.215-.43-.007-2.494-.3-4.548-.256-1.8 1.625-3.13 3.23-2.286 1.87.984 3.462 1.634 2.306.268-2.3-2.716-3.342-11.083-6.95-11.392-1.332-.114-4.29-2.647-4.29-2.647s-14.126-1.026-14.87 0c-.744 1.028-2.85 3.838-2.85 3.838m50.447 71.27c.285.11 6.557 3.307 6.15 3.716-.41.408-1.386.98-1.468 1.39-.083.408 1.874 2.72 2.28 3.322.408.602-.83 1.257-1.475 1.583-.643.327-3.452-.245-1.966 1.227 1.485 1.47 2.274 3.254 2.274 3.254s-.644-.05-1.765-.242c-1.12-.192-6.664-1.54-7.57-1.92-.904-.378-3.143-1.668-3.928-2.317-.784-.65-4.104-4.74-4.104-4.74s-1.47-3.21-1.558-3.93c-.088-.72.096-3.287.38-3.936.284-.648 3.41-2.448 3.41-2.448s.45-.835 2.222.57c1.773 1.406 5.96 4.43 5.96 4.43l1.156.047z"/><path fill="#A03922" d="M33.12 66.02s5.98-.452 7.11-1.765c5.505-6.43 10.786-7.968 10.786-7.968l-.812-1.652-17.197 3.304-15.842-3.216v1.766s4.13 1.427 9.77 7.856c1.13 1.358 6.072 1.675 6.185 1.675"/><path fill="#F05B29" d="M58.373 31.59c-.112 5.977-.902 12.18-4.017 17.386-1.376 2.33-1.94 4.096-4.13 5.75-1.85 1.335-5.98.543-8.96 2.987 0 0-4.13 3.532-7.695 3.328-3.45-.225-6.88-3.1-6.88-3.1-1.716-1.652-5.846-1.992-8.396-2.874-2.98-1.11-7.695-10.3-8.034-11.952l-.813-3.1c-1.037-2.424-1.264-5.097-2.527-7.52-.904-1.56-1.603-2.873-1.942-4.322-.7-3.328-1.49-6.77-2.076-10.074C1.862 13.12-.19 5.038 3.127.826c0 0 3.746-.86 10.45 6.203 3.226 2.874 6.43 8.307 10.448 9.846 0 0 1.377-1.426 2.19-2.762.902.77 2.64 1.766 4.017 1.562.902 0 1.602-.882 2.3-.882.566 0 1.49.543 1.717.543 2.412.996 2.3-1.11 3.676-.996 1.377 0 1.377 2.65 4.356.997l1.49-.114c3.79-3.984 11.35-14.17 17.805-12.72 5.732 1.425-1.038 23.7-2.98 29.11"/><g transform="translate(.317 .36)"><mask id="a" fill="#fff"><path d="M.35.26H64.3v61.27H.35z"/></mask><path fill="#131741" d="M63.924 4.68c-1.15-4.755-6.658-2.99-9.637-.997-2.64 1.765-4.942 4.097-7.018 6.43-.905.995-1.853 2.104-2.87 3.213l-1.15 1.335c.113-.11-.812.115-1.15.115-.813.113-1.377.77-2.19.453-.474-.226-.812-.68-1.15-.996-.7-.542-1.715-.542-2.415 0-.564.544-.903.997-1.85.77-.7-.226-1.377-.678-2.077-.77-.7-.112-1.264.34-1.716.544-1.377.883-3.227-.34-4.243-1.11-.338-.225-.81-.225-1.038.114-.564.883-1.038 1.562-1.715 2.332-3.092-1.562-5.28-4.436-7.357-6.972-1.94-2.218-4.13-4.21-6.318-6.09-1.038-.882-2.19-1.765-3.566-2.33C5.203.173 4.276.264 3.013.264c-1.038 0-1.49 1.562-1.85 2.33C.598 4.024.35 5.812.35 7.35c0 3.328.7 6.632 1.377 9.96.474 1.992.7 4.097 1.15 6.09.475 2.217.7 4.527 1.603 6.63.903 2.107 2.076 3.985 2.754 6.204.473 1.562 1.038 3.1 1.376 4.663.474 1.653.903 3.215 1.603 4.663 1.49 2.988 3.227 6.09 5.506 8.512 2.187 2.33 5.843 1.88 8.596 3.214 2.64 1.878 5.507 3.757 8.734 4.21 3.318.34 6.433-1.992 9.186-4.097 2.19-.998 4.604-.998 6.883-1.768 2.3-.77 3.564-3.327 4.602-5.206 1.602-2.874 2.866-5.546 3.678-8.737.68-2.65.95-5.366 1.085-8.106.022-.475.293-1.63.293-1.63 1.602-4.21 2.753-8.51 3.792-12.947 1.128-4.822 2.37-9.915 1.354-14.33m-1.15 5.864c-.227 2.76-.813 5.433-1.378 8.08-.903 4.1-2.076 8.083-3.452 12.067-.226.113-.52 1.833-.543 2.49-.133 2.445-.403 4.912-.945 7.357-.7 3.1-1.94 5.75-3.453 8.51-1.15 2.106-2.3 4.664-4.94 5.32-1.152.34-2.303.453-3.32.68 0-.453-.473-.77-.9-.453-1.04.68-3.32 2.333-3.32 2.423-2.188 1.562-4.603 2.988-7.22 2.875-1.942-.114-3.905-1.224-5.394-2.22-.475-.225-1.85-1.335-2.077-1.426-.902-.678-1.715-1.222-2.64-1.878-.474-.34-.903.113-.903.68-.903-.228-1.715-.34-2.528-.544-2.415-.543-3.68-2.332-5.056-4.324-2.19-3.214-3.678-6.542-4.694-10.3-.34-1.222-.813-2.422-1.152-3.757-.473-1.88-1.038-3.44-2.076-5.094-1.15-1.88-1.49-3.87-1.94-5.975-.474-1.99-.903-4.096-1.265-6.202-.564-3.102-1.263-6.09-1.602-9.305-.226-2.76-.226-5.862 1.377-8.307.7 0 1.376-.113 2.19.113 1.15.34 2.188 1.11 3.09 1.88 1.603 1.22 2.98 2.647 4.47 3.983 3.452 2.988 7.018 9.53 10.9 10.186.902-.77 1.6-1.653 2.3-2.65 1.04.68 2.077 1.223 3.32 1.337.698.113 1.263-.114 1.85-.453 1.037-.543 1.263-.453 2.3.113.904.453 1.942.543 2.754-.113.34-.227.7-.77 1.15-.77.34 0 .904.77 1.152.883.813.68 1.715.68 2.64.453.565-.112.813-.34 1.378-.452.338 0 .902 0 1.15-.226 1.94-2.106 3.792-4.324 5.733-6.316 2.187-2.332 4.692-4.663 7.806-5.863 1.85-.77 4.243-.996 5.055 1.11.633 1.878.408 4.074.18 6.09" mask="url(#a)"/></g><path fill="#EDA65B" d="M50.34 32.587c-.34-1.11-1.152-1.88-2.302-2.106-.903-.224-1.85 0-2.64-.11.112-.77.7-3.215-1.04-2.99-.902 0-1.85 2.65-2.414 3.33-.902 1.335-1.49.995-1.602-.544-.226-1.562.564-3.668-.7-3.984-.903-.113-1.602 1.653-1.94 2.762-.114.543-.7.996-.474-2.875 0-.997 0-3.668-.565-3.758h-.226c-1.602.113-2.753 6.316-3.226 8.08-.337-1.764-2.19-9.303-3.565-7.65-.338.996-.112 1.426-.225 2.422 0 .543-.114 4.323-.565 3.667-.226-1.11-1.49-3.33-2.19-2.99-1.263 1.11-.225 2.65-.563 4.213-.226 1.562-.813 1.878-1.603.452-.476-.68-1.265-3.327-2.19-3.44-1.603-.227-1.15 2.218-1.15 2.988-.814 0-1.717-.227-2.64-.114-1.153.226-1.943.882-2.417 1.99-.113.228 0 8.513 7.583 8.648 1.264 0 2.19-.112 3.227-.543.7-.226 1.264-.77 1.85-.34l7.81.544c.563-.454 1.15-.77 1.714-.545 1.038.453 2.528 1.223 3.792 1.223 3.903 0 7.355-1.562 8.484-5.094.36-.135-.113-3.01-.226-3.236"/><path fill="#FEFEFE" d="M18.45 33.81s4.83-.454 6.094.226c2.528 1.222 2.866 3.984 2.866 3.667 0 0-1.49.543-1.94.543-.813.113-1.85.226-2.416.226-3.904-.452-4.603-4.663-4.603-4.663m30.288.655s-4.694-.68-6.093-.114c-2.64 1.11-3.092 3.87-3.092 3.533 0 0 1.49.543 1.85.68 1.264.338 1.85.338 2.415.338 3.995-.225 4.92-4.435 4.92-4.435"/><path fill="#FEFEFE" d="M39.778 37.793c.338.113 1.49.543 1.85.68.903.226 1.49.34 2.077.34h.225c3.453-.114 4.604-3.668 4.694-4.21-.474-.115-2.528-.34-4.017-.34-.902 0-1.49.112-1.85.225-2.167.86-2.867 2.875-2.98 3.305"/><path fill="#F37740" d="M29.554 45.648c-.338-1.766.113-3.53.474-5.32 0 0 1.152-3.757 2.98-4.097 4.693-.88 5.168 9.53 5.168 9.53-5.53 2.447-8.622-.11-8.622-.11"/><path fill="#EDA65B" d="M46.097 46.983c-.34-.77-1.716-1.425-2.754-1.562-2.19-.224-9.636 1.428-9.636 1.428l-.023.068c-.97-.27-7.627-2.06-9.636-1.856-1.038.113-2.528.68-2.866 1.425-.565 1.11.113 2.56.7 3.758.7 1.336 2.302 3.328 3.904 4.324.7.453 1.376.68 2.076.68 5.732.112 6.093-3.306 6.093-3.193l.09-.588.023.022c.226 0-.474 3.532 5.168 3.532.7 0 1.376.226 2.076-.114 1.603-.996 3.318-2.874 4.017-4.21.54-1.154 1.352-2.49.766-3.713"/><path fill="#CF4B27" d="M29.442 45.874c.225-.68 4.603.114 4.603.114s3.792-.883 4.356.113c.115.228-.472.998-.472.998s-1.602-.113-1.94.226c-.475.453-.7 2.558-.565 2.558.113 0-.813 1.11-1.264 1.11-.34 0-1.378-.77-1.265-.883.113-.114-.113-2.33-.7-2.763-.338-.34-1.602.114-2.075-.113-.227-.362-.678-1.358-.678-1.358"/><path fill="#131741" d="M24.657 33.583c-.564-.227-1.49-.34-3.092-.34s-3.114.113-3.227.113h-.45v.453s.9 4.525 5.054 4.98c.113 0 1.94 0 2.64-.115.34-.113 2.19-.543 2.19-.543s0-3.44-3.115-4.55m.7 4.097c-.565.225-1.716.225-2.19.225-1.49-.113-2.64-.883-3.453-2.218-.36-.543-.586-1.11-.7-1.562.588 0 1.49-.113 2.64-.227.295 0 .52 0 .77.022-.114.883-.294 3.147.608 2.988.858-.158 1.06-1.88 1.13-2.716.066.023.112.045.134.045 1.602.77 2.302 2.308 2.527 2.987-.563.226-1.24.453-1.466.453m23.606-3.667c-.113 0-2.393-.34-4.243-.34-1.038 0-1.602.113-2.076.226-1.94.77-2.89 2.444-3.228 3.327l-.202 1.02 2.28.77c.9.225 1.6.338 2.188.338l.36-.022c4.13-.226 5.282-4.753 5.282-4.753l.112-.454-.473-.112zm-1.603 2.33c-.7 1.767-3.678 2.107-3.79 2.107-.475 0-1.152-.114-1.942-.34-.226-.113-.812-.317-1.376-.543.225-.68 1.038-2.105 2.64-2.762.023.86.203 2.512 1.038 2.67.813.16.79-1.968.722-2.896 1.264 0 2.73.112 3.52.225-.112.454-.586.884-.812 1.54z"/><path fill="#EDA65B" d="M13.035 40.555c.7 1.765 1.94 3.1 3.678 3.984 1.15.677 2.19-1.11 1.038-1.768-1.15-.656-2.187-1.562-2.64-2.76-.472-1.224-2.55-.68-2.074.542m37.53 3.984c1.264-.884 2.64-1.654 3.453-3.102.7-1.11-1.15-2.22-1.85-.996-.566.996-1.717 1.652-2.755 2.33-.474.34-.7.884-.338 1.427.225.475 1.038.678 1.49.34"/><path fill="#131741" d="M29.216 55.517c-.226 0-.474-.226-.474-.452 0-.227.113-.453.474-.453 4.13-.34 4.468-2.762 4.603-2.875 0-.226.224-.452.473-.34.225 0 .473.227.473.453 0 .113 0 2.423 4.356 2.558.226 0 .474.227.474.453 0 .23-.225.455-.474.455-2.19 0-3.678-.68-4.604-1.766-.113-.114-.226-.34-.226-.454-.835.974-2.212 2.196-5.078 2.422"/><path fill="#CF4B27" d="M38.288 46.214c.113.226-.474.996-.474.996s-1.602-.113-1.94.226c-.475.453-.7 2.558-.565 2.558.11 0-.814 1.11-1.266 1.11-.338 0-1.376-.77-1.263-.883.114-.11-.112-2.33-.7-2.76-.337-.34-1.6.113-2.075-.113-.34-.113-.7-1.11-.7-1.11"/><path fill="#131741" d="M34.045 51.533c-.564 0-1.85-1.426-1.715-1.562 0-.45-.226-1.99-.473-2.33h-.813c-.474 0-.903.114-1.15-.113-.475-.225-.814-.996-.904-1.335-.112-.225 0-.45.226-.542.226-.113.474 0 .564.226.113.453.474.883.564.883h.7c.564 0 1.038-.114 1.376.225.7.543.813 2.422.813 2.558v.454c.226.227.564.453.812.543.226-.113.565-.543.813-.77 0-.226 0-.542.113-1.108.227-1.224.566-1.563.7-1.654.34-.34 1.378-.34 2.078-.34.113-.226.225-.34.225-.452 0-.227 0-.34.226-.453.225-.112.473-.112.563.114.113.113.338.544-.564 1.562-.114.112-.227.226-.34.112-.7 0-1.49 0-1.602.113-.226.226-.474 1.562-.474 1.992v.226c-.135.318-1.06 1.54-1.738 1.653"/><path fill="#FEFEFE" d="M8.905 31.817c1.94-1.766 3.092-5.636 3.565-8.738-.112.45 3.318.54 5.28-1.564 1.378-1.426.565-2.557-.224-4.323-2.19-4.528-5.845-8.08-9.41-11.41-.904-.882-1.852-3.1-3.454-2.557-1.264.453-1.15 4.097-.903 5.207 1.353 9.552 5.144 23.383 5.144 23.383m47.64-.996c-1.85-1.765-3.79-5.432-4.13-8.42 0 .453-3.317.453-5.167-1.652-1.264-1.426-.475-2.422.473-3.984 2.416-4.098 6.208-7.312 9.864-10.413 1.038-.767 2.076-1.877 3.565-1.22 1.262.543.9 2.988.7 3.984-1.875 10.64-5.306 21.708-5.306 21.708"/><path fill="#EF652A" d="M56.77 16.424c-2.526.657-5.28 2.083-6.498 4.46-.542-2.807 2.1-5.954 4.332-7.448.7-.453 0-1.562-.7-1.11-2.752 1.993-5.64 5.75-4.828 9.19.113.386.473.477.767.43l-.09.364c-.113.77 1.15 1.11 1.263.34.564-2.763 3.453-4.324 6.094-4.98.812-.25.45-1.472-.34-1.246m-46.037-2.988c-.7-.453-1.264.543-.7 1.11 1.83 1.29 4.04 3.915 4.333 6.337-1.196-2.376-3.88-3.802-6.5-4.46-.812-.225-1.15.997-.338 1.224 2.64.68 5.507 2.218 6.094 4.98.135.475.676.543.993.34.316.203.812.135.947-.34.903-3.44-2.076-7.312-4.83-9.19"/><path fill="#131741" d="M17.052 15.315c-1.94-3.327-4.695-6.09-7.47-8.737L6.602 3.25c-.563-.543-1.714-.77-2.414-.113-1.49 1.335-1.15 4.21-.903 5.976.474 3.44 1.15 6.768 1.94 10.073.904 4.323 1.942 8.51 3.093 12.72 0 .228.226.34.34.34.112.114.337 0 .563-.112 2.19-2.105 3.093-5.32 3.568-8.307 1.376.225 3.678-.77 4.242-1.11 3.362-1.878 1.51-4.957.022-7.402m-.813 6.882c-.566.34-1.265.543-1.943.68-.225 0-1.263 0-1.263.112-.113-.455-.903-.546-1.038 0-.474 2.646-1.15 5.634-2.866 7.74-1.94-7.2-3.678-14.6-4.83-21.936-.224-1.22-.337-6.632 1.942-4.323l2.19 2.56c1.037.995 2.075 2.104 3.09 3.1 2.19 2.22 4.018 4.754 5.395 7.515.338.68.7 1.223.812 1.88.584 1.108-.566 2.104-1.49 2.67M59.884 4.36c-1.04.112-1.94.882-2.64 1.56-1.377 1.223-2.754 2.333-4.13 3.532-2.53 2.332-4.605 4.867-6.32 7.742-1.376 2.332-.226 4.21 2.19 5.32.473.226 2.076.77 3.09.678.565 2.988 2.078 5.863 4.13 7.968.227.114.34.114.565.114.114 0 .227-.114.34-.34 1.263-3.984 2.3-8.08 3.317-12.178.813-3.328 1.603-6.86 2.076-10.3.136-1.88 0-4.21-2.617-4.097m1.466 3.87c-.473 4.98-1.94 10.072-3.226 14.96-.565 2.22-1.152 4.438-1.85 6.544-1.852-2.106-2.98-4.754-3.454-7.516-.113-.544-.903-.454-1.038 0 .113-.34.226-.227-.226-.114-.474 0-.903-.113-1.376-.226-1.264-.34-3.092-1.223-3.228-2.65-.113-.995 1.038-2.33 1.602-3.213.813-1.223 1.716-2.332 2.64-3.44 1.716-1.88 3.567-3.44 5.507-5.094.813-.68 1.603-1.425 2.64-1.99 2.145-1.13 2.145 1.652 2.01 2.74"/><path fill="#EF652A" d="M17.278 54.612c-2.077 6.542-6.32 10.3-7.11 17.068"/><path fill="#131741" d="M16.6 54.52c-1.94 5.978-6.318 10.844-7.108 17.16-.113.77.767 2.377 1.263 0 .813-6.202 5.28-11.07 7.11-16.842.202-.77-1.04-1.086-1.265-.317m33.288.66c2.415 5.432 6.093 10.186 7.583 15.935.227.77 1.67.43 1.56-.34-1.49-5.862-5.575-10.73-8.103-16.252-.248-.68-1.4-.114-1.038.656M36.18 143.31c-.317 0-.588-.245-.617-.57-.01-.1-.917-10.332-.998-20.612l-.036-4.083c-.055-5.814-.095-10.014.09-11.187.015-.08.037-.27.067-.528.313-2.677.62-4.588 1.093-5.21 1.9-2.497 2.104-10.12 2.17-12.627.018-.61.026-.91.044-1.073.038-.342.34-.59.685-.55.34.037.585.346.547.687-.013.118-.024.512-.036.97-.13 4.903-.525 10.852-2.425 13.35-.168.226-.45 1.21-.847 4.598-.034.283-.06.49-.073.58-.17 1.068-.13 5.44-.078 10.977.012 1.29.025 2.66.036 4.086.08 10.23.984 20.41.993 20.51.03.343-.22.645-.563.676l-.056.003"/><path fill="#131741" d="M50.97 135.344c-.266 0-.512-.172-.594-.44-.034-.113-.848-2.843-.87-8.818-.024-6.707 2.662-14.783 4.44-20.127.503-1.517.938-2.825 1.203-3.78 2.77-10.023 4.004-28.913 2.16-33.134-.14-.315.004-.682.32-.82.31-.138.677.005.815.32 1.963 4.49.784 23.538-2.1 33.966-.275.987-.714 2.31-1.223 3.84-1.752 5.266-4.4 13.226-4.376 19.73.022 5.758.808 8.43.816 8.457.1.33-.085.675-.413.776-.06.018-.12.027-.18.027m-18.94 6.976c-.014 0-.027 0-.04-.003-.34-.02-.6-.316-.58-.66.01-.183 1.146-18.41 1.16-18.665.093-1.606.07-2.243.04-3.048-.02-.542-.044-1.155-.036-2.164l.01-1.347c.054-6.303.113-13.445-.477-14.41-1.39-2.276-2.055-8.888-2.435-13.663-.03-.396-.053-.675-.067-.803-.038-.342.207-.65.548-.688.34-.036.648.207.686.55.013.133.037.425.07.84.57 7.184 1.33 11.596 2.256 13.11.74 1.21.734 6.258.66 15.07l-.01 1.35c-.008.98.014 1.58.034 2.107.03.806.057 1.5-.04 3.166-.014.26-1.115 17.92-1.16 18.672-.022.33-.295.584-.62.584m-15.994-3.843c-.052 0-.106-.007-.16-.02-.33-.09-.528-.43-.44-.762.013-.053 1.396-5.365 1.417-11.16.02-5.282-1.99-11.66-3.604-16.786-.954-3.023-1.775-5.63-1.958-7.338-.335-3.14-.75-5.934-1.15-8.635C8.75 84.412 7.65 77.013 11.474 64.95c.104-.326.452-.507.78-.403.326.104.507.454.403.782C8.92 77.113 10 84.386 11.367 93.593c.405 2.713.82 5.518 1.16 8.686.17 1.583.974 4.137 1.905 7.095 1.64 5.208 3.682 11.69 3.662 17.164-.022 5.96-1.4 11.25-1.46 11.473-.072.28-.324.464-.598.464"/><path fill="#EDA65B" d="M33.17 136.88c-1.69-3.983-5.28-1.432-6.407-2.035-1.7-.91-1.973-1.597-4.11-1.485-2.14.112-2.832.98-3.873 1.182-.338.066-1.63-.403-2.3-.176-1.538.52-2.727 1.553-3.036 3.59-.083.552-.015 2.845.047 3.4l.363 2.006s.182 1.082 1.73 1.368c2.384.44 3.56-.673 3.56-.673s1.576 1.683 4.977.81c.735-.188 1.07-.787 1.5-.777.41.01.834.584 1.645.74 1.64.318 3.262.343 4.2-.163 1.16-.627 1.443-1.86 1.443-1.86s.9-4.423.263-5.926"/><path fill="#131741" d="M22.25 145.74c-1.568 0-2.605-.534-3.138-.906-.465.274-1.284.62-2.448.62-.386 0-.788-.037-1.195-.112-1.954-.36-2.22-1.814-2.23-1.876l-.36-2-.007-.04c-.062-.553-.14-2.912-.043-3.564.31-2.04 1.47-3.415 3.452-4.086.19-.064.403-.095.656-.095.422 0 .882.09 1.253.164.183.035.407.08.5.083.29-.06.56-.194.905-.36.686-.335 1.54-.75 3.026-.828.167-.01.32-.014.467-.014 1.447 0 2.1.418 2.925.946.295.19.628.403 1.045.626 0 0 .047.025.194.025.25 0 .606-.067.98-.138.54-.1 1.148-.216 1.787-.216 1.744 0 2.963.873 3.726 2.67.693 1.634-.13 5.823-.227 6.296-.017.075-.363 1.53-1.758 2.283-.573.31-1.353.465-2.317.465-.696 0-1.467-.08-2.29-.24-.56-.108-.965-.367-1.26-.556-.09-.06-.208-.134-.275-.165-.06.033-.164.11-.243.17-.253.19-.602.452-1.097.578-.7.18-1.38.27-2.024.27m-3.106-2.303c.165 0 .33.064.45.193.03.03.868.866 2.656.866.54 0 1.117-.08 1.715-.23.257-.068.454-.216.663-.373.267-.2.57-.427.98-.427h.026c.36.01.646.192.923.37.246.157.5.32.826.383.736.142 1.448.217 2.057.217.746 0 1.344-.11 1.73-.318.89-.48 1.13-1.44 1.133-1.45.33-1.625.706-4.582.297-5.545-.72-1.696-1.76-1.914-2.584-1.914-.523 0-1.07.104-1.555.195-.434.082-.845.16-1.21.16-.31 0-.564-.055-.78-.17-.46-.247-.813-.474-1.126-.674-.756-.484-1.173-.75-2.257-.75-.126 0-.26.004-.4.01-1.236.066-1.935.406-2.552.706-.4.194-.778.378-1.236.467-.235.046-.533-.008-.945-.088-.335-.066-.714-.14-1.016-.14-.15 0-.227.02-.26.03-1.548.523-2.38 1.506-2.62 3.093-.07.456-.018 2.612.047 3.217l.357 1.985c.013.06.18.67 1.23.865.334.062.66.093.97.093 1.362 0 2.03-.586 2.057-.61.12-.11.273-.163.424-.163"/><path fill="#EDA65B" d="M22.526 139.06c-.393.227-.532 2.333.094 3.27"/><path fill="#131741" d="M22.62 142.952c-.2 0-.396-.098-.516-.276-.606-.907-.613-2.455-.425-3.265.102-.45.28-.74.535-.89.298-.17.677-.067.848.23.15.26.09.588-.13.78-.165.363-.216 1.83.2 2.453.192.286.116.673-.17.864-.105.07-.225.106-.344.106"/><path fill="#EDA65B" d="M28.737 139.476c-.6.81-.38 2.46 0 3.2"/><path fill="#131741" d="M28.737 143.298c-.225 0-.442-.123-.552-.337-.47-.91-.72-2.81.053-3.854.205-.276.594-.333.87-.13.274.206.33.596.127.872-.408.552-.26 1.934.054 2.543.154.307.035.68-.27.84-.09.047-.188.07-.284.07"/><path fill="#EDA65B" d="M16.71 139.06c-.36.638-.33 1.955 0 3.38"/><path fill="#131741" d="M16.71 143.063c-.282 0-.537-.195-.604-.482-.183-.79-.545-2.747.065-3.826.17-.3.55-.403.848-.234.298.168.402.548.234.848-.217.384-.28 1.44.065 2.93.078.335-.13.67-.464.75-.046.01-.093.015-.14.015"/><path fill="#EDA65B" d="M35.02 136.88c1.69-3.983 5.28-1.432 6.407-2.035 1.7-.91 1.973-1.597 4.11-1.485 2.14.112 2.832.98 3.873 1.182.338.066 1.63-.403 2.3-.176 1.538.52 2.727 1.553 3.036 3.59.083.552.015 2.845-.047 3.4l-.363 2.006s-.182 1.082-1.73 1.368c-2.384.44-3.56-.673-3.56-.673s-1.577 1.683-4.977.81c-.735-.188-1.07-.787-1.5-.777-.41.01-.834.584-1.646.74-1.64.318-3.26.343-4.198-.163-1.162-.627-1.444-1.86-1.444-1.86s-.9-4.423-.263-5.926"/><path fill="#131741" d="M45.94 145.74c-.643 0-1.324-.09-2.023-.27-.496-.126-.844-.388-1.098-.58-.08-.057-.185-.135-.245-.168-.067.03-.185.106-.275.164-.295.19-.7.448-1.257.556-.826.16-1.597.24-2.294.24-.965 0-1.745-.157-2.32-.467-1.393-.752-1.74-2.207-1.754-2.27-.1-.485-.922-4.674-.23-6.308.763-1.797 1.982-2.672 3.726-2.672.64 0 1.248.116 1.785.217.377.07.734.14.982.14.147 0 .193-.026.193-.026.417-.223.75-.436 1.045-.625.825-.526 1.478-.944 2.923-.944.147 0 .3.004.468.013 1.485.077 2.34.492 3.027.826.343.167.616.3.905.36.093-.003.316-.047.497-.082.37-.072.83-.162 1.252-.162.252 0 .466.032.654.096 1.982.67 3.143 2.045 3.452 4.086.098.652.017 3.012-.045 3.564 0 .013-.003.027-.004.04l-.36 2.007c-.01.055-.277 1.508-2.23 1.87-.407.074-.808.113-1.194.113-1.165 0-1.984-.348-2.45-.622-.53.372-1.57.907-3.135.907m-3.36-2.273c.413 0 .715.227.982.427.207.157.404.304.66.37.6.154 1.178.232 1.718.232 1.79 0 2.627-.836 2.662-.87.236-.244.628-.256.874-.023.022.02.69.606 2.05.606.31 0 .636-.03.97-.093 1.05-.194 1.217-.804 1.233-.874l.354-1.976c.06-.58.117-2.768.05-3.217-.24-1.587-1.075-2.57-2.62-3.094-.035-.01-.11-.03-.26-.03-.303 0-.683.073-1.018.14-.41.08-.708.133-.944.086-.456-.09-.835-.273-1.235-.467-.617-.3-1.315-.64-2.55-.706-.143-.007-.276-.01-.402-.01-1.082 0-1.5.267-2.255.75-.313.2-.668.428-1.127.675-.216.114-.47.17-.78.17-.364 0-.776-.078-1.212-.16-.483-.09-1.03-.195-1.555-.195-.823 0-1.862.22-2.582 1.915-.41.964-.033 3.92.3 5.558 0 0 .246.96 1.13 1.436.386.207.984.317 1.73.317.61 0 1.32-.074 2.058-.217.325-.064.58-.226.825-.383.278-.178.564-.36.923-.37h.025"/><path fill="#EDA65B" d="M45.664 139.06c.393.227.53 2.333-.094 3.27"/><path fill="#131741" d="M45.57 142.952c-.12 0-.24-.035-.345-.106-.285-.19-.36-.578-.17-.864.417-.624.366-2.09.2-2.453-.22-.194-.28-.52-.13-.78.172-.3.55-.4.848-.23.257.15.434.44.538.89.19.81.183 2.36-.423 3.265-.12.178-.317.276-.517.276"/><path fill="#EDA65B" d="M39.453 139.476c.6.81.38 2.46 0 3.2"/><path fill="#131741" d="M39.453 143.298c-.096 0-.193-.022-.284-.07-.307-.157-.426-.532-.27-.838.313-.61.462-1.99.054-2.543-.204-.276-.147-.666.128-.87.275-.205.664-.148.87.128.772 1.044.52 2.943.052 3.856-.11.216-.328.34-.552.34"/><path fill="#EDA65B" d="M51.48 139.06c.36.638.33 1.955 0 3.38"/><path fill="#131741" d="M51.48 143.063c-.047 0-.094-.006-.142-.016-.333-.08-.54-.414-.464-.748.346-1.494.282-2.55.065-2.933-.17-.3-.067-.68.232-.85.298-.17.677-.064.846.235.61 1.08.247 3.037.063 3.828-.065.288-.32.483-.602.483m31.46 1.033c-5.352 0-12.553-1.692-15.272-3.334-1.79-1.08-7.664-5.087-8.172-11.345-.182-2.238.727-4.802 1.984-5.6 1.912-1.213 4.512-.887 6.185.775 4.345 4.318 14.16 6.596 19.092 4.43.315-.137.68.006.818.32.137.316-.005.683-.32.82-5.884 2.582-16.17-.418-20.464-4.686-1.265-1.257-3.22-1.513-4.648-.606-.78.494-1.564 2.543-1.41 4.446.46 5.668 5.914 9.378 7.575 10.38 2.59 1.563 10.946 3.567 16.352 3.085 6.366-.567 10.26-1.95 11.26-3.992 1.516-3.11 1.783-6 .75-8.14-.75-1.56-2.13-2.63-3.884-3.01-.946-.206-2.19-.21-3.628-.212-4.806-.01-12.066-.026-18.656-8.027-.218-.266-.18-.658.083-.877.264-.22.655-.182.874.083 6.22 7.55 12.855 7.564 17.7 7.575 1.51.004 2.815.007 3.89.24 2.102.46 3.83 1.8 4.74 3.684 1.2 2.492.932 5.77-.758 9.23-1.216 2.494-5.342 4.07-12.264 4.688-.577.052-1.19.076-1.83.076"/><path fill="#F05B29" d="M58.373 31.59c-.112 5.977-.902 12.18-4.017 17.386-1.376 2.33-1.94 4.096-4.13 5.75-1.85 1.335-5.98.543-8.96 2.987 0 0-4.13 3.532-7.695 3.328-3.45-.225-6.88-3.1-6.88-3.1-1.716-1.652-5.846-1.992-8.396-2.874-2.98-1.11-7.695-10.3-8.034-11.952l-.813-3.1c-1.037-2.424-1.264-5.097-2.527-7.52-.904-1.56-1.603-2.873-1.942-4.322-.7-3.328-1.49-6.77-2.076-10.074C1.862 13.12-.19 5.038 3.127.826c0 0 3.746-.86 10.45 6.203 3.226 2.874 6.43 8.307 10.448 9.846 0 0 1.377-1.426 2.19-2.762.902.77 2.64 1.766 4.017 1.562.902 0 1.602-.882 2.3-.882.566 0 1.49.543 1.717.543 2.412.996 2.3-1.11 3.676-.996 1.377 0 1.377 2.65 4.356.997l1.49-.114c3.79-3.984 11.35-14.17 17.805-12.72 5.732 1.425-1.038 23.7-2.98 29.11"/><g transform="translate(.317 .36)"><mask id="b" fill="#fff"><path d="M.35.26H64.3v61.27H.35z"/></mask><path fill="#131741" d="M63.924 4.68c-1.15-4.755-6.658-2.99-9.637-.997-2.64 1.765-4.942 4.097-7.018 6.43-.905.995-1.853 2.104-2.87 3.213l-1.15 1.335c.113-.11-.812.115-1.15.115-.813.113-1.377.77-2.19.453-.474-.226-.812-.68-1.15-.996-.7-.542-1.715-.542-2.415 0-.564.544-.903.997-1.85.77-.7-.226-1.377-.678-2.077-.77-.7-.112-1.264.34-1.716.544-1.377.883-3.227-.34-4.243-1.11-.338-.225-.81-.225-1.038.114-.564.883-1.038 1.562-1.715 2.332-3.092-1.562-5.28-4.436-7.357-6.972-1.94-2.218-4.13-4.21-6.318-6.09-1.038-.882-2.19-1.765-3.566-2.33C5.203.173 4.276.264 3.013.264c-1.038 0-1.49 1.562-1.85 2.33C.598 4.024.35 5.812.35 7.35c0 3.328.7 6.632 1.377 9.96.474 1.992.7 4.097 1.15 6.09.475 2.217.7 4.527 1.603 6.63.903 2.107 2.076 3.985 2.754 6.204.473 1.562 1.038 3.1 1.376 4.663.474 1.653.903 3.215 1.603 4.663 1.49 2.988 3.227 6.09 5.506 8.512 2.187 2.33 5.843 1.88 8.596 3.214 2.64 1.878 5.507 3.757 8.734 4.21 3.318.34 6.433-1.992 9.186-4.097 2.19-.998 4.604-.998 6.883-1.768 2.3-.77 3.564-3.327 4.602-5.206 1.602-2.874 2.866-5.546 3.678-8.737.68-2.65.95-5.366 1.085-8.106.022-.475.293-1.63.293-1.63 1.602-4.21 2.753-8.51 3.792-12.947 1.128-4.822 2.37-9.915 1.354-14.33m-1.15 5.864c-.227 2.76-.813 5.433-1.378 8.08-.903 4.1-2.076 8.083-3.452 12.067-.226.113-.52 1.833-.543 2.49-.133 2.445-.403 4.912-.945 7.357-.7 3.1-1.94 5.75-3.453 8.51-1.15 2.106-2.3 4.664-4.94 5.32-1.152.34-2.303.453-3.32.68 0-.453-.473-.77-.9-.453-1.04.68-3.32 2.333-3.32 2.423-2.188 1.562-4.603 2.988-7.22 2.875-1.942-.114-3.905-1.224-5.394-2.22-.475-.225-1.85-1.335-2.077-1.426-.902-.678-1.715-1.222-2.64-1.878-.474-.34-.903.113-.903.68-.903-.228-1.715-.34-2.528-.544-2.415-.543-3.68-2.332-5.056-4.324-2.19-3.214-3.678-6.542-4.694-10.3-.34-1.222-.813-2.422-1.152-3.757-.473-1.88-1.038-3.44-2.076-5.094-1.15-1.88-1.49-3.87-1.94-5.975-.474-1.99-.903-4.096-1.265-6.202-.564-3.102-1.263-6.09-1.602-9.305-.226-2.76-.226-5.862 1.377-8.307.7 0 1.376-.113 2.19.113 1.15.34 2.188 1.11 3.09 1.88 1.603 1.22 2.98 2.647 4.47 3.983 3.452 2.988 7.018 9.53 10.9 10.186.902-.77 1.6-1.653 2.3-2.65 1.04.68 2.077 1.223 3.32 1.337.698.113 1.263-.114 1.85-.453 1.037-.543 1.263-.453 2.3.113.904.453 1.942.543 2.754-.113.34-.227.7-.77 1.15-.77.34 0 .904.77 1.152.883.813.68 1.715.68 2.64.453.565-.112.813-.34 1.378-.452.338 0 .902 0 1.15-.226 1.94-2.106 3.792-4.324 5.733-6.316 2.187-2.332 4.692-4.663 7.806-5.863 1.85-.77 4.243-.996 5.055 1.11.633 1.878.408 4.074.18 6.09" mask="url(#b)"/></g><path fill="#EDA65B" d="M50.34 32.587c-.34-1.11-1.152-1.88-2.302-2.106-.903-.224-1.85 0-2.64-.11.112-.77.7-3.215-1.04-2.99-.902 0-1.85 2.65-2.414 3.33-.902 1.335-1.49.995-1.602-.544-.226-1.562.564-3.668-.7-3.984-.903-.113-1.602 1.653-1.94 2.762-.114.543-.7.996-.474-2.875 0-.997 0-3.668-.565-3.758h-.226c-1.602.113-2.753 6.316-3.226 8.08-.337-1.764-2.19-9.303-3.565-7.65-.338.996-.112 1.426-.225 2.422 0 .543-.114 4.323-.565 3.667-.226-1.11-1.49-3.33-2.19-2.99-1.263 1.11-.225 2.65-.563 4.213-.226 1.562-.813 1.878-1.603.452-.476-.68-1.265-3.327-2.19-3.44-1.603-.227-1.15 2.218-1.15 2.988-.814 0-1.717-.227-2.64-.114-1.153.226-1.943.882-2.417 1.99-.113.228 0 8.513 7.583 8.648 1.264 0 2.19-.112 3.227-.543.7-.226 1.264-.77 1.85-.34l7.81.544c.563-.454 1.15-.77 1.714-.545 1.038.453 2.528 1.223 3.792 1.223 3.903 0 7.355-1.562 8.484-5.094.36-.135-.113-3.01-.226-3.236"/><path fill="#FEFEFE" d="M18.45 33.81s4.83-.454 6.094.226c2.528 1.222 2.866 3.984 2.866 3.667 0 0-1.49.543-1.94.543-.813.113-1.85.226-2.416.226-3.904-.452-4.603-4.663-4.603-4.663m30.288.655s-4.694-.68-6.093-.114c-2.64 1.11-3.092 3.87-3.092 3.533 0 0 1.49.543 1.85.68 1.264.338 1.85.338 2.415.338 3.995-.225 4.92-4.435 4.92-4.435"/><path fill="#FEFEFE" d="M39.778 37.793c.338.113 1.49.543 1.85.68.903.226 1.49.34 2.077.34h.225c3.453-.114 4.604-3.668 4.694-4.21-.474-.115-2.528-.34-4.017-.34-.902 0-1.49.112-1.85.225-2.167.86-2.867 2.875-2.98 3.305"/><path fill="#F37740" d="M29.554 45.648c-.338-1.766.113-3.53.474-5.32 0 0 1.152-3.757 2.98-4.097 4.693-.88 5.168 9.53 5.168 9.53-5.53 2.447-8.622-.11-8.622-.11"/><path fill="#EDA65B" d="M46.097 46.983c-.34-.77-1.716-1.425-2.754-1.562-2.19-.224-9.636 1.428-9.636 1.428l-.023.068c-.97-.27-7.627-2.06-9.636-1.856-1.038.113-2.528.68-2.866 1.425-.565 1.11.113 2.56.7 3.758.7 1.336 2.302 3.328 3.904 4.324.7.453 1.376.68 2.076.68 5.732.112 6.093-3.306 6.093-3.193l.09-.588.023.022c.226 0-.474 3.532 5.168 3.532.7 0 1.376.226 2.076-.114 1.603-.996 3.318-2.874 4.017-4.21.54-1.154 1.352-2.49.766-3.713"/><path fill="#CF4B27" d="M29.442 45.874c.225-.68 4.603.114 4.603.114s3.792-.883 4.356.113c.115.228-.472.998-.472.998s-1.602-.113-1.94.226c-.475.453-.7 2.558-.565 2.558.113 0-.813 1.11-1.264 1.11-.34 0-1.378-.77-1.265-.883.113-.114-.113-2.33-.7-2.763-.338-.34-1.602.114-2.075-.113-.227-.362-.678-1.358-.678-1.358"/><path fill="#131741" d="M24.657 33.583c-.564-.227-1.49-.34-3.092-.34s-3.114.113-3.227.113h-.45v.453s.9 4.525 5.054 4.98c.113 0 1.94 0 2.64-.115.34-.113 2.19-.543 2.19-.543s0-3.44-3.115-4.55m.7 4.097c-.565.225-1.716.225-2.19.225-1.49-.113-2.64-.883-3.453-2.218-.36-.543-.586-1.11-.7-1.562.588 0 1.49-.113 2.64-.227.295 0 .52 0 .77.022-.114.883-.294 3.147.608 2.988.858-.158 1.06-1.88 1.13-2.716.066.023.112.045.134.045 1.602.77 2.302 2.308 2.527 2.987-.563.226-1.24.453-1.466.453m23.606-3.667c-.113 0-2.393-.34-4.243-.34-1.038 0-1.602.113-2.076.226-1.94.77-2.89 2.444-3.228 3.327l-.202 1.02 2.28.77c.9.225 1.6.338 2.188.338l.36-.022c4.13-.226 5.282-4.753 5.282-4.753l.112-.454-.473-.112zm-1.603 2.33c-.7 1.767-3.678 2.107-3.79 2.107-.475 0-1.152-.114-1.942-.34-.226-.113-.812-.317-1.376-.543.225-.68 1.038-2.105 2.64-2.762.023.86.203 2.512 1.038 2.67.813.16.79-1.968.722-2.896 1.264 0 2.73.112 3.52.225-.112.454-.586.884-.812 1.54z"/><path fill="#EDA65B" d="M13.035 40.555c.7 1.765 1.94 3.1 3.678 3.984 1.15.677 2.19-1.11 1.038-1.768-1.15-.656-2.187-1.562-2.64-2.76-.472-1.224-2.55-.68-2.074.542m37.53 3.984c1.264-.884 2.64-1.654 3.453-3.102.7-1.11-1.15-2.22-1.85-.996-.566.996-1.717 1.652-2.755 2.33-.474.34-.7.884-.338 1.427.225.475 1.038.678 1.49.34"/><path fill="#131741" d="M29.216 55.517c-.226 0-.474-.226-.474-.452 0-.227.113-.453.474-.453 4.13-.34 4.468-2.762 4.603-2.875 0-.226.224-.452.473-.34.225 0 .473.227.473.453 0 .113 0 2.423 4.356 2.558.226 0 .474.227.474.453 0 .23-.225.455-.474.455-2.19 0-3.678-.68-4.604-1.766-.113-.114-.226-.34-.226-.454-.835.974-2.212 2.196-5.078 2.422"/><path fill="#CF4B27" d="M38.288 46.214c.113.226-.474.996-.474.996s-1.602-.113-1.94.226c-.475.453-.7 2.558-.565 2.558.11 0-.814 1.11-1.266 1.11-.338 0-1.376-.77-1.263-.883.114-.11-.112-2.33-.7-2.76-.337-.34-1.6.113-2.075-.113-.34-.113-.7-1.11-.7-1.11"/><path fill="#131741" d="M34.045 51.533c-.564 0-1.85-1.426-1.715-1.562 0-.45-.226-1.99-.473-2.33h-.813c-.474 0-.903.114-1.15-.113-.475-.225-.814-.996-.904-1.335-.112-.225 0-.45.226-.542.226-.113.474 0 .564.226.113.453.474.883.564.883h.7c.564 0 1.038-.114 1.376.225.7.543.813 2.422.813 2.558v.454c.226.227.564.453.812.543.226-.113.565-.543.813-.77 0-.226 0-.542.113-1.108.227-1.224.566-1.563.7-1.654.34-.34 1.378-.34 2.078-.34.113-.226.225-.34.225-.452 0-.227 0-.34.226-.453.225-.112.473-.112.563.114.113.113.338.544-.564 1.562-.114.112-.227.226-.34.112-.7 0-1.49 0-1.602.113-.226.226-.474 1.562-.474 1.992v.226c-.135.318-1.06 1.54-1.738 1.653"/><path fill="#FEFEFE" d="M8.905 31.817c1.94-1.766 3.092-5.636 3.565-8.738-.112.45 3.318.54 5.28-1.564 1.378-1.426.565-2.557-.224-4.323-2.19-4.528-5.845-8.08-9.41-11.41-.904-.882-1.852-3.1-3.454-2.557-1.264.453-1.15 4.097-.903 5.207 1.353 9.552 5.144 23.383 5.144 23.383m47.64-.996c-1.85-1.765-3.79-5.432-4.13-8.42 0 .453-3.317.453-5.167-1.652-1.264-1.426-.475-2.422.473-3.984 2.416-4.098 6.208-7.312 9.864-10.413 1.038-.767 2.076-1.877 3.565-1.22 1.262.543.9 2.988.7 3.984-1.875 10.64-5.306 21.708-5.306 21.708"/><path fill="#EF652A" d="M56.77 16.424c-2.526.657-5.28 2.083-6.498 4.46-.542-2.807 2.1-5.954 4.332-7.448.7-.453 0-1.562-.7-1.11-2.752 1.993-5.64 5.75-4.828 9.19.113.386.473.477.767.43l-.09.364c-.113.77 1.15 1.11 1.263.34.564-2.763 3.453-4.324 6.094-4.98.812-.25.45-1.472-.34-1.246m-46.037-2.988c-.7-.453-1.264.543-.7 1.11 1.83 1.29 4.04 3.915 4.333 6.337-1.196-2.376-3.88-3.802-6.5-4.46-.812-.225-1.15.997-.338 1.224 2.64.68 5.507 2.218 6.094 4.98.135.475.676.543.993.34.316.203.812.135.947-.34.903-3.44-2.076-7.312-4.83-9.19"/><path fill="#131741" d="M17.052 15.315c-1.94-3.327-4.695-6.09-7.47-8.737L6.602 3.25c-.563-.543-1.714-.77-2.414-.113-1.49 1.335-1.15 4.21-.903 5.976.474 3.44 1.15 6.768 1.94 10.073.904 4.323 1.942 8.51 3.093 12.72 0 .228.226.34.34.34.112.114.337 0 .563-.112 2.19-2.105 3.093-5.32 3.568-8.307 1.376.225 3.678-.77 4.242-1.11 3.362-1.878 1.51-4.957.022-7.402m-.813 6.882c-.566.34-1.265.543-1.943.68-.225 0-1.263 0-1.263.112-.113-.455-.903-.546-1.038 0-.474 2.646-1.15 5.634-2.866 7.74-1.94-7.2-3.678-14.6-4.83-21.936-.224-1.22-.337-6.632 1.942-4.323l2.19 2.56c1.037.995 2.075 2.104 3.09 3.1 2.19 2.22 4.018 4.754 5.395 7.515.338.68.7 1.223.812 1.88.584 1.108-.566 2.104-1.49 2.67M59.884 4.36c-1.04.112-1.94.882-2.64 1.56-1.377 1.223-2.754 2.333-4.13 3.532-2.53 2.332-4.605 4.867-6.32 7.742-1.376 2.332-.226 4.21 2.19 5.32.473.226 2.076.77 3.09.678.565 2.988 2.078 5.863 4.13 7.968.227.114.34.114.565.114.114 0 .227-.114.34-.34 1.263-3.984 2.3-8.08 3.317-12.178.813-3.328 1.603-6.86 2.076-10.3.136-1.88 0-4.21-2.617-4.097m1.466 3.87c-.473 4.98-1.94 10.072-3.226 14.96-.565 2.22-1.152 4.438-1.85 6.544-1.852-2.106-2.98-4.754-3.454-7.516-.113-.544-.903-.454-1.038 0 .113-.34.226-.227-.226-.114-.474 0-.903-.113-1.376-.226-1.264-.34-3.092-1.223-3.228-2.65-.113-.995 1.038-2.33 1.602-3.213.813-1.223 1.716-2.332 2.64-3.44 1.716-1.88 3.567-3.44 5.507-5.094.813-.68 1.603-1.425 2.64-1.99 2.145-1.13 2.145 1.652 2.01 2.74"/></g></svg>