<svg width="15" height="15" fill="none" xmlns="http://www.w3.org/2000/svg"><path fill-rule="evenodd" clip-rule="evenodd" d="M2.95 7.155l-.147.788c-.043.23-.096.477-.164.732.126-.056.247-.118.361-.184v1.117a4.693 4.693 0 01-.784.257C1.846 9.951 1.44 10 1 10c.207-.31.37-.662.5-1.027.145-.404.247-.823.32-1.214A3 3 0 010 5V3a3 3 0 013-3h5a3 3 0 013 3v1h-1V3a2 2 0 00-2-2H3a2 2 0 00-2 2v2a2 2 0 001.214 1.84l.736.315zM15 8a3 3 0 00-3-3H7a3 3 0 00-3 3v2a3 3 0 003 3h3c.75 1 2 2 4 2-.436-.654-.682-1.497-.82-2.24A3 3 0 0015 10V8z" fill="#3844AE"/></svg>