<svg width="15" height="15" fill="none" xmlns="http://www.w3.org/2000/svg"><path fill-rule="evenodd" clip-rule="evenodd" d="M9 2.6a1 1 0 00.545.89c.131.067.259.14.382.22a1 1 0 001.034.028l1.182-.671a.527.527 0 01.708.19l1.08 1.837a.474.474 0 01-.177.658l-1.25.71a1 1 0 00-.506.9 4.543 4.543 0 010 .277 1 1 0 00.506.9l1.252.71a.473.473 0 01.176.657l-1.08 1.837a.528.528 0 01-.71.19l-1.182-.67a1 1 0 00-1.033.027c-.124.08-.251.153-.382.22A1 1 0 009 12.4v1.1a.5.5 0 01-.5.5h-2a.5.5 0 01-.5-.5v-1.1a1 1 0 00-.545-.89 4.492 4.492 0 01-.379-.218 1 1 0 00-1.033-.027l-1.186.672a.527.527 0 01-.708-.19L1.07 9.91a.474.474 0 01.176-.658l1.25-.71a1 1 0 00.506-.9 4.599 4.599 0 010-.28 1 1 0 00-.506-.9l-1.252-.71a.473.473 0 01-.176-.658l1.08-1.837a.528.528 0 01.709-.19l1.183.67a1 1 0 001.033-.027c.124-.08.251-.153.382-.22A1 1 0 006 2.6V1.5a.5.5 0 01.5-.5h2a.5.5 0 01.5.5v1.1zm1-1.1v1.1c.16.082.316.171.467.268l.473-.268.06-.034.65-.369a1.527 1.527 0 012.064.553l1.079 1.838c.42.714.175 1.625-.545 2.034l-.535.303-.433.246-.283.16a5.547 5.547 0 010 .338l.283.16.433.246.536.304c.72.409.965 1.32.545 2.033l-1.08 1.838a1.528 1.528 0 01-2.065.553L11 12.434l-.06-.034-.473-.268A5.51 5.51 0 0110 12.4v1.1A1.5 1.5 0 018.5 15h-2A1.5 1.5 0 015 13.5v-1.1a5.487 5.487 0 01-.464-.266l-.468.266L4 12.44l-.649.368a1.527 1.527 0 01-2.064-.553l-1.08-1.838a1.474 1.474 0 01.546-2.033l.538-.306.425-.241.287-.163a5.594 5.594 0 010-.342l-.287-.162-.425-.242-.54-.306a1.472 1.472 0 01-.545-2.033l1.08-1.838a1.528 1.528 0 012.064-.553l.65.369.06.034.473.268c.15-.097.307-.186.467-.268V1.5A1.5 1.5 0 016.5 0h2A1.5 1.5 0 0110 1.5zM7.5 10a2.5 2.5 0 100-5 2.5 2.5 0 000 5z" fill="#F0F1FD"/></svg>