<svg width="15" height="15" fill="none" xmlns="http://www.w3.org/2000/svg"><path fill-rule="evenodd" clip-rule="evenodd" d="M7 1h1a1 1 0 011 1H6a1 1 0 011-1zM5 2a2 2 0 012-2h1a2 2 0 012 2h4a1 1 0 110 2h-.167l-1.555 9.329A2 2 0 0110.306 15H4.694a2 2 0 01-1.973-1.671L1.167 4H1a1 1 0 010-2h4zm1.063 2h2.874l-.083 2H6.146l-.083-2zm3.792 2l.083-2h2.881l-.333 2H9.855zM6.188 7h2.624l-.125 3H6.313l-.125-3zm3.625 0l-.125 3h2.131l.5-3H9.813zm-3.458 4h2.29l-.125 3H6.48l-.125-3zm3.291 0l-.125 3h.785a1 1 0 00.986-.836l.36-2.164H9.647zM5.062 4H2.18l.334 2h2.631l-.083-2zm.125 3H2.68l.5 3h2.132l-.125-3zm.167 4H3.347l.36 2.164a1 1 0 00.987.836h.785l-.125-3z" fill="#F0F1FD"/></svg>