<svg width="32" height="32" fill="none" xmlns="http://www.w3.org/2000/svg"><g clip-path="url(#clip0)"><path d="M0 0h32.171v32.171H0V0z" fill="#fff"/><path d="M11.428 22.743l8.114.686s2.972 3.428 2.857 4.171c-.114.743.686 4.286-.8 5.029-1.485.742-6.17-.8-6.914-.972-.743-.171-3.143.972-4.743-1.085-1.6-2.172-.4-.858-.4-1.943-.114-1.086 1.886-5.886 1.886-5.886z" fill="#555659"/><path d="M21.314 22.686c-.228.057-.343.114-.343.171 0 .172.23.057.972.4a8.213 8.213 0 01-3.086.286c.13-.253.226-.522.286-.8.071-.142.11-.298.114-.457.8-.115.457-.229 1.314-.343 0-.057.343-.057.343-.114-.114-.058.515-.172.4-.172a3.51 3.51 0 01-.343-.228 8.405 8.405 0 004-4.629c-1.828-.286-2.57-.914-2.857-2.229a3.87 3.87 0 00-3.543 1.029c-.057-.286-.057-.514-.114-.8-.857 1.371-1.085 1.6-1.657 1.714a10.823 10.823 0 01-.971-3.085c-.286 1.314-.286 2.114-.857 3.257-.515-.115-.972-.572-1.83-1.886-.061.263-.1.53-.113.8a3.474 3.474 0 00-3.372-.8c-.286 1.314-.286 1.829-2.114 2.171.743 2.058 1.771 3.486 3.657 4.515-.16.1-.333.176-.514.228-.114.057-.172.172-.286.229 0 .057-.457-.229-.457-.172.743.115 1.6.4 2.343.572.071.142.11.298.114.457a3.3 3.3 0 00.286.8 8.211 8.211 0 01-3.086-.286c.972-.114.972-.228.972-.4 0-.057 0-.228-.286-.285-3.257-.343-4.686-2.972-5.372-4.115.686.286 1.029.515 1.143.343.114-.171.114-.228-.114-.4-.686-.686-1.029-2.914-1.143-3.886.457.172 1.257.572 2 .343.914-.285 1.657-1.085 2.172-2.4.057 0 .114.057.17.057l.172-.342a.486.486 0 000-.4A9.246 9.246 0 018.686 8.8c.054-.404.13-.805.228-1.2a4.503 4.503 0 011.6 1.314c.232.281.48.548.743.8.4.4 1.143.572 1.257 0 .058-.171-.114-.343-.228-.514a.057.057 0 01-.057-.057c.628-.229 2.114-.743 3.371-.457h.171c.058 0 .115.057.172 0a7.395 7.395 0 013.657.171l.286.457c-.114.172-.4.343-.343.457.171.229.229.343.629-.114.23-.3.479-.586.742-.857a6.325 6.325 0 012.172-1.6c.057.343.171 1.429.171 1.714a7.154 7.154 0 01-.628 2.857c-.058.115-.286.286-.229.458.057.171 0 0 .057.114.057 0 .229.114.286.114l-.057.114c.514 1.315 1.2 1.886 2.114 2.172.754.16 1.54.06 2.229-.286-.115.914-.857 3.314-1.6 4.057-.172.172-.172.343-.115.4.058.057.629-.228 1.372-.514-.514 1.6-2.686 3.886-5.372 4.286z" fill="#C3C2CE"/><path d="M26.686 16.286c-.153.327-.416.59-.743.743V16c-1.029.114-2.8.229-3.029-2.171h-.057a3.298 3.298 0 00-1.486-.515c-.171 0-.343-.057-.457-.057l.4-.685s-2.343-.115-3.6 1.257c-.171.171 0-.857 0-.857a4.933 4.933 0 00-1.657.857l-.229.857-.228-.857a4.933 4.933 0 00-1.657-.857s.171.97 0 .857c-1.315-1.372-3.6-1.258-3.6-1.258l.4.686c-.155-.01-.31.01-.457.057a5.146 5.146 0 00-1.486.515h-.057c-.229 2.4-2 2.285-3.029 2.171v1.029a1.262 1.262 0 01-.743-.743l-.057.285.057.343c1.543 3.372 3.143 3.886 5.6 4.457l.743.058.972.514.114.686c.228.857.571 1.085 1.314 1.657l.286.228.857-.457.914-.114.915.114.685.343.343.114a3.428 3.428 0 001.429-1.885l.114-.686.971-.514.743-.057c2.457-.63 4.286-1.486 5.772-4.915l-.057-.171z" fill="#fff"/><path d="M15.314 20.857a1.526 1.526 0 011.314.058.571.571 0 01.172.97l-.057.058c-.686.914-1.143.686-1.772-.171a.498.498 0 01.172-.743c0-.114.057-.114.171-.172z" fill="#1E1E40"/><path d="M26.858 17.943c-.172.057-.343.171-.515.228.538-1.232.867-2.545.972-3.885l.057-.515-.4.286a2.857 2.857 0 01-2.057.343c-.743-.229-1.429-.914-1.886-2.114v-.058a.212.212 0 01.057-.171 13.59 13.59 0 00.686-1.829 4.572 4.572 0 00-.114-3.257c-.343-.743-.343-.743-1.143-.571A6.046 6.046 0 0019.6 8.228a.49.49 0 01-.342.172 6.286 6.286 0 00-3.372-.343h-.114A6.286 6.286 0 0012.4 8.4a.491.491 0 01-.342-.172A6.503 6.503 0 009.143 6.4c-.8-.229-.8-.172-1.143.571a4.446 4.446 0 00-.228 3.315c.171.628.457 1.142.686 1.828a.212.212 0 00.057.172v.057c-.457 1.143-1.029 1.885-1.886 2.114a2.719 2.719 0 01-2.057-.343l-.4-.286.171.458c.105 1.34.434 2.653.972 3.885-.172-.057-.343-.171-.515-.228l-.628-.286.286.629c.057.171 1.657 3.485 4.742 4.514-.285.057-.571.057-.857.114l-.8.114.743.4c1.22.4 2.489.63 3.772.686.308-.006.614-.044.914-.114.122.18.277.335.457.457.128.085.261.162.4.229H14l.515-.286c.092.044.188.082.285.114a2.286 2.286 0 001.943 0l.286-.114.514.286h.172a.983.983 0 00.4-.229c.166-.138.32-.29.457-.457.3.07.606.108.914.114a14.605 14.605 0 003.772-.686l1.028-.342-1.086-.115c-.285-.057-.571-.057-.857-.114 3.086-1.029 4.686-4.4 4.743-4.514l.286-.629-.514.229zm-9.2 6.228c-.858-.514-1.372-.8-1.829-.8-.457 0-.914.229-1.829.8-1.314-.743-1.428-3.143-.8-4.285.102.219.179.449.229.685.166-.467.357-.925.571-1.371.4-.743.515-.914.515-.914.457-.686 2.114-.686 2.514 0 .214.278.387.586.514.914.235.437.426.897.572 1.371.057-.228.171-.457.228-.685.686 1.2.572 3.6-.685 4.285zm-5.315-5.543c-.743-.171-1.085-.742-1.485-1.085.914.114 2.342.457 2.628.743a1.064 1.064 0 01-1.143.342zm5.829-.342c.286-.286 1.714-.629 2.628-.743-.375.502-.893.88-1.485 1.085a1.097 1.097 0 01-1.143-.342zm3.143 4.4c-.229.057-.743.114-.686.114.057.114.343.114 1.371.457a8.211 8.211 0 01-3.085.286c.129-.254.225-.523.285-.8.072-.142.11-.298.115-.457.8-.115 1.6-.286 2.4-.4a1.251 1.251 0 01-.286-.229 3.49 3.49 0 01-.343-.229 8.406 8.406 0 004-4.628c-1.828-.286-2.571-.914-2.857-2.229a3.869 3.869 0 00-3.543 1.029c-.057-.286-.057-.514-.114-.8-.857 1.371-1.086 1.6-1.657 1.714a13.558 13.558 0 01-.972-3.771c-.285 1.314-.4 2.571-.971 3.771-.514-.114-.743-.343-1.657-1.714-.062.262-.1.53-.115.8a3.765 3.765 0 00-3.542-1.029C9.372 15.886 8.629 16.514 6.8 16.8a8.571 8.571 0 004 4.628c-.1.096-.216.173-.342.229-.115.057-.172.057-.286.114.743.115 1.428.515 2.171.686.057.114.286.171.286.343.06.278.157.547.286.8a8.211 8.211 0 01-3.086-.286c.971-.114.971-.228.971-.4 0-.057 0-.228-.285-.286-2.686-.342-4.4-2.685-5.086-3.885.686.285 1.029.514 1.143.4.114-.115-.229-.343-.4-.572-.572-.8-.972-2.857-1.086-3.828a3.229 3.229 0 002 .171c.914-.286 1.657-1.086 2.172-2.4.057 0 .114.057.171.057l.171-.343a.486.486 0 000-.4A9.246 9.246 0 018.972 8.8c.013-.308.052-.613.114-.914a4.417 4.417 0 011.657 1.257c.231.3.48.586.743.857a.788.788 0 001.314-.286c.058-.171-.114-.343-.228-.514a.057.057 0 01-.057-.057c.628-.229 2.114-.743 3.371-.457h.286a5.886 5.886 0 013.371.457h-.285c-.115.171-.286.4-.229.514a.783.783 0 001.314.286c.231-.3.48-.586.743-.857a4.246 4.246 0 011.657-1.258c.063.302.101.607.115.915a8 8 0 01-.629 3.028.485.485 0 000 .4l.171.343c.058 0 .115-.057.172-.057.514 1.314 1.257 2.114 2.171 2.4a2.789 2.789 0 002-.171 12.57 12.57 0 01-1.085 3.714c-.172.286-.458.571-.4.628.057.058.4-.057 1.028-.342-.628 1.142-2.286 3.6-4.971 4z" fill="#1E1E40"/><path d="M15.886 21.429c.284 0 .514-.077.514-.172 0-.094-.23-.171-.514-.171-.284 0-.515.077-.515.171 0 .095.23.172.515.172z" fill="#fff"/><path d="M11.886 22.114l1.6 1.943a8.232 8.232 0 011.314 2.4c.514 1.657.857 1.143 1.143 3.543l-.057 2.8-3.543-.229s-.457-.228-2.972-5.828c-.171-.4-.8-4.229-.8-4.229l2.515-.343h.8v-.057z" fill="#4A4797"/><path d="M11.942 21.886c-.057.229-.057.4-.114.629l1.429 1.77.343.515c.405.554.715 1.172.914 1.829.171.571.457 1.143.686 1.828.114.286.514.972.628 1.372.114-.172.114-.686.229-.857-.057-.172-.343-.457-.4-.629a18.34 18.34 0 01-.686-1.771 7.25 7.25 0 00-.971-2 3.991 3.991 0 01-.343-.515L11.942 22v-.114z" fill="#1E1E40"/><path d="M31.257 29.485c.057-2-.571-2.285-2.057-3.542-1.372-1.143-4.286-1.772-4.286-1.772 0-.343.229-2.057.286-2.343.4-1.428.229-1.542.229-1.542a20.513 20.513 0 00-4.058.514c-1.23.202-2.47.335-3.714.4L18 22.97H16.57l.057 3.543-.8 4.343S15.6 34 14.857 32.743c-.686-1.143-.686-.972-1.2-1.886-1.314-2.057-.8-1.086-2.857-4.286-.343-.514 1.486-1.257 1.371-1.828L11.83 23.6l.17-1.429-4.685-.8.114.515c.07.33.165.655.286.971.172.457.4.914.629 1.429l.171.342s-4.343-.057-5.943 2.4a8.314 8.314 0 00-1.2 2.229c-.289.923-.367 1.9-.228 2.857l.571.572 17.257.285 12.115-.571c0 .057.114-1.486.171-2.915z" fill="#2E2C55"/><path d="M15.6 33.486L.8 32.743c-.013-1.24.044-2.48.171-3.714a5.965 5.965 0 011.257-2.058c1.943-2.171 4.8-2.571 5.829-2.628-.244-.46-.454-.938-.629-1.429-.114-.343-.171-.628-.285-.971l-.172-.914 5.257.914L12 23.6l.285 1.143c.115.457-.342.8-.742 1.143-.172.171-.572.457-.572.571.229.457 1.257 1.886 2.114 3.143l.743 1.086c.372.553.716 1.125 1.029 1.714.286.514.628-.171.628-.171l-.057-1.429.8-4.343.057-3.771h1.429l-.343-1.772h.343c1.206-.067 2.408-.2 3.6-.4 1.33-.32 2.69-.492 4.057-.514h.057l.057.057c.172.114.286.4-.114 1.829a45.284 45.284 0 00-.286 2.057c.686.171 2.972.686 4.172 1.771 1.543 1.372 2.285 2 2.114 4.057-.229 3.715-.057 3.086-.057 3.086l-15.714.629zm1.314-10.229l-.057 3.257-.686 5.886 6.914-.057 6.857-.057 1.03-.115v-2.514c.056-2-.572-2.286-2-3.486-1.315-1.085-4.115-1.714-4.115-1.714l-.172-.057v-.229c0-.4.229-2.114.286-2.457.108-.374.185-.756.229-1.143-1.271.052-2.534.224-3.772.515-1.135.191-2.28.325-3.428.4l.343 1.771h-1.43zM1.428 32.514l8.8.229c-.057-.114 5.429 1.028 3.2-1.772l-.743-1.085c-.914-1.372-1.885-2.686-2.114-3.143-.229-.457.229-.857.686-1.257.228-.172.628-.515.571-.629l-.343-1.257.115-1.257-4.057-.686.057.172c.057.285.171.628.228.914.162.477.373.937.629 1.371l.4.743H8.4c-.4 0-3.315.114-5.258 1.943a6.12 6.12 0 00-1.6 2.343 2.514 2.514 0 00-.114.914c-.069.818-.069 1.64 0 2.457z" fill="#1E1E40"/><path d="M9.943 25.6a.212.212 0 01-.171-.057 2.11 2.11 0 00-1.6-.743.308.308 0 01-.286-.286.269.269 0 01.286-.285c.733.025 1.43.332 1.942.857.115.114.115.286 0 .343-.114.057-.114.171-.17.171zM6.23 32.857c-.172 0-.286-.114-.229-.285 0 0 .114-2.115.057-2.8 0-.115.057-.286.229-.286.171 0 .286.057.286.228.046.972.027 1.946-.058 2.915a.377.377 0 01-.285.228zm20.057 0a.617.617 0 01-.4-.171c-.4-.343-.514-1.314-.343-2.686 0-.114.172-.229.286-.229.114 0 .228.172.228.286-.171 1.657.058 2.115.172 2.229.114.114.057.057.114.057s.286.057.286.171c0 .115-.057.286-.229.286-.057.057-.057.057-.114.057zm-7.029-6a.212.212 0 01-.171-.057c-.114-.114-.114-.286 0-.343 2.914-2.628 5.771-2.514 5.886-2.514a.26.26 0 01.198.382.26.26 0 01-.256.132 8.52 8.52 0 00-5.542 2.343c0 .057-.058.057-.115.057z" fill="#1E1E40"/><path d="M18.914 25.485c-.114 0-.228-.057-.228-.17a.257.257 0 01.171-.344 15.022 15.022 0 015.943-1.028.259.259 0 01-.057.514 16.114 16.114 0 00-5.714.971.177.177 0 01-.115.057z" fill="#1E1E40"/></g><defs><clipPath id="clip0"><rect width="32" height="32" rx="16" fill="#fff"/></clipPath></defs></svg>