<svg width="350" height="150" viewBox="0 0 350 150" fill="none" xmlns="http://www.w3.org/2000/svg" preserveAspectRatio="none">
<rect x="1" y="1" width="348" height="148" fill="#FFFCFC" stroke="#A5A6F6" stroke-width="2"/>
<path d="M117.312 69.3594C117.312 68.151 116.87 67.1927 115.984 66.4844C115.109 65.7656 113.875 65.4062 112.281 65.4062C110.948 65.4062 109.828 65.776 108.922 66.5156C108.026 67.2448 107.578 68.151 107.578 69.2344H104.578C104.578 68.026 104.906 66.9427 105.562 65.9844C106.229 65.026 107.156 64.2812 108.344 63.75C109.531 63.2083 110.844 62.9375 112.281 62.9375C114.823 62.9375 116.797 63.5104 118.203 64.6562C119.609 65.7917 120.312 67.375 120.312 69.4062C120.312 70.4583 119.99 71.4167 119.344 72.2812C118.698 73.1458 117.797 73.8281 116.641 74.3281C119.318 75.224 120.656 77 120.656 79.6562C120.656 81.6979 119.896 83.3177 118.375 84.5156C116.854 85.7135 114.823 86.3125 112.281 86.3125C110.771 86.3125 109.396 86.0469 108.156 85.5156C106.927 84.974 105.969 84.2083 105.281 83.2188C104.594 82.2292 104.25 81.0521 104.25 79.6875H107.25C107.25 80.8854 107.724 81.8854 108.672 82.6875C109.62 83.4792 110.823 83.875 112.281 83.875C113.917 83.875 115.219 83.4948 116.188 82.7344C117.167 81.974 117.656 80.9688 117.656 79.7188C117.656 77.0521 116.005 75.6927 112.703 75.6406H109.891V73.1719H112.688C114.208 73.1406 115.359 72.7969 116.141 72.1406C116.922 71.4844 117.312 70.5573 117.312 69.3594ZM134.625 86C134.458 85.6667 134.323 85.0729 134.219 84.2188C132.875 85.6146 131.271 86.3125 129.406 86.3125C127.74 86.3125 126.37 85.8438 125.297 84.9062C124.234 83.9583 123.703 82.7604 123.703 81.3125C123.703 79.5521 124.37 78.1875 125.703 77.2188C127.047 76.2396 128.932 75.75 131.359 75.75H134.172V74.4219C134.172 73.4115 133.87 72.6094 133.266 72.0156C132.661 71.4115 131.771 71.1094 130.594 71.1094C129.562 71.1094 128.698 71.3698 128 71.8906C127.302 72.4115 126.953 73.0417 126.953 73.7812H124.047C124.047 72.9375 124.344 72.125 124.938 71.3438C125.542 70.5521 126.354 69.9271 127.375 69.4688C128.406 69.0104 129.536 68.7812 130.766 68.7812C132.714 68.7812 134.24 69.2708 135.344 70.25C136.448 71.2188 137.021 72.5573 137.062 74.2656V82.0469C137.062 83.599 137.26 84.8333 137.656 85.75V86H134.625ZM129.828 83.7969C130.734 83.7969 131.594 83.5625 132.406 83.0938C133.219 82.625 133.807 82.0156 134.172 81.2656V77.7969H131.906C128.365 77.7969 126.594 78.8333 126.594 80.9062C126.594 81.8125 126.896 82.5208 127.5 83.0312C128.104 83.5417 128.88 83.7969 129.828 83.7969ZM152.516 71.4844H144.719V86H141.812V69.0938H152.516V71.4844ZM168.266 69.0938V86H165.359V71.4844H159.609L159.266 77.8125C159.078 80.7188 158.589 82.7969 157.797 84.0469C157.016 85.2969 155.771 85.9479 154.062 86H152.906V83.4531L153.734 83.3906C154.672 83.2865 155.344 82.7448 155.75 81.7656C156.156 80.7865 156.417 78.974 156.531 76.3281L156.844 69.0938H168.266ZM178.438 81.7656L182.375 69.0938H185.469L178.672 88.6094C177.62 91.4219 175.948 92.8281 173.656 92.8281L173.109 92.7812L172.031 92.5781V90.2344L172.812 90.2969C173.792 90.2969 174.552 90.099 175.094 89.7031C175.646 89.3073 176.099 88.5833 176.453 87.5312L177.094 85.8125L171.062 69.0938H174.219L178.438 81.7656ZM191.219 69.0938V83.6406H197.406V69.0938H200.297V83.6406H206.469V69.0938H209.375V86H188.312V69.0938H191.219ZM219.203 78.7969H217.094V86H214.188V69.0938H217.094V76.25H218.984L224.672 69.0938H228.172L221.484 77.2188L228.734 86H225.062L219.203 78.7969ZM241.656 86C241.49 85.6667 241.354 85.0729 241.25 84.2188C239.906 85.6146 238.302 86.3125 236.438 86.3125C234.771 86.3125 233.401 85.8438 232.328 84.9062C231.266 83.9583 230.734 82.7604 230.734 81.3125C230.734 79.5521 231.401 78.1875 232.734 77.2188C234.078 76.2396 235.964 75.75 238.391 75.75H241.203V74.4219C241.203 73.4115 240.901 72.6094 240.297 72.0156C239.693 71.4115 238.802 71.1094 237.625 71.1094C236.594 71.1094 235.729 71.3698 235.031 71.8906C234.333 72.4115 233.984 73.0417 233.984 73.7812H231.078C231.078 72.9375 231.375 72.125 231.969 71.3438C232.573 70.5521 233.385 69.9271 234.406 69.4688C235.438 69.0104 236.568 68.7812 237.797 68.7812C239.745 68.7812 241.271 69.2708 242.375 70.25C243.479 71.2188 244.052 72.5573 244.094 74.2656V82.0469C244.094 83.599 244.292 84.8333 244.688 85.75V86H241.656ZM236.859 83.7969C237.766 83.7969 238.625 83.5625 239.438 83.0938C240.25 82.625 240.839 82.0156 241.203 81.2656V77.7969H238.938C235.396 77.7969 233.625 78.8333 233.625 80.9062C233.625 81.8125 233.927 82.5208 234.531 83.0312C235.135 83.5417 235.911 83.7969 236.859 83.7969Z" fill="#CCCCCC"/>
</svg>
