<svg stroke-width=".501" stroke-linejoin="bevel" fill-rule="evenodd" xmlns="http://www.w3.org/2000/svg" overflow="visible" width="128" height="128" viewBox="0 0 96 96"><defs><linearGradient id="b" gradientUnits="userSpaceOnUse" x2="0" y2="-1.72" gradientTransform="translate(56.504 72.07)"><stop offset="0" stop-color="#dcd5c6"/><stop offset="1" stop-color="#fff"/></linearGradient><linearGradient id="c" gradientUnits="userSpaceOnUse" x2="0" y2="-1.798" gradientTransform="translate(74.06 72.56)"><stop offset="0" stop-color="#dcd5c6"/><stop offset="1" stop-color="#fff"/></linearGradient></defs><g fill="none" stroke="#000" font-family="Times New Roman" font-size="16"><g transform="matrix(1 0 0 -1 0 96)"><path d="M.217 96.666v-96h96v96h-96z" stroke="none"/><clipPath id="a"><path d="M.217.667v96h96v-96h-96z"/></clipPath><g clip-path="url(#a)"><path d="M14.024 4.567c0 1.293 4.574 2.344 10.21 2.344.352 0 .703-.003 1.047-.01-.51.342-.78.697-.78 1.062 0 2.762 15.465 5.002 34.518 5.002 19.052 0 34.516-2.24 34.516-5 0-2.762-15.464-5.003-34.516-5.003-9.62 0-18.327.57-24.588 1.49-.263-1.24-4.73-2.227-10.197-2.227-5.635 0-10.21 1.05-10.21 2.345z" fill="#000" fill-opacity=".298" stroke="none"/><g stroke-linejoin="round"><path d="M46.078 2.802c-.493.273-.788.803-.76 1.366l-.083 4.404-2.617 1.357c-5.875 3.497-10.113 8.382-12.823 14.23l-2.4 7.08-1.25-.833c-.712-.862-1.782-6.68-4.857-7.406-2.73-.644-3.9 1.367-4.294 2.94-.35 1.39-.37 3.45-.45 4.18-.685 6.14 2.284 10.13 5.46 13.263l4.405 4.142.033 1.122c.32 3.02.86 6.114 1.62 9.254C29.35 63.227 31.62 69.43 34.878 75l.394.58-.023.055c-.025 4.802.363 9.584 1.457 14.29.743 3.203 3.29 9.513 11.052.802l1.222-1.922 4.19 1.527c1.964.4 4.038.507 6.222.264.866-.097 1.94-.29 3.095-.624l1.78-.72 1.38 1.206c1.7 1.097 3.972 1.9 6.86 2.317.526.077 1.053-.137 1.38-.558 2.04-2.648 1.64-8.453.06-12.797l-.61-1.165 1.15-3.8c2.004-7.803 2.02-15.4 4.42-23.15.935-3.024 4.323-5.784 7.54-9.29l1.36-1.605c9.25-7.603 13.26-25.87-2.458-34.59-3.237-1.797-7.858-2.8-11.54-2.4-.92.1-1.84.307-2.685.637l-.947.582-4.21-.31c-3.954-.08-7.922.235-10.986.89l-.626.165.312.386c-2.088-3.226-4.924-5-8.592-2.97z" fill="#ab9e89" stroke="none"/><g stroke-linecap="round"><path d="M30.182 51.453c-.37-6.944-13.48-9.42-12.174-21.17.236-2.105-.11-6.567 2.942-5.846 2.18.515 2.644 5.198 4.06 6.91 2.64 3.186 8.145 2.26 9.444 4.996 1.798 3.785-.055 14.665-4.265 15.324l-.01-.214zm33.426 34.403c.932 2.49 3.618 4.665 9.114 5.46 2.536-3.287.244-13.685-2.825-15.6-.057-.038-.098-.102-.148-.15-3.636.086-7.853 5.72-6.143 10.29z" fill="#dcd5c6" stroke-width="1.5" stroke="#ab9e89" stroke-miterlimit="79.84"/><path d="M55.292 6.663C31.22 11.803 23.536 32.88 29.497 57.556c3.462 14.33 13.63 33.37 29.735 31.576 3.363-.374 9.315-2.227 11.105-7.43 5.166-10.81 3.644-19.45 7.166-30.833 2.136-6.905 13.512-11.203 13.973-22.663.505-12.597-3.584-17.46-15.048-20.987-5.72-1.76-15.204-1.825-21.136-.557z" fill="#dcd5c6" stroke-width="1.5" stroke="#ab9e89" stroke-miterlimit="79.84"/><path d="M36.723 75.642c-.022 4.72.36 9.383 1.42 13.95 1.747 7.526 6.002 2.978 8.517.155 6.593-7.398-4.07-13.924-9.937-14.105zM86.877 39.27c8.767-7.207 12.23-24.134-2.24-32.16-5.97-3.315-17.267-3.728-15.6 3.342 1.09 4.632 11.115 5.074 16.02 8.648 1.385 1.01 3.128 1.96 3.713 3.567 2.823 7.726-.93 12.422-2.934 17.123.115-.024.977-.47 1.04-.52zM45.583 23.696c-.122-4.87 1.495-14.09 1.21-19.604C54.215-.016 58.373 17.94 57.79 22.964c-.575 4.91-11.15 6.98-12.04 2.527-.097-.493-.15-1.1-.17-1.793z" fill="#dcd5c6" stroke-width="1.5" stroke="#ab9e89" stroke-miterlimit="79.84"/><path d="M54.14 77.616c3.59 0 6.504-2.914 6.504-6.503 0-3.59-2.914-6.503-6.503-6.503-3.587 0-6.5 2.914-6.5 6.503 0 3.59 2.913 6.503 6.502 6.503z" stroke-width="1.5" stroke="#ab9e89" stroke-miterlimit="79.84" fill="url(#b)"/><path d="M60.527 62.743c1.452-5.682 11.64-2.934 9.75 1.513-1.572 1.087-8.54 1.013-9.65-.03.017-.423-.188-1.13-.1-1.483z" fill="#dc1b6c" stroke="none"/><path d="M48.545 58.81l9.737 3.05m-5.362-5.958l6.77 4.096" stroke-width="1.125" stroke="#ab9e89" stroke-miterlimit="79.84"/><path d="M57.517 72.108c1.272.007 2.31-1.02 2.316-2.292.007-1.272-1.02-2.31-2.292-2.316-1.27-.007-2.31 1.02-2.314 2.292-.007 1.272 1.02 2.31 2.292 2.316z" fill="#6e5642" stroke="none"/><path d="M46.27 71.48h15.46" stroke-width="1.5" stroke="#ab9e89" stroke-miterlimit="79.84"/><path d="M44.304 24.633c.743 2.737 2.18.294 2.6-.298l9.882-1.485c.795 1.366 2.15 1.222 2.34-.224 1.976 5.454-13.25 13.796-14.822 2.007zM28.772 46.577c-.745-1.57-2.762-2.918-3.208-4.566-.33-1.215.466-2.68 1.573-3.32-.08 1.627 1.51.904 1.995-.69l-.1.46c5.283 1.13 2.054 9.837-.198 8.258-.02-.046-.04-.093-.062-.14zm54.24-5.227c1.414-.595 4.733-3.717 6.02-5.276 1.41-1.708 3-6.098 1.398-7.122-.147.02.68-3.004.534-2.98-.223 1.112-1.34 3.564-2.23 1.41-.54-.1-1.087 2.737-1.697 2.708-.063 3.912-1.128 5.577-1.985 9.062-.173.708-2.064.965-2.26 1.603l.22.594z" fill="#dcd5c6" stroke="none"/><path d="M45.5 11.77C33.29 16.975 28.19 30.623 31.504 42.1c1.358 4.71 9.4 10.882 14.59 7.89 7.03-4.05-.812-12.892-1.372-19.38-.258-3.01-.125-7.49-.125-10.386 0-2.216.708-5.753.906-8.455zm12.21 3.507c1.23-1.046 2-1.264 3.386-1.64 3.546-.962 4.65-1.228 7.876-1.412-1.413-2.006-1.337-4.012-.372-5.2-1.98-.665-11.812-.16-14.042.52.99 1.898 2.91 5.224 2.972 7.355.242 0 .01.522.18.377z" fill="#f6f1e7" stroke="none"/><path d="M80.433 45.062c-.43-3.212-5.89-2.598-4.998-5.867 2.226-1.74 7.11.98 7.876 3.16-1.35.874-1.83 1.534-2.86 2.858-.003-.05-.01-.102-.016-.15zm4.217-5.198c-.065-.135-.176-.232-.224-.372-.074-.203-.274-.33-.373-.52l-.594-.595-.596-.593c-.197-.204-.46-.33-.67-.52-.68-.615-3.258-1.87-2.896-3.047 1.015-3.313 8.657 1.145 8.716 3.368-1.14.743-2.23 1.82-3.107 2.837-.12-.17-.175-.37-.26-.558zm-7.95 9.732c-.092-.087-.132-.212-.224-.297l-.296-.3c-.76-.66-2.89-1.663-2.602-2.97.413-1.89 4.46-.82 5.17.85-.763.922-1.82 2.12-1.827 3.384-.152-.206.01-.437-.22-.67z" fill="#ab9e89" stroke="none"/><path d="M36.755 73.886c.947 3.08 1.902 10.66 5.86 11.354 1.593.278 2.834-.232 3.808-.793.21.312.568 1.2.735 1.578.69-1.25 2.404-.97 2.8-.253.2-.56-.007-.244-.01-1.123l-.34-.27c1.164-1.786-2.907-6.686-4.362-7.725-2.505-1.79-5.55-2.99-8.49-2.77z" fill="#dcd5c6" stroke="none"/><path d="M40.19 78.99c.125 1.914.567 9.19 2.183 10.244 1.966 1.283 5.222-4.6 4.4-6.416-.49-1.08-5.37-3.89-6.583-3.83zm28.9 6.546c.547 1.23 1.52 3.065 2.97 3.364.613-1.252.36-6.56-1.18-6.62-.65.545-1.562 2.467-1.79 3.256z" fill="#f6f1e7" stroke="none"/><path d="M57.9 80.505c-.598 1.283-.656 2.358-.742 3.714m-1.114-4.087c-.572.786-.805 1.49-1.04 2.377m10.623-2.08c.252 1.082.554 2.237.447 3.344m1.41-3.864c.19.585.52 1.47.448 2.08" stroke-width="1.125" stroke="#ab9e89" stroke-miterlimit="79.84"/><path d="M65.516 64.01c1.25 0 2.267-.4 2.267-.892 0-.49-1.017-.892-2.267-.892s-2.267.4-2.267.892c0 .49 1.015.892 2.265.892z" fill="#fa99c2" stroke="none"/></g></g><path d="M14.442 6.012c1.074 2.022 1.864 3.785 2.167 5.717-4.64 3.46-8.208 5.7-9.748 8.72-1.358 2.653-1.492 6.15-.324 8.613-1.66 1.178-3.08 1.5-4.875 1.96-.953 1.182.34 3.642 4.423 5.727 3.74 1.915 6.774 1.472 7.373.3-.456-1.746-1.184-3.164-1.187-5.123 2.648-.526 5.358-2.665 6.698-5.29 1.545-3.018.937-6.965 1.147-12.85 1.83-.795 3.973-1.508 6.118-1.745.403-.784-.815-3.11-4.726-5.03-4.5-2.286-6.893-2.022-7.07-1z" stroke-linejoin="round" stroke-linecap="round" stroke="#a75214" stroke-width="2.25" fill="#f68634" stroke-miterlimit="79.84"/><path d="M8.892 20.58c.096.56.43 2.19.92 2.432.606.3 2.328-.94 3.154-.985.1 1.086.386 2.5.92 3.35 1.07-.16 1.89-.684 2.957-.787.344.53.1 1.283.46 1.84m-9.075 3.542l2.36 1.235M17.6 12.63l1.253.658m-7.537 5.03l6.888 3.603" stroke-width="1.5" stroke="#feb761" stroke-linecap="round" stroke-linejoin="round" stroke-miterlimit="79.84"/><path d="M6.03 36.354c2.715 1.19 5.17 1.585 5.48.88.308-.703-1.645-2.243-4.36-3.434-2.717-1.19-5.173-1.585-5.48-.88-.31.703 1.643 2.243 4.36 3.434z" fill="#a75214" stroke="none"/><path d="M81.15 59.712l-10.062 1.702m6.864-5.326l-7.266 3.138" stroke-linejoin="round" stroke-linecap="round" stroke-width="1.125" stroke="#ab9e89" stroke-miterlimit="79.84"/><path d="M71.588 77.616c3.343 0 6.058-2.715 6.058-6.058S74.93 65.5 71.588 65.5s-6.058 2.715-6.058 6.058 2.715 6.058 6.058 6.058z" stroke-linejoin="round" stroke-linecap="round" stroke-width="1.5" stroke="#ab9e89" stroke-miterlimit="79.84" fill="url(#c)"/><path d="M74.537 71.885c1.148.006 2.086-.922 2.09-2.07.007-1.15-.92-2.087-2.07-2.092-1.148-.006-2.086.922-2.09 2.07-.007 1.15.92 2.087 2.07 2.092z" fill="#6e5642" stroke="none"/><path d="M66.044 71.48h13.08" stroke-linejoin="round" stroke-linecap="round" stroke-width="1.5" stroke="#ab9e89" stroke-miterlimit="79.84"/></g></g><path d="M8.614 58.903c-1.426-6.773-1.444-14.67 3.335-20.03" stroke="#18763d" stroke-width="2.25" stroke-linecap="round" stroke-linejoin="round" stroke-miterlimit="79.84"/><path d="M9.033 27.26l-.19 3.034c-.093 1.442-1.33 2.762-2.762 2.944l-3.442.437c-1.432.182-1.618.98-.415 1.78l2.533 1.684c1.203.796 1.727 2.53 1.168 3.86L4.58 44.203c-.558 1.33.04 1.89 1.332 1.25l2.73-1.354c1.29-.643 3.053-.23 3.927.92l2.097 2.762c.875 1.15 1.658.913 1.75-.528l.19-3.04c.09-1.44 1.33-2.76 2.762-2.94l3.442-.44c1.433-.18 1.62-.98.416-1.777l-2.535-1.685c-1.204-.798-1.727-2.532-1.168-3.862l1.342-3.202c.558-1.33-.04-1.892-1.332-1.25l-2.73 1.354c-1.29.642-3.053.23-3.927-.92L10.78 26.73c-.873-1.15-1.657-.913-1.75.53z" stroke="#6b92c7" stroke-width="1.5" fill="#9cbae4" stroke-linecap="round" stroke-linejoin="miter" stroke-miterlimit="79.84"/><path d="M5.373 29.6l1.34 3.143c.566 1.33-.003 2.97-1.27 3.664l-3.325 1.818c-1.268.693-1.132 1.398.3 1.57l3.392.412c1.433.172 2.57 1.487 2.537 2.93l-.086 3.79c-.032 1.444.646 1.678 1.51.524l2.053-2.73c.866-1.155 2.574-1.484 3.808-.733l3.24 1.97c1.233.752 1.774.283 1.21-1.045l-1.343-3.142c-.566-1.328.002-2.97 1.27-3.663l3.325-1.82c1.27-.692 1.134-1.396-.3-1.568l-3.39-.413c-1.435-.173-2.573-1.488-2.538-2.93l.085-3.79c.033-1.445-.645-1.68-1.51-.524l-2.05 2.733c-.868 1.155-2.575 1.483-3.81.733l-3.24-1.976c-1.234-.75-1.775-.282-1.21 1.047z" stroke="#6b92c7" stroke-width="1.5" fill="#9cbae4" stroke-linecap="round" stroke-linejoin="miter" stroke-miterlimit="79.84"/><path d="M13.254 32.818c2.474.225 4.298 2.416 4.072 4.89-.225 2.474-2.416 4.298-4.89 4.072-2.474-.225-4.298-2.416-4.072-4.89.225-2.474 2.416-4.298 4.89-4.072z" stroke="#cd681f" fill="#f6c934" stroke-width="1.5" stroke-linecap="round" stroke-linejoin="round" stroke-miterlimit="79.84"/><path d="M7.367 57.923c-3.508 1-6.674-4.57-6.64-7.605 3.91-.65 7.368 3.506 7.124 7.425-.16.074-.32.134-.482.18z" fill="#18763d" stroke="none"/></g></svg>