<svg stroke-width=".501" stroke-linejoin="bevel" fill-rule="evenodd" xmlns="http://www.w3.org/2000/svg" overflow="visible" width="128" height="128" viewBox="0 0 96 96"><g fill="none" stroke="#000" font-family="Times New Roman" font-size="16"><path d="M48.66 73.163c26.033 0 47.162 3.062 47.162 6.834 0 3.77-21.13 6.833-47.16 6.833-26.034 0-47.162-3.062-47.162-6.833 0-3.772 21.128-6.834 47.16-6.834z" fill="#000" fill-opacity=".298" stroke="none"/><path d="M18.432 82.808c-3.976-.324-9.477-1.182-11.008-4.432l-.25-.973-1.6-2.197C2.63 70.278 1.064 62.84 1.138 56.594l.09-1.578-.258-1.512c-.306-2.51-.41-5.86-.302-8.693.072-1.886.243-3.684.56-4.92.773-3 2.645-2.75 3.668-1.71.122.126.627.646 1.308 1.42l.83 1.027 1.553-2.205c6.615-8.774 16.57-18.11 24.128-22.014 11.74-6.058 29.053-3.185 39.507 8.317 3.155 3.47 6.417 8.05 9.13 13l2.8 5.957.996 1.9c.51.916 1.045 1.8 1.58 2.525l1.402 1.38 1.106.235.54-.186.116-.012.34-.35c.766-.376 1.454-.5 2.06-.438l1.134.482.306.03c1.083.397 1.514 1.504 1.604 2.748l-.015.203.055.177c.248 2.162-.535 4.988-2.585 6.84-.847.763-1.715 1.26-2.592 1.538l-.534.046.232.835c.464 2.074.844 4.107 1.146 6.014l.455 3.56.32.82c.048.494 0 .91 0 .963l-.034.808.094 1.216.146.834c.088.64.135 1.37.01 2.042l-.134.346c-.033.38-.08.667-.145.856-.115.337-.346.623-.653.804-.486.288-1.042.443-1.62.507l-1.13-.022-.17.033c-.52.023-1.03-.028-1.527-.137l-.562-.237c-.5-.132-.922-.27-1.23-.372-1.433-.472-3.404-1.7-5.568-3.427l-2-1.754-.99.47.877.61c.17.11.318.255.43.424.692 1.03 1.137 2.136.633 3.452-.036.093-.08.183-.135.267-1.097 1.723-3.336 2.594-6.137 2.857l-1.503-.01-.69.09c-.59.01-1.14-.008-1.62-.05l-.365-.058-.374-.003c-1.61-.144-3.286-.407-4.96-.76l-4.756-1.257-1.63.263c-7.034.666-17.815 2.24-24.37 2.155-2.126-.026-8.045.294-13.27-.133z" fill="#4c5d6e" stroke="none"/><path d="M81.352 41.53c1.49 2.61 4.51 10.596 8.14 9.717.34-.536 1.62.1 1.398-.74 3.505-1.72 4.205 4.618.9 7.6-5.237 4.734-12.493-4.093-14.79-8.09-6.35-11.04 3.38-13.245 4.274-8.623.025.042.05.09.078.135z" stroke-linejoin="round" stroke-linecap="round" fill="#aab7c5" stroke="#4c5d6e" stroke-width="1.5" stroke-miterlimit="79.84"/><path d="M85.732 53.23c-1.86-9.568-8.43-20.708-14.612-27.505C61.092 14.692 44.503 12 33.4 17.73 22.115 23.554 5.435 41.826 3.214 51.225c-1.733 7.335.432 20.106 5.3 25.5.43 6.016 18.605 4.668 23.208 4.727 6.45.083 17.022-1.468 24.21-2.15 4.578-.43 9.134-2.247 13.468-3.58 7.856-2.415 14.982-4.262 16.618-13.324.675-3.733-.2-5.814-.286-9.167z" stroke-linejoin="round" stroke-linecap="round" fill="#aab7c5" stroke="#4c5d6e" stroke-width="1.5" stroke-miterlimit="79.84"/><path d="M65.48 53.887c.73 9.08 14.55 22.62 19.85 24.37 1.452.48 3.77 1.094 5.015.358 1.194-3.524-4.622-48.45-21.488-37.247-3.965 2.634-3.345 5.26-3.044 9.49-.322.928-.42 1.948-.334 3.03zM48.306 74.193c3.712 4.456 25.1 10.133 28.55 4.72.247-.647.104-1.22-.48-2.09-4.09-2.63-17.5-13.842-21.13-13.25-5.512.9-6.667 6-6.983 10.565.014.018.03.036.043.055z" stroke-linejoin="round" stroke-linecap="round" fill="#aab7c5" stroke="#4c5d6e" stroke-width="1.5" stroke-miterlimit="79.84"/><path d="M3.85 48.094c3.3-4.78 14.203-7.87 21.652-7.508" stroke-linejoin="round" stroke-linecap="round" stroke="#4c5d6e" stroke-width="1.5" stroke-miterlimit="79.84"/><path d="M13.888 69.203c3.888 4.15 9.167 1.618 8.452-2.578-1.602-.7-5.785.713-7.83 1.098-.872.33-1.286.77-.622 1.48z" fill="#4c5d6e" stroke="none"/><path d="M22.058 60.133c2.853 10.12 17.163 5.465 12.298-3.28l-12.298 3.28zm-18.615 1.56c.193 7.53 10.665 6.842 8.926.154l-8.928-.154z" fill="#e9d695" stroke="none"/><path d="M18.758 70.35c.283 1.07.746 2.038 1.35 2.72m-1.636 4.652c-.88-8.008 6.093-3.796 9.597-1.07" stroke-linejoin="round" stroke-linecap="round" stroke="#4c5d6e" stroke-width="1.5" stroke-miterlimit="79.84"/><path d="M25.443 59.46c1.175 3.768 6.92 1.783 4.89-1.406l-4.89 1.405zm-19.39 1.437c-.296 3.595 4.9 3.917 4.33.515l-4.33-.515z" fill="#4c5d6e" stroke="none"/><path d="M18.183 58.642c-.522-2.46-.075-5.888.745-7.08m1.425 6.67c.258-1.53.552-3.29 1.435-4.504m-8.27 5.317c-.82-2.464-1.772-4.616-3.595-6.446m1.66 6.3c-1.232-1.147-1.893-3.178-3.46-3.995m22.78 17.488l7.734 1.325m-7.735 1.112l7.88 2.148" stroke-linejoin="round" stroke-linecap="round" stroke="#4c5d6e" stroke-width="1.5" stroke-miterlimit="79.84"/><path d="M48.397 76.122c-2.758-2.702 2.013-2.385 2.833-1.044 1.532 2.51 2.83-6.377 3.452-8.916.16-.648 3.46-.3 3.852-.474-.598-1.822 1.043-1.715 2.385-1.118 1.506.67-1.343-3.617-3.23-3.208-1.694.366-3.307-.82-4.94-.5-4.54.884-7.554 4.596-7.81 9.167-.106 1.89-.2 7.033 2.703 6.5l.753-.41zm16.743-17.34c-.83-3.736 2.87-2.023 4.107-1.957 3.407.207 8.97-3.697 10.72-6.422.626-.973 1.273-3.44 1.47-3.653.39.597 1.84 3.737 2.398 4.155.936-1.345-3.1-10.038-4.01-10.96-4.658-4.712-12.82-3.966-16.476 1.647-2.294 3.52-2.088 9.036-.79 12.893.19.557 2.184 4.348 2.58 4.298z" fill="#aab7c5" stroke="none"/><path d="M67.328 80.594c-1.23-1.348 2.534-6.186 5.367-5.888l3.897 2.967c.133 3.04-6.62 3.984-9.264 3.293-.02-.148.096-.268 0-.372zm10.36-8.274c2.832-1.713 11.386-1.802 12.52-.67.26.254.024 2.542.075 2.892.14.988.475 2.056.286 3.08-.115.615-.75.884-1.29 1.075-3.405 1.21-5.994-2.22-8.454-3.796l-3.14-2.58z" fill="#4c5d6e" stroke="none"/><path d="M3.373 55.66C2.333 51.4 2.43 37.974 4.39 39.97c.86.872 6.412 6.828 6.1 9.877-1.387 2.08-5.175 4.937-6.138 7.178-.145-.475-.855-.864-.98-1.366z" fill="#aab7c5" stroke="none"/><path d="M87.552 50.87c2.47 4.298 1.073 4.208-.365 7.567 2.174 1.83 5.135-.534 6.076-2.69.615-1.405 1.316-5.34-.707-5.154-1.145.105-2.627 1.105-5.004.278z" fill="#4c5d6e" stroke="none"/><path d="M10.08 74.54l-5.997 2.89m8.53-1.086L6.78 79.886m-.71-39.32C7.234 41.753 8 42.84 8.86 44.18m16.588-3.316c.855-2.465 4.097-10.735 7.155-10.584 3.924.194 7.126 15.146 7.75 18.782" stroke-linejoin="round" stroke-linecap="round" stroke="#4c5d6e" stroke-width="1.5" stroke-miterlimit="79.84"/><path d="M30.516 43.186c-.023-1.95 1.473-7.073 3.452-7.688 1.457 2.245 2.493 7.484 2.51 10.512-.726 1.78-5.24-2.16-5.962-2.824z" fill="#4c5d6e" stroke="none"/><path d="M21.423 59.795c3.04 7.98 9.993 7.576 13.23 4.437 2.282-2.21 2.25-6.02-.26-8.164l-12.97 3.727zM2.978 61.1l9.466.15c.258.406.356 2.585.223 3.205-.626 2.917-4.64 3.658-6.93 2.31-1.308-.768-3.49-4.372-2.76-5.664z" stroke-width="2.25" stroke="#4c5d6e" stroke-linecap="round" stroke-linejoin="round" stroke-miterlimit="79.84"/><path d="M2.747 42.945c1.64.71 3.572 4.094 3.03 5.954-.15.512-2.414 3.32-2.982 3.874-.804-2.645-.838-7.153-.2-9.888.05.017.102.036.152.058z" fill="#4c5d6e" stroke="none"/></g></svg>