<svg stroke-width=".501" stroke-linejoin="bevel" fill-rule="evenodd" xmlns="http://www.w3.org/2000/svg" overflow="visible" width="128" height="128" viewBox="0 0 96 96"><g fill="none" stroke="#000" font-family="Times New Roman" font-size="16"><path d="M49.303 85.513c23.678 0 42.896 2.267 42.896 5.06 0 2.793-19.22 5.06-42.898 5.06-23.678 0-42.896-2.267-42.896-5.06 0-2.793 19.218-5.06 42.896-5.06z" fill="#000" fill-opacity=".298" stroke="none"/><g stroke-linejoin="round"><path d="M58.25 94.382l-.842-.14-.815-.024c-.57-.102-1.076-.28-1.443-.506-1.196-.734-2.312-1.53-3.354-2.378l-.196-.183-.724.62c-1.568.92-3.302 1.497-5.247 1.588-12.086.568-20.065.637-24.97-1.895-1.268-.653-2.12-1.438-2.82-2.21l-1.866-2.07-2.458-1.456c-.92-.436-1.883-.806-2.773-1.08-.646-.2-1.078-.808-1.056-1.484l.5-1.26-.552-.358c-.86-.437-1.807-.857-2.832-1.406-.862-.46-1.06-1.61-.4-2.333l.196-.123-.703-.598c-.966-.935-1.878-2.13-2.037-3.5-.103-.89.593-1.672 1.49-1.672h.693l-1.08-5.31c-.21-2.178-.215-4.33-.093-6.406.4-6.84 2.214-13.623 3.224-19.204.714-3.942 1.932-7.66 1.85-10.8-.036-1.347-.322-1.81-.393-1.904.02.024-.252-.458-1.94-.752-3.09-.54-5.323-3.445-4.95-6.565.38-3.185 3.31-5.29 6.46-4.742 3.886.677 7.21 2.378 9.48 5.366 2.174 2.86 2.763 6.113 2.833 8.773.128 4.85-1.488 10.14-2.025 13.115-1.1 6.068-2.722 11.998-3.065 17.855l.017.884.15-.08c.354-.054.727.006 1.036.194l.178.26.562-1.193.886-.138.424-3.435c.952-7.893 2.404-19.226 7.4-28.96l1.776-2.98-1.4.07c-.997-.164-1.55-1.25-1.096-2.152.405-.805.962-1.927 1.82-2.848l.757-.58-.226-.22c-.4-.564-.362-1.328.09-1.85.738-.848 1.903-1.2 3.01-1.346l.743-.048-.07-1.944c.37-1.04 1.702-1.336 2.478-.552.862.872 1.618.603 3.226.354l1.386-.144 3.9-3.31-.155-.244C41.9 8.902 40.34 5.994 41.11 4.498c2.02-3.864 12.222-2.536 18.054-.57l1.984.9.36-.034c4.576-.108 9.914.263 14.786 1.85l1.648.666 1.837-1.654C82.594 3.73 86.3 2.176 90.33 1.23c4.175-.978 4.573 2.865 4.283 4.815-.275 1.848-1.418 5.206-1.478 5.486-.133.624-.644 1.094-1.275 1.175l-.905.04.987 1.108c.31.426.374.984.168 1.47-.21.492-.96 1.965-1.73 3.386l-.438.78.91 2.563c1.915 6.287 2.954 14.735.747 21.397l-1.574 3.41-.927 3.48c-.45 1.337-1.124 2.707-2.26 3.725-.81.724-1.967.35-2.364-.48l-.006-.06-1.17 1.785c-.667.91-2.07.78-2.558-.237-.245-.508-.36-.835-.448-1.064l-.138-.245-2.1.802-1.388 1.082 1.963 5.193c2.05 6.945 2.9 14.866 3.017 21.333.052 3 .363 6.138-.476 8.267l-.565.777-.075.24-.516.57-.14.17-.176.18c-.334.23-.73.373-1.194.4l-.218-.056c-1.702.03-3.49-1.22-3.95-1.673-1.44-1.423-4.703-5.54-7.897-9.802l-3.556-4.884L61.69 78.3l-.105.172.028 5.842c.012.366.08.906.158 1.547l.063.61.437.89c.108.655.077 1.25.06 1.46-.083.932-.243 1.743-.472 2.436l-.228.448-.17.67-.372.394-.11.214-.484.41-.3.318-.118.037.902-.764c-.708.92-1.646 1.38-2.728 1.402z" fill="#a75214" stroke="none"/><g stroke-linecap="round"><path d="M74.815 54.964c3.73 7.746 5.18 18.7 5.333 27.24.035 2.002.667 7.42-1.153 8.79-.892.672-2.926-.338-3.603-1.01C72.625 87.248 62.53 73.748 60.26 69.81c-1-1.737-.535-5.414.287-7.207 1.215-2.648 2.37-4.525 4.324-6.774 1.816-2.09 10.688-5.817 10.955-1.587l-1.01.72zm1.215-42.348c.76-3.915 6.617-8.04 14.646-9.927 4.823-1.13 1.4 6.646.997 8.526-1.506.193-3.305-.547-4.636.103 1.075 1.553 2.68 2.017 3.697 3.413-.442 1.04-2.92 5.656-3.258 5.994-8.93-1.472-12.108-4.71-11.447-8.112z" fill="#f68634" stroke="#a75214" stroke-width="1.5" stroke-miterlimit="79.84"/><path d="M21.347 90.13c-2.434-1.257-2.39-2.298-4.412-4.113-1.614-1.23-3.867-2.224-5.748-2.805.032-.947 1.13-.9 1.772-1.285-1.55-1.383-3.67-2.16-5.45-3.11.39-.427 1.365-.535 1.73-.938-1.22-1.05-3.66-2.506-3.89-4.47H7.22c.008 0 .28-.664.504-.696-1.338-4.143-1.596-8.397-1.36-12.43.393-6.724 2.16-13.272 3.203-19.025.656-3.63 1.96-7.768 1.87-11.108-.04-1.524-.366-2.338-.697-2.773-.26-.34-.905-.977-2.878-1.32-2.328-.406-3.994-2.605-3.72-4.91.276-2.306 2.388-3.85 4.716-3.444 3.61.627 6.557 2.176 8.546 4.794 1.913 2.52 2.462 5.422 2.527 7.907.123 4.65-1.414 9.555-2.002 12.81-1.065 5.887-2.735 12.06-3.085 18.034-.137 2.365.112 3.99.592 5.1.378.444.68-.096 1.01-.143.18-.91.38-1.554.287-2.594-.017 1.372 2.644 2.84 2.45-1.01.545.31 1.99.176 1.45-.94 1.182-8.978 2.31-24.938 10.404-36.65-.29-1.266-2.515-.38-3.424-.53.896-1.782 1.947-3.664 4.108-3.674-.38-.59-1.56-1.07-1.874-1.514.917-1.055 3.005-.875 4.612-.937-.127-.88-.958-2.014-.65-2.883 1.777 1.794 4.18.696 6.29.596 6.923-6.83 13.537-9.593 21.44-9.78 9.14-.217 20.478 1.54 25.444 10.248 3.475 6.097 6.937 21.303 1.612 29.87-.63 2.177-.906 4.882-2.758 6.54.052-.107.068-.907.072-1.155-.483-.545-1.6-1.27-2.283-.822.142 1.163-.803 2.45-1.537 3.45-.366-.76-.702-2.245-1.762-2.31-8.22 1.773-10.43 13.215-15.96 19.555-6.047 6.93-9.24 19.742-18.81 20.192-12.25.575-19.745.575-24.213-1.73z" stroke="#a75214" fill="#f68634" stroke-width="1.5" stroke-miterlimit="79.84"/><path d="M50.352 19.786c-1.075-2.577-8.756-12.954-7.91-14.598 2.597-4.97 34.332 2 19.164 10.195-1.67.903-9.877 4.727-11.254 4.403z" fill="#f68634" stroke="#a75214" stroke-width="1.5" stroke-miterlimit="79.84"/><path d="M48.51 18.773c.28.66 1.158.93 1.84.85.984-.488.095-1.757-.143-2.263 3.17-1.964 11.013-7.25 13.9-8.434.546.61.978.93 1.79.8.21-.375.396-.692.235-1.365 1.248.7 1.317 1.67 1.32 3.064.02 10.735-17.373 13.806-19.506 8.34.288-.258.476-.588.565-.99zm27.024-8.363c.67-.225 1.703-.46 2.808-.64.91.827 1.562 1.13 2.68.947.274-.32.087-.873.13-1.255.76-.034 1.427-.01 1.88.102.143.035.207.148.237.24.12.36.303.905.505 1.535l1.062-.34C85 11.945 86.31 13 86.11 13.965c-1.296-.34-1.788.93-1.19 1.972.03.387.01.688-.083.855-2.346 4.198-7.91-5.12-9.304-6.386z" fill="#f68634" stroke="none"/><path d="M59.957 22.22c-2.052.896-2.293 2.416-2.61 4.307-.49 2.924-.032 5.716 2.15 7.53 10.523 8.74 20.967-16.657 4.975-13.985-1.72.287-3.207.91-4.302 2.062-.074.026-.144.054-.213.084z" fill="#a75214" stroke="none"/><path d="M65.558 18.21c3.725-.012 6.76 3.004 6.77 6.73.01 3.724-3.005 6.758-6.73 6.77-3.725.01-6.76-3.006-6.77-6.73-.01-3.726 3.005-6.76 6.73-6.77z" stroke="#a75214" fill="#fff" stroke-width="1.5" stroke-miterlimit="79.84"/><path d="M67.445 44.98c2.302-1.65 7.08-5.424 9.753-5.795.9-.124 3.52 1.095 4.523 1.414" stroke="#a75214" stroke-width="1.5" stroke-miterlimit="79.84"/><path d="M63.882 22.59c1.424 0 2.58 1.157 2.58 2.58 0 1.425-1.156 2.58-2.58 2.58-1.424 0-2.58-1.155-2.58-2.58 0-1.423 1.156-2.58 2.58-2.58z" fill="#a75214" stroke="none"/><path d="M59.36 24.125c.616-4.754 7.01-7.454 10.682-3.413 1.713 1.886 1.9 3.034 1.827 4.248l-12.51-.835z" fill="#f68634" stroke="none"/><path d="M57.275 24.004l16.82 1.554" stroke="#a75214" stroke-width="1.5" stroke-miterlimit="79.84"/><path d="M57.242 46.37l10.53-7.067m-9.612.707l7.846-1.91m4.45-20.632l-3.533-5.16m.495 4.102l-2.757-2.193" stroke="#a75214" stroke-width="1.125" stroke-miterlimit="79.84"/><path d="M52.788 16.338c-.122-.18-.844-.333-.99-.495-1.022-1.144-5.29-6.4-5.088-7.704.38-2.427 10.34.71 11.873 1.483.635.32.962.782.637 1.484-.92 1.978-4.523 4.17-6.432 5.23zm35.902.352c.1-.428 1.052-1.59.85-1.978-.568-1.085-2.93-1.507-3.252-3.675.477-.974 3.587-.535 4.595-.424.55-.686.766-3.185.247-3.923-2.66.17-5.45 3.583-7.245 5.265.294.713 3.55 3.88 4.31 4.806l.496-.07zM26.968 73.412c5.17.29 10.814 11.962 7.35 14.7 2.28 0 13.977.982 14.988 0v-1.01c-1.908-2.64-7.95-1.616-10.665-1.44 3.77-7.094-8.263-16.95-11.383-13.26-.442.397.338.733-.288 1.01z" fill="#feb761" stroke="none"/><path d="M42.82 77.735c-.9 1.293-2.553 1.85-3.818 2.594.505 1.2.634 4.1-.073 4.9 2.426-.865 5.37-.37 7.42-1.227-.613-2.1-2.935-3.468-2.666-6.27h-.864z" fill="#feb761" stroke="none"/><path d="M59.9 57.99c.423 8.728-.086 17.594.215 26.375.074 2.154.933 5.442 0 7.35-.59 1.207-3.07 1.402-4.18.72-9.06-5.566-13.42-14.83-14.7-25.076-.754-6.043 5.577-11.956 11.242-11.964 1.07-.002 6.625 2.055 7.422 2.594z" fill="#f68634" stroke="#a75214" stroke-width="1.5" stroke-miterlimit="79.84"/><path d="M29.2 71.826c5.81.476 11.706 7.484 9.337 13.98 1.936-.22 7.48-1.03 9.184-.577" stroke="#a75214" stroke-width="1.5" stroke-miterlimit="79.84"/><path d="M39.794 66.45c-.166-2.536 3.31-2.24 3.17-.24 2.152-3.935 9.285-10.053 13.98-8.31.832.307 1.378 4.836 1.73 5.37.085-.7.783-2.122 1.585-1.82.503.405 1.23 1.184 1.583 1.726.276-2.335-1.65-8.067-3.603-9.463-6.233-4.456-12.638-2.72-17.58 1.588-1.197 1.044-3.655 5.757-1.947 7l1.08 4.15z" fill="#f68634" stroke="none"/><path d="M60.98 75.14c2.662-5.16 8.23-14.514 11.817-19.167 1.844-2.39 4.923-2.556 5.91-4.323-3.867 2.617-9.67 1.09-14.17-.556-.685 3.002-2.708 6.56-4.81 8.84.71.857.363 2.94 1.33 3.785.02.295.044.595.067.9.057.744.034 10.05-.144 10.52z" fill="#feb761" stroke="none"/><path d="M61.124 58.71c-4.8 3.22-1.4 17.05-1.44 32.428-1.13.575-2.07-1.136-2.307-2.017-1.89-7.017-3.91-22.747-.72-29.4 1.73-3.606 3.903-6.882 7.782-7.637.64 3.428-1.12 4.215-2.45 6.34-.313-.017-.6.08-.867.29zm10.726 2.422c.66 2.834 4.588 27.256 5.464 28.14.265-.1.468.27.82.14 2.693-3.866-.483-21.145-1.59-26.233-.38-1.753-1.417-4.463-1.585-5.62-.14.017-.284.327-.65.43-1.216 1.033-1.705 1.88-2.46 3.14z" fill="#feb761" stroke="none"/><path d="M52.132 88.39c1.966-1.266 6.228-3.444 8.27-1.72.408.344.483 1.454.434 2.018-.64 7.327-5.868 3.66-8.936-.144.073-.05.15-.1.232-.153zm20.52-1.864c1.966-.554 5.805-2.365 7.28-1.08.052 1.17.147 5.74-1.513 5.836-2.303.133-4.544-3.37-5.766-4.756z" fill="#a75214" stroke="none"/></g></g><path d="M83.77 35.6l4.088-.015" stroke-width="1.125" stroke="#a75214" stroke-linecap="round" stroke-linejoin="round" stroke-miterlimit="79.84"/><path d="M8.34 27.344l9.88-6.127c3.62 4.192 3.684 7.406 3.122 12.42l-11.268.165c.232-2.84-1.094-4.238-1.734-6.458z" stroke-width="2.25" fill="#dcd5c6" stroke="#948772" stroke-linecap="round" stroke-linejoin="round" stroke-miterlimit="79.84"/><path d="M11.547 32.626l8.07-7.062m-4.152 3.634l5.017 1.41" stroke-width="1.5" stroke="#948772" stroke-linecap="round" stroke-linejoin="round" stroke-miterlimit="79.84"/><path d="M83.7 37.933l12.317 3.023" stroke-linejoin="round" stroke-linecap="round" stroke="#a75214" stroke-width="1.125" stroke-miterlimit="79.84"/><path d="M37.544 45.563l9.573-6.89 2.627 3.53-.187.08-8.85 7.023-3.163-3.743z" stroke-linejoin="round" stroke-linecap="round" fill="#dcd5c6" stroke-width="1.5" stroke="#948772" stroke-miterlimit="79.84"/><path d="M41.964 37.783l6.89 9.573-3.53 2.627-.08-.187-7.023-8.85 3.745-3.163z" stroke-linejoin="round" stroke-linecap="round" fill="#dcd5c6" stroke-width="1.5" stroke="#948772" stroke-miterlimit="79.84"/><path d="M75.71 38.756c-2.437-.3-3.907-1.416-4.243-4.443 2.43-2.116 8.522-1.678 10.88-.244.605 2.644-2.2 4.91-3.953 4.826-.137-.01-2.548-.123-2.685-.14z" fill="#980b1f" stroke="none"/><path d="M76.98 33.95c1.562 0 2.828.475 2.828 1.06 0 .585-1.266 1.06-2.827 1.06-1.56 0-2.825-.475-2.825-1.06 0-.585 1.266-1.06 2.827-1.06z" fill="#feb761" stroke="none"/><path d="M70.917 7.03C79.46 10.888 89.6 26.268 91.92 34.32" stroke-linejoin="round" stroke-linecap="round" stroke-width="5.25" stroke="#272727" stroke-miterlimit="79.84"/><path d="M85.01 15.162c4.115 0 7.457 3.342 7.457 7.457 0 4.113-3.342 7.455-7.457 7.455s-7.457-3.342-7.457-7.457c0-4.116 3.342-7.458 7.457-7.458z" stroke="#272727" fill="#5a5656" stroke-width="1.5" stroke-linecap="round" stroke-linejoin="round" stroke-miterlimit="79.84"/><path d="M70.917 7.03C79.46 10.888 89.6 26.268 91.92 34.32" stroke-width="3" stroke="#5a5656" stroke-linecap="round" stroke-linejoin="round" stroke-miterlimit="79.84"/></g></svg>