<svg stroke-width=".501" stroke-linejoin="bevel" fill-rule="evenodd" xmlns="http://www.w3.org/2000/svg" overflow="visible" width="128" height="128" viewBox="0 0 96 96"><defs><linearGradient id="a" gradientUnits="userSpaceOnUse" x2="2.1" y2="2.1" gradientTransform="translate(38.228 15.047)"><stop offset="0" stop-color="#980749"/><stop offset="1" stop-color="#a75214"/></linearGradient></defs><g fill="none" stroke="#000" font-family="Times New Roman" font-size="16"><path d="M48.34 81.9c25.818 0 46.773 2.674 46.773 5.967 0 3.293-20.955 5.966-46.773 5.966-25.818 0-46.773-2.673-46.773-5.966S22.522 81.9 48.34 81.9z" fill="#000" fill-opacity=".298" stroke="none"/><path d="M.56 8.322l.486 1.34-.05.01.092.504.028.123L5.49 26.413c.155.57.456 1.06.844 1.426l.39.64c2.054 2.028 7.62 3.16 13.693 3.643l3.988.153.2 1.837c-.326 5.823-2.868 13.607-6.056 18.46l-.16.22-1.097.743-.207.046c-2.458 1.04-4.184 3.476-4.184 6.312l.152.752-.566.877c-1.073 1.95-1.64 3.897-1.807 5.79l.023 1.46-.822.664c-3.126 3.134-6.404 8.21-4.92 11.18l.142.228c1.9 2.533 7 2.208 10.66 1.746l2.575-.347 1.935 1.355c1.92 1.11 3.995 1.907 6.185 2.417l.893.092 1.116 3.863c1.05 2.708 2.733 5.2 5.394 5.274 2.998.083 6.96-3.97 9.458-7.355.524-.712 1.13-1.59 1.696-2.545l.402-.816 2.704-.78c9.997-3.68 19.82-10.43 26.8-18.257 5.115-5.735 11.912-14.506 15.023-23.816l.507-2.067.16-.293c.63-1.513 1.006-3.06 1.118-3.558 2.006-8.95 1.795-19.355-8.5-26.78C76.68 4.26 61.288.398 53.338 2.828L51.27 3.94l-.1-.05C45.833 1.72 36.613.748 28.127.748 14.927.748.56 2.984.56 8.322z" fill="url(#a)" stroke="none" transform="matrix(1 0 0 -1 0 96)"/><g stroke-linejoin="round" stroke-linecap="round"><path d="M13.51 27.59c-3.3-1.847-8.558-8.836-7.208-11.536 1.8-2.4 8.59-1.177 12.3-.75 9.51 1.095-.365 12.377-3.3 12.75-.546.07-1.155-.106-1.793-.463z" fill="#f68634" stroke-width="1.5" stroke="#a75214" stroke-miterlimit="79.84"/><path d="M25.78 64.754c.218-.765.394-1.66.322-2.95-.34-6.084-2.965-14.124-6.3-19.2-2.092-3.185-4.056-5.314-6-8.85-3.813-6.937-.558-13.917 4.5-18.15 13.8-11.55 40.65-.75 55.5 15.9 8.305 9.312 20.04 25.575 15.19 39.114-1.08 3.014-5.923 7.33-8.44 9.335-10.813 8.614-31.98 12.124-43.5 2.85-2.39-1.924-9.88-3.663-10.996-6.42-1.338-3.305-.757-9.94-.276-11.63z" fill="#f68634" stroke-width="1.5" stroke="#a75214" stroke-miterlimit="79.84"/><path d="M28.366 12.795c.368-2.8 1.807-10.437 5.536-10.54 4.162-.117 14.03 13.005 11.1 15.3-.76.594-4.44.69-5.4.6-5.517-.518-9.22-.664-11.25-5.25l.014-.11z" fill="#f68634" stroke-width="1.5" stroke="#a75214" stroke-miterlimit="79.84"/><path d="M25.514 42.003c-2.998 1.773-1.805 4.642-1.212 6.9.46 1.752 2.703 2.565 3.45 4.2 5.55 12.15 2.274 15.592 10.35 23.85 5.34 5.46 8.902-1.71 9.6-6.3 1.37-9.006 4.407-22.168-.75-29.85-2.336-2.572-12.048-2.827-15.6-.665-.192.398-.11.923-.563 1.176-2.36-.414-4.027-.05-5.276.69z" fill="#feb761" stroke="none"/><path d="M19.752 30.755c2.953 0 5.35 2.398 5.35 5.35 0 2.954-2.397 5.352-5.35 5.352s-5.35-2.398-5.35-5.35c0-2.954 2.397-5.352 5.35-5.352zM37.452 25.655c3.2 0 5.8 2.6 5.8 5.8 0 3.202-2.6 5.802-5.8 5.802-3.2 0-5.8-2.6-5.8-5.8 0-3.202 2.6-5.802 5.8-5.802z" fill="#fff" stroke-width="1.5" stroke="#a75214" stroke-miterlimit="79.84"/><path d="M55.202 80.403c1.493-2.342 3.136-4.88 3.558-7.65" stroke-width="1.5" stroke="#a75214" stroke-miterlimit="79.84"/><path d="M2.058 87.678c0-.37.14-.73.413-1.082.015-.163.045-.33.093-.503L6.937 69.98c.083-.305.25-.583.465-.81.5-2.267 9.426-4.076 20.35-4.076 10.92 0 19.844 1.807 20.35 4.072.23.23.412.508.513.813l5.25 16.113c.1.3.145.59.144.855.122.24.186.483.186.73 0 3.353-11.68 6.075-26.07 6.075-14.388 0-26.068-2.722-26.068-6.075z" stroke="#980749" stroke-width="1.5" fill="#c5023c" stroke-miterlimit="79.84"/><path d="M27.528 66.898c8.862 0 16.055 1.4 16.055 3.127 0 1.726-7.193 3.127-16.055 3.127s-16.055-1.4-16.055-3.127c0-1.726 7.193-3.127 16.055-3.127z" fill="#6d003b" stroke="none"/><path d="M7.836 70.554c4.307 5.912 35.03 6.776 39.682-.15" stroke="#e05f7d" stroke-width="1.5" stroke-miterlimit="79.84"/><path d="M85.72 67.483c-2.74 6.658-8.168 10.37-17.168 11.42-5.354.624-20.173-.336-18.6 9.3 1.2 7.35 23.25 4.2 32.4-2.4 9.578-6.908 9.864-16.535 7.914-25.235-.336-1.5-1.525-5.416-2.773-5.815-.165 1.125-.44 9.492-1.772 12.73z" fill="#f68634" stroke-width="1.5" stroke="#a75214" stroke-miterlimit="79.84"/><path d="M29.57 43.218c-2.016-.308-5.615-2.01-5.227-3.38.28-.996 2.14-1.67 3.08-2.06 1.703-.7 2.634-.876 4.465-1.123 4.907-.664 1.787 4.85-1.197 6.507-.22.124-.622.133-1.12.056z" fill="#a75214" stroke="none"/><path d="M28.684 38.686c1.15-.354 2.2-.267 2.342.193.142.46-.68 1.12-1.83 1.474-1.15.354-2.2.267-2.342-.193-.142-.46.68-1.12 1.83-1.474zM10.59 23.193c2.463 5.89 12.51 6.32 10.787-4.064-.185-1-1.222-1.814-2.597-2.34-.29.467-1.077 1.363-1.828 1.064-.285-.197-.75-1.16-.47-1.63-2.803-.36-5.842.344-6.28 2.68-.305 1.63-.12 3.075.388 4.29zM26.852 13.654c.368-.048.95.51 1.35.3 1.637-.864 1.91-2.7 4.8-3.6 5.206-1.618 8.087 2.688 10.5 3.9.902.453 1.848-.167 2.7.45.96.695 1.344 1.295 1.65 2.7 1.637 7.52-18.547 4.26-20.887-2.7l-.113-1.05zM85.84 50.668c1.514 2.765 6.82 14.682 2.737 16.91-.74.404-1.433.49-2.068.328.107-1.253-.562-2.397-1.857-1.328-3.08-3.845-2.904-14.744 1.188-15.91z" fill="#f68634" stroke="none"/><path d="M30.19 41.968l2.176 3.45M31.016 48.418l1.275-3 5.476 1.125" stroke-width="1.5" stroke="#a75214" stroke-miterlimit="79.84"/><path d="M39.416 43.768l10.425 3.15M39.49 41.518l10.65.675M29.08 25.694l-2.114-3.15M30.884 24.016l-1.986-1.67M21.786 27.794l-.52-3.225M19.39 27.72l.3-2.4" stroke-width="1.125" stroke="#a75214" stroke-miterlimit="79.84"/><path d="M20.205 36.944c1.443 0 2.615 1.172 2.615 2.615 0 1.442-1.172 2.614-2.615 2.614-1.443 0-2.615-1.172-2.615-2.615 0-1.444 1.172-2.616 2.615-2.616zM37.905 32.294c1.443 0 2.615 1.172 2.615 2.615 0 1.442-1.172 2.614-2.615 2.614-1.443 0-2.615-1.172-2.615-2.615 0-1.444 1.172-2.616 2.615-2.616z" fill="#a75214" stroke="none"/><path d="M32.552 13.054c.026-1.646-.14-5.678 1.95-6.15 1.866-.422 5.694 5.68 5.7 7.5-2.17 1.29-6.254-.06-7.65-1.35zM13.052 24.304c-1.863-1.335-4.637-3.07-4.35-5.55 2.163-.37 4.416.756 6 2.1.292 1.415-1.376 2.307-1.65 3.45z" fill="#feb761" stroke="none"/><path d="M69.94 28.544c-.89 3.524-8.133 6.51-6.795 8.763l.206.407c3.517 2.14 8.796-3.203 10.04-6.02-.833-1.412-2.118-2.544-3.28-3.472-.003.016-.162.308-.17.322zM76.153 34.837c-.95 3.755-9.5 7.556-8.076 9.955l.22.433c3.745 2.28 9.842-3.182 11.17-6.182-.89-1.504-3.31-4.223-3.314-4.206zM82.2 43.395c-1.076 3.16-8.564 6.18-7.537 8.245l.153.374c2.993 2.02 8.48-2.236 9.817-4.75-.64-1.295-1.18-2.933-2.152-3.8-.005.013-.275-.084-.28-.07z" fill="#a75214" stroke="none"/></g><path d="M25.016 44.368l-4.875 5.55M26.666 46.543l-4.725 6.375" stroke-width="1.125" stroke="#a75214" stroke-linecap="round" stroke-linejoin="round" stroke-miterlimit="79.84"/></g></svg>