<svg stroke-width=".501" stroke-linejoin="bevel" fill-rule="evenodd" xmlns="http://www.w3.org/2000/svg" overflow="visible" width="128" height="128" viewBox="0 0 96 96"><g fill="none" stroke="#000" font-family="Times New Roman" font-size="16"><path d="M48.13 81.742c25.333 0 45.895 2.426 45.895 5.414 0 2.988-20.562 5.414-45.896 5.414-25.336 0-45.898-2.426-45.898-5.414 0-2.988 20.562-5.414 45.896-5.414z" fill="#000" fill-opacity=".298" stroke="none"/><g stroke-linejoin="round"><path d="M26.472 89.882c-2.25-2.133-7.218-9.005-8.964-11.07l-1.117-1.214-1.485 2.124c-.627 1.035-.987 1.887-.984 2.605.02.24.21 1 .44 2.016-.046-.203.406 1.08.31 2.16l-.128.38.075.018c-1.19 4.846-6.37 1.88-7.223 1.005-5.96-5.796-7.3-20.915-5.668-30.707C2.73 51.16 7.528 42.34 7.108 37.165l-.004-.122c0-11.633.293-21.19 13.13-29.907C26.392 3.3 41.004-.08 46.96 7.14c.914 1.105 1.475 3.946.588 5.46-1.534 2.62-7.128 1.35-6.928 1.342-6.946.31-13.016.157-17.968 4.57-4.995 4.453-3.777 9.194-.946 12.265 3.247 3.52 10.134 1.558 16.322-.272 5.586-1.652 11.463-6.018 14.75-9.753l.19-.204-1.605-3.58c-1.003-2.633-1.612-5.448-.394-6.856 1.04-1.203 3.14-1.242 5.412-.746l3.414 1.063 1.38-.877c2.035-.918 4.497-1.01 6.577 0l.24.176.05-.1c1.07-1.3 2.73-2.323 4.077-2.536l.146-.016.695-.042c.053-.003.106-.003.157 0 1.253.055 3.155 1.102 4.402 2.494l.202.377.49-.356c2.773-1.35 6.226-.732 8.44 1.18l.148.18 2.453-.8c1.655-.37 3.143-.433 4.055.196 3.227 2.228 1.17 8.528-1.12 11.96l-.137.173 1.157 3.346c1.7 6.285 1.85 13.07 1.143 17.01-1.063 7.218-4.158 14.776-9.026 21.447l-.22.266-.855 6.47c-.32 2.36-.515 4.57-.215 6.305l.018.135c.42 5.304 2.983 7.712 2.684 9.514-.006.036-.377 2.752-2.42 2.9-5.365.395-9.897-4.058-13.315-9.162l-1.253-2.07-1.594 3.995c-1.304 4.685-1.43 8.914-5.22 9.077-4.01.206-6.117-2.984-7.08-7.288l-.183-1.38-1.94.263c-4.84.516-10.236.72-15.854.164l-1.566-.266 1.14 1.926c.472.913.856 2.05.856 3.693 0 .306-.094.604-.268.855-2.752 3.972-9.23 2.446-11.564.234z" fill="#a75214" stroke="none"/><g stroke-linecap="round"><path d="M55.445 22.02c-1.43-2.715-4.764-9.283-3.34-10.927 1.65-1.907 10.89 1.972 11.698 3.15 1.067 1.558-6.09 8.052-7.95 8.55l-.408-.772z" fill="#f68634" stroke-width="1.5" stroke="#a75214" stroke-miterlimit="79.84"/><path d="M56.284 17.71c-.996-.924-1.622-3.508-.84-4.177.904-.776 3.69.635 4.2 1.2-.836 1.316-1.923 2.222-3 3.225-.125-.057-.245-.142-.36-.248z" fill="#feb761" stroke="none"/><path d="M81.89 14.178c2.61-.78 8.997-3.716 10.563-2.635 2.735 1.888-1.092 10.792-3 11.55-1.95.775-7.213-7.074-8.1-8.775.153-.032.333-.08.536-.14z" fill="#f68634" stroke-width="1.5" stroke="#a75214" stroke-miterlimit="79.84"/><path d="M87.196 15.015c1.203-.62 2.29-1.226 3.72-.957.382 1.234-.038 3.576-1.236 4.275-1.238-.7-2.442-2.022-2.813-3.15l.33-.168z" fill="#feb761" stroke="none"/><path d="M65.754 67.043c2.08 5.052 9.082 21.99 18.45 21.3.65-.047.97-1.166 1.05-1.65.182-1.103-2.25-3.45-2.7-9.15-1.247-7.226 4.918-20.548-2.4-21.9-6.167-1.14-13.11 5.275-13.65 10.95l-.75.45z" fill="#f68634" stroke-width="1.5" stroke="#a75214" stroke-miterlimit="79.84"/><path d="M8.454 86.843c-5.4-5.25-6.87-19.67-5.25-29.4.9-5.4 5.85-14.85 5.4-20.4 0-11.55.3-20.4 12.45-28.65 6.104-3.803 19.62-6.52 24.75-.3.6.728.954 2.89.45 3.75-.998 1.704-4.374.54-5.7.6-6.74.3-13.462.103-18.9 4.95-5.762 5.136-4.312 10.862-1.05 14.4 4.033 4.374 12.145 1.837 17.85.15 5.917-1.75 12.023-6.306 15.45-10.2 8.796-9.994 15.44-13.103 28.35-8.55 9.766 3.445 12.038 21.415 10.613 29.365-2.06 13.99-12.016 29.33-27.825 36.45-1.724 1.125-8.354 2.442-11.474 2.775-10.91 1.165-24.51.69-37.014-6.49l-.27-.157c-1.957 2.64-3.87 5.147-3.863 7.207.004.692.973 3.895.74 4.2-.69 2.815-4.17.853-4.705.3z" stroke-width="1.5" stroke="#a75214" fill="#f68634" stroke-miterlimit="79.84"/><path d="M7.404 61.943c1.14 6.39 7.013 10.888 11.25 15.9 1.95 2.307 6.655 8.87 8.85 10.95 2.055 1.948 7.336 2.834 9.3 0 0-2.85-1.09-3.28-2.1-5.4-1.5-3.15-1.87-11.218-1.05-15 .63-2.9 2.86-4.89 2.4-7.8-1.457-9.21-19.105-12.26-25.95-8.7-4.06 2.11-3.31 6.636-2.7 10.05z" fill="#f68634" stroke-width="1.5" stroke="#a75214" stroke-miterlimit="79.84"/><path d="M65.474 32.634c-3.664-3.71-.29-13.936 3.297-16.483 4.873-3.466 9.204.068 11.654 5.698 4.088 9.397-1.442 14.52-9.336 12.466-1.987-.518-3.468.05-5.228-1.336-.136-.11-.266-.224-.386-.343z" fill="#feb761" stroke="none"/><path d="M71.767 18.794c-4.985 1.693-9.55 15.055-7.813 19.912 3.027 8.464 13.673 9.282 17.55.6 2.623-5.874-3.06-20.205-8.25-20.7-.498-.048-.995.02-1.487.188z" fill="#502c11" stroke="none"/><path d="M6.243 61.458c-.075-1.875 1.513-1.766 2.025.225l25.236 4.31c.22-1.814 3.227-.61 2.25.9 2.01-1.985 2.513-4.145 3-6.9 1.996-11.284-14.993-12.114-22.5-13.2-2.778-.402-6.573.288-9 1.8-1.032.643-2.977 11.52-2.436 12.94.09-.142 1.43.066 1.425-.075z" fill="#f68634" stroke="none"/><path d="M58.704 16.643c-1.076-5.167 6.08-8.572 9.9-4.65.006 4.31-6.448 5.833-9.9 4.65zm28.558 0c1.076-5.168-6.08-8.573-9.9-4.65-.006 4.31 6.448 5.832 9.9 4.65z" fill="#fff" stroke-width="1.5" stroke="#a75214" stroke-miterlimit="79.84"/><path d="M72.355 8.576c-2.33.368-4.464 3.282-3.652 4.34 1.414 1.846 6.39 2.025 8.203.133 1.227-1.284-1.43-4.41-3.856-4.516-.233-.01-.465.004-.695.04z" fill="#a75214" stroke="none"/><path d="M67.068 40.18c.47-1.88 4.53-2.516 6.076-.785 1.01-1.8 4.368-1.112 5.564-.066.596.52.213 1.243-.046 1.795-1.765 3.746-8.658 3.24-10.594 1.212-.74-.776-1.107-1.726-1-2.158z" fill="#c5023c" stroke="none"/><path d="M73 9.444c1.01 0 1.83.4 1.83.892s-.82.892-1.83.892c-1.01 0-1.83-.4-1.83-.892s.82-.892 1.83-.892z" fill="#f8dab6" stroke="none"/><path d="M34.893 80.658c-1.223-4.425-1.474-10.74.635-14.475 8.406 2.84 16.697 2.4 24.91-.3v.075c.112 5.117.636 9.467 1.68 13.2-7.754 2.823-18.375 2.85-27.225 1.5zm36.824-6.375c.615-1.478 6.93-10.568 6.375-11.925.937-6.926 7.977-15.725 9.525-9.225-.73 7.955-12.76 19.908-15.9 21.15z" fill="#feb761" stroke="none"/><path d="M72.992 14.133v3.825" stroke-width="1.5" stroke="#a75214" stroke-miterlimit="79.84"/><path d="M45.17 29.5c.763 1.335 2.768 4.977 3.626 4.007 1.518-.697.175-3.864-.887-5.724-.37.397-2.31 1.577-2.74 1.718zm-5.06 1.924c.48 2.094 1.652 7.54 4.402 6.493 1.2-.457-1.55-5.384-1.998-7.384-.752.19-1.605.653-2.427.79l.022.1zm-5.755 2.284c.005 2.443 1.363 8.775 3.388 8.25 1.425-.75-.63-6.977-1.05-9.075-.805.08-1.57.178-2.325.375-.01.135-.014.286-.013.45zm-6.58 1.277c.033 2.847-.007 4.43 1.12 7.348.04.105.415.647.523.675 1.828.482 1.133-7.335.9-8.7-.642.177-1.847.24-2.55.225l.006.452zm-4.565-.773c-1.385 2.318-1.6 4.494-1.292 7.22.03.27.38.96.675 1.05 2.113.647 2.443-6.182 2.7-7.874-.578-.048-1.424-.3-1.912-.675-.06.093-.115.186-.17.28zm-3.017-1.18c-.158.15-.26.34-.375.526l-.45.6c-.174.207-.282.463-.45.675-.182.23-.312.41-.45.675-.348.668-1.86 3.423-2.925 2.1-1.366-1.696 2.138-7.007 3.347-7.144.43.594 1.192 1.57 1.79 2.044-.128.154-.326.37-.487.525zm-2.395-4.787c-1.323.576-6.435 3.177-5.63-.387.547-.92 4.226-2.44 5.138-2.363.038.89.01 2.006.55 2.725l-.058.025zm-.23-4.812c-1.152-.384-3.3-.96-3.825-2.1-1.206-2.62 4.385-.393 4.875-.225-.712.73-.964 1.795-1.275 2.7l.225-.375zm2.232-4.63c-.77-.744-2.877-2.69-2.457-3.845.594-1.633 3.908 1.563 4.2 2.4-.594.424-1.26.867-1.725 1.462l-.018-.017zm3.846-3.496c-.425-1.275-1.18-2.05-.753-3.5 1.425-.444 2.768 1.79 3.075 2.738-.78.192-1.47.835-2.25.994-.023-.08-.047-.158-.072-.234zm5.022-1.867c-.012-.69-.697-3.158.3-3.507.94-.33 2.3 2.302 2.325 3.075-.867.31-1.816.05-2.625.43zm5.986-.973c-.277-1.065-.812-2.58.164-3.36 1.924-.5 2.38 1.865 2.55 3.15-.81.265-1.812.197-2.7.263l-.014-.053zm5.49-.477c-.515-.906.25-2.985 1.274-2.732 1.07.264 1.326 2.21 1.275 3.15-.456-.018-1.873.052-2.175-.075-.165-.07-.288-.19-.375-.342zm9.824 13.693c.484.846 1.5 3.225 2.775 2.025.963-.442.298-2.795-.375-3.975-.234.25-2.128 1.862-2.4 1.95z" fill="#a75214" stroke="none"/><path d="M58.432 64.768c-2.168 4.89-3.685 25.83 4.428 25.413 3.568-.152 1.84-5.994 5.867-13.026 2.635-4.6 16.515-22.424 7.255-24.013-3.25-.557-6.374.89-9.45 2.687-5.812 3.398-6.23 3.327-8.1 8.942z" fill="#f68634" stroke-width="1.5" stroke="#a75214" stroke-miterlimit="79.84"/><path d="M56.304 66.893c.617-.843 1.186-1.87 2.4-1.65.353.37 1.274 1.212 1.05 1.8l16.72-4.38c.3-.964 1.867-1.42 2.355-.422l2.475-8.187c-.822-5.283-11.35-4.654-15.888-1.998-2.42 1.415-4.424 3.62-6.356 5.534-1.095 1.084-2.377 6.215-2.422 7.917.017-.027-.356 1.414-.336 1.387z" fill="#f68634" stroke="none"/><path d="M77.567 84.858c.614-1.363 3.597-2.394 5.1-2.25.354.55 2.056 3.67 1.725 4.425-1.275 1.725-4.86-.223-5.775-1.425l-1.05-.75zm-18.783-.686c1.69-1.02 4.33-1 6.108-.55-.056 1.288-.31 4.85-1.575 5.467-2.628 1.277-4.64-2.64-4.752-4.778.07-.05.143-.096.22-.14zM24.408 83.4c2.135 3.045 5.976 7.104 9.585 6.183 2.833-.723.7-4.825-.15-5.175h-.225c-2.007.112-3.393.303-5.475 0-1.49-.217-3.352-1.17-4.39-1.994.194.31.414.642.655.986zM5.43 79.772c.078.344.17.75.213.886.08.263.395.734.525.975.213.396.263.7.525 1.125.972 1.58 2.227 4.41 4.425 4.35 2.2-.06.796-3.678.375-5.1-1.644.123-5.018-2.093-6.1-2.987l-.275-.31c-.043.177.188.43.188.524.004.005.058.25.124.54z" fill="#feb761" stroke="none"/><path d="M80.753 22.054l7.2 3.303m-7.8-5.79l7.2 1.197m-22.237 1.292l-7.2 3.303m7.8-5.79l-7.2 1.196" stroke="#a75214" stroke-width="1.125" stroke-miterlimit="79.84"/></g></g><path d="M76.52 23.086c-2.07-.962-4.348-.87-6.63-.205l-.65.254c.532-.85 2.327-2.83 4.2-2.512 1.375.235 2.362 1.744 3.08 2.466zm-8.03 19.397c2.245-1.01 6.314-1.203 9.08-.15-2.132 2.25-6.947 2.107-9.08.15z" fill="#f8dab6" stroke="none"/><path d="M69.25 41.058c.502 0 .91.408.91.91s-.408.91-.91.91-.91-.408-.91-.91.408-.91.91-.91zm7.292-.075c.502 0 .91.408.91.91s-.408.91-.91.91-.91-.408-.91-.91.408-.91.91-.91zm-6.317-18.6c.42 0 .76.34.76.76s-.34.76-.76.76-.76-.34-.76-.76.34-.76.76-.76zm5.288 0c.44 0 .797.357.797.797 0 .44-.357.797-.797.797-.44 0-.797-.357-.797-.797 0-.44.357-.797.797-.797z" fill="#f8dab6" stroke="none"/><path d="M63.68 9.744c1.01 0 1.83.82 1.83 1.83 0 1.01-.82 1.83-1.83 1.83-1.01 0-1.83-.82-1.83-1.83 0-1.01.82-1.83 1.83-1.83zm18.152 0c1.01 0 1.83.82 1.83 1.83 0 1.01-.82 1.83-1.83 1.83-1.01 0-1.83-.82-1.83-1.83 0-1.01.82-1.83 1.83-1.83z" fill="#a75214" stroke="none"/></g></svg>