<svg stroke-width=".501" stroke-linejoin="bevel" fill-rule="evenodd" xmlns="http://www.w3.org/2000/svg" overflow="visible" width="128" height="128" viewBox="0 0 96 96"><g fill="none" stroke="#000" font-family="Times New Roman" font-size="16"><path d="M58.81 85.234c17.985 0 32.583 2.282 32.583 5.093 0 2.81-14.598 5.093-32.583 5.093s-32.583-2.282-32.583-5.093c0-2.81 14.598-5.093 32.583-5.093z" fill="#000" fill-opacity=".298" stroke="none"/><path d="M40.76 89.547l.13-.988c3.254-6.163 9.997-12.957 6.084-21.604-.807-1.782-3.504-4.992-6.637-8.453l-2.89-3.123-.954 2.03c-1.04 2.332-1.986 4.524-3.324 6.493-1.06 1.56-3.748 1.044-4.32.816-1.435-.575-1.96-2.25-2.05-3.056-.28-2.57-.392-5.562-.032-8.52l.683-3.202-1.637 2.495c-1.904 3.327-2.84 6.32-4.163 9.734l-.324.5c-1.958 1.96-4.05 1.165-4.722.896-1.435-.573-1.96-2.25-2.05-3.054-.28-2.57-.39-5.562-.03-8.52l.572-2.683-1.165-.276c-5.7-2.058-10.646-6.65-12.015-13.493l-.17-1.632-.17-.255c-.32-.76-.498-1.593-.498-2.468 0-.874.176-1.708.497-2.466l.24-.354.03-.406.823-2.57-.563-.57c-.39-1.573-2.118-8.845-.568-11.292 1.62-2.557 4.936-1.786 7.783.097l.355.33 2.865-2.86C22.05 3.28 36.275-.89 49.138 3.785c13.285 4.832 26.986 19.28 32.41 33.986l.254.893 1.692-4.396c2.252-7.448 3.05-15.935.74-21.63-.217-.53-1.39-1.578-2.878-1.707l-1.173.173-.187.37c-2.18 2.798-8.45 3.795-9.363-1.78-.43-2.638.672-4.306 1.986-5.553 1.946-1.854 5.167-2.214 6.976-2.24 21.91-.314 15.577 32.95 8.13 46.78l-.442.973c-.242.467-.542 1-.885 1.574l-.634.97.9 4.74c1.617 12.228-.7 28.133-3.644 33.2-1.632 2.806-6.415 3.334-8.382 1.376l-.423-.984c-.035-1.38-.04-2.44.71-3.56l.56-.627-.076-.79c-.634-2.09-3.505-5.59-5.572-8.807l-.782-1.42-2.494 2.624c-7.466 7.584-15.557 14.642-19.192 15.054-2.134.242-5.806.12-6.61-3.457z" fill="#a75214" stroke="none"/><g stroke-linecap="round"><g stroke-linejoin="round" transform="matrix(1 0 0 -1 0 96)"><path d="M69.483 22.866c1.77-4.223 8.138-10.54 7.434-13.757-1.297-1.167-1.303-1.894-1.26-3.603 1.272-1.266 4.945-.943 6.122 1.08 4.45 7.655 6.89 39.394-2.163 45.378-8.322 5.5-14.74-8.293-14.405-17.647.152-4.28 3.73-7.967 4.2-11.285l.07-.17z" fill="#f68634" stroke-width="1.5" stroke="#a75214" stroke-miterlimit="79.84"/><a><path d="M76.62 5.752l-.218.144-.003.663c.032.86.23 1.284 1.017 1.99.117.105.198.244.23.397.8 3.654-5.847 10.33-7.472 14.204l-.055.135-.285 1.196-.092.236.056.04c.232.114.48.138.75.105 1.32-.164 5.85-2.01 8.534-1.317 1.883.485 3.788 2.23 5.4 3.43l.46.315-.023-.954c-.367-8.234-1.87-16.064-3.79-19.37-.823-1.415-3.295-1.757-4.51-1.214z" fill="#f8dab6" letter-spacing="0em" stroke="none"/></a></g><path d="M3.505 24.473c-.536-2.158-1.88-8.39-.75-10.174 2.05-3.23 10.526 2.805 10.11 5.9-.328 2.455-6.71 4.957-9.36 4.272zm15.012 19.994c-2.905 4.426-3.084 10.81-2.528 15.89.07.64.476 1.603 1.15 1.872.58.23 1.873.72 3.17-.58 1.73-4.464 2.88-8.5 6.626-13.54.315-.424.548-.875.864-1.296 1.084-1.447 4.434-4.002 4.035-5.907-.85-4.06-10.173.204-12.245 2.16-.393.44-.75.908-1.073 1.4z" fill="#f68634" stroke-width="1.5" stroke="#a75214" stroke-linejoin="round" stroke-miterlimit="79.84"/><g stroke-linejoin="round" transform="matrix(1 0 0 -1 0 96)"><path d="M30.28 50.525c3.958-4.624 16.053-16.57 18.006-20.888 4.296-9.493-3.188-17.312-6.122-22.868.513-2.286 2.84-2.593 5.042-2.344 6.447.73 31.29 27.557 33.492 32.413 8.063 17.77-12.13 46.776-32.052 54.02C28.84 98.063 5.756 83.327 3.27 67.812c-2.62-16.33 13.683-23.77 23.767-19.45l3.24 2.16z" fill="#f68634" stroke-width="1.5" stroke="#a75214" stroke-miterlimit="79.84"/><a><path d="M44.305 5.353c-.624.224-1.088.608-1.324 1.276l-.01.04.445.792c1.484 2.515 3.698 5.555 5.207 8.96 1.755 3.955 2.614 8.517.35 13.523-1.047 2.31-4.68 6.488-8.383 10.526-.95 1.034-1.91 2.066-2.845 3.068L35.717 45.7l.153.17c.83.65 1.66 1.71 2.63 1.2l.087-.08c4.986-4.63 14.57-21.29 20.91-23.45 3.286-1.12 6.74-.39 9.713.597l.19.066-1.7-1.814c-.88-.928-1.78-1.86-2.69-2.78-3.636-3.693-7.394-7.247-10.636-9.918-1.622-1.336-3.102-2.44-4.364-3.23-1.29-.805-2.26-1.222-2.887-1.293-1.056-.12-2.054-.093-2.815.18z" fill="#f8dab6" letter-spacing="0em" stroke="none"/></a></g><path d="M78.538 59.16l-.173.764c-8.084 1.915-9.582-25.37-1.01-23.914 2.03.345 1.99 5.182 4.76 5.84 4.118-8.57 6.762-21.597 3.453-29.753-.532-1.31-3.28-3.473-6.31-2.276-.716 2.817-6.478 4.073-7.203-.36-.33-2.012.456-3.232 1.556-4.276 1.52-1.444 4.228-1.82 6.01-1.844 19.474-.28 14.406 30.61 6.843 44.656-.817 2.34-6.317 10.273-7.922 11.164z" fill="#f68634" stroke-width="1.5" stroke="#a75214" stroke-linejoin="round" stroke-miterlimit="79.84"/><path d="M79.582 43.927c-.373 4.504-1.292 8.95.583 11.1 1.013 1.076 1.514-.068 2.377 0 2.116 2.46.484 11.81-4.898 10.515-9.587-2.307-15.107-15.407-12.82-24.202 1.002-3.856 2.057-7.57 5.762-9.506 1.524-.798 2.303-.56 3.745 0 5.408 2.09 5.663 7.125 5.253 12.093z" fill="#f68634" stroke="none"/><path d="M30.762 45.62c-2.905 4.425-3.085 10.81-2.528 15.888.07.642.478 1.604 1.152 1.873.58.234 2.196.298 2.593-.286 2.76-4.062 3.31-8.067 7.2-13.83.288-.425.55-.874.865-1.296 1.082-1.446 4.433-4.002 4.034-5.906-.85-4.06-8.59-5.414-10.66-3.457-.394.44-2.335 6.525-2.66 7.017z" fill="#f68634" stroke-width="1.5" stroke="#a75214" stroke-linejoin="round" stroke-miterlimit="79.84"/><path d="M30.79 40.62c.51-.802 1.75-1.04 2.63-.864.917.613.613 2.072.72 3.025.38 3.413 7.42-.114 8.067.578.184.198.385.385.576.576.695.642.3 1.1.528 1.92 3.5 3.11 7.197-6.403 3.796-9.843-1.864-1.884-3.872-2.27-6.483-2.303-7.794-.104-7.077 2.732-9.83 6.914zM3.69 22.332c.132.588.347 1.467.24 2.016 2.574 2.844 7.297-3.404 7.13-6.196-.21-3.54-7.11-3.244-7.217 4.033.035.096-.178.04-.154.147z" fill="#f68634" stroke="none"/><path d="M7.42 26.287c2.703 0 4.9 2.196 4.9 4.9s-2.197 4.9-4.9 4.9c-2.705 0-4.9-2.196-4.9-4.9s2.195-4.9 4.9-4.9zM24.61 26c2.703 0 4.9 2.196 4.9 4.9s-2.197 4.9-4.9 4.9c-2.705 0-4.9-2.196-4.9-4.9s2.195-4.9 4.9-4.9z" stroke-width="1.5" fill="#fff" stroke="#a75214" stroke-linejoin="round" stroke-miterlimit="79.84"/><path d="M12.904 36.88v.002c0 .976 1.127 1.767 2.513 1.767h1.86c1.387 0 2.513-.793 2.513-1.77s-1.126-1.767-2.513-1.767h-1.86c-1.386 0-2.513.792-2.513 1.767z" fill="#a75214" stroke="none"/><path d="M14.606 36.128c0 .308.78.558 1.74.558h.002c.96 0 1.74-.25 1.74-.557v-.003c0-.307-.78-.557-1.74-.557s-1.742.25-1.742.558z" fill="#feb761" stroke="none"/><path d="M16.15 38.19v3.274m-2.225 2.226l2.226-2.226 2.49 2.292m3.797-26.506c1.577-2.565 5.178-5.568 8.643-5.186 4.216.463 2.356 8.1 2.593 11.092" stroke-width="1.5" stroke="#a75214" stroke-linejoin="round" stroke-miterlimit="79.84"/><path d="M8.103 21.86c.5.773.55 1.762.865 2.592m1.152-2.882c.278.767.5 1.657.72 2.45m6.555.288c.306-.863.692-1.763 1.296-2.45m.794 2.378c.334-.87 1.05-1.7 1.296-2.593" stroke-width="1.125" stroke="#a75214" stroke-linejoin="round" stroke-miterlimit="79.84"/><path d="M8.513 30.09c.883 0 1.6.717 1.6 1.6 0 .883-.717 1.6-1.6 1.6-.883 0-1.6-.717-1.6-1.6 0-.883.717-1.6 1.6-1.6zm16.577 0c.882 0 1.598.717 1.598 1.6 0 .883-.716 1.6-1.6 1.6-.882 0-1.598-.717-1.598-1.6 0-.883.716-1.6 1.6-1.6z" fill="#a75214" stroke="none"/><path d="M28.27 43.33l-6.77-4.295m4.32 6.195l-5.04-4.035" stroke-width="1.125" stroke="#a75214" stroke-linejoin="round" stroke-miterlimit="79.84"/><path d="M29.29 53.81c-.513 2.873-.915 9.666 1.847 9.07.043-.024.105-.03.134-.07.99-1.294 3.495-6.763 3.658-8.31-1.078-1.148-4.623-2.625-5.527-1.235-.09.246-.02.05-.11.546zm-12.75-.164c-.224 2.186-.71 7.292.954 7.888 3.267 1.146 4.057-5.98 4.922-7.875-1.403-.503-4.688-1.573-5.807-.718l-.07.703zm9.648-33.842c.65-2.347 3.88-6.358 5.647-5.834 1.913.567 1.8 7.557.288 8.787-1.507 1.228-5.157-1.218-6.05-2.16-.008-.23.033-.498.115-.793zm-22.732-4.25c1.88 1.72 4.554 7.08.72 7.203-1.062-1.534-1.72-5.565-.72-7.202z" fill="#f8dab6" stroke="none"/><path d="M53.32 7.718c.72 6.094-5.977 11.283-4.71 14.962 4.72.22 8.387-8.02 9.024-11.863-1.437-1.22-2.594-2.786-4.365-3.452.02.12.035.237.05.353zm8.802 6.872c-.703 7.514-7.526 11.625-6.974 14.693 2.738 2.586 10.57-7.057 10.564-12.443-1.28-.67-2.148-2.45-3.566-2.536-.008.097-.015.192-.024.286zm8.15 7.773c-.992 5.013-8.474 9.864-8.185 12.64 2.948 1.812 11.207-5.976 10.948-9.51-.07-.95-1.91-2.413-2.725-3.334-.01.066-.024.134-.037.202z" fill="#a75214" stroke="none"/></g><path d="M4.007 42.85l6.463-4.102m-4.684 6.626L11.38 40.9" stroke-width="1.125" stroke="#a75214" stroke-linecap="round" stroke-linejoin="round" stroke-miterlimit="79.84"/></g></svg>