<svg stroke-width=".501" stroke-linejoin="bevel" fill-rule="evenodd" xmlns="http://www.w3.org/2000/svg" overflow="visible" width="128" height="128" viewBox="0 0 96 96"><g fill="none" stroke="#000" font-family="Times New Roman" font-size="16"><path d="M-2.033-.14v95.998h96v-96h-96z" stroke="none"/><path d="M69.955 66.837h-32.4c-.486 3.474 3.38 7.646 2.85 11.2-.446 2.986-1.68 6.43-1.95 8.872-.15 1.36 1.29 2.43 2.1 2.956 3.324 2.16 24.042 1.7 24.75-2.324.718-4.08-11.55-5.256 4.65-20.706z" fill="#6398e9" stroke="none"/><path d="M51.604 88.36c19.257 0 34.887 1.68 34.887 3.75 0 2.07-15.63 3.75-34.885 3.75-19.257 0-34.887-1.68-34.887-3.75 0-2.07 15.63-3.75 34.887-3.75z" fill="#000" fill-opacity=".298" stroke="none"/><path d="M13.436 1.378c1.576 0 2.856 1.28 2.856 2.856 0 1.576-1.28 2.856-2.856 2.856-1.576 0-2.856-1.28-2.856-2.856 0-1.576 1.28-2.856 2.856-2.856z" fill="#ab9e89" stroke="none"/><path d="M32.626 92.848l-.063-1.097c.317-2.244 2.945-5.14 5.28-7.275 2.63-2.897 1.46-11.74-3.668-16.607-6.143-5.09-10.467-16.22-11.782-24.652l9.304.04c-.48 1.933-.73 3.977-.73 6.104-.75 7.724 4.026 14.328 7.752 19.767 1.283 1.876 2.035 3.238 2.923 5.775 2.39 6.83.525 9.075-1.125 12.75-1.138.612 15.526.165 21.335.485 2.533.14-.54-2.115-1.46-6.035-.7-2.968.017-7.057 4.46-10.015 6.405-4.264 17.112-13.75 15.832-22.96-.263-1.885-.755-3.795-1.465-5.666l7.272.033c-1.95 11.754-1.09 18.695-17.7 28.67-3.675 2.557-7.008 6.492-4.38 10.357 2.884 3.286 7.737 5.41 8.47 9.23v1.098H32.626z" stroke-linejoin="round" stroke-linecap="round" stroke-width="1.5" stroke="#ab9e89" fill="#dcd5c6" stroke-miterlimit="79.84"/><path d="M24.493 49.376V11.048H2.34c-1.912 18.347-.537 35.64 14.963 48.65 5.417 4.546 11.617 6.784 17.562 10.33l-.687-.9c-4.445-3.796-9.685-12.493-9.685-19.752z" stroke-linejoin="round" stroke-linecap="round" fill="#dcd5c6" stroke-width="1.5" stroke="#ab9e89" stroke-miterlimit="79.84"/><path d="M2.493 10.935H24.53c-.864-3.22-5.472-5.677-11.017-5.677-5.548 0-10.154 2.458-11.02 5.677z" stroke-linejoin="round" stroke-linecap="round" fill="#f6f1e7" stroke-width="1.5" stroke="#ab9e89" stroke-miterlimit="79.84"/><path d="M3.975 12.36h18.7" stroke-linejoin="round" stroke-linecap="round" stroke-width="1.5" stroke="#f6f1e7" stroke-miterlimit="79.84"/><path d="M26.807 65.238c-.452-.328-1.035-.632-1.52-.926-.907-.547-1.81-1.146-2.678-1.75-2.793-1.942-5.44-4.138-7.773-6.615-1.943-2.062-3.624-4.214-5.142-6.607-6.683-10.533-7.648-23.16-6.82-35.303.083-1.238 1.157-2.176 2.395-2.094 1.24.082 2.177 1.156 2.095 2.394-.433 6.227-.404 12.64.734 18.797.285 1.553.62 3.147 1.07 4.662.597 2.006 1.253 3.93 2.106 5.843 2.013 4.514 4.814 8.586 8.208 12.175.763.807 1.553 1.62 2.372 2.37 1.418 1.3 2.828 2.544 4.34 3.735.58.46 1.247 1.04 1.872 1.416.523.348.667 1.058.32 1.582-.35.524-1.06.668-1.583.32z" fill="#f6f1e7" stroke="none"/><path d="M76.983 41.17v.45c0 .842.685 1.527 1.527 1.527h6.593c.842 0 1.527-.685 1.527-1.527v-.45c0-.84-.685-1.526-1.527-1.526H78.51c-.842 0-1.527.685-1.527 1.527z" stroke-linecap="round" fill="#dcd5c6" stroke-width="1.5" stroke="#ab9e89" stroke-linejoin="round" stroke-miterlimit="79.84"/><path d="M62.644 87.727c-7.564-11.56.158-14.755 7.903-20.348M40.594 87.576c4.51-6.86 2.93-13.454-2.734-20.388" stroke-linecap="round" stroke="#6398e9" stroke-width="1.5" stroke-linejoin="round" stroke-miterlimit="79.84"/><path d="M26.59.52c-1.034.065-1.8 1.008-1.71 2.103l3.25 39.446c.09 1.093 1.002 1.93 2.035 1.865 1.034-.066 1.8-1.01 1.71-2.104l-3.25-39.445C28.535 1.29 27.623.455 26.59.52z" stroke-linecap="round" fill="#dcd5c6" stroke-width="1.5" stroke="#ab9e89" stroke-linejoin="round" stroke-miterlimit="79.84"/><path d="M30.588 40.05c1.574 0 2.853 1.28 2.853 2.853 0 1.574-1.277 2.853-2.85 2.853-1.575 0-2.854-1.28-2.854-2.853 0-1.574 1.28-2.853 2.853-2.853z" stroke-linecap="round" fill="#dcd5c6" stroke-width="1.5" stroke="#ab9e89" stroke-linejoin="round" stroke-miterlimit="79.84"/><path d="M40.295 87.86h21.902" stroke-linecap="round" stroke="#6398e9" stroke-width="1.5" stroke-linejoin="round" stroke-miterlimit="79.84"/><path d="M46.22 50.268c-1.353-.27-6.473-1.084-6.82-2.38-.14-.52.18-.99.603-1.265 1.313-.838 7.04-3.96 8.57-2.674 1.213 1.016-1.564 5.396-2.353 6.317z" stroke-linecap="round" stroke-linejoin="round" fill="#f68634" stroke-width="1.5" stroke="#a75214" stroke-miterlimit="79.84"/><path d="M50.13 60.08c.668-2.673-2.425-2.76-3.863-5.155-4.9-8.16.865-16.137 7.038-17.638 5.25-2.1-.554-11.33 8.25-21.132 2.558-2.848 6.842-4.314 10.7-4.51 10.28-.524 16.298 3.915 18.033 12.045 1.286 6.025-.61 9.003-3.52 11.982.97 1.4 1.354 3.587-3.18 3.046-.99-.062-3.25-.068-3.59.552-.408.738-.63.847-1.975 1.605-.18.1-5.563 10.44-9.868 14.862-3.633 3.732-5.85 4.5-8.55 5.4-2.733.91-7.988 1.412-9.65-.525.074-.186.13-.363.174-.533z" stroke-linecap="round" stroke-linejoin="round" fill="#f68634" stroke="#a75214" stroke-width="1.5" stroke-miterlimit="79.84"/><path d="M83.603 18.26c-1.11-.486-5.644-6.55-4.348-6.078 2.775 1.016 2.76-3.008 1.812-4.092-6.09-6.952-14.915 1.97-21.578 4.634-3.21 1.282-7.85 2.37-11.35-.323-.527-.4-1.24-1.507-1.296-2.1-.054-.605.25-1.373 1.132-1.616.882-.242 1.505.458 2.857.863 1.723 1.023 4.18.698 6.143-.055 6.737-2.586 11.64-10.078 21.234-8.3 3.73.692 7.366 3.445 8.354 7.405.863 3.45-.608 5.55.678 8.597.253.598-3.026 1.36-3.644 1.082z" stroke-linecap="round" stroke-linejoin="round" fill="#f68634" stroke-width="1.5" stroke="#a75214" stroke-miterlimit="79.84"/><path d="M53.183 59.48c2.805-3.587 4.763-.27 9.786-3.587 2.97-1.963 5.656-6.024 8.087-8.597.437-.462.815-.97 1.194-1.473 2.85-3.265 3.95-3.508 4.808-3.807l-2.9 4.413c-.686 1.64-2.095 3.514-2.645 4.114-3.306 3.6-6.785 7.12-11.09 9.477-1.52.834-5.334 1.49-6.785.54-.427-.277-.533-.983-.457-1.08z" fill="#feb761" stroke="none"/><path d="M68.26 52.633c1.263 1.566 2.22 2.99 3.125 4.844.595 1.212 1.36 5.562 3.068 5.086 3.152-.877 1.155-12.265-2.168-13.913-.124.023-.25.043-.374.065-1.285 1.17-2.59 2.507-3.723 3.824.026.03.05.06.074.092z" stroke-linecap="round" stroke-linejoin="round" fill="#f68634" stroke-width="1.5" stroke="#a75214" stroke-miterlimit="79.84"/><path d="M67.405 51.987c-.788-.974 1.193-.098 2.1.75.848-1.217 2.256-2.1 3.298-2.76-.136-.367-.36-1.148-.025-1.477.365-.048-1.098-1.335-.873-1.163-1.11-4.95-6.018 1.085-5.9 4.1.018.428 1.08.155 1.4.55z" fill="#f68634" stroke="none"/><path d="M71.706 19.525c-7.04 5.82-2.91 17.87 8.226 16.417-7.446.61-10.086 4.77-8.597 6.025 2.91 2.453 5.705-3.174 9.07-3.114m4.875-5.415c.405 1.083.838 1.432 1.61 2.256" stroke-linecap="round" stroke-linejoin="round" stroke="#a75214" stroke-width="1.5" stroke-miterlimit="79.84"/><path d="M50.007 57.693c-.127 1.53-1.396 4.1-1.347 4.464.09.673 2.964 1.24 3.517.114.813-1.656-.995-3.774-2.165-4.977.01.128.006.263-.005.4z" fill="#a75214" stroke="none"/><path d="M47.37 45.324c-1.42-1.06-6.112-2.604-6.21-4.443-.143-2.61 8.907-3.51 9.956-2.263 1.628 1.942-3.08 5.682-3.746 6.708z" stroke-linecap="round" stroke-linejoin="round" fill="#f68634" stroke-width="1.5" stroke="#a75214" stroke-miterlimit="79.84"/><path d="M52.69 49.914c1.814 0 3.287 1.473 3.287 3.287 0 1.816-1.473 3.29-3.287 3.29-1.814 0-3.287-1.474-3.287-3.288 0-1.813 1.473-3.286 3.287-3.286z" stroke-linecap="round" stroke-linejoin="round" fill="#fff" stroke-width="1.5" stroke="#a75214" stroke-miterlimit="79.84"/><path d="M46.31 46.104c1.437-.106 1.285-1.745.673-1.77.804-1.792 2.578-3.702 2.952-5.373 1.207.04 2.69.444 2.39-.55 1.433-.81.706 1.103.54 2.058-.433 2.497-3.885 6.522-6.428 5.97.002-.12-.04-.232-.126-.333z" fill="#f68634" stroke="none"/><path d="M56.53 33.076c1.063.586 4.01 1.49 5.07.59 1.48-1.257-3.668-2.448-4.35-2.997-.166.474-.807 1.963-.72 2.405zm.912-4.116c1.212.264 4.368 1.065 5.453.66.56-.213.552-.806.15-1.144-1.734-1.456-3.618-1.608-5.243-2.684-.48.958-.8 2.08-.36 3.167zm.716-5.185c1.23.402 4.392 1.58 5.257 1.158 2.297-1.12-4.08-3.358-4.49-3.538-.412.67-.747 1.5-.96 2.317.057.018.122.038.193.063z" fill="#a75214" stroke="none"/><path d="M77.494 12.724c.044.186 1.195.01 1.355.068.83.303 2.476.06 2.91.27.906.447 2.83 2.495 3.586 2.573-.025.086.075.038.068.203-.002.05.12.205.135.27.147.64 1.554 1.122 1.623 2.1.058.8-.83 1.34-1.556 1.285-3.396-.26-9.148-3.313-8.124-6.77z" fill="#f68634" stroke="none"/><path d="M52.19 53.96c.756 0 1.37.614 1.37 1.37 0 .756-.614 1.37-1.37 1.37-.756 0-1.37-.614-1.37-1.37 0-.756.614-1.37 1.37-1.37z" fill="#a75214" stroke="none"/><path d="M43.085 41.34c1.733-.547 3.103-.197 4.84.035.99.135 1.075 1.415.35 1.884-1.062.686-4.614-1.176-5.19-1.92zm-2.638 6.3c.554-.166 2.915-1.143 2.607.61-.6.47-1.968-.293-2.607-.61z" fill="#feb761" stroke="none"/><path d="M56.496 66.775l1.2-4.602" stroke-linecap="round" stroke="#de6287" stroke-width="2.25" stroke-linejoin="round" stroke-miterlimit="79.84"/><path d="M53.346 78.633l2.7-10.358" stroke-linecap="round" stroke="#ffa1b4" stroke-width="2.25" stroke-linejoin="round" stroke-miterlimit="79.84"/><path d="M50.28 64.773l1.01-3.353m1.467 3.512l-.086-3.06m2.007-2.7l3.864-3.927m-2.28 4.44l3.8-1.64" stroke-linecap="round" stroke-width="1.125" stroke="#a75214" stroke-linejoin="round" stroke-miterlimit="79.84"/><path d="M38.96 89.396h24.762" stroke-linecap="round" stroke="#f6f1e7" stroke-width="1.125" stroke-linejoin="round" stroke-miterlimit="79.84"/></g></svg>