<svg width="1150" height="23" viewBox="0 0 1150 23" xmlns="http://www.w3.org/2000/svg"><path d="M1150 23c-9.017 0-13.728-4.59-17.514-8.276C1129.074 11.4 1126.61 9 1121.252 9c-5.358 0-7.823 2.4-11.235 5.724-3.786 3.688-8.497 8.276-17.514 8.276s-13.728-4.59-17.514-8.276C1071.576 11.4 1069.11 9 1063.754 9s-7.822 2.4-11.234 5.724c-3.785 3.688-8.496 8.276-17.513 8.276s-13.73-4.59-17.515-8.276C1014.08 11.4 1011.615 9 1006.257 9c-5.357 0-7.822 2.4-11.234 5.724C991.236 18.41 986.525 23 977.51 23s-13.73-4.59-17.515-8.276C956.583 11.4 954.118 9 948.76 9s-7.82 2.4-11.233 5.724C933.74 18.41 929.027 23 920.012 23s-13.73-4.59-17.515-8.276C899.085 11.4 896.62 9 891.263 9s-7.822 2.4-11.234 5.724C876.24 18.41 871.53 23 862.513 23s-13.73-4.59-17.515-8.276C841.586 11.4 839.12 9 833.763 9c-5.355 0-7.82 2.4-11.23 5.723C818.746 18.41 814.035 23 805.02 23c-9.016 0-13.728-4.59-17.514-8.276C784.094 11.4 781.63 9 776.27 9c-5.355 0-7.82 2.4-11.23 5.723C761.252 18.41 756.54 23 747.525 23c-9.017 0-13.73-4.59-17.514-8.277C726.602 11.4 724.137 9 718.78 9s-7.822 2.4-11.234 5.723C703.76 18.41 699.05 23 690.032 23c-9.016 0-13.727-4.59-17.512-8.276C669.11 11.4 666.645 9 661.287 9s-7.822 2.4-11.234 5.724C646.267 18.41 641.556 23 632.54 23s-13.73-4.59-17.516-8.276C611.612 11.4 609.147 9 603.788 9c-5.357 0-7.822 2.4-11.234 5.724C588.768 18.41 584.057 23 575.04 23c-9.016 0-13.728-4.59-17.514-8.276C554.116 11.4 551.65 9 546.292 9s-7.823 2.4-11.234 5.724C531.272 18.41 526.56 23 517.544 23s-13.73-4.59-17.514-8.276C496.62 11.4 494.153 9 488.796 9c-5.358 0-7.823 2.4-11.235 5.724C473.775 18.41 469.063 23 460.047 23c-9.017 0-13.73-4.59-17.516-8.276C439.118 11.4 436.653 9 431.293 9c-5.358 0-7.823 2.4-11.235 5.724C416.272 18.41 411.56 23 402.543 23s-13.73-4.59-17.515-8.276C381.616 11.4 379.15 9 373.792 9c-5.358 0-7.823 2.4-11.235 5.724C358.77 18.41 354.06 23 345.042 23s-13.73-4.59-17.515-8.276C324.114 11.4 321.65 9 316.29 9s-7.823 2.4-11.235 5.724C301.27 18.41 296.555 23 287.54 23c-9.02 0-13.73-4.59-17.517-8.276C266.61 11.4 264.145 9 258.786 9c-5.357 0-7.822 2.4-11.234 5.724C243.767 18.41 239.055 23 230.04 23c-9.018 0-13.73-4.59-17.516-8.276C209.112 11.4 206.647 9 201.29 9s-7.825 2.4-11.237 5.724C186.267 18.41 181.555 23 172.538 23c-9.018 0-13.73-4.59-17.517-8.276C151.61 11.4 149.145 9 143.785 9s-7.825 2.4-11.238 5.724C128.76 18.41 124.046 23 115.03 23c-9.02 0-13.73-4.59-17.518-8.276C94.1 11.4 91.632 9 86.272 9s-7.825 2.4-11.238 5.724C71.25 18.41 66.536 23 57.518 23 48.5 23 43.788 18.412 40 14.724 36.586 11.4 34.12 9 28.76 9s-7.828 2.4-11.24 5.724C13.73 18.41 9.02 23 0 23v-9c5.36 0 7.827-2.4 11.24-5.724C15.03 4.588 19.74 0 28.76 0s13.73 4.588 17.518 8.276C49.69 11.6 52.158 14 57.518 14s7.825-2.4 11.238-5.724C72.543 4.59 77.256 0 86.273 0s13.73 4.59 17.517 8.276C107.203 11.6 109.67 14 115.03 14s7.825-2.4 11.237-5.724C130.054 4.59 134.767 0 143.784 0s13.73 4.59 17.517 8.276C164.714 11.6 167.18 14 172.54 14s7.824-2.4 11.236-5.724C187.56 4.59 192.272 0 201.29 0c9.016 0 13.728 4.59 17.514 8.276C222.216 11.6 224.68 14 230.04 14c5.356 0 7.82-2.4 11.233-5.724C245.06 4.59 249.77 0 258.786 0c9.017 0 13.73 4.59 17.516 8.276C279.714 11.6 282.18 14 287.54 14c5.358 0 7.823-2.4 11.235-5.724C302.562 4.59 307.275 0 316.29 0c9.018 0 13.73 4.59 17.516 8.276C337.218 11.6 339.683 14 345.042 14c5.36 0 7.824-2.4 11.236-5.724C360.063 4.59 364.775 0 373.792 0s13.73 4.59 17.516 8.276C394.72 11.6 397.185 14 402.543 14s7.823-2.4 11.235-5.724C417.565 4.59 422.278 0 431.293 0c9.018 0 13.73 4.59 17.516 8.276C452.22 11.6 454.685 14 460.044 14c5.358 0 7.823-2.4 11.235-5.724C475.067 4.59 479.78 0 488.796 0c9.016 0 13.728 4.59 17.514 8.276C509.722 11.6 512.187 14 517.545 14c5.357 0 7.822-2.4 11.234-5.724C532.563 4.59 537.274 0 546.29 0c9.016 0 13.728 4.59 17.514 8.276C567.216 11.6 569.682 14 575.04 14c5.357 0 7.822-2.4 11.234-5.724C590.06 4.59 594.77 0 603.788 0c9.018 0 13.73 4.59 17.516 8.276C624.716 11.6 627.18 14 632.54 14c5.356 0 7.82-2.4 11.233-5.724C647.56 4.59 652.27 0 661.287 0s13.728 4.59 17.513 8.277C682.21 11.6 684.676 14 690.032 14c5.357 0 7.822-2.4 11.234-5.724C705.052 4.59 709.764 0 718.78 0s13.727 4.59 17.512 8.276C739.704 11.6 742.17 14 747.526 14c5.356 0 7.82-2.4 11.232-5.723C762.544 4.59 767.255 0 776.27 0c9.018 0 13.73 4.59 17.516 8.276C797.198 11.6 799.663 14 805.02 14c5.357 0 7.822-2.4 11.233-5.724C820.038 4.59 824.75 0 833.763 0c9.018 0 13.73 4.59 17.516 8.276C854.69 11.6 857.154 14 862.513 14s7.823-2.4 11.235-5.724C877.534 4.59 882.246 0 891.262 0c9.017 0 13.728 4.59 17.514 8.276C912.19 11.6 914.654 14 920.012 14s7.823-2.4 11.235-5.724C935.033 4.59 939.744 0 948.76 0s13.73 4.59 17.515 8.276C969.687 11.6 972.152 14 977.51 14s7.82-2.4 11.233-5.724C992.53 4.59 997.24 0 1006.257 0s13.73 4.59 17.515 8.276c3.412 3.323 5.877 5.724 11.235 5.724 5.357 0 7.822-2.4 11.234-5.724C1050.028 4.588 1054.74 0 1063.756 0s13.728 4.59 17.514 8.276c3.41 3.323 5.876 5.724 11.233 5.724s7.822-2.4 11.234-5.724c3.786-3.688 8.498-8.276 17.515-8.276s13.728 4.59 17.514 8.276C1142.178 11.6 1144.643 14 1150 14v9z" fill="#63D1BB"/></svg>