<svg width="101" height="77" viewBox="0 0 101 77" xmlns="http://www.w3.org/2000/svg"><path fill="#63D1BB" d="M97.117 18.204s-.92-7.008-3.785-10.078c-3.632-4.04-7.674-4.066-9.54-4.297-13.327-1.024-33.304-1.024-33.304-1.024h-.05s-19.98 0-33.305 1.023c-1.867.23-5.908.255-9.54 4.296-2.84 3.096-3.786 10.078-3.786 10.078s-.896 8.21-.896 16.422v7.7c0 8.21.948 16.42.948 16.42s.92 7.01 3.785 10.078c3.632 4.04 8.364 3.913 10.487 4.35 7.622.766 32.356 1.02 32.356 1.02s20.003-.024 33.33-1.047c1.866-.23 5.907-.256 9.54-4.298 2.84-3.07 3.785-10.08 3.785-10.08s.947-8.21.947-16.42v-7.7c-.023-8.235-.97-16.446-.97-16.446z"/><path fill="#FFF" d="M50.476 76.945h-.016c-1.015-.01-24.946-.266-32.604-1.037l-.14-.014-.137-.028c-.272-.056-.67-.107-1.127-.167-2.503-.33-7.16-.94-10.84-5.02-3.353-3.616-4.376-10.77-4.482-11.576l-.004-.043C1.086 58.72.16 50.6.16 42.326v-7.7c0-8.265.876-16.377.913-16.72l.01-.07c.107-.802 1.154-7.928 4.473-11.557 3.996-4.44 8.53-4.9 10.712-5.12.192-.02.37-.038.53-.06l.125-.012C30.2.066 50.235.056 50.437.056h.05c.202 0 20.237.012 33.515 1.03l.126.013c.16.02.337.037.53.057 2.178.22 6.71.682 10.703 5.112 3.355 3.615 4.378 10.77 4.484 11.576l.005.043c.038.34.964 8.458.99 16.752v7.708c0 8.273-.927 16.395-.966 16.736l-.007.053c-.108.804-1.156 7.952-4.478 11.56-3.995 4.436-8.528 4.897-10.708 5.118-.193.02-.37.037-.53.057l-.126.013c-13.276 1.02-33.334 1.057-33.535 1.058h-.014zm-31.944-6.497c7.477.73 31.216.99 31.968.997.657 0 20.135-.05 33.047-1.036.178-.022.37-.042.58-.063 1.836-.186 4.608-.468 7.186-3.335l.026-.03c1.824-1.973 2.852-6.927 3.074-8.55.06-.515.926-8.36.926-16.08v-7.7c-.023-7.76-.896-15.627-.95-16.11-.32-2.38-1.435-6.788-3.067-8.538l-.035-.038c-2.577-2.868-5.35-3.15-7.186-3.336-.21-.02-.402-.04-.58-.062-13.066-.998-32.834-1.01-33.033-1.01h-.052c-.198 0-19.967.012-33.033 1.01-.177.02-.37.04-.58.062-1.835.187-4.607.468-7.186 3.336l-.02.02c-1.828 1.994-2.855 6.925-3.082 8.553-.062.59-.875 8.398-.875 16.088v7.7c0 7.748.87 15.597.926 16.082.32 2.38 1.432 6.79 3.065 8.54l.035.038c2.322 2.584 5.303 2.975 7.48 3.26.48.06.938.12 1.362.2z"/><path fill="#FFF" d="M35.627 20.646v35.708L65.374 38.5"/></svg>
