<svg viewBox="0 0 512 512" width="512" height="512" xmlns="http://www.w3.org/2000/svg"><path d="M 393.103 23.907 C 399.288 23.908 405.433 24.914 411.296 26.887 L 454.536 41.429 C 458.36 42.711 461.362 45.713 462.645 49.537 L 477.175 92.745 C 484.085 113.306 478.756 136.008 463.418 151.347 L 381.766 232.998 C 377.272 237.49 369.988 237.49 365.495 232.998 L 361.595 229.098 C 362.336 228.369 363.014 227.578 363.62 226.734 C 373.493 212.492 382.543 197.697 390.727 182.422 C 398.209 168.221 403.393 155.804 406.122 145.491 C 410.852 127.628 408.68 113.905 399.675 104.695 C 395.513 100.454 387.94 95.381 375.422 95.381 C 360.197 95.381 339.423 102.989 311.918 118.657 C 293.021 129.413 277.933 140.046 277.296 140.501 C 276.459 141.103 275.675 141.776 274.953 142.513 L 271.053 138.613 C 266.56 134.119 266.56 126.834 271.053 122.341 L 352.692 40.645 C 363.409 29.926 377.946 23.905 393.103 23.907 Z M 375.388 113.529 C 380.13 113.529 384.008 114.665 386.645 117.371 C 405.122 136.246 348.712 216.294 348.712 216.294 C 343.822 211.404 336.387 205.947 328.996 205.947 C 325.039 205.961 321.263 207.606 318.558 210.495 L 240.467 288.587 L 220.113 283.947 L 215.474 263.597 L 293.566 185.505 C 303.583 175.465 295.056 162.57 287.756 155.305 C 287.756 155.305 346.883 113.529 375.388 113.529 Z M 200.262 278.469 L 202.434 287.963 C 203.989 294.776 209.309 300.097 216.123 301.652 L 225.617 303.824 L 70.979 458.461 C 61.388 468.387 44.647 464.209 40.846 450.94 C 39.021 444.569 40.858 437.71 45.625 433.106 L 200.262 278.469 Z" fill-opacity="1" transform="matrix(0, 1, -1, 0, 504.077208, -16.228044)" fill="rgb(249, 245, 240)"/></svg>
