<svg width="100" height="100" fill="none" xmlns="http://www.w3.org/2000/svg"><path fill-rule="evenodd" clip-rule="evenodd" d="M36.415 24.388c2.793.725 2.369-4.617 3.9-4 2.746 1.107 4.254 4.033 8.07 1.536 2.741-1.795 3.678 2.02 7.555-.447 2.29-1.46 4.622 2.953 8.15 1.182 5.37-2.695 19.737-24.175 29.022-18.55 7.57 4.587-4.786 40.502-6.199 44.892-1.945 6.04-4.692 27.006-14.589 31.208-10.462 4.438-14.094 8.555-21.212 8.555-6.011 0-11.598-4.866-21.82-8.578-8.654-3.142-15.715-29.188-17.703-32.82C7.811 40.461.486 5.163 7.51 3.52c10.053-2.364 23.15 19.37 28.906 20.869z" fill="#F05B29"/><path d="M51.111 89.461c-3.735 0-7.221-1.748-11.63-3.962-2.959-1.483-6.313-3.165-10.43-4.663-6.957-2.53-12.6-18.268-15.969-27.675-.937-2.615-1.677-4.678-2.11-5.47-3.359-6.138-9.657-34.453-6.02-42.598.57-1.272 1.375-2.04 2.397-2.28 6.694-1.56 14.41 6.656 20.605 13.26 3.438 3.665 6.684 7.123 8.634 7.632.82.212 1.169-.335 1.753-1.993.32-.904.593-1.682 1.248-1.974.217-.099.56-.179.99-.004.824.33 1.516.796 2.185 1.243 1.658 1.107 2.86 1.908 5.234.354 1.568-1.027 2.727-.556 3.745-.137 1.088.443 2.025.824 3.815-.316 1.404-.895 2.794-.146 4.023.518 1.347.73 2.62 1.418 4.193.627 1.517-.763 3.943-3.274 6.755-6.185C77.279 8.852 86.522-.715 93.479 3.5c5.069 3.071 3.194 18.117-5.568 44.723-.136.42-.25.754-.325.99-.372 1.158-.787 2.93-1.272 4.983-2.03 8.653-5.426 23.144-13.712 26.658-3.727 1.582-6.553 3.109-9.05 4.451-4.47 2.412-7.702 4.155-12.44 4.155zM9.078 4.038c-.48 0-.947.051-1.408.16-.57.132-1.05.631-1.428 1.479-3.325 7.443 2.864 35.665 5.969 41.34.485.891 1.206 2.898 2.2 5.673 3.07 8.568 8.79 24.519 15.12 26.822 4.193 1.522 7.585 3.227 10.581 4.725 4.244 2.13 7.598 3.81 11 3.81 4.38 0 7.32-1.587 11.771-3.984 2.52-1.362 5.38-2.902 9.167-4.513 7.627-3.236 10.925-17.284 12.894-25.678.49-2.082.909-3.882 1.3-5.092.08-.24.188-.58.33-.999 3.867-11.734 12.205-39.424 6.18-43.074-5.997-3.632-14.787 5.464-21.203 12.11-3.02 3.129-5.408 5.597-7.137 6.468-2.233 1.122-4.041.142-5.497-.645-1.206-.65-1.917-.998-2.59-.57-2.403 1.536-3.906.923-5.112.433-.933-.376-1.493-.607-2.44.015-3.156 2.068-5.088.777-6.793-.363-.584-.391-1.187-.796-1.842-1.074-.146.207-.33.74-.461 1.102-.457 1.296-1.225 3.467-3.444 2.888-2.346-.608-5.417-3.887-9.308-8.032C21.444 11.198 14.722 4.038 9.078 4.038z" fill="#131741"/><path fill-rule="evenodd" clip-rule="evenodd" d="M76.219 46.999c-.5-1.62-2.62-2.6-4.301-2.93-1.319-.33-2.704 0-3.858-.16.165-1.126 1.022-4.701-1.522-4.372-1.319 0-2.703 3.873-3.528 4.866-1.319 1.95-2.176 1.456-2.341-.796-.33-2.284.824-5.36-1.022-5.822-1.32-.165-2.341 2.417-2.836 4.037-.165.796-1.022 1.456-.693-4.202 0-1.456-.004-4.687-1.154-5.493-1.922-1.347-4.023 9.233-4.715 11.815-.495-2.577-3.203-13.6-5.21-11.183-.495 1.455-.165 2.087-.33 3.542 0 .796-.165 6.322-.824 5.36-.33-1.62-2.177-4.865-3.203-4.37-1.63.974-.33 3.872-.825 6.156-.33 2.285-1.187 2.746-2.341.66-.697-.994-1.851-4.862-3.203-5.031-2.342-.33-1.682 3.24-1.682 4.366-1.192 0-2.51-.33-3.858-.164-1.686.33-2.987 1.248-3.533 2.91-.744 2.252.024 12.941 11.108 13.139 1.846 0 3.514-.382 4.715-.796 1.022-.33 3.717-.994 4.574-.368l9.525.17c1.3-1.225 6.2.99 8.05.99 8.621.715 14.57-6.233 13.007-12.324zM50.814 73.742s3.048-6.624 6.812-7.156c3.763-.532 7.97-1.752 10.56 1.734 2.592 3.486-5.464 11.894-9.59 11.626-4.127-.269-7.796-1.904-7.782-6.204zM50.801 73.742s-3.048-6.624-6.812-7.156c-3.763-.532-7.97-1.752-10.56 1.734-2.592 3.486 5.463 11.894 9.59 11.626 4.127-.269 7.787-1.842 7.782-6.204z" fill="#EDA65B"/><path d="M51.111 89.461c-4.442 0-12.021-3.378-16.515-8.837a.704.704 0 01.099-.994.704.704 0 01.994.099c3.307 4.018 10.297 8.323 15.427 8.323 5.31 0 9.883-2.562 14.83-8.31a.709.709 0 011.073.924c-5.247 6.082-10.151 8.795-15.908 8.795z" fill="#131741"/><path d="M57.706 80.242c-2.695 0-5.545-1.069-6.859-3.358-.254.485-.58.923-.975 1.319-1.328 1.319-3.359 2.016-5.87 2.016h-.094a.706.706 0 01.005-1.413h.085c2.105 0 3.834-.57 4.88-1.607.815-.81 1.225-1.903 1.225-3.255h1.413c0 3.853 3.89 4.885 6.19 4.885a.706.706 0 110 1.413z" fill="#131741"/><path fill-rule="evenodd" clip-rule="evenodd" d="M43.908 66.742c0-2.191 1.684-14.774 7.285-14.774 5.262 0 6.508 12.126 6.508 14.745l-6.892 2.276-6.9-2.248z" fill="#FF7B4F"/><path fill-rule="evenodd" clip-rule="evenodd" d="M43.908 66.741c.622 2.431 2.21 1.371 2.982 2.436 1.545 2.134 1.738 4.857 4.009 4.852 2.379 0 2.218-2.695 3.486-4.838.64-1.079 3.109-.024 3.311-2.478 0 0-1.658-1.027-6.006-.085a4.027 4.027 0 01-1.592.005c-5.031-.984-6.19.108-6.19.108z" fill="#D43802"/><path d="M50.8 74.655c-1.917 0-2.337-1.337-2.709-2.515-.212-.678-.457-1.446-.98-2.172-.113-.155-.508-.221-.9-.287-.974-.165-2.614-.443-3-2.822a.705.705 0 01.584-.81.705.705 0 01.81.584c.227 1.385.905 1.498 1.847 1.658.636.109 1.357.231 1.804.853.66.91.952 1.832 1.187 2.577.382 1.21.518 1.526 1.362 1.526h.004c1.008 0 1.192-.429 1.607-1.78.212-.688.452-1.466.923-2.257.4-.674 1.168-.81 1.846-.928 1.117-.198 1.706-.358 1.819-1.625a.707.707 0 011.409.127c-.217 2.402-1.95 2.709-2.982 2.888-.32.056-.806.14-.872.259-.386.65-.589 1.31-.787 1.95-.4 1.3-.857 2.774-2.958 2.774H50.8z" fill="#131741"/><path fill-rule="evenodd" clip-rule="evenodd" d="M28.166 48.935s2.275 10.302 12.822 5.79c-1.06-5.663-3.98-7.674-12.822-5.79z" fill="#fff"/><path d="M36.065 56.58c-1.352 0-2.596-.292-3.726-.871-3.792-1.946-4.82-6.43-4.862-6.619l-.155-.697.697-.146c5.083-1.083 8.31-.923 10.467.514 1.64 1.093 2.657 2.949 3.194 5.836l.104.556-.523.221c-1.87.801-3.608 1.206-5.196 1.206zm-7.005-7.103c.42 1.225 1.54 3.759 3.929 4.979 1.945.994 4.357.942 7.184-.16-.486-2.19-1.258-3.547-2.478-4.358-1.687-1.13-4.442-1.28-8.635-.461z" fill="#131741"/><path fill-rule="evenodd" clip-rule="evenodd" d="M34.064 48.45s-.73 4.781.509 4.993c1.239.217 2.167-4.54 2.167-4.54l-2.676-.453z" fill="#131741"/><path fill-rule="evenodd" clip-rule="evenodd" d="M73.451 48.935s-2.275 10.302-12.822 5.79c1.06-5.663 3.98-7.674 12.822-5.79z" fill="#fff"/><path d="M65.55 56.58c-1.592 0-3.325-.4-5.2-1.2l-.523-.222.104-.556c.541-2.892 1.554-4.744 3.193-5.836 2.158-1.437 5.385-1.597 10.467-.514l.698.146-.156.697c-.042.189-1.07 4.673-4.861 6.619-1.121.575-2.37.867-3.722.867zm-4.112-2.284c2.826 1.102 5.243 1.159 7.184.16 2.388-1.22 3.51-3.754 3.928-4.98-4.192-.814-6.948-.668-8.639.458-1.215.81-1.988 2.167-2.473 4.362z" fill="#131741"/><path fill-rule="evenodd" clip-rule="evenodd" d="M67.552 48.45s.73 4.781-.508 4.993c-1.24.217-2.167-4.54-2.167-4.54l2.675-.453z" fill="#131741"/><path fill-rule="evenodd" clip-rule="evenodd" d="M89.16 6.907c-2.318.574-19.865 14.862-19.356 20.727.513 5.925 8.248 4.847 8.248 4.847s3.59 14.782 6.081 9.958c2.634-7.528 11.782-37.2 5.027-35.532zM10.947 7.825C13.265 8.4 29.056 20.68 28.1 27.705c-.904 6.688-8.178 5.544-8.178 5.544s-2.798 14.857-5.29 10.033C12.667 35.75 5.248 6.417 10.947 7.825z" fill="#fff"/><path d="M74.425 32.83a.659.659 0 01-.132-.015.7.7 0 01-.57-.622c-1.037-9.991 8.686-14.155 8.785-14.198a.703.703 0 01.924.382.705.705 0 01-.382.923c-.33.137-7.349 3.166-7.952 10.401 2.365-3.18 5.757-4.965 9.247-4.771a.703.703 0 01.665.744.709.709 0 01-.745.664c-3.698-.212-7.141 2.073-9.214 6.1a.693.693 0 01-.626.391zM24.435 32.83a.71.71 0 01-.627-.382c-2.073-4.028-5.516-6.308-9.214-6.1a.706.706 0 01-.08-1.41c3.505-.192 6.882 1.593 9.247 4.773-.603-7.236-7.627-10.265-7.951-10.401a.713.713 0 01-.382-.924.711.711 0 01.923-.381c.1.042 9.822 4.206 8.786 14.198a.705.705 0 01-.57.622c-.043.004-.09.004-.132.004z" fill="#F05B29"/><path d="M83.035 44.116c-.061 0-.123-.005-.18-.01-2.378-.287-4.441-7.273-5.346-10.862-1.31.085-4.324.066-6.388-1.578-1.196-.952-1.879-2.29-2.025-3.967-.547-6.27 17.222-20.816 19.888-21.476 1.164-.287 1.88.175 2.28.613.603.664 2.44 2.68-.984 17.062-1.837 7.707-4.39 15.653-5.483 18.781l-.038.09c-.56 1.083-1.22 1.347-1.724 1.347zm-4.447-12.422l.15.622c1.315 5.417 3.317 10.27 4.287 10.387.038.023.212-.08.457-.542 3.689-10.556 9.436-31.41 6.741-34.374-.15-.164-.376-.32-.895-.193-1.95.48-19.285 14.632-18.824 19.983.114 1.295.603 2.27 1.494 2.982 2.162 1.724 5.916 1.234 5.954 1.23l.636-.095zM15.668 44.955c-.645 0-1.206-.453-1.667-1.348l-.057-.146c-3.816-14.66-7.725-32.772-4.706-35.83.349-.352.956-.72 1.884-.494 2.855.707 18.697 13.228 17.684 20.661-.282 2.068-1.154 3.66-2.595 4.73-1.993 1.484-4.523 1.55-5.714 1.479-.716 3.618-2.38 10.6-4.612 10.929a1.157 1.157 0 01-.217.019zm-.377-1.927c.245.452.405.513.405.518.858-.184 2.516-5.054 3.529-10.425l.127-.673.678.108c.028.005 3.175.467 5.342-1.154 1.121-.838 1.804-2.11 2.03-3.783.867-6.378-14.428-18.56-16.623-19.101-.316-.076-.443.018-.537.113-1.49 1.507-.947 11.338 5.05 34.397z" fill="#131741"/><path d="M26.488 63.562c-.16 0-.32-.029-.48-.085-4.65-1.677-6.157-6.36-6.218-6.557a1.412 1.412 0 012.695-.848c.018.066 1.187 3.556 4.48 4.743a1.408 1.408 0 01.847 1.81c-.202.579-.744.937-1.324.937zM75.107 63.562a1.412 1.412 0 01-.48-2.742c3.344-1.206 4.465-4.701 4.474-4.739a1.414 1.414 0 012.7.843c-.062.198-1.569 4.88-6.218 6.558-.151.056-.316.08-.476.08z" fill="#EDA65B"/><path opacity=".699" fill-rule="evenodd" clip-rule="evenodd" d="M24.343 53.685c.241 6.285 5.53 11.186 11.81 10.945 6.282-.241 11.179-5.533 10.938-11.818-.242-6.286-5.53-11.187-11.811-10.945l-.187.008c-6.191.338-10.99 5.587-10.75 11.81z" fill="url(#paint0_linear)"/><path opacity=".699" fill-rule="evenodd" clip-rule="evenodd" d="M55.115 54.003c.243 6.286 5.53 11.186 11.811 10.945 6.282-.241 11.179-5.532 10.937-11.818-.242-6.286-5.53-11.187-11.811-10.946l-.188.01c-6.19.338-10.987 5.586-10.749 11.809z" fill="url(#paint1_linear)"/><path opacity=".8" fill-rule="evenodd" clip-rule="evenodd" d="M59.324 44.142L69.79 64.393a12.88 12.88 0 004.058-1.969l-10.7-20.275s-3.754 1.992-3.824 1.993z" fill="url(#paint2_linear)"/><path opacity=".8" fill-rule="evenodd" clip-rule="evenodd" d="M76.522 48.306l-2.603-3.18c-.623-.212-1.559-2.02-2.246-2.037l-5.313-.876 9.765 17.766c1.957-2.886 1.798-9.225.397-11.673z" fill="url(#paint3_linear)"/><path opacity=".801" fill-rule="evenodd" clip-rule="evenodd" d="M30.285 43.363l5.804 13.452 1.253 2.904 1.882 4.364a11 11 0 005.021-3.43L36.092 41.87c-.238-.007-.473-.02-.712-.01l-.18.009c-1.791.097-3.458.633-4.915 1.493z" fill="url(#paint4_linear)"/><path opacity=".8" fill-rule="evenodd" clip-rule="evenodd" d="M46.194 57.462c.627-1.549.955-3.26.885-5.058-.191-4.862-3.16-8.923-7.223-10.543l6.338 15.6z" fill="url(#paint5_linear)"/><path fill-rule="evenodd" clip-rule="evenodd" d="M35.421 40.954l-.307.008c-6.777.26-12.057 5.98-11.796 12.774.262 6.795 5.966 12.093 12.742 11.833 6.776-.26 12.056-5.979 11.796-12.774-.258-6.692-5.794-11.931-12.435-11.84zM25.14 53.666c-.219-5.692 4.126-10.496 9.757-10.866l.287-.015.288-.007c5.642-.063 10.343 4.395 10.562 10.087.222 5.79-4.275 10.66-10.044 10.881-5.77.221-10.627-4.29-10.85-10.08zM78.783 53.266c-.26-6.795-5.965-12.093-12.742-11.833-6.776.26-12.056 5.979-11.796 12.774.263 6.795 5.966 12.092 12.742 11.833 6.777-.26 12.057-5.98 11.796-12.774zm-22.715.87c-.222-5.788 4.275-10.659 10.044-10.88 5.77-.222 10.628 4.291 10.85 10.08.222 5.788-4.275 10.66-10.044 10.88-5.77.221-10.627-4.29-10.85-10.08z" fill="#131741"/><path d="M46.371 53.2l1.26 1.318.14-.124.155-.129c.254-.205.717-.645 1.033-.841 1.176-.733 2.082-.796 3.161-.597.83.153 1.571.79 2.284 1.69l1.43-1.13c-.98-1.24-2.107-2.118-3.383-2.354-1.606-.297-2.93-.109-4.63 1.073a9.211 9.211 0 00-1.45 1.094z" fill="#131741"/><defs><linearGradient id="paint0_linear" x1="23.73" y1="42.495" x2="24.971" y2="65.241" gradientUnits="userSpaceOnUse"><stop stop-color="#01D48E"/><stop offset="1" stop-color="#08185B"/></linearGradient><linearGradient id="paint1_linear" x1="54.504" y1="42.813" x2="55.744" y2="65.56" gradientUnits="userSpaceOnUse"><stop stop-color="#01D48E"/><stop offset="1" stop-color="#08185B"/></linearGradient><linearGradient id="paint2_linear" x1="60.457" y1="64.902" x2="73.942" y2="64.166" gradientUnits="userSpaceOnUse"><stop stop-color="#E1FFED"/><stop offset="1" stop-color="#fff"/></linearGradient><linearGradient id="paint3_linear" x1="67.422" y1="61.678" x2="78.246" y2="61.088" gradientUnits="userSpaceOnUse"><stop stop-color="#E1FFED"/><stop offset="1" stop-color="#fff"/></linearGradient><linearGradient id="paint4_linear" x1="31.438" y1="64.507" x2="44.416" y2="63.799" gradientUnits="userSpaceOnUse"><stop stop-color="#E1FFED"/><stop offset="1" stop-color="#fff"/></linearGradient><linearGradient id="paint5_linear" x1="39.855" y1="41.861" x2="40.723" y2="57.76" gradientUnits="userSpaceOnUse"><stop stop-color="#E1FFED"/><stop offset="1" stop-color="#fff"/></linearGradient></defs></svg>