<svg width="100" height="100" fill="none" xmlns="http://www.w3.org/2000/svg"><path fill-rule="evenodd" clip-rule="evenodd" d="M36.41 24.605c2.793.725 2.369-4.617 3.9-4 2.746 1.107 4.254 4.033 8.07 1.536 2.74-1.795 3.678 2.02 7.555-.447 2.29-1.46 4.621 2.953 8.15 1.182C69.455 20.18 83.823-1.3 93.107 4.326c7.57 4.587-4.786 40.502-6.2 44.892-1.087 3.373-2.42 11.395-5.11 18.56-2.13 5.667-5.568 10.792-9.94 12.648-10.462 4.438-13.632 9.497-20.75 9.497-6.011 0-11.73-5.714-21.787-10.015-3.538-1.512-6.986-6.133-9.794-12.14-3.91-8.366-6.788-18.074-7.942-20.19C7.806 40.674.481 5.377 7.504 3.733c10.058-2.36 23.154 19.375 28.905 20.873z" fill="#F05B29"/><path d="M51.112 90.62c-3.788 0-7.335-2.077-11.82-4.706-2.925-1.715-6.24-3.655-10.245-5.365-3.481-1.489-7.085-5.926-10.156-12.493-2.365-5.064-4.358-10.618-5.813-14.678-.938-2.615-1.677-4.678-2.11-5.47C7.612 41.77 1.31 13.455 4.947 5.31c.57-1.272 1.375-2.04 2.397-2.28C14.044 1.46 21.76 9.68 27.955 16.286c3.438 3.66 6.684 7.122 8.634 7.631.815.212 1.168-.34 1.752-1.993.32-.9.594-1.681 1.248-1.973.217-.1.561-.175.99-.005.824.334 1.517.796 2.185 1.243 1.659 1.108 2.86 1.908 5.234.354 1.569-1.027 2.727-.556 3.745-.137 1.088.443 2.026.825 3.816-.315 1.403-.896 2.793-.146 4.023.518 1.347.73 2.614 1.418 4.192.626 1.517-.763 3.943-3.274 6.755-6.185C77.275 9.064 86.517-.503 93.48 3.713c5.07 3.071 3.195 18.117-5.572 44.728-.137.414-.245.749-.325.984-.372 1.16-.787 2.93-1.267 4.98-.933 3.975-2.092 8.922-3.854 13.613-2.459 6.553-6.222 11.31-10.325 13.049-4.212 1.79-7.194 3.655-9.822 5.3-3.792 2.378-6.788 4.253-11.202 4.253zM9.078 4.255c-.48 0-.946.051-1.408.16-.57.132-1.05.631-1.427 1.479-3.326 7.443 2.864 35.665 5.968 41.34.485.891 1.206 2.898 2.2 5.672 1.446 4.033 3.425 9.549 5.761 14.557 2.92 6.25 6.27 10.438 9.43 11.79 4.085 1.748 7.439 3.712 10.402 5.446 4.306 2.52 7.702 4.508 11.108 4.508 4.013 0 6.712-1.691 10.453-4.037 2.675-1.677 5.704-3.57 10.02-5.403 3.744-1.588 7.226-6.053 9.553-12.243 1.728-4.607 2.878-9.502 3.801-13.44.49-2.082.91-3.877 1.3-5.092.08-.24.189-.575.325-.994 3.868-11.734 12.206-39.428 6.18-43.08-5.996-3.636-14.786 5.465-21.202 12.107-3.02 3.128-5.408 5.601-7.137 6.468-2.228 1.121-4.041.141-5.497-.645-1.201-.65-1.917-.999-2.59-.57-2.403 1.535-3.906.923-5.112.433-.928-.377-1.493-.608-2.44.014-3.156 2.068-5.088.777-6.793-.363-.584-.39-1.192-.796-1.842-1.074-.146.208-.33.74-.462 1.103-.456 1.295-1.22 3.462-3.443 2.887-2.346-.612-5.417-3.886-9.308-8.027-5.474-5.836-12.196-12.996-17.84-12.996z" fill="#131741"/><path fill-rule="evenodd" clip-rule="evenodd" d="M76.22 46.326c-.5-1.941-2.619-3.11-4.3-3.5-1.32-.391-2.705 0-3.859-.194.165-1.347 1.022-5.62-1.521-5.224-1.32 0-2.704 4.63-3.529 5.823-1.319 2.331-2.176 1.738-2.34-.952-.33-2.732.824-6.411-1.023-6.962-1.319-.198-2.341 2.887-2.836 4.828-.165.947-1.022 1.743-.692-5.026 0-1.743-.005-5.606-1.154-6.567-1.922-1.61-4.023 11.037-4.716 14.123-.494-3.086-3.203-16.261-5.21-13.369-.495 1.743-.165 2.492-.33 4.235 0 .947-.165 7.556-.824 6.411-.33-1.94-2.176-5.822-3.203-5.224-1.63 1.168-.33 4.63-.825 7.363-.33 2.732-1.187 3.283-2.34.791-.698-1.187-1.852-5.813-3.204-6.01-2.341-.396-2.153 4.837-2.153 6.18-1.192 0-6.312-1.682-7.64 2.647-2.149 6.995 6.1 15.913 13.123 14.514 4.476-.89 6.28-.782 8-.519l9.524.203c1.3-1.46 6.2 1.187 8.05 1.187 8.616.83 14.566-7.476 13.002-14.758z" fill="#EDA65B"/><path fill-rule="evenodd" clip-rule="evenodd" d="M70.076 79.484c-5.276 6.704-12.865 10.27-19.28 10.27-5.729 0-15.386-5.145-19.263-10.298" fill="#F05B29"/><path d="M50.8 90.455c-5.987 0-15.809-5.243-19.827-10.58a.703.703 0 01.141-.989.703.703 0 01.99.141c3.73 4.96 13.17 10.015 18.696 10.015 6.694 0 13.869-3.83 18.725-9.996a.71.71 0 01.994-.118.71.71 0 01.118.994c-5.12 6.496-12.719 10.533-19.837 10.533z" fill="#131741"/><path fill-rule="evenodd" clip-rule="evenodd" d="M50.815 73.959s3.048-6.624 6.811-7.156c3.764-.532 10.36-1.517 11.504 2.676 1.121 4.103-6.407 10.952-10.533 10.683-4.122-.268-7.796-1.903-7.782-6.204zM50.801 73.959s-3.047-6.624-6.811-7.156-9.945-1.635-11.975 2.205c-2.002 3.778 6.878 10.48 11.004 10.212 4.122-.268 7.787-.9 7.782-5.261z" fill="#EDA65B"/><path fill-rule="evenodd" clip-rule="evenodd" d="M43.908 66.958c0-2.19 1.272-14.344 6.873-14.344 5.262 0 6.92 11.697 6.92 14.316l-6.891 2.275-6.902-2.247z" fill="#FF7B4F"/><path fill-rule="evenodd" clip-rule="evenodd" d="M43.908 66.959c.622 2.43 2.21 1.37 2.982 2.435 1.545 2.134 1.739 4.857 4.014 4.852 2.379 0 2.218-2.695 3.486-4.838.64-1.079 3.109-.023 3.311-2.478 0 0-1.658-1.027-6.006-.085a4.026 4.026 0 01-1.592.005c-5.036-.984-6.195.109-6.195.109z" fill="#D43802"/><path d="M50.8 74.872c-1.917 0-2.336-1.338-2.708-2.515-.212-.678-.457-1.446-.98-2.172-.113-.155-.509-.221-.9-.287-.975-.165-2.61-.443-3-2.822a.705.705 0 111.394-.226c.226 1.385.904 1.498 1.846 1.658.636.109 1.357.231 1.804.853.66.909.952 1.832 1.183 2.577.381 1.21.518 1.526 1.361 1.526h.005c1.008 0 1.192-.429 1.606-1.78.212-.688.453-1.466.924-2.257.4-.674 1.168-.81 1.846-.928 1.117-.198 1.705-.358 1.819-1.625a.713.713 0 01.767-.641.707.707 0 01.641.768c-.217 2.402-1.95 2.708-2.982 2.887-.32.057-.805.142-.871.26-.387.65-.59 1.31-.787 1.95-.4 1.3-.857 2.774-2.958 2.774h-.01z" fill="#131741"/><path fill-rule="evenodd" clip-rule="evenodd" d="M89.16 7.123c-2.317.575-19.865 14.863-19.356 20.727.513 5.926 8.248 4.848 8.248 4.848s3.59 14.782 6.082 9.958c2.633-7.528 11.781-37.2 5.026-35.533zM10.948 8.047c2.317.574 18.108 12.855 17.151 19.879-.909 6.684-8.182 5.54-8.182 5.54s-2.798 14.857-5.29 10.033c-1.96-7.528-9.38-36.86-3.68-35.452z" fill="#fff"/><path d="M74.425 33.05a.664.664 0 01-.132-.013.7.7 0 01-.57-.622c-1.036-9.991 8.687-14.156 8.786-14.198a.703.703 0 01.923.382.705.705 0 01-.382.923c-.33.136-7.348 3.165-7.951 10.401 2.364-3.18 5.751-4.96 9.247-4.772a.706.706 0 01-.08 1.409c-3.694-.208-7.142 2.072-9.214 6.1a.701.701 0 01-.627.39zM24.436 33.051a.71.71 0 01-.627-.382c-2.073-4.027-5.526-6.307-9.214-6.1a.704.704 0 01-.744-.664.703.703 0 01.664-.744c3.49-.194 6.877 1.587 9.242 4.762-.64-7.264-7.867-10.359-7.947-10.392a.707.707 0 01.542-1.305c.099.043 9.822 4.207 8.785 14.198a.706.706 0 01-.57.622c-.047 0-.09.005-.131.005z" fill="#F05B29"/><path d="M83.037 44.333c-.061 0-.122-.005-.179-.01-2.379-.287-4.442-7.273-5.347-10.862-1.31.085-4.324.066-6.387-1.578-1.197-.952-1.88-2.29-2.026-3.967C68.552 21.646 86.32 7.1 88.987 6.44c1.163-.287 1.88.175 2.28.613.603.664 2.44 2.68-.985 17.062-1.837 7.707-4.39 15.653-5.483 18.781l-.038.09c-.56 1.083-1.22 1.347-1.724 1.347zm-4.452-12.422l.151.622c1.314 5.417 3.316 10.27 4.287 10.387.028.019.212-.08.457-.542 3.688-10.556 9.435-31.41 6.74-34.374-.15-.165-.376-.32-.894-.193-1.95.48-19.286 14.631-18.824 19.983.113 1.295.603 2.27 1.493 2.982 2.158 1.724 5.917 1.23 5.954 1.225l.636-.09zM15.668 45.172c-.645 0-1.206-.453-1.668-1.348l-.056-.146c-3.811-14.66-7.726-32.772-4.706-35.83.348-.352.956-.72 1.884-.494 2.855.707 18.692 13.233 17.684 20.661-.283 2.068-1.154 3.66-2.596 4.73-1.992 1.484-4.522 1.55-5.714 1.479-.716 3.618-2.378 10.599-4.611 10.924a.87.87 0 01-.217.024zm-.377-1.927c.245.452.405.513.405.518.858-.184 2.516-5.054 3.528-10.425l.128-.673.678.108c.028.005 3.175.466 5.342-1.154 1.121-.838 1.804-2.11 2.035-3.783.867-6.373-14.429-18.56-16.624-19.101-.316-.076-.443.018-.537.113-1.493 1.507-.952 11.338 5.045 34.397z" fill="#131741"/><path fill-rule="evenodd" clip-rule="evenodd" d="M35.811 75.457c4.367 1.205 11.066 3.32 14.938 1.342.052-.848.061-.645.061-1.894 0 1.216-.061.952-.061 1.894 3.881 1.978 10.688-.137 14.999-1.423 0 0-5.441 8.588-15 8.588-9.44 0-14.937-8.507-14.937-8.507z" fill="#fff"/><path fill-rule="evenodd" clip-rule="evenodd" d="M34.868 74.985s2.624 4.447 6.76 4.466c.744.005 1.827 1.338 1.827 1.338s1.682-.782 1.918-.716c1.286.382 3.919.49 5.37.49 1.305 0 3.505-.15 4.692-.391.64-.132 2.143.777 2.143.777s1.418-1.404 2.044-1.413c4.428-.085 7.062-4.635 7.062-4.635s-2.247 10-15.941 10c-12.931.005-15.875-9.916-15.875-9.916z" fill="#A03922"/><path d="M50.744 85.613c-6.93 0-11.056-2.817-13.298-5.182-2.44-2.572-3.223-5.14-3.256-5.248a.706.706 0 011.286-.56c.043.07 2.492 4.103 6.157 4.122.745.004 1.531.682 2.007 1.182 1.493-.664 1.733-.594 1.936-.533 1.079.316 3.434.462 5.172.462 1.305 0 3.449-.15 4.551-.377.631-.127 1.55.264 2.181.594.627-.57 1.493-1.234 2.139-1.248 3.966-.076 6.434-4.24 6.458-4.282a.71.71 0 011.305.508c-.033.109-2.544 10.557-16.638 10.562zM38.223 79.23c2.204 2.44 6.048 4.97 12.516 4.97h.005c6.99 0 10.867-2.719 12.964-5.239-1.122.712-2.483 1.253-4.07 1.282-.212.047-.966.626-1.56 1.21a.712.712 0 01-.862.104c-.631-.382-1.413-.693-1.649-.688-1.215.25-3.453.405-4.823.405-.382 0-3.68-.014-5.432-.48-.278.08-.994.377-1.559.64a.703.703 0 01-.843-.193c-.438-.532-1.06-1.055-1.286-1.079-1.281-.009-2.421-.39-3.401-.932z" fill="#131741"/><path d="M50.307 85.613c-6.487 0-10.49-2.751-12.724-5.093-2.478-2.595-3.344-5.214-3.382-5.323a.707.707 0 01.857-.9c4.117 1.136 11.584 2.591 14.99 1.937.004-.18.014-.335.018-.495.015-.335.033-.683.033-1.314a.706.706 0 111.414 0c0 .918-.005 1.319-.029 1.818 3.128.556 10.85-.787 15-2.026a.707.707 0 01.885.858c-.028.103-2.85 10.26-16.61 10.528-.15.01-.301.01-.452.01zM36.085 76.03c1.32 2.624 5.271 8.357 14.646 8.164 9.84-.194 13.58-5.714 14.782-8.24-4.386 1.136-11.716 2.375-14.773 1.574-3.194.82-10-.334-14.655-1.498z" fill="#131741"/><path fill-rule="evenodd" clip-rule="evenodd" d="M40.786 82.273c5.39.96 5.3 8.748 12.145 9.091 4.772.24 6.256-4.946 5.21-7.998-.518-1.522-1.31-2.864-3.364-3.213-1.564.405-7.132.57-9.402-.075-.67-.005-1.465.499-4.589 2.195z" fill="#D43802"/><path d="M53.255 92.08c-.118 0-.24-.004-.363-.01-4.051-.206-5.898-2.83-7.532-5.143-1.347-1.913-2.516-3.57-4.697-3.957a.706.706 0 01-.574-.584.717.717 0 01.358-.735l1.3-.711c2.21-1.211 2.878-1.574 3.622-1.574a.66.66 0 01.193.028c2.163.613 7.627.434 9.03.071a.77.77 0 01.293-.014c2.497.424 3.4 2.19 3.91 3.684.74 2.162.306 4.937-1.06 6.745-.754 1.023-2.148 2.2-4.48 2.2zm-10.698-9.968c1.748.858 2.869 2.45 3.962 4 1.587 2.252 3.085 4.376 6.449 4.55 1.526.076 2.793-.485 3.655-1.625 1.225-1.625 1.357-3.966.853-5.44-.48-1.404-1.126-2.408-2.676-2.723-1.87.41-7.165.523-9.497-.09-.4.047-1.135.448-2.746 1.328z" fill="#131741"/><path d="M52.356 85.373a.704.704 0 01-.702-.65c-.17-2.14-2.11-3.552-2.13-3.567a.708.708 0 01-.164-.984.708.708 0 01.984-.165c.104.07 2.497 1.818 2.714 4.607a.704.704 0 01-.65.759h-.052z" fill="#131741"/><path fill-rule="evenodd" clip-rule="evenodd" d="M21.389 44.922c-1.8 8.437 7.349 14.066 13.289 18.127 3-3.552 10.561-9.177 11.62-13.134 2.63-9.803-7.24-13.307-12.313-8.14-6.458-5.167-11.927-.005-12.596 3.147z" fill="#fff"/><path d="M34.804 63.995l-.527-.357c-.33-.227-.67-.457-1.018-.693-6.063-4.108-14.363-9.737-12.563-18.17.414-1.94 2.322-4.432 5.177-5.454 1.856-.664 4.73-.904 8.064 1.526 2.71-2.393 6.595-2.864 9.662-1.111 1.253.716 5.2 3.58 3.382 10.363-.763 2.836-4.456 6.308-7.72 9.37-1.583 1.483-3.077 2.887-4.047 4.037l-.41.49zM22.076 45.069c-1.602 7.504 6.246 12.822 11.974 16.704.17.113.34.23.505.34.998-1.103 2.336-2.36 3.74-3.675 3.123-2.935 6.666-6.256 7.32-8.706 1.05-3.919.033-7.193-2.718-8.766-2.69-1.536-6.147-.999-8.408 1.305l-.448.457-.5-.4c-3.033-2.427-5.586-2.252-7.192-1.678-2.257.81-3.943 2.883-4.273 4.419z" fill="#131741"/><path fill-rule="evenodd" clip-rule="evenodd" d="M40.786 48.775c0 3.825-4.908 5.62-6.703 7.622-1.818-1.96-6.981-3.834-6.981-7.66 0-3.824 3.387-4.663 6.746-2.36 3.038-2.36 6.938-1.427 6.938 2.398z" fill="#F05B29"/><path fill-rule="evenodd" clip-rule="evenodd" d="M55.106 44.922c-1.8 8.437 7.349 14.066 13.29 18.127 3-3.552 10.56-9.177 11.62-13.134 2.629-9.803-7.24-13.307-12.313-8.14-6.459-5.167-11.923-.005-12.597 3.147z" fill="#fff"/><path d="M68.527 63.995l-.528-.357c-.33-.227-.669-.457-1.017-.693-6.063-4.108-14.363-9.737-12.563-18.17.414-1.94 2.322-4.432 5.177-5.454 1.856-.664 4.73-.904 8.064 1.526 2.709-2.393 6.595-2.864 9.662-1.111 1.253.716 5.2 3.58 3.382 10.363-.763 2.836-4.456 6.308-7.72 9.37-1.584 1.483-3.077 2.887-4.047 4.037l-.41.49zM55.799 45.069c-1.602 7.504 6.246 12.822 11.974 16.704.17.113.34.23.504.34.999-1.103 2.337-2.36 3.74-3.675 3.124-2.935 6.666-6.256 7.321-8.706 1.05-3.919.033-7.193-2.718-8.766-2.69-1.536-6.148-.999-8.409 1.305l-.447.457-.5-.4c-3.033-2.427-5.586-2.252-7.193-1.678-2.256.81-3.943 2.883-4.272 4.419z" fill="#131741"/><path fill-rule="evenodd" clip-rule="evenodd" d="M74.51 48.775c0 3.825-4.91 5.62-6.704 7.622-1.818-1.96-6.981-3.834-6.981-7.66 0-3.824 3.387-4.663 6.745-2.36 3.039-2.36 6.94-1.427 6.94 2.398z" fill="#F05B29"/><path d="M26.47 65.663c-.377 0-.749-.146-1.027-.443l-5.346-5.648a1.41 1.41 0 01.056-1.997 1.41 1.41 0 011.998.056l5.346 5.648a1.41 1.41 0 01-.056 1.998c-.274.259-.622.386-.97.386zM75.089 65.663c-.349 0-.697-.127-.97-.386a1.418 1.418 0 01-.057-1.998l5.347-5.648a1.414 1.414 0 011.997-.056c.565.537.589 1.432.056 1.997l-5.346 5.648c-.278.297-.65.443-1.027.443z" fill="#EDA65B"/></svg>