<svg width="100" height="100" fill="none" xmlns="http://www.w3.org/2000/svg"><path fill-rule="evenodd" clip-rule="evenodd" d="M36.346 24.337c2.793.726 2.916-1.394 5.243-1.837 2.906-.556 2.345.622 6.731-.631 3.74-1.07 3.147.5 7.735.184 3.43-.236 4.442 2.317 7.97.546 5.37-2.694 22.781-14.15 30.252-6.265 3.981 4.202-1.724 5.332-5.393 15.098-1.526 4.06-2.082 11.503-2.977 19.398-.716 6.303-4.589 26.776-14.59 30.737-9.77 3.868-13.152 7.613-20.27 7.613-6.01 0-10.655-3.924-20.877-7.636-8.654-3.142-15.32-27.355-15.78-31.467-.637-5.667-2.653-12.465-3.817-16.93-1.931-7.401-12.021-15.334-1.493-18.72 9.61-3.1 23.492 8.926 27.266 9.91z" fill="#F05B29"/><path d="M51.043 89.882c-3.872 0-7.076-1.503-11.513-3.585-2.685-1.258-5.728-2.685-9.605-4.098-9.214-3.35-15.823-28.321-16.243-32.057-.522-4.649-1.973-10.033-3.137-14.358-.236-.88-.461-1.71-.66-2.473-.565-2.157-1.874-4.404-3.141-6.576C4.77 23.353 2.909 20.16 3.94 17.46c.626-1.64 2.237-2.855 4.918-3.717 7.25-2.332 16.525 3.382 22.667 7.16 2.172 1.338 4.052 2.492 4.999 2.742 1.314.344 1.804-.047 2.553-.636.56-.443 1.262-.999 2.379-1.21 1.314-.25 1.987-.175 2.642-.1.825.095 1.597.18 4.028-.513 2.2-.627 3.09-.4 4.126-.141.82.207 1.748.438 3.75.301 1.569-.108 2.676.306 3.65.674 1.31.49 2.253.848 4.052-.057a86.267 86.267 0 002.662-1.437C73.899 16.357 87.918 8.6 94.78 15.844c2.751 2.906 1.418 4.744-.598 7.528-1.338 1.85-3.175 4.385-4.645 8.3-1.22 3.245-1.804 8.7-2.477 15.013-.147 1.38-.297 2.788-.462 4.216-.028.264-3.156 26.61-15.032 31.312-3.457 1.37-6.095 2.713-8.422 3.905-4.268 2.186-7.359 3.764-12.102 3.764zM12.505 14.619c-1.117 0-2.19.146-3.218.476-2.247.725-3.566 1.663-4.027 2.878-.792 2.068.904 4.98 2.704 8.06 1.314 2.257 2.675 4.588 3.288 6.934.197.759.419 1.583.654 2.46 1.178 4.37 2.643 9.812 3.18 14.565.48 4.296 7.264 27.958 15.32 30.883 3.938 1.432 7.009 2.873 9.722 4.145 4.273 2.002 7.358 3.449 10.91 3.449 4.405 0 7.368-1.513 11.466-3.604 2.355-1.201 5.026-2.567 8.545-3.957 4.042-1.602 7.627-6.468 10.368-14.07 2.101-5.823 3.345-12.305 3.778-16.088.16-1.422.311-2.831.462-4.206.688-6.412 1.276-11.947 2.558-15.362 1.54-4.098 3.439-6.717 4.823-8.635 1.993-2.75 2.662-3.674.716-5.728-6.11-6.449-20.02 1.248-26.704 4.946a89.019 89.019 0 01-2.714 1.465c-2.35 1.183-3.792.641-5.181.118-.924-.348-1.795-.674-3.058-.589-2.223.156-3.316-.122-4.192-.344-.942-.235-1.56-.39-3.397.132-2.699.768-3.65.665-4.574.56-.598-.065-1.116-.126-2.218.086-.778.15-1.258.527-1.772.932-.838.665-1.785 1.413-3.782.895-1.154-.301-2.926-1.394-5.385-2.906-5.002-3.08-12.167-7.495-18.272-7.495z" fill="#131741"/><path fill-rule="evenodd" clip-rule="evenodd" d="M75.948 48.739c-1.568-5.484-6.807-7.542-7.96-7.707.164-1.126 1.022-3.76-1.522-3.43-1.32 0-2.704 1.989-3.529 2.982-1.319 1.95-3.024 1.385-2.34-.796.65-1.841 2.26-3.26.414-3.721-1.32-.165-2.84 1.126-3.708 2.506-.49.674-1.196 1.088-1.257-.537 0-1.456 2.741-3.787 1.592-4.588-1.922-1.348-6.774 4.089-7.462 6.67-.494-2.577-6.077-9.059-7.612-6.317-.457.815 1.978 3.137.998 4.428-.833 1.102-3.109-2.647-4.21-1.578-1.254 1.215.527 2.134.009 3.82-.18.83-1.235 1.899-2.389-.183-.697-.994-2.53-3.543-3.759-2.959-2.534 1.202.754 3.288-.65 4.184-1.192 0-4.861 2.002-6.816 6.307-.985 2.162-3.783 14.132 7.47 13.473 5.663-.335 10.492-4.33 12.357-3.175l9.525.17c2.007-1.475 8.53 3.066 12.483 3.48 8.677.994 9.93-6.938 8.366-13.03z" fill="#EDA65B"/><path fill-rule="evenodd" clip-rule="evenodd" d="M64.053 83.447c-4.574 5.106-9.256 6.67-13.01 6.67-3.713 0-10.086-2.407-13.615-6.694" fill="#F05B29"/><path d="M51.042 90.824c-4.145 0-10.58-2.6-14.16-6.953a.705.705 0 01.1-.994.705.705 0 01.993.099c3.274 3.976 9.332 6.44 13.072 6.44 3.067 0 7.721-1.117 12.484-6.435a.708.708 0 011.055.942c-5.116 5.704-10.19 6.9-13.544 6.9z" fill="#131741"/><path fill-rule="evenodd" clip-rule="evenodd" d="M50.746 73.691s3.048-6.623 6.812-7.155c2.12-.297 5.973 3.542 7.34 7.23 1.06 2.874.056 5.653-.849 6.332-2.492 1.865-6.58 4.79-8.347 3.09-2.666-5.714-4.97-1.997-4.956-9.497zM50.731 73.691s-3.047-6.623-6.811-7.155c-2.12-.297-5.973 3.556-7.34 7.268-1.06 2.888-.056 5.686.849 6.374 2.491 1.898 6.58 4.838 8.347 3.015 2.167-4.975 4.8-2.262 4.955-9.502z" fill="#EDA65B"/><path d="M55.754 83.96a.713.713 0 01-.527-.235l-4.49-5.003-4.484 4.98a.703.703 0 01-.999.051.703.703 0 01-.052-.999l5.54-6.147 5.54 6.176a.708.708 0 01-.528 1.177z" fill="#131741"/><path fill-rule="evenodd" clip-rule="evenodd" d="M43.84 66.691c0-2.19 1.271-14.344 6.872-14.344 5.262 0 6.92 11.697 6.92 14.316l-6.892 2.275-6.9-2.247z" fill="#FF7B4F"/><path fill-rule="evenodd" clip-rule="evenodd" d="M43.84 66.691c.621 2.43 2.209 1.37 2.981 2.435 1.545 2.134 1.738 4.857 4.014 4.852 2.379 0 2.218-2.694 3.486-4.837.64-1.08 3.109-.024 3.311-2.478 0 0-1.658-1.027-6.006-.085a4.026 4.026 0 01-1.592.005c-5.036-.985-6.195.108-6.195.108z" fill="#D43802"/><path d="M50.73 74.6c-1.916 0-2.336-1.338-2.708-2.515-.212-.679-.457-1.446-.98-2.172-.113-.155-.508-.221-.895-.287-.975-.165-2.614-.443-3.005-2.822a.705.705 0 01.584-.81.708.708 0 01.81.584c.227 1.385.905 1.498 1.847 1.658.636.108 1.357.23 1.804.848.66.91.952 1.832 1.183 2.577.381 1.21.513 1.526 1.36 1.526h.006c1.008 0 1.191-.429 1.606-1.78.212-.688.452-1.466.923-2.257.4-.674 1.169-.81 1.847-.928 1.116-.198 1.705-.358 1.818-1.625a.707.707 0 011.408.127c-.216 2.402-1.95 2.709-2.981 2.888-.32.056-.806.14-.872.259-.386.65-.588 1.31-.786 1.95-.4 1.3-.858 2.775-2.959 2.775-.004.004-.004.004-.01.004z" fill="#131741"/><path fill-rule="evenodd" clip-rule="evenodd" d="M90.382 17.945c-3.533-3.038-22.075 4.093-21.566 9.958.513 5.926 9.167 4.527 9.167 4.527s3.038 14.476 5.53 9.653c2.144-20.624 11.188-20.421 6.869-24.138zM8.859 19.108c3.537-3.815 21.97 3.967 21.122 9.445-1.031 6.666-10.128 4.64-10.128 4.64s.48 10.684-2.807 8.24c-4.127-17.468-10.533-19.79-8.187-22.325z" fill="#fff"/><path d="M82.26 33.848h-.01a.706.706 0 01-.696-.716c.014-1.14-.452-1.898-1.39-2.252-1.583-.593-4 .16-5.271 1.654a.707.707 0 01-1.239-.542c.31-2.572 1.352-4.513 3.1-5.766 3.16-2.275 7.457-1.427 7.636-1.39a.71.71 0 01.55.834.713.713 0 01-.833.551c-.07-.014-3.891-.753-6.534 1.155-.947.683-1.639 1.639-2.072 2.85 1.62-.947 3.613-1.253 5.162-.67 1.49.561 2.328 1.87 2.309 3.59a.715.715 0 01-.712.702zM17.254 33.848a.706.706 0 01-.707-.706c0-1.998 1.173-3.524 3.062-3.986 1.328-.32 2.963-.084 4.33.82-.806-2.51-1.923-4.06-3.289-4.536-1.964-.683-3.961 1.017-3.98 1.036a.707.707 0 01-.994-.07.703.703 0 01.07-.995c.104-.094 2.629-2.251 5.361-1.31 2.346.811 3.99 3.605 4.895 8.31a.708.708 0 01-.462.801.709.709 0 01-.857-.344c-1.037-2.011-3.218-2.704-4.74-2.336-1.257.306-1.983 1.258-1.983 2.61a.706.706 0 01-.706.706z" fill="#F05B29"/><path d="M82.482 44c-.033 0-.061 0-.094-.005-2.1-.146-3.952-6.553-4.946-10.787-1.475.14-5.083.268-7.368-1.513-1.158-.904-1.818-2.162-1.955-3.73-.202-2.318 1.932-4.89 6.002-7.24 5.558-3.213 13.774-5.385 16.671-3.36 2.468 1.725 1.154 3.736-.509 6.28-.942 1.441-2.115 3.231-3.137 5.568-.773 1.766-1.314 4.918-1.795 7.697-.396 2.294-.735 4.273-1.168 5.427-.424 1.102-.994 1.663-1.7 1.663zm-3.957-12.37l.146.645c1.169 5.144 2.916 9.883 3.778 10.297.066-.06.217-.245.4-.74.387-1.026.736-3.038 1.098-5.167.49-2.86 1.046-6.1 1.894-8.027 1.07-2.44 2.28-4.287 3.25-5.77 1.861-2.85 2.12-3.482.886-4.344-2.106-1.47-9.615.226-15.154 3.425-3.52 2.035-5.45 4.183-5.304 5.893.103 1.182.565 2.077 1.413 2.737 2.379 1.856 6.891 1.159 6.939 1.154l.654-.104zM17.663 42.563c-.189 0-.377-.047-.556-.141-.876-.467-1.295-1.932-2.087-4.942-.603-2.299-1.356-5.158-2.534-7.626-.768-1.611-1.696-3.1-2.511-4.41-1.814-2.916-3.25-5.214-1.616-6.835 2.577-2.558 8.343-1.196 12.88.928 4.738 2.219 9.713 6.011 9.444 9.082-.155 1.781-.895 3.17-2.195 4.127-2.412 1.776-6.114 1.54-7.843 1.305.17 2.233.25 7.457-2.587 8.446a1.163 1.163 0 01-.395.066zm-5.102-23.95c-1.418 0-2.525.33-3.203 1-.791.786.174 2.444 1.818 5.087.839 1.343 1.786 2.869 2.586 4.55 1.235 2.591 2.007 5.522 2.624 7.877.42 1.587.928 3.542 1.32 3.994 1.667-.772 1.775-5.172 1.44-7.829l-.122-.989.975.212c.052.01 5.003 1.05 7.655-.904.97-.716 1.503-1.734 1.625-3.11.17-1.954-3.622-5.327-8.639-7.678-3.1-1.46-5.94-2.21-8.079-2.21z" fill="#131741"/><path d="M74.553 70.252a1.412 1.412 0 01-.853-2.54c2.587-1.954 3.68-6.702 3.873-7.635a1.414 1.414 0 112.77.575c-.326 1.554-1.635 6.812-4.937 9.313a1.38 1.38 0 01-.853.287zM26.36 70.252a1.41 1.41 0 01-.854-.287c-3.104-2.35-4.004-6.962-4.39-8.932-.028-.145-.052-.273-.075-.376a1.416 1.416 0 011.097-1.673c.763-.16 1.512.33 1.673 1.098.023.118.052.254.08.414.297 1.513 1.079 5.521 3.32 7.222a1.407 1.407 0 01-.853 2.534z" fill="#EDA65B"/><path fill-rule="evenodd" clip-rule="evenodd" d="M73.089 55.253c-1.776 5.983-13.807 2.337-14.038-4.569-.24-7.297 7.914-8.295 11.155-5.017 1.913 1.932 3.84 6.378 2.883 9.586z" fill="#fff"/><path d="M68.374 58.98c-.386 0-.782-.024-1.191-.08-4.226-.542-8.682-3.755-8.828-8.192-.109-3.237 1.366-5.752 4.041-6.906 2.79-1.201 6.364-.613 8.32 1.366 1.969 1.997 4.13 6.68 3.057 10.288-.67 2.233-2.685 3.524-5.399 3.524zM65.53 44.584c-.88 0-1.766.165-2.577.513-1.243.533-3.307 1.97-3.189 5.559.123 3.636 4.037 6.383 7.599 6.84.975.122 4.234.32 5.054-2.445.871-2.93-.994-7.15-2.709-8.894-1.012-1.017-2.581-1.573-4.178-1.573z" fill="#131741"/><path d="M65.478 56.271a5.997 5.997 0 100-11.993 5.997 5.997 0 000 11.993z" fill="#2634B5"/><path d="M65.148 54.17a3.896 3.896 0 100-7.791 3.896 3.896 0 000 7.791z" fill="#000"/><path d="M64.05 50.072a1.856 1.856 0 100-3.712 1.856 1.856 0 000 3.712z" fill="#fff"/><path opacity=".8" d="M67.8 54.316a.754.754 0 100-1.507.754.754 0 000 1.507z" fill="#fff"/><path fill-rule="evenodd" clip-rule="evenodd" d="M28.384 55.254c1.776 5.982 13.807 2.336 14.038-4.57.24-7.297-7.914-8.295-11.155-5.017-1.908 1.932-3.834 6.378-2.883 9.587z" fill="#fff"/><path d="M33.104 58.98c-2.713 0-4.735-1.291-5.399-3.524-1.074-3.608 1.089-8.29 3.058-10.288 1.955-1.978 5.53-2.563 8.319-1.366 2.675 1.15 4.15 3.67 4.041 6.906-.146 4.437-4.607 7.65-8.827 8.192-.405.051-.806.08-1.192.08zm2.845-14.396c-1.597 0-3.166.551-4.178 1.578-1.72 1.738-3.58 5.964-2.709 8.894.82 2.765 4.08 2.567 5.055 2.445 3.56-.457 7.476-3.204 7.598-6.84.118-3.59-1.946-5.027-3.19-5.559a6.54 6.54 0 00-2.576-.518z" fill="#131741"/><path d="M36 56.271a5.997 5.997 0 100-11.993 5.997 5.997 0 000 11.993z" fill="#2634B5"/><path d="M36.331 54.17a3.896 3.896 0 100-7.792 3.896 3.896 0 000 7.792z" fill="#000"/><path d="M37.429 50.072a1.856 1.856 0 100-3.712 1.856 1.856 0 000 3.712z" fill="#fff"/><path opacity=".8" d="M33.679 54.316a.754.754 0 100-1.507.754.754 0 000 1.507z" fill="#fff"/><path d="M50.737 78.345a.706.706 0 01-.706-.706v-3.745a.706.706 0 111.413 0v3.745c0 .39-.316.706-.707.706z" fill="#131741"/></svg>