<svg width="210" height="210" fill="none" xmlns="http://www.w3.org/2000/svg"><path fill-rule="evenodd" clip-rule="evenodd" d="M76.439 50.759c5.866 1.523 4.976-9.695 8.19-8.4 5.768 2.326 8.934 8.469 16.947 3.226 5.757-3.77 7.726 4.244 15.867-.94 4.808-3.067 9.704 6.203 17.114 2.483 11.277-5.658 41.449-50.768 60.947-38.956 15.897 9.635-10.051 85.055-13.018 94.275-4.086 12.682-9.853 56.713-30.637 65.537-21.971 9.318-29.598 14.007-44.546 14.007-12.622 0-24.355-6.261-45.822-14.057-18.172-6.598-33-61.293-37.175-68.92C16.372 84.512.989 10.388 15.739 6.935c21.12-4.966 48.611 40.678 60.7 43.824z" fill="#F05B29"/><path d="M107.314 183.456c-.01 0-.01 0 0 0-9.694 0-18.914-3.601-31.685-8.577-4.313-1.682-9.2-3.591-14.651-5.57-14.611-5.312-26.462-38.362-33.535-58.118-1.969-5.49-3.522-9.823-4.432-11.485-7.043-12.89-20.28-72.353-12.643-89.457 1.197-2.67 2.89-4.283 5.036-4.788C29.47 2.167 45.674 19.43 58.684 33.29c7.22 7.686 14.036 14.957 18.132 16.025 1.701.436 2.453-.702 3.68-4.184.672-1.9 1.246-3.532 2.621-4.145.455-.208 1.177-.376 2.078-.01 1.73.692 3.185 1.672 4.59 2.612 3.482 2.324 6.005 4.006 10.99.741 3.294-2.156 5.728-1.167 7.865-.286 2.285.93 4.254 1.73 8.013-.663 2.948-1.88 5.866-.307 8.448 1.088 2.829 1.533 5.49 2.978 8.804 1.316 3.185-1.603 8.28-6.876 14.186-12.989 14.166-14.67 33.575-34.762 48.196-25.908 10.644 6.45 6.707 38.046-11.693 93.918-.287.881-.525 1.583-.683 2.088-.781 2.433-1.652 6.153-2.671 10.456-4.263 18.182-11.396 48.601-28.797 55.981a970.212 970.212 0 00-10.11 4.373c-14.868 6.499-22.327 9.754-35.019 9.754zM19.044 8.023c-1.009 0-1.988.11-2.968.337-1.197.277-2.206 1.325-2.997 3.106-6.984 15.63 6.014 74.895 12.534 86.816 1.019 1.869 2.532 6.084 4.62 11.91 6.45 17.995 18.459 51.49 31.764 56.328 5.48 1.988 10.387 3.907 14.71 5.589 12.93 5.045 21.477 8.379 30.597 8.379 12.079 0 19.35-3.176 33.832-9.507 3.027-1.325 6.371-2.789 10.14-4.382 16.016-6.796 22.941-36.305 27.076-53.934 1.028-4.372 1.909-8.151 2.73-10.693.168-.505.396-1.217.692-2.097 8.112-24.642 25.632-82.79 12.979-90.457-12.593-7.627-31.052 11.475-44.526 25.434-6.341 6.568-11.356 11.752-14.986 13.582-4.689 2.354-8.488.297-11.545-1.355-2.532-1.365-4.026-2.098-5.441-1.197-5.055 3.225-8.201 1.939-10.733.91-1.959-.792-3.136-1.276-5.124.03-6.628 4.342-10.684 1.632-14.265-.762-1.227-.821-2.503-1.672-3.868-2.256-.307.435-.703 1.553-.97 2.315-.96 2.72-2.562 7.28-7.231 6.064-4.926-1.276-11.376-8.161-19.547-16.857C45.002 23.06 30.895 8.023 19.044 8.023z" fill="#131741"/><path fill-rule="evenodd" clip-rule="evenodd" d="M162.007 99.637c-1.048-2.7-3.522-2.335-7.053-2.888-2.77-.545-9.635 0-12.059-.268.346-1.87 2.147-7.805-3.195-7.26-2.77 0-5.679 6.44-7.41 8.091-2.77 3.245-4.57 2.414-4.916-1.325-.693-3.789 1.731-8.913-2.147-9.675-2.77-.277-4.916 4.016-5.955 6.707-.346 1.316-2.147 2.424-1.454-6.984 0-2.424-.01-7.785-2.424-9.13-4.036-2.236-8.448 15.343-9.902 19.626-1.039-4.284-6.727-22.594-10.941-18.578-1.039 2.423-.347 3.462-.693 5.886 0 1.316-.346 10.496-1.73 8.903-.693-2.7-4.571-8.092-6.728-7.261-3.422 1.622-.692 6.44-1.73 10.229-.693 3.789-2.494 4.56-4.918 1.098-1.464-1.652-3.887-8.082-6.726-8.36-4.917-.553-3.532 5.392-3.532 7.262-2.503 0-5.273-.554-8.102-.277-3.541.544-6.272 2.077-7.42 4.837-1.562 3.749.05 21.496 23.327 21.823 3.878 0 7.38-.633 9.902-1.316 2.147-.544 7.806-1.652 9.606-.613l20.003.277c2.73-2.028 13.018 1.642 16.906 1.642 21.496 3.65 32.575-12.326 29.291-22.446zM106.691 152.423s-1.099-11.891 14.304-13.048c7.963-.594 18.261 7.32 22.179 15.511 3.937 8.221-5.54 11.129-14.206 10.565-2.424-11.485-18.172-8.072-22.277-13.028z" fill="#EDA65B"/><path fill-rule="evenodd" clip-rule="evenodd" d="M106.65 152.423s2.443-10.901-14.305-13.048c-7.924-1.009-19.765 6.499-22.179 15.511-2.364 8.804 5.54 11.129 14.206 10.565 3.076-10.416 22.406-10.525 22.278-13.028z" fill="#EDA65B"/><path fill-rule="evenodd" clip-rule="evenodd" d="M143.531 167.964c-7.815 9.082-26.234 14.008-36.226 14.008-10.96 0-30.083-5.055-37.492-14.057" fill="#F05B29"/><path d="M107.306 183.456c-11.159 0-30.795-5.075-38.64-14.601a1.48 1.48 0 01.208-2.088 1.489 1.489 0 012.087.208c7.172 8.705 26.047 13.523 36.355 13.523 9.595 0 27.619-4.808 35.098-13.493a1.487 1.487 0 112.255 1.939c-8.171 9.467-26.947 14.512-37.363 14.512z" fill="#131741"/><path d="M129.432 166.807a1.486 1.486 0 01-1.395-.98c-3.107-8.497-20.082-9.833-21.427-9.922-1.336.089-18.252 1.435-21.081 9.833a1.478 1.478 0 01-1.88.93 1.474 1.474 0 01-.93-1.879c3.057-9.082 17.747-11.268 22.407-11.743v-1.147c0-.772.01-1.613.01-2.424v-1.84h2.967v1.84c0 1.187-.009 2.562-.009 3.561 4.679.475 19.408 2.661 22.722 11.753a1.485 1.485 0 01-.88 1.899.997.997 0 01-.504.119z" fill="#131741"/><path fill-rule="evenodd" clip-rule="evenodd" d="M92.187 139.701c0-4.6 2.67-30.122 14.433-30.122 11.049 0 14.532 24.563 14.532 30.063l-14.473 4.778-14.492-4.719z" fill="#FF7B4F"/><path fill-rule="evenodd" clip-rule="evenodd" d="M92.187 138.494c1.305 3.819 4.64 2.157 6.261 3.829 3.245 3.353 3.651 5.45 8.429 5.441 4.995 0 4.659-2.048 7.32-5.421 1.346-1.702 6.529-.04 6.955-3.888 0 0-3.483-1.613-12.613-.129a10.838 10.838 0 01-3.344 0c-10.575-1.543-13.008.168-13.008.168z" fill="#D43802"/><path d="M106.652 149.129c-3.601 0-4.462-.722-5.688-2.493-.426-.613-.911-1.306-1.86-2.196-.228-.218-1.296-.337-1.989-.416-2.176-.247-5.47-.633-6.36-4.323a1.486 1.486 0 012.888-.692c.366 1.513 1.444 1.8 3.819 2.067 1.345.159 2.74.317 3.68 1.197a15.178 15.178 0 012.265 2.671c.732 1.049.841 1.217 3.235 1.217 2.839 0 3.017-.218 3.838-1.494.386-.603.871-1.355 1.672-2.265.87-.999 2.295-1.167 3.799-1.345 2.621-.317 3.581-.653 3.749-1.939.109-.811.86-1.395 1.672-1.276.811.108 1.385.85 1.276 1.671-.505 3.799-4.155 4.234-6.341 4.492-.673.079-1.702.207-1.949.385-.613.713-1.019 1.336-1.375 1.89-1.316 2.028-2.246 2.859-6.292 2.859-.029-.01-.029-.01-.039-.01z" fill="#131741"/><path fill-rule="evenodd" clip-rule="evenodd" d="M154.215 103.297s-4.778 20.646-26.927 11.169c2.048-9.418 11.831-8.626 26.927-11.169z" fill="#fff"/><path d="M137.972 118.443c-3.433 0-7.192-.871-11.258-2.612l-1.128-.485.258-1.197c1.879-8.665 9.575-9.704 20.23-11.158 2.492-.337 5.074-.693 7.894-1.168l2.196-.366-.505 2.167c-.089.366-2.186 9.111-9.862 13.008-2.365 1.217-4.976 1.811-7.825 1.811zm-8.903-4.848c6.083 2.365 11.257 2.503 15.392.406 4.293-2.176 6.549-6.302 7.578-8.844-1.979.297-3.848.554-5.56.791-10.555 1.425-15.659 2.345-17.41 7.647z" fill="#131741"/><path fill-rule="evenodd" clip-rule="evenodd" d="M144.806 104.257s-1.731 7.043-4.036 7.518c-2.443.505-7.518-5.579-7.518-5.579l11.554-1.939z" fill="#131741"/><path fill-rule="evenodd" clip-rule="evenodd" d="M59.042 103.297s4.778 20.646 26.927 11.169c-2.048-9.418-11.831-8.626-26.927-11.169z" fill="#fff"/><path d="M75.293 118.442c-2.849 0-5.46-.603-7.825-1.8-7.676-3.898-9.774-12.643-9.863-13.009l-.504-2.166 2.196.366c2.82.475 5.401.821 7.894 1.167 10.654 1.445 18.35 2.493 20.23 11.149l.257 1.197-1.127.485c-4.076 1.741-7.835 2.611-11.258 2.611zm-14.057-13.285c1.039 2.552 3.314 6.687 7.598 8.854 4.125 2.087 9.298 1.939 15.372-.416-1.75-5.302-6.855-6.222-17.41-7.647-1.722-.237-3.591-.494-5.56-.791z" fill="#131741"/><path fill-rule="evenodd" clip-rule="evenodd" d="M68.455 104.257s1.731 7.043 4.036 7.518c2.444.505 7.519-5.579 7.519-5.579l-11.555-1.939z" fill="#131741"/><path fill-rule="evenodd" clip-rule="evenodd" d="M187.207 14.048c-4.867 1.207-41.717 31.21-40.648 43.527 1.078 12.444 17.321 10.179 17.321 10.179s7.538 31.042 12.772 20.912c5.539-15.807 24.74-78.12 10.555-74.618zM22.97 15.977c4.866 1.207 38.026 26.996 36.018 41.746-1.91 14.037-17.184 11.633-17.184 11.633s-5.876 31.201-11.109 21.071C26.58 74.62 11 13.02 22.97 15.977z" fill="#fff"/><path d="M156.261 68.486c-.089 0-.178-.01-.277-.03a1.47 1.47 0 01-1.197-1.306c-2.176-20.982 18.241-29.726 18.449-29.815a1.476 1.476 0 011.939.8 1.479 1.479 0 01-.801 1.94c-.693.287-15.432 6.647-16.699 21.842 4.966-6.677 12.089-10.416 19.419-10.02.821.049 1.445.741 1.395 1.562a1.482 1.482 0 01-1.563 1.395c-7.765-.445-14.997 4.353-19.349 12.81a1.435 1.435 0 01-1.316.822zM51.294 68.486a1.49 1.49 0 01-1.315-.801c-4.353-8.459-11.594-13.246-19.35-12.811-.791.04-1.523-.584-1.563-1.395a1.476 1.476 0 011.395-1.563c7.33-.406 14.443 3.334 19.409 10.001-1.345-15.254-16.52-21.753-16.688-21.822a1.488 1.488 0 01-.802-1.94 1.485 1.485 0 011.94-.8c.207.088 20.625 8.833 18.449 29.815a1.481 1.481 0 01-1.198 1.306c-.099.01-.187.01-.276.01z" fill="#F05B29"/><path d="M174.349 92.188c-.128 0-.257-.01-.376-.02-4.995-.603-9.328-15.274-11.228-22.812-2.75.178-9.081.139-13.414-3.313-2.512-1.999-3.947-4.808-4.253-8.33-1.148-13.167 36.166-43.715 41.765-45.1 2.444-.603 3.948.367 4.788 1.287 1.267 1.394 5.125 5.628-2.067 35.83-3.858 16.184-9.22 32.872-11.515 39.441l-.079.188c-1.177 2.275-2.562 2.83-3.621 2.83zm-9.338-26.086l.316 1.306c2.76 11.376 6.965 21.565 9.003 21.812.039.05.445-.168.959-1.137 7.746-22.17 19.815-65.963 14.156-72.185-.317-.346-.791-.673-1.879-.406-4.096 1.01-40.5 30.726-39.531 41.964.238 2.72 1.267 4.768 3.146 6.262 4.561 3.63 12.415 2.582 12.494 2.572l1.336-.188zM32.883 93.949c-1.356 0-2.533-.95-3.502-2.83l-.119-.306C21.26 60.028 13.04 21.99 19.38 15.57c.732-.742 2.008-1.523 3.957-1.039C29.33 16.016 62.59 42.31 60.473 57.921c-.594 4.342-2.424 7.686-5.451 9.932-4.185 3.116-9.497 3.254-12 3.106-1.503 7.597-4.995 22.258-9.684 22.95a2.58 2.58 0 01-.455.04zm-.792-4.046c.515.95.851 1.078.851 1.088 1.8-.386 5.283-10.615 7.41-21.892l.267-1.415 1.424.228c.06.01 6.658.98 11.218-2.424 2.355-1.76 3.789-4.431 4.264-7.943 1.82-13.395-30.3-38.976-34.91-40.114-.663-.168-.93.04-1.128.237-3.136 3.166-1.989 23.811 10.604 72.235z" fill="#131741"/><path d="M55.606 133.024c-.336 0-.672-.06-1.009-.178-9.764-3.522-12.93-13.355-13.058-13.771a2.977 2.977 0 011.95-3.719 2.97 2.97 0 013.709 1.939c.05.138 2.503 7.469 9.407 9.962a2.956 2.956 0 011.781 3.798 2.938 2.938 0 01-2.78 1.969zM157.705 133.024a2.962 2.962 0 01-2.789-1.958 2.973 2.973 0 011.78-3.799c7.024-2.533 9.378-9.873 9.398-9.952a2.975 2.975 0 013.72-1.949 2.97 2.97 0 011.948 3.72c-.128.415-3.294 10.248-13.058 13.77a2.893 2.893 0 01-.999.168z" fill="#EDA65B"/></svg>