<svg width="210" height="210" fill="none" xmlns="http://www.w3.org/2000/svg"><path fill-rule="evenodd" clip-rule="evenodd" d="M76.456 51.214c5.866 1.524 4.976-9.694 8.19-8.398 5.768 2.324 8.933 8.467 16.946 3.224 5.758-3.769 7.726 4.244 15.868-.94 4.807-3.066 9.704 6.203 17.114 2.484 11.277-5.659 41.449-50.768 60.947-38.957 15.897 9.635-10.051 85.055-13.019 94.275-2.285 7.083-5.084 23.93-10.733 38.976-4.471 11.901-11.693 22.664-20.873 26.561-21.971 9.319-28.629 17.965-43.576 17.965-12.623 0-24.355-12.197-45.822-19.993-7.597-2.76-14.6-11.94-20.497-24.543-8.21-17.569-14.255-37.957-16.678-42.399-7.934-14.502-23.317-88.626-8.567-92.078 21.11-4.966 48.611 40.677 60.7 43.823z" fill="#F05B29"/><path d="M107.322 187.868c-7.488 0-14.354-3.888-23.049-8.804-6.559-3.71-13.988-7.914-23.277-11.287-7.489-2.721-14.868-11.476-21.338-25.315-4.976-10.634-9.15-22.307-12.207-30.825-1.969-5.49-3.522-9.823-4.432-11.485-7.043-12.89-20.28-72.353-12.642-89.457 1.197-2.671 2.888-4.283 5.035-4.788 14.067-3.294 30.27 13.968 43.28 27.827 7.22 7.687 14.036 14.958 18.132 16.026 1.711.435 2.454-.702 3.68-4.184.673-1.9 1.246-3.532 2.621-4.145.456-.208 1.178-.376 2.078-.01 1.731.692 3.185 1.672 4.59 2.611 3.482 2.325 5.995 4.007 10.991.742 3.294-2.156 5.727-1.167 7.864-.287 2.285.93 4.254 1.732 8.013-.662 2.948-1.88 5.866-.307 8.448 1.088 2.829 1.533 5.49 2.977 8.804 1.316 3.186-1.603 8.28-6.876 14.186-12.99 14.166-14.67 33.585-34.761 48.196-25.907 10.644 6.45 6.707 38.056-11.703 93.928-.287.871-.514 1.573-.683 2.068-.781 2.433-1.652 6.153-2.661 10.456-1.958 8.349-4.392 18.736-8.092 28.589-5.173 13.76-13.067 23.752-21.684 27.402-8.092 3.433-14.007 6.727-19.221 9.635-8.794 4.917-15.155 8.458-24.929 8.458zM19.052 8.479c-1.009 0-1.988.109-2.967.336-1.197.277-2.207 1.326-2.998 3.107-6.984 15.63 6.015 74.895 12.534 86.816 1.019 1.869 2.532 6.083 4.62 11.91 3.037 8.468 7.191 20.062 12.098 30.568 6.123 13.107 12.92 21.337 19.656 23.781 9.517 3.462 17.065 7.726 23.722 11.485 8.32 4.699 14.888 8.418 21.595 8.418 9.003 0 14.76-3.215 23.485-8.072 5.283-2.948 11.268-6.281 19.508-9.773 7.864-3.334 15.175-12.712 20.062-25.711 3.63-9.675 6.044-19.953 7.983-28.223 1.029-4.372 1.909-8.141 2.73-10.684.169-.504.396-1.207.683-2.087 8.122-24.642 25.631-82.8 12.979-90.466-12.593-7.627-31.053 11.475-44.526 25.433-6.341 6.569-11.357 11.752-14.987 13.583-4.679 2.354-8.488.296-11.545-1.356-2.532-1.365-4.026-2.097-5.44-1.197-5.055 3.225-8.201 1.94-10.734.91-1.958-.791-3.136-1.276-5.124.03-6.628 4.343-10.684 1.632-14.265-.762-1.226-.82-2.503-1.672-3.868-2.255-.306.435-.702 1.553-.97 2.315-.959 2.72-2.561 7.28-7.23 6.064-4.927-1.276-11.377-8.162-19.548-16.857C45.02 23.515 30.903 8.479 19.052 8.479z" fill="#131741"/><path fill-rule="evenodd" clip-rule="evenodd" d="M160.05 98.698c-1.049-3.403-5.5-5.46-9.032-6.153-2.77-.693-5.678 0-8.102-.337.346-2.364 2.147-9.872-3.195-9.18-2.77 0-5.678 8.132-7.409 10.219-2.77 4.095-4.571 3.057-4.917-1.672-.692-4.798 1.731-11.257-2.147-12.227-2.769-.346-4.916 5.075-5.955 8.478-.346 1.672-2.146 3.057-1.454-8.824 0-3.057-.01-9.843-2.424-11.535-4.036-2.829-8.448 19.39-9.902 24.81-1.039-5.41-6.727-28.559-10.94-23.484-1.04 3.057-.347 4.382-.694 7.439 0 1.672-.346 13.276-1.73 11.258-.693-3.403-4.57-10.22-6.727-9.18-3.423 2.047-.693 8.131-1.732 12.929-.692 4.798-2.492 5.767-4.916 1.385-1.464-2.087-3.888-10.21-6.727-10.565-4.917-.693-4.52 8.497-4.52 10.862-2.504 0-13.257-2.958-16.046 4.649-4.511 12.286 12.81 27.946 27.56 25.493 9.398-1.563 13.187-1.375 16.797-.91l20.003.356c2.73-2.572 13.018 2.077 16.906 2.077 18.093 1.494 30.587-13.097 27.303-25.888z" fill="#EDA65B"/><path fill-rule="evenodd" clip-rule="evenodd" d="M142.299 168.419c-9.754 11.713-23.782 17.955-35.633 17.955-10.585 0-28.43-8.992-35.603-18.004" fill="#F05B29"/><path d="M106.668 187.858c-11.1 0-29.312-9.2-36.76-18.568a1.481 1.481 0 01.237-2.087 1.49 1.49 0 012.087.237c6.875 8.636 24.256 17.44 34.436 17.44 12.336 0 25.552-6.677 34.485-17.41a1.468 1.468 0 012.087-.188c.633.524.712 1.464.188 2.087-9.477 11.406-23.564 18.489-36.76 18.489z" fill="#131741"/><path fill-rule="evenodd" clip-rule="evenodd" d="M106.699 154.857s6.4-13.909 14.304-15.027c7.905-1.117 16.738-1.701 22.179 5.619 5.441 7.321-11.475 23-20.141 22.436-8.665-.563-16.372-3.996-16.342-13.028zM106.669 154.857s-6.4-13.909-14.304-15.027c-7.904-1.117-15.749-3.68-21.19 3.641-5.44 7.32 10.486 23 19.152 22.436 8.666-.564 16.352-1.89 16.342-11.05z" fill="#EDA65B"/><path d="M122.326 169.686c-3.442 0-6.865-.891-9.852-2.681-2.622-1.563-4.63-3.67-5.866-6.064-.911 1.474-2.216 2.74-3.868 3.729-5.6 3.364-14.216 3.027-21.437-.831-3.928-2.097-6.856-4.817-9.22-8.576a1.488 1.488 0 01.465-2.048 1.487 1.487 0 012.048.465c2.107 3.343 4.6 5.678 8.102 7.538 6.34 3.383 13.78 3.749 18.508.91 1.821-1.088 3.987-3.166 3.987-6.846h2.968c0 3.621 2.117 6.965 5.816 9.171 4.947 2.948 11.268 3.017 16.491.188a1.48 1.48 0 012.008.593 1.48 1.48 0 01-.593 2.008 19.9 19.9 0 01-9.557 2.444z" fill="#131741"/><path fill-rule="evenodd" clip-rule="evenodd" d="M92.195 140.157c0-4.6 2.67-30.122 14.433-30.122 11.049 0 14.532 24.562 14.532 30.063l-14.473 4.778-14.492-4.719z" fill="#FF7B4F"/><path fill-rule="evenodd" clip-rule="evenodd" d="M92.195 140.157c1.305 5.104 4.64 2.879 6.262 5.114 3.244 4.482 3.65 10.199 8.418 10.189 4.996 0 4.659-5.658 7.32-10.159 1.346-2.265 6.529-.05 6.955-5.204 0 0-3.482-2.156-12.613-.178-1.098.238-2.236.218-3.344.01-10.565-2.067-12.998.228-12.998.228z" fill="#D43802"/><path d="M106.67 156.776c-4.027 0-4.907-2.809-5.688-5.282-.446-1.425-.96-3.037-2.058-4.561-.238-.326-1.069-.464-1.88-.603-2.047-.346-5.49-.93-6.311-5.926a1.48 1.48 0 011.227-1.701 1.473 1.473 0 011.701 1.227c.475 2.908 1.9 3.145 3.878 3.482 1.335.227 2.849.484 3.789 1.79 1.385 1.91 1.998 3.848 2.483 5.411.801 2.543 1.078 3.206 2.859 3.206h.01c2.117 0 2.502-.901 3.373-3.74.445-1.444.949-3.076 1.939-4.738.841-1.415 2.453-1.702 3.878-1.949 2.344-.416 3.581-.752 3.828-3.413a1.484 1.484 0 012.958.267c-.455 5.045-4.096 5.688-6.262 6.064-.673.119-1.692.297-1.84.544-.801 1.365-1.237 2.75-1.652 4.096-.841 2.73-1.801 5.826-6.213 5.826h-.019z" fill="#131741"/><path fill-rule="evenodd" clip-rule="evenodd" d="M187.224 14.504c-4.867 1.206-41.717 31.21-40.648 43.526 1.078 12.445 17.322 10.18 17.322 10.18s7.538 31.042 12.771 20.912c5.53-15.808 24.741-78.12 10.555-74.618zM22.982 16.433C27.849 17.64 61.008 43.429 59 58.179c-1.91 14.037-17.183 11.633-17.183 11.633s-5.876 31.201-11.11 21.071c-4.114-15.808-19.695-77.408-7.725-74.45z" fill="#fff"/><path d="M156.278 68.941c-.089 0-.178-.01-.277-.03a1.471 1.471 0 01-1.197-1.305c-2.176-20.982 18.242-29.727 18.449-29.816a1.478 1.478 0 011.94.801 1.48 1.48 0 01-.802 1.94c-.692.286-15.432 6.647-16.698 21.842 4.966-6.678 12.098-10.417 19.419-10.021.821.05 1.444.742 1.394 1.563a1.493 1.493 0 01-1.562 1.395c-7.766-.446-14.997 4.352-19.35 12.81a1.456 1.456 0 01-1.316.821zM51.303 68.942a1.491 1.491 0 01-1.316-.802c-4.353-8.458-11.594-13.246-19.35-12.81-.801.04-1.523-.584-1.563-1.395a1.477 1.477 0 011.395-1.563c7.34-.406 14.443 3.334 19.409 10.001C48.533 47.119 33.358 40.62 33.19 40.54a1.488 1.488 0 01-.802-1.938 1.484 1.484 0 011.94-.802c.207.09 20.625 8.834 18.449 29.816a1.482 1.482 0 01-1.198 1.306c-.089.02-.187.02-.276.02z" fill="#F05B29"/><path d="M174.365 92.644c-.128 0-.257-.01-.375-.02-4.996-.603-9.329-15.274-11.228-22.812-2.75.178-9.082.139-13.414-3.314-2.513-1.998-3.948-4.808-4.254-8.33-1.148-13.166 36.166-43.714 41.766-45.099 2.443-.603 3.947.366 4.788 1.286 1.266 1.395 5.124 5.629-2.068 35.83-3.858 16.184-9.22 32.873-11.515 39.441l-.079.188c-1.177 2.276-2.562 2.83-3.621 2.83zm-9.338-26.087l.316 1.306c2.76 11.377 6.965 21.566 9.003 21.813.049.05.445-.168.959-1.138 7.746-22.169 19.815-65.962 14.156-72.185-.316-.346-.791-.672-1.879-.405-4.096 1.009-40.5 30.726-39.53 41.963.237 2.72 1.266 4.769 3.146 6.262 4.56 3.63 12.414 2.582 12.494 2.572l1.335-.188zM32.891 94.404c-1.355 0-2.532-.95-3.502-2.829l-.119-.306c-8.003-30.786-16.223-68.822-9.882-75.242.732-.742 2.008-1.524 3.957-1.039 5.995 1.484 39.253 27.778 37.136 43.388-.594 4.343-2.424 7.687-5.45 9.932-4.185 3.116-9.498 3.255-12 3.106-1.504 7.598-4.996 22.258-9.685 22.95-.158.03-.307.04-.455.04zM32.1 90.36c.514.95.85 1.078.85 1.088 1.8-.386 5.283-10.615 7.41-21.892l.267-1.415 1.424.228c.07.01 6.658.979 11.218-2.424 2.355-1.76 3.79-4.432 4.264-7.944 1.82-13.394-30.3-38.976-34.91-40.113-.663-.169-.93.04-1.128.237-3.126 3.166-1.979 23.811 10.605 72.235z" fill="#131741"/><path fill-rule="evenodd" clip-rule="evenodd" d="M154.026 102.764s-4.778 21.634-26.927 12.157c2.236-11.89 8.359-16.114 26.927-12.157z" fill="#fff"/><path d="M137.446 118.819c-3.344 0-6.984-.841-10.922-2.523l-1.098-.464.218-1.168c1.138-6.074 3.265-9.961 6.707-12.256 4.531-3.018 11.307-3.354 21.981-1.079l1.464.307-.326 1.464c-.089.396-2.246 9.813-10.209 13.899-2.364 1.207-4.976 1.82-7.815 1.82zm-8.646-4.798c5.935 2.315 11.01 2.434 15.086.337 5.015-2.563 7.37-7.885 8.25-10.457-8.804-1.711-14.591-1.404-18.143.96-2.552 1.701-4.174 4.55-5.193 9.16z" fill="#131741"/><path fill-rule="evenodd" clip-rule="evenodd" d="M141.65 101.745s1.534 10.041-1.068 10.486c-2.602.455-4.55-9.537-4.55-9.537l5.618-.949z" fill="#131741"/><path fill-rule="evenodd" clip-rule="evenodd" d="M59.349 102.763s4.778 21.635 26.927 12.158c-2.236-11.89-8.36-16.115-26.927-12.158z" fill="#fff"/><path d="M75.925 118.819c-2.839 0-5.45-.613-7.825-1.83-7.963-4.086-10.12-13.503-10.209-13.899l-.326-1.464 1.464-.307c10.674-2.275 17.45-1.939 21.98 1.078 3.443 2.296 5.58 6.193 6.708 12.257l.218 1.167-1.098.465c-3.918 1.682-7.568 2.533-10.912 2.533zm-14.7-14.918c.88 2.572 3.245 7.894 8.25 10.456 4.086 2.088 9.15 1.979 15.086-.336-1.019-4.6-2.641-7.449-5.203-9.15-3.542-2.375-9.329-2.691-18.133-.97z" fill="#131741"/><path fill-rule="evenodd" clip-rule="evenodd" d="M71.721 101.745s-1.533 10.041 1.069 10.486c2.602.455 4.55-9.537 4.55-9.537l-5.619-.949z" fill="#131741"/><path d="M95.303 109.283c0 14.136-10.545 23.267-23.712 23.267-13.176 0-23.989-6.312-23.989-24.207 0-12.91 9.17-15.205 22.278-14.76 13.157.465 25.423 1.86 25.423 15.7zM117.994 109.55c0 14.403 10.743 23.702 24.157 23.702 13.424 0 24.434-6.43 24.434-24.662 0-13.147-9.348-15.491-22.693-15.036-13.404.474-25.898 1.899-25.898 15.996z" fill="#2E338C"/><path d="M173.906 93.88s-6.163-4.105-25.057-4.936c-18.895-.821-34.921 6.569-35.949 6.569-.614 0-3.908.207-5.956.613-2.057-.208-5.549-.614-5.965-.614-1.029.208-17.054-7.39-35.949-6.568-19.102.613-25.473 4.936-25.473 4.936s-13.543 8.686-13.572 9.438c-.06 1.563 1.464 3.383 1.919 5.193.198.801 12.464-5.886 12.89-5.599 1.85 1.237 2.265 10.268 2.265 10.268.613 7.598 2.048 11.911 3.7 14.79 1.85 2.878 3.7 3.907 5.55 5.134 3.7 2.671 14.175 6.776 27.936 2.868 13.76-3.897 19.923-19.507 21.159-27.115.822-4.52 3.077-5.747 4.927-5.955 1.85.208 4.105 1.642 4.926 5.955 1.227 7.598 6.984 23.208 21.16 27.115 14.176 3.908 24.237-.613 27.937-2.878 3.699-2.671 8.012-4.729 9.447-20.131 0 0 .613-8.834 2.265-10.269.613-.277 9.883 3.087 10.16 2.098.425-1.474 1.632-3.661 1.652-5.095.01-1.118-9.982-5.817-9.972-5.817zm-79.91 20.745c-3.493 15.61-19.31 20.329-33.071 15.61-13.76-4.927-12.326-23.415-12.326-23.415s-1.03-13.147 18.083-12.524c0 0 10.882 0 15.61 1.226 4.106 1.445 14.987 3.492 11.703 19.103zm58.958 15.818c-13.76 4.926-29.786 0-33.071-15.611-3.284-15.61 7.598-17.667 11.911-19.102 4.521-1.227 15.61-1.227 15.61-1.227 18.697-.207 18.084 12.534 18.084 12.534s1.216 18.271-12.534 23.406z" fill="#151841"/><path d="M69.405 98.975s-19.468-3.67-14.225 18.36c.376-6.499 2.226-15.521 14.225-18.36zM139.689 99.39s-17.569-1.434-14.216 15.937c.831-5.293 4.778-13.582 14.216-15.937z" fill="#fff"/><path fill-rule="evenodd" clip-rule="evenodd" d="M35.457 94.227c6.163-.832 8.992-3.859 9.724-9.725.98 5.936 4.343 8.706 9.755 9.754-5.48.772-9.24 4.343-9.794 9.794-.95-5.451-3.63-8.617-9.685-9.823z" fill="#fff"/></svg>