<svg width="100" height="100" fill="none" xmlns="http://www.w3.org/2000/svg"><path fill-rule="evenodd" clip-rule="evenodd" d="M36.404 24.388c2.793.725 2.37-4.617 3.9-4 2.746 1.107 4.254 4.033 8.07 1.536 2.741-1.795 3.679 2.02 7.555-.448 2.29-1.46 4.622 2.954 8.15 1.183 5.37-2.695 19.738-24.175 29.022-18.55 7.57 4.587-4.786 40.502-6.199 44.892-1.088 3.373-2.421 11.395-5.11 18.56-2.13 5.667-5.569 10.792-9.94 12.648-10.463 4.438-13.633 8.555-20.751 8.555-6.01 0-11.598-4.866-21.82-8.578-3.618-1.315-6.953-6.628-9.76-12.63-3.91-8.366-6.788-18.075-7.943-20.19C7.8 40.46.475 5.163 7.5 3.52c10.057-2.364 23.148 19.37 28.905 20.869z" fill="#F05B29"/><path d="M51.106 89.461c-.005 0-.005 0 0 0-3.736 0-7.222-1.748-11.63-3.962-2.96-1.483-6.313-3.165-10.43-4.663-3.312-1.201-6.633-5.455-10.161-12.997-2.37-5.064-4.358-10.623-5.813-14.678-.938-2.615-1.677-4.678-2.11-5.47-3.354-6.138-9.657-34.453-6.02-42.598.57-1.272 1.375-2.04 2.397-2.28 6.703-1.569 14.415 6.651 20.61 13.251 3.438 3.66 6.684 7.122 8.634 7.631.815.212 1.168-.339 1.752-1.992.32-.905.594-1.682 1.249-1.974.216-.1.56-.18.989-.005.824.33 1.517.796 2.186 1.244 1.658 1.107 2.854 1.908 5.233.353 1.569-1.027 2.728-.556 3.745-.137 1.088.443 2.026.825 3.816-.315 1.404-.895 2.793-.146 4.023.518 1.347.73 2.614 1.418 4.192.627 1.517-.764 3.943-3.274 6.755-6.186C77.27 8.842 86.511-.725 93.473 3.491c5.07 3.072 3.195 18.122-5.572 44.728-.137.415-.245.749-.325.985-.372 1.158-.787 2.93-1.267 4.979-.933 3.976-2.092 8.922-3.853 13.614-2.46 6.552-6.223 11.31-10.326 13.048-3.854 1.635-6.67 3.203-9.153 4.588-4.193 2.342-7.222 4.028-11.871 4.028zM9.073 4.038c-.481 0-.947.051-1.414.16-.57.132-1.05.631-1.427 1.479C2.906 13.12 9.096 41.34 12.2 47.017c.486.891 1.206 2.898 2.2 5.672 1.447 4.033 3.425 9.554 5.761 14.557 3.312 7.084 6.459 11.21 9.36 12.266 4.193 1.522 7.585 3.227 10.58 4.725 4.245 2.13 7.6 3.81 11 3.81 4.287 0 7.029-1.53 11.183-3.843 2.516-1.404 5.366-2.991 9.29-4.654 3.745-1.588 7.226-6.053 9.553-12.243 1.729-4.607 2.878-9.502 3.802-13.44.49-2.082.909-3.877 1.3-5.087.08-.24.188-.575.325-.994 3.867-11.735 12.205-39.429 6.18-43.08-5.997-3.631-14.787 5.465-21.203 12.112-3.02 3.128-5.407 5.596-7.136 6.467-2.233 1.122-4.042.142-5.498-.645-1.206-.65-1.917-.999-2.59-.57-2.408 1.536-3.906.923-5.112.433-.932-.376-1.493-.607-2.44.015-3.156 2.068-5.087.777-6.793-.363-.584-.391-1.191-.796-1.841-1.074-.146.207-.33.74-.462 1.102-.457 1.296-1.225 3.467-3.444 2.888-2.346-.613-5.417-3.887-9.308-8.032C21.433 11.198 14.716 4.038 9.073 4.038z" fill="#131741"/><path fill-rule="evenodd" clip-rule="evenodd" d="M76.208 46.999c-.499-1.62-2.619-2.6-4.3-2.93-1.32-.33-2.704 0-3.859-.16.165-1.126 1.023-4.702-1.521-4.372-1.32 0-2.704 3.872-3.528 4.866-1.32 1.95-2.177 1.456-2.342-.796-.33-2.285.825-5.36-1.022-5.822-1.319-.165-2.341 2.416-2.836 4.037-.165.796-1.022 1.456-.692-4.202 0-1.456-.005-4.687-1.154-5.493-1.922-1.347-4.023 9.233-4.716 11.815-.494-2.577-3.203-13.6-5.21-11.184-.494 1.456-.164 2.087-.33 3.543 0 .796-.164 6.322-.824 5.36-.33-1.62-2.176-4.865-3.203-4.37-1.63.974-.33 3.871-.824 6.156-.33 2.285-1.188 2.746-2.342.66-.697-.994-1.85-4.862-3.203-5.031-2.341-.33-2.153 4.046-2.153 5.172-1.192 0-6.632-.57-7.96 3.048-2.149 5.85 7.334 5.101 12.737 10.914 3.09 3.326 7.914 2.017 8.705-.042l9.525.17c1.3-1.225 6.2.989 8.05.989 8.621.711 14.571-6.237 13.002-12.328z" fill="#EDA65B"/><path fill-rule="evenodd" clip-rule="evenodd" d="M67.758 80.2c-4.644 5.577-11.324 8.55-16.967 8.55-5.04 0-13.539-4.282-16.954-8.574" fill="#F05B29"/><path d="M50.795 89.456c-5.285 0-13.958-4.38-17.505-8.842a.706.706 0 01.113-.994.71.71 0 01.994.113c3.274 4.113 11.55 8.305 16.398 8.305 5.874 0 12.168-3.18 16.421-8.29a.7.7 0 01.994-.09c.302.25.34.697.09.994-4.513 5.431-11.226 8.804-17.505 8.804z" fill="#131741"/><path fill-rule="evenodd" clip-rule="evenodd" d="M50.81 73.742s3.048-6.624 6.811-7.156c3.764-.532 7.971-1.752 10.562 1.734 2.59 3.485-5.465 11.894-9.591 11.625-4.127-.273-7.801-1.903-7.782-6.203zM50.79 73.742s-3.047-6.624-6.811-7.156-7.97-1.752-10.561 1.734c-2.591 3.485 5.464 11.894 9.59 11.625 4.127-.273 7.792-1.841 7.783-6.203z" fill="#EDA65B"/><path d="M58.247 80.803c-1.639 0-3.269-.424-4.691-1.277-1.22-.725-2.167-1.71-2.756-2.822-.928 1.71-2.714 3.048-4.998 3.623-3.557.895-8.833-.127-11.97-5.968a.706.706 0 011.243-.67c1.72 3.2 5.474 6.501 10.378 5.262 2.775-.697 4.64-2.713 4.64-5.012h1.413c0 1.724 1.008 3.317 2.77 4.367 2.356 1.404 5.366 1.437 7.853.09a.705.705 0 11.674 1.238 9.462 9.462 0 01-4.556 1.169z" fill="#131741"/><path fill-rule="evenodd" clip-rule="evenodd" d="M43.902 66.741c0-2.19 1.272-14.344 6.873-14.344 5.262 0 6.92 11.697 6.92 14.316l-6.891 2.275-6.902-2.247z" fill="#FF7B4F"/><path fill-rule="evenodd" clip-rule="evenodd" d="M43.902 66.741c.622 2.431 2.21 1.371 2.982 2.436 1.545 2.134 1.739 4.856 4.014 4.852 2.379 0 2.218-2.695 3.486-4.838.64-1.079 3.109-.024 3.311-2.478 0 0-1.658-1.027-6.006-.085a4.026 4.026 0 01-1.592.005c-5.036-.985-6.195.108-6.195.108z" fill="#D43802"/><path d="M50.794 74.655c-1.917 0-2.336-1.338-2.708-2.515-.212-.679-.457-1.446-.98-2.172-.113-.155-.509-.221-.895-.287-.975-.165-2.615-.443-3.006-2.822a.705.705 0 01.584-.81.704.704 0 01.81.584c.227 1.385.905 1.498 1.847 1.658.636.109 1.357.231 1.805.853.659.909.951 1.832 1.182 2.576.382 1.211.513 1.527 1.361 1.527h.005c1.008 0 1.192-.429 1.606-1.78.212-.689.453-1.466.924-2.257.4-.674 1.168-.81 1.846-.928 1.117-.198 1.706-.358 1.819-1.626a.713.713 0 01.767-.64c.391.038.674.377.641.768-.217 2.402-1.95 2.708-2.982 2.887-.32.057-.805.142-.871.26-.387.65-.59 1.309-.787 1.95-.4 1.3-.857 2.774-2.958 2.774h-.01z" fill="#131741"/><path fill-rule="evenodd" clip-rule="evenodd" d="M89.15 6.906c-2.318.575-19.866 14.863-19.357 20.727.514 5.926 8.248 4.848 8.248 4.848s3.59 14.782 6.082 9.958c2.638-7.528 11.781-37.2 5.026-35.533zM10.943 7.825c2.318.575 18.108 12.855 17.152 19.879-.91 6.684-8.183 5.54-8.183 5.54s-2.798 14.857-5.29 10.034c-1.96-7.528-9.379-36.862-3.679-35.453z" fill="#fff"/><path d="M74.414 32.83a.657.657 0 01-.132-.015.7.7 0 01-.57-.622c-1.036-9.991 8.686-14.155 8.785-14.198a.703.703 0 01.924.382.705.705 0 01-.382.923c-.33.137-7.349 3.166-7.951 10.401 2.364-3.18 5.751-4.965 9.247-4.772a.706.706 0 01-.08 1.409c-3.694-.212-7.142 2.073-9.215 6.1a.683.683 0 01-.626.391zM24.43 32.83a.71.71 0 01-.627-.382c-2.073-4.028-5.517-6.308-9.214-6.1a.715.715 0 01-.745-.665.703.703 0 01.665-.744c3.495-.193 6.877 1.587 9.242 4.762-.64-7.264-7.867-10.358-7.947-10.396a.709.709 0 01-.382-.923.709.709 0 01.924-.382c.099.042 9.821 4.207 8.785 14.198a.705.705 0 01-.57.622.646.646 0 01-.132.01z" fill="#F05B29"/><path d="M83.026 44.116a2.17 2.17 0 01-.18-.01c-2.378-.287-4.441-7.273-5.346-10.862-1.31.084-4.324.066-6.388-1.578-1.196-.952-1.88-2.29-2.025-3.967-.547-6.27 17.222-20.816 19.888-21.476 1.164-.287 1.88.175 2.28.613.603.664 2.44 2.68-.984 17.062-1.837 7.706-4.39 15.653-5.484 18.781l-.037.09c-.56 1.083-1.216 1.347-1.724 1.347zm-4.447-12.422l.15.622c1.315 5.417 3.317 10.269 4.287 10.387.038.023.212-.08.457-.542 3.689-10.557 9.436-31.41 6.741-34.374-.15-.165-.377-.32-.895-.193-1.95.48-19.285 14.631-18.824 19.983.113 1.295.603 2.27 1.494 2.982 2.162 1.724 5.916 1.234 5.954 1.23l.636-.095zM15.664 44.955c-.646 0-1.206-.453-1.668-1.348l-.056-.146c-3.811-14.66-7.726-32.772-4.706-35.83.348-.353.956-.725 1.884-.494 2.854.707 18.692 13.228 17.684 20.661-.283 2.068-1.154 3.66-2.596 4.73-1.992 1.483-4.522 1.55-5.714 1.479-.716 3.618-2.379 10.599-4.612 10.929a1.23 1.23 0 01-.216.019zm-.377-1.927c.245.452.405.513.405.518.857-.184 2.515-5.055 3.528-10.425l.127-.673.679.108c.028.005 3.175.466 5.342-1.154 1.12-.839 1.804-2.11 2.035-3.783.867-6.378-14.43-18.56-16.624-19.102-.316-.08-.443.02-.537.113-1.498 1.508-.952 11.339 5.045 34.398z" fill="#131741"/><path d="M29.271 62.653c-.438 0-.871-.203-1.15-.59-2.232-3.099-6.354-4.182-6.396-4.192a1.41 1.41 0 01-1.018-1.72 1.408 1.408 0 011.72-1.017c.212.052 5.163 1.357 7.99 5.276a1.416 1.416 0 01-1.146 2.243zM74.16 63.562a1.412 1.412 0 01-.481-2.742c3.344-1.206 4.466-4.701 4.475-4.739a1.414 1.414 0 012.7.843c-.062.198-1.57 4.88-6.219 6.558-.155.056-.315.08-.476.08z" fill="#EDA65B"/><path d="M40.978 54.527a.713.713 0 01-.453-.165c-2.854-2.393-7.805-5.191-12.365-5.191a.706.706 0 110-1.414c4.937 0 10.236 2.973 13.275 5.521a.708.708 0 01-.457 1.249zM40.865 57.678a.707.707 0 01-.113-1.404c.97-.155 1.668-.532 2.068-1.111.608-.881.386-2.002.382-2.017a.709.709 0 011.385-.297c.014.071.358 1.706-.59 3.096-.626.918-1.639 1.502-3.014 1.724-.042.009-.08.009-.118.009z" fill="#131741"/><path fill-rule="evenodd" clip-rule="evenodd" d="M73.445 48.935s-2.275 10.302-12.822 5.79c1.06-5.663 3.976-7.674 12.822-5.79z" fill="#fff"/><path d="M65.545 56.58c-1.592 0-3.326-.4-5.2-1.2l-.524-.222.104-.556c.542-2.892 1.555-4.744 3.199-5.837 2.157-1.436 5.384-1.596 10.467-.513l.697.146-.156.697c-.042.189-1.069 4.673-4.86 6.619-1.132.574-2.375.866-3.727.866zm-4.113-2.284c2.827 1.102 5.239 1.159 7.184.16 2.389-1.22 3.51-3.755 3.929-4.98-4.192-.814-6.948-.668-8.64.458-1.215.81-1.992 2.167-2.473 4.362z" fill="#131741"/><path fill-rule="evenodd" clip-rule="evenodd" d="M67.547 48.45s.73 4.781-.509 4.993c-1.239.217-2.167-4.54-2.167-4.54l2.676-.453z" fill="#131741"/></svg>