<svg width="100" height="100" fill="none" xmlns="http://www.w3.org/2000/svg"><path fill-rule="evenodd" clip-rule="evenodd" d="M36.409 24.388c2.793.725 2.37-4.617 3.9-4 2.746 1.107 4.254 4.033 8.07 1.536 2.741-1.795 3.678 2.02 7.555-.447 2.29-1.46 4.622 2.953 8.15 1.182 5.37-2.695 19.738-24.175 29.022-18.55C100.676 8.695 88.32 44.61 86.907 49c-1.088 3.373-.537 11.395-3.227 18.56-2.129 5.667-7.452 10.792-11.824 12.648-10.462 4.438-13.632 8.555-20.75 8.555-6.01 0-11.598-4.866-21.82-8.578-3.618-1.315-8.837-6.628-11.645-12.63-3.91-8.366-4.904-18.075-6.058-20.19C7.805 40.461.48 5.163 7.503 3.52c10.058-2.364 23.15 19.37 28.906 20.869z" fill="#F05B29"/><path d="M51.106 89.461c-3.736 0-7.222-1.748-11.63-3.962-2.96-1.483-6.313-3.165-10.43-4.663C25.013 79.37 19.723 73.66 17 67.839c-2.507-5.365-3.802-11.155-4.749-15.385-.49-2.186-.914-4.075-1.29-4.767-3.355-6.138-9.657-34.454-6.02-42.599.57-1.272 1.375-2.04 2.397-2.28C14.037 1.24 21.754 9.46 27.949 16.06c3.438 3.66 6.684 7.123 8.634 7.632.815.212 1.168-.34 1.752-1.993.32-.904.594-1.682 1.249-1.974.216-.099.56-.179.989-.005.824.33 1.517.797 2.185 1.244 1.659 1.107 2.855 1.908 5.234.353 1.569-1.027 2.728-.555 3.745-.136 1.088.443 2.026.824 3.816-.316 1.404-.895 2.793-.146 4.023.518 1.347.73 2.614 1.418 4.192.627 1.517-.763 3.943-3.274 6.755-6.185C77.27 8.838 86.511-.73 93.473 3.486c5.07 3.072 3.195 18.118-5.567 44.724-.137.419-.25.753-.325.989-.391 1.215-.566 3.175-.773 5.445-.344 3.844-.773 8.63-2.468 13.148-2.309 6.143-7.89 11.216-12.21 13.049-3.854 1.634-6.67 3.203-9.153 4.588-4.188 2.346-7.217 4.032-11.871 4.032zM9.073 4.038c-.481 0-.947.051-1.414.16-.57.132-1.05.631-1.427 1.479-3.326 7.443 2.864 35.665 5.968 41.34.472.863.872 2.658 1.428 5.136.932 4.164 2.209 9.864 4.65 15.093 2.844 6.086 8.05 11.107 11.244 12.266 4.192 1.522 7.584 3.227 10.58 4.725 4.244 2.13 7.598 3.81 11 3.81 4.286 0 7.028-1.53 11.182-3.843 2.516-1.4 5.366-2.991 9.29-4.654 3.943-1.672 9.29-6.534 11.437-12.243 1.63-4.334 2.05-9.017 2.384-12.776.212-2.355.39-4.39.834-5.751.08-.24.188-.58.33-.999 3.867-11.734 12.205-39.424 6.18-43.074-5.997-3.632-14.787 5.464-21.203 12.11-3.02 3.129-5.408 5.597-7.137 6.468-2.233 1.122-4.041.142-5.497-.645-1.206-.65-1.917-.999-2.59-.57-2.403 1.536-3.906.923-5.112.433-.933-.376-1.493-.607-2.44.015-3.156 2.068-5.088.777-6.793-.363-.584-.391-1.192-.796-1.842-1.074-.146.207-.33.74-.461 1.102-.457 1.296-1.22 3.467-3.444 2.888-2.346-.613-5.417-3.887-9.308-8.032-5.474-5.841-12.196-13.001-17.84-13.001z" fill="#131741"/><path fill-rule="evenodd" clip-rule="evenodd" d="M76.213 46.999c-.499-1.62-2.619-2.6-4.3-2.93-1.32-.33-2.704 0-3.858-.16.164-1.126 1.022-4.701-1.522-4.372-1.32 0-2.704 3.872-3.528 4.866-1.32 1.95-2.177 1.456-2.342-.796-.33-2.284.825-5.36-1.022-5.822-1.319-.165-2.341 2.416-2.836 4.037-.164.796-1.022 1.456-.692-4.202 0-1.456-.005-4.687-1.154-5.493-1.922-1.347-4.023 9.233-4.716 11.815-.494-2.577-3.203-13.6-5.21-11.183-.494 1.455-.165 2.086-.33 3.542 0 .796-.164 6.322-.824 5.36-.33-1.62-2.176-4.865-3.203-4.37-1.63.974-.33 3.871-.824 6.156-.33 2.285-1.187 2.746-2.341.66-.698-.994-1.852-4.862-3.204-5.031-2.341-.33-1.681 3.24-1.681 4.366-1.192 0-2.511-.33-3.859-.164-1.686.33-2.986 1.248-3.533 2.91-.744 2.252.024 12.94 11.108 13.139a14.75 14.75 0 004.716-.796c1.022-.33 3.716-.994 4.574-.368l9.525.17c1.3-1.225 6.199.99 8.05.99 8.62.715 14.57-6.233 13.006-12.324zM50.81 73.742s3.236-6.624 7.23-7.156c3.995-.532 8.461-1.752 11.212 1.734 2.751 3.485-5.799 11.894-10.18 11.626-4.38-.269-8.276-1.904-8.262-6.204zM50.794 73.742s-3.236-6.624-7.23-7.156c-3.995-.532-8.461-1.752-11.212 1.734-2.751 3.485 5.799 11.894 10.18 11.626 4.376-.274 8.272-1.842 8.262-6.204z" fill="#EDA65B"/><path fill-rule="evenodd" clip-rule="evenodd" d="M69.789 80.2c-5.196 5.577-12.676 8.55-18.993 8.55-5.644 0-15.16-4.282-18.98-8.574" fill="#F05B29"/><path d="M50.795 89.456c-5.883 0-15.545-4.362-19.507-8.809a.708.708 0 011.055-.942c3.68 4.132 12.988 8.338 18.452 8.338 6.614 0 13.694-3.189 18.475-8.324a.707.707 0 011.037.961c-5.04 5.413-12.516 8.776-19.512 8.776z" fill="#131741"/><path d="M58.808 80.822c-.83 0-1.696-.104-2.596-.326-2.497-.617-4.437-2.04-5.417-3.839-.928 1.673-2.718 2.987-5.06 3.609-3.82 1.012-9.496.08-12.902-5.889a.709.709 0 011.23-.701c3.005 5.27 7.975 6.105 11.31 5.219 2.864-.758 4.72-2.704 4.72-4.951h1.413c0 2.318 2.073 4.447 5.045 5.177 3.434.848 8.107-.155 10.915-5.507a.708.708 0 011.253.66c-1.696 3.236-5.186 6.548-9.911 6.548z" fill="#131741"/><path fill-rule="evenodd" clip-rule="evenodd" d="M43.903 66.741c0-2.19 1.272-14.344 6.873-14.344 5.261 0 6.92 11.697 6.92 14.316l-6.892 2.275-6.901-2.247z" fill="#FF7B4F"/><path fill-rule="evenodd" clip-rule="evenodd" d="M43.903 66.741c.622 2.431 2.209 1.371 2.982 2.436 1.545 2.134 1.738 4.856 4.013 4.852 2.379 0 2.219-2.695 3.486-4.838.64-1.079 3.109-.024 3.312-2.478 0 0-1.659-1.027-6.007-.085a4.024 4.024 0 01-1.592.005c-5.035-.984-6.194.108-6.194.108z" fill="#D43802"/><path d="M50.794 74.655c-1.917 0-2.336-1.337-2.708-2.515-.212-.678-.457-1.446-.98-2.172-.113-.155-.509-.221-.895-.287-.975-.165-2.615-.443-3.006-2.822a.705.705 0 01.584-.81.704.704 0 01.81.584c.227 1.385.905 1.498 1.847 1.658.636.109 1.357.231 1.805.853.659.91.951 1.832 1.182 2.577.382 1.21.513 1.526 1.361 1.526h.005c1.008 0 1.192-.429 1.606-1.78.212-.689.453-1.466.924-2.257.4-.674 1.168-.81 1.846-.928 1.117-.198 1.706-.358 1.819-1.625a.707.707 0 011.409.127c-.218 2.402-1.951 2.709-2.983 2.887-.32.057-.805.142-.871.26-.387.65-.59 1.31-.787 1.95-.4 1.3-.857 2.774-2.958 2.774h-.01zM40.041 54.126a.706.706 0 01-.706-.706c0-2.714-1.937-4.094-3.854-4.254-2.002-.17-4.249.933-4.739 3.792a.701.701 0 01-.815.575.701.701 0 01-.574-.815c.64-3.722 3.697-5.173 6.25-4.96 2.478.211 5.145 2.072 5.145 5.662a.709.709 0 01-.707.706zM61.563 54.126a.706.706 0 01-.707-.706c0-3.59 2.666-5.45 5.144-5.663 2.563-.212 5.61 1.24 6.251 4.96a.706.706 0 01-1.39.241c-.49-2.86-2.732-3.957-4.738-3.792-1.918.165-3.854 1.545-3.854 4.254a.709.709 0 01-.706.706z" fill="#131741"/><path fill-rule="evenodd" clip-rule="evenodd" d="M89.154 6.906c-2.317.575-19.865 14.863-19.356 20.727.513 5.926 8.248 4.848 8.248 4.848s3.59 14.782 6.082 9.958c2.633-7.528 11.781-37.2 5.026-35.533zM10.947 7.825C13.265 8.4 29.055 20.68 28.1 27.705c-.91 6.684-8.183 5.539-8.183 5.539s-2.798 14.857-5.29 10.034C12.662 35.75 5.243 6.417 10.947 7.825z" fill="#fff"/><path d="M74.419 32.83a.663.663 0 01-.132-.015.7.7 0 01-.57-.622c-1.036-9.991 8.687-14.155 8.786-14.198a.703.703 0 01.923.382.705.705 0 01-.382.923c-.33.137-7.348 3.166-7.951 10.401 2.364-3.18 5.751-4.965 9.247-4.772a.706.706 0 01-.08 1.409c-3.694-.212-7.142 2.073-9.214 6.1a.693.693 0 01-.627.391zM24.43 32.83a.71.71 0 01-.627-.382c-2.073-4.028-5.517-6.308-9.214-6.1a.706.706 0 01-.08-1.41c3.49-.192 6.877 1.588 9.242 4.763-.64-7.263-7.867-10.358-7.947-10.396A.707.707 0 0116.346 18c.099.043 9.822 4.207 8.785 14.198a.705.705 0 01-.57.622c-.042.01-.09.01-.132.01z" fill="#F05B29"/><path d="M83.031 44.116a2.17 2.17 0 01-.179-.01c-2.379-.287-4.442-7.273-5.347-10.862-1.31.085-4.324.066-6.387-1.578-1.197-.952-1.88-2.29-2.026-3.967-.546-6.27 17.222-20.816 19.889-21.476 1.163-.287 1.88.175 2.28.613.603.664 2.44 2.68-.985 17.062-1.837 7.707-4.39 15.653-5.483 18.781l-.038.09c-.56 1.083-1.22 1.347-1.724 1.347zm-4.447-12.422l.15.622c1.315 5.417 3.317 10.27 4.288 10.387.042.023.212-.08.456-.542 3.689-10.556 9.436-31.41 6.742-34.374-.151-.165-.377-.32-.895-.193-1.95.48-19.286 14.632-18.824 19.983.113 1.295.603 2.27 1.493 2.982 2.162 1.724 5.916 1.234 5.954 1.23l.636-.095zM15.664 44.955c-.646 0-1.206-.453-1.668-1.348l-.056-.146c-3.811-14.66-7.726-32.772-4.706-35.83.348-.353.956-.725 1.884-.494 2.854.707 18.692 13.228 17.684 20.661-.283 2.068-1.154 3.66-2.596 4.73-1.992 1.484-4.522 1.55-5.714 1.479-.716 3.618-2.379 10.599-4.612 10.929a1.158 1.158 0 01-.216.019zm-.377-1.927c.245.452.405.513.405.518.857-.184 2.515-5.054 3.528-10.425l.127-.673.679.108c.028.005 3.175.466 5.342-1.154 1.12-.839 1.804-2.11 2.035-3.783.866-6.378-14.43-18.56-16.624-19.102-.316-.08-.443.02-.537.113-1.494 1.508-.947 11.34 5.045 34.398z" fill="#131741"/><path d="M25.546 63.562c-.16 0-.32-.029-.48-.085-4.65-1.677-6.157-6.36-6.218-6.557a1.418 1.418 0 01.928-1.772c.74-.23 1.535.184 1.766.924.019.06 1.187 3.556 4.48 4.743a1.408 1.408 0 01.848 1.81c-.203.579-.75.937-1.324.937zM76.045 63.562a1.412 1.412 0 01-.48-2.742c3.344-1.206 4.465-4.701 4.474-4.739a1.414 1.414 0 012.7.843c-.062.198-1.57 4.88-6.219 6.558-.15.056-.315.08-.475.08z" fill="#EDA65B"/></svg>