<svg width="100" height="100" fill="none" xmlns="http://www.w3.org/2000/svg"><path fill-rule="evenodd" clip-rule="evenodd" d="M36.41 24.388c2.793.725 4.588-5.733 4.786-7.26.132-1.036.9 4.264 1.715 4.791 1.498.966 3.57-4.315 3.65-6.552.076-2.134.862 7.268 3.133 7.268 3.316 0 2.944-7.217 3.448-7.697.664-.636 1.178 7.697 2.035 7.697 3.995 0 3.934-5.968 4.89-4.546 1.173 1.743.593 6.285 4.023 4.56C69.46 19.955 83.828-1.526 93.112 4.1c7.57 4.588-4.786 40.502-6.199 44.892-1.945 6.04-4.692 27.007-14.589 31.209-10.462 4.437-14.094 8.554-21.212 8.554-6.01 0-11.598-4.866-21.82-8.578-8.654-3.142-15.715-29.187-17.703-32.82C7.811 40.452.486 5.155 7.51 3.51c1.244-.292 2.54-.212 3.859.15 1.055.293 2.13.764 3.213 1.38 8.46 4.806 17.358 18.184 21.829 19.348z" fill="#F05B29"/><path d="M51.112 89.461c-3.736 0-7.222-1.748-11.636-3.962-2.958-1.484-6.312-3.165-10.43-4.663-6.957-2.53-12.6-18.268-15.968-27.675-.938-2.615-1.677-4.678-2.11-5.47-3.355-6.138-9.658-34.454-6.02-42.598.57-1.272 1.375-2.04 2.397-2.28 1.305-.306 2.718-.255 4.207.155 1.064.292 2.2.782 3.372 1.446 4.49 2.554 9.026 7.387 13.03 11.65 3.439 3.66 6.684 7.122 8.635 7.631.315.08.612.02.937-.202 1.545-1.041 2.78-5.003 2.968-6.463.09-.683.608-.745.711-.75.66-.042.778.425 1.15 1.946.198.81.645 2.671.951 3.086.627-.09 2.464-3.547 2.549-5.983.01-.259.033-.942.697-.994.673-.056.768.415 1.017 1.672 1.046 5.333 1.837 5.908 2.13 5.908 1.799 0 2.218-3.58 2.44-5.502.141-1.197.197-1.692.513-1.998a.786.786 0 01.815-.188c.631.212.787.852 1.29 4.023.184 1.154.477 3 .726 3.655 1.625-.16 2.346-1.616 2.996-3.227.34-.843.59-1.45 1.225-1.521.26-.029.627.042.956.527.429.636.64 1.508.848 2.346.231.938.49 2.002.985 2.229.334.155.885-.052 1.29-.255 1.517-.758 3.948-3.279 6.76-6.19C77.29 8.828 86.527-.739 93.49 3.482c5.069 3.071 3.194 18.117-5.568 44.723-.137.42-.25.754-.325.994-.372 1.159-.787 2.93-1.272 4.984-2.03 8.653-5.427 23.139-13.713 26.657-3.726 1.583-6.552 3.11-9.049 4.452-4.48 2.426-7.711 4.169-12.45 4.169zM9.074 4.038c-.486 0-.957.051-1.404.16-.57.132-1.05.631-1.427 1.479-3.326 7.443 2.864 35.664 5.968 41.34.485.891 1.206 2.898 2.2 5.672 3.071 8.57 8.79 24.52 15.126 26.823 4.192 1.522 7.584 3.227 10.58 4.725 4.244 2.13 7.598 3.81 11 3.81 4.38 0 7.32-1.587 11.771-3.984 2.52-1.362 5.38-2.902 9.167-4.513 7.627-3.236 10.92-17.284 12.889-25.678.49-2.082.909-3.882 1.3-5.092.08-.24.188-.58.33-1 3.862-11.733 12.205-39.423 6.18-43.074-5.992-3.631-14.782 5.465-21.198 12.107-3.024 3.128-5.412 5.6-7.141 6.472-1.004.504-1.823.594-2.516.274-1.111-.514-1.441-1.866-1.762-3.175a12.538 12.538 0 00-.33-1.197c-.004.01-.009.024-.014.033-.584 1.442-1.667 4.122-4.611 4.122-.994 0-1.244-1.248-1.819-4.861-.014-.08-.023-.16-.037-.246-.372 2.323-1.197 5.102-3.627 5.102-1.578 0-2.436-2.237-3.072-4.965-.598 1.78-1.545 3.623-2.605 4.178-.509.264-1.036.25-1.488-.037-.505-.325-.825-1.126-1.258-2.78-.57 1.786-1.54 3.986-2.949 4.937-.66.448-1.38.584-2.087.4-2.346-.612-5.417-3.886-9.308-8.031-3.934-4.193-8.395-8.946-12.7-11.39-1.07-.608-2.096-1.05-3.053-1.315a8.044 8.044 0 00-2.105-.296z" fill="#131741"/><path fill-rule="evenodd" clip-rule="evenodd" d="M76.22 46.999c-2.242-6.28-6.195-3.764-8.145-5.187-1.036-.758-1.036-2.176-1.036-2.176s-2.577.18-4.447 1.277c-1.15.834-1.842-.212-1.842-1.823-.33-2.285-1.017-4.183-1.017-4.183s-1.512 3.217-2.718 2.958c-2.412-.518-1.852-9.695-1.852-9.695s-4.07 7.551-4.762 10.133c-.495-2.577-5.168-9.501-5.168-9.501s1.074 8.658-1.154 8.903c-1.347.146-3.321-3.293-3.321-3.293s-.207 2.558-.702 4.843c-.33 2.284-6.449-.208-6.449-.208s.476 2.304-1.088 2.52c-1.192 0-5.389 0-7.297 4.631-1.733 4.211-.353 14.208 9.907 15.107 4.367.382 7.664-3.481 10.495-3.132l9.525.17c1.3-1.226 7.207 2.745 9.054 2.745 8.64.702 13.58-7.998 12.017-14.09zM50.816 75.027s2.581-7.711 5.77-8.328c3.19-.617 6.75-2.04 8.95 2.016 2.2 4.056-4.625 13.85-8.125 13.534-3.496-.316-6.61-2.214-6.595-7.222zM50.801 75.027s-2.58-7.711-5.77-8.328c-3.19-.617-6.75-2.04-8.95 2.016-2.196 4.056 4.626 13.85 8.126 13.534 3.495-.316 6.6-2.143 6.594-7.222z" fill="#EDA65B"/><path fill-rule="evenodd" clip-rule="evenodd" d="M66.477 82.084c-4.64 5.026-9.737 8.55-15.578 8.55-5.22 0-12.092-3.41-15.762-8.578" fill="#F05B29"/><path d="M50.899 91.345c-5.719 0-12.742-3.815-16.337-8.875a.708.708 0 01.165-.984.708.708 0 01.985.165c3.354 4.72 9.878 8.281 15.182 8.281 4.96 0 9.883-2.723 15.06-8.324a.703.703 0 01.999-.037.703.703 0 01.038.998c-5.45 5.903-10.717 8.776-16.092 8.776z" fill="#131741"/><path fill-rule="evenodd" clip-rule="evenodd" d="M43.909 81.867c.886-3.698 6.897-4.027 6.897-7.918 0 3.895 6.142 4.73 6.896 7.947.438 1.87-4.965 2.011-6.892 2.011-1.927-.01-7.349-.165-6.901-2.04z" fill="#6E2500"/><path d="M50.861 84.138h-.047c-2.176 0-5.977-.184-6.93-1.394a1.061 1.061 0 01-.206-.933c.442-1.842 2.058-2.869 3.622-3.863 1.682-1.07 3.27-2.077 3.27-4h.47c0 1.998 1.781 3.18 3.5 4.325 1.489.99 3.025 2.012 3.392 3.566.08.34.01.655-.207.928-.942 1.192-4.683 1.371-6.864 1.371zm-.056-8.894c-.542 1.38-1.913 2.252-3.25 3.1-1.484.942-3.02 1.917-3.416 3.575a.592.592 0 00.118.533c.594.753 3.048 1.21 6.557 1.21h.047c3.477 0 5.903-.443 6.492-1.192a.58.58 0 00.117-.527c-.32-1.376-1.714-2.299-3.193-3.283-1.437-.957-2.916-1.936-3.472-3.416z" fill="#131741"/><path fill-rule="evenodd" clip-rule="evenodd" d="M43.91 81.721c.127-.57.362-1.07.668-1.512 1.05.862 3.632 1.762 6.176 1.729 2.544-.033 5.05-.999 5.954-1.988.485.528.848 1.112.999 1.8.438 2.006-4.965 3.1-6.892 3.094-1.931-.004-7.353-1.111-6.906-3.123z" fill="#fff"/><path d="M50.82 85.551h-.005c-1.526 0-5.921-.707-7.231-2.365-.452-.574-.448-1.126-.363-1.484.486-2.03 2.261-3.156 3.825-4.15 1.64-1.04 3.053-1.94 3.053-3.603h1.413c0 1.743 1.597 2.807 3.293 3.933 1.564 1.041 3.18 2.115 3.59 3.853.084.358.089.905-.368 1.48-1.305 1.644-5.681 2.336-7.207 2.336zm-.024-9.303c-.73 1.055-1.903 1.804-2.986 2.491-1.47.933-2.86 1.819-3.213 3.288-.01.038-.029.118.099.278.829 1.05 4.517 1.828 6.119 1.828h.005c1.601 0 5.27-.758 6.1-1.804.127-.16.108-.24.099-.278-.278-1.192-1.597-2.068-2.996-3-1.183-.778-2.46-1.63-3.227-2.803z" fill="#131741"/><path fill-rule="evenodd" clip-rule="evenodd" d="M43.908 66.741c0-2.19 1.272-14.344 6.873-14.344 5.262 0 6.92 11.697 6.92 14.316l-6.891 2.275-6.902-2.247z" fill="#FF7B4F"/><path fill-rule="evenodd" clip-rule="evenodd" d="M43.908 66.741c.622 2.431 2.21 1.371 2.982 2.436 1.545 2.134 1.739 4.856 4.01 4.852 2.378 0 2.218-2.695 3.485-4.838.64-1.079 3.11-.024 3.312-2.478 0 0-1.659-1.027-6.007-.085a4.026 4.026 0 01-1.592.005c-5.03-.984-6.19.108-6.19.108z" fill="#D43802"/><path d="M50.8 74.655c-1.912 0-2.336-1.338-2.708-2.515-.212-.678-.457-1.446-.98-2.172-.113-.155-.51-.221-.895-.287-.975-.165-2.615-.443-3.006-2.822a.705.705 0 01.584-.81.704.704 0 01.81.584c.227 1.385.905 1.498 1.847 1.658.636.109 1.357.231 1.804.853.66.909.952 1.832 1.188 2.577.381 1.21.513 1.526 1.356 1.526h.005c1.008 0 1.192-.429 1.606-1.78.212-.689.452-1.466.923-2.257.4-.674 1.169-.81 1.847-.928 1.117-.198 1.705-.358 1.823-1.625a.708.708 0 011.408.127c-.216 2.402-1.95 2.708-2.981 2.887-.32.057-.806.142-.876.26-.382.65-.59 1.31-.787 1.95-.4 1.3-.858 2.774-2.958 2.774h-.01z" fill="#131741"/><path fill-rule="evenodd" clip-rule="evenodd" d="M28.166 47.3c-3.143 10.736 10.876 13.398 11.946 8.588 2.657-11.923-10.364-14.005-11.947-8.588z" fill="#fff"/><path d="M36.17 58.884c-2.2 0-4.876-.843-6.802-2.775-2.252-2.256-2.916-5.455-1.875-9.011.768-2.629 3.9-3.953 7.287-3.081 5.686 1.46 7.123 7.09 6.025 12.017-.278 1.244-1.243 2.167-2.718 2.596-.565.17-1.215.254-1.917.254zm-3.434-13.708c-1.753 0-3.415.706-3.891 2.322-1.14 3.896.198 6.289 1.521 7.613 2.158 2.162 5.385 2.727 7.325 2.167.679-.198 1.527-.627 1.734-1.545 1.408-6.322-1.814-9.52-4.998-10.34a6.853 6.853 0 00-1.691-.217z" fill="#131741"/><path fill-rule="evenodd" clip-rule="evenodd" d="M72.96 47.3c3.142 10.736-10.877 13.398-11.946 8.588C58.36 43.965 71.376 41.883 72.96 47.3z" fill="#fff"/><path d="M64.957 58.884a6.9 6.9 0 01-1.917-.25c-1.475-.428-2.44-1.352-2.718-2.595-1.098-4.928.339-10.557 6.025-12.017 3.387-.872 6.52.452 7.287 3.08 1.041 3.557.372 6.756-1.875 9.012-1.922 1.927-4.602 2.77-6.802 2.77zm3.439-13.708c-.565 0-1.145.075-1.691.217-3.185.82-6.407 4.018-4.998 10.34.207.923 1.055 1.347 1.733 1.545 1.941.565 5.168-.005 7.325-2.167 1.324-1.324 2.662-3.722 1.522-7.617-.476-1.611-2.144-2.318-3.891-2.318z" fill="#131741"/><path fill-rule="evenodd" clip-rule="evenodd" d="M89.16 6.906c-2.318.575-19.865 14.863-19.356 20.727.513 5.926 8.248 4.848 8.248 4.848s3.59 14.782 6.082 9.958c2.633-7.528 11.781-37.2 5.026-35.533zM10.95 7.825C13.266 8.4 29.056 20.68 28.1 27.704c-.908 6.684-8.182 5.54-8.182 5.54S17.12 48.1 14.628 43.278C12.668 35.75 5.25 6.416 10.95 7.825z" fill="#fff"/><path d="M74.424 32.83a.706.706 0 01-.697-.594l-1.003-6.11a.709.709 0 01.537-.806l3.608-.834.424-4.88a.705.705 0 01.669-.645l5.116-.26a.709.709 0 01.74.67.702.702 0 01-.67.74l-4.503.23-.415 4.777a.701.701 0 01-.546.626l-3.462.801.669 4.075 2.416-2.488a.71.71 0 01.678-.193l3.142.782 1.075-2.84a.708.708 0 01.909-.41.704.704 0 01.41.91l-1.296 3.428a.707.707 0 01-.829.434l-3.359-.834-3.109 3.203a.67.67 0 01-.504.217zM24.454 32.82a.735.735 0 01-.174-.024l-6.36-1.634a.708.708 0 01-.523-.806l.745-4.3-3.745.009a.714.714 0 01-.514-.222.716.716 0 01-.193-.523l.26-5.064a.707.707 0 111.413.076l-.222 4.32 3.84-.01a.71.71 0 01.541.25c.137.16.193.372.155.574l-.777 4.485 4.17 1.07-1.65-3.072a.704.704 0 01-.014-.636l1.72-3.632-3.449-1.823a.707.707 0 11.665-1.248l4.046 2.138a.704.704 0 01.306.928l-1.856 3.92 2.243 4.178a.702.702 0 01-.066.768.696.696 0 01-.56.278z" fill="#F05B29"/><path d="M83.037 44.116c-.061 0-.123-.005-.18-.01-2.383-.287-4.441-7.273-5.346-10.862-1.31.084-4.324.066-6.387-1.578-1.197-.952-1.88-2.29-2.026-3.967-.546-6.27 17.222-20.816 19.889-21.476 1.163-.287 1.879.174 2.28.613.602.664 2.44 2.68-.985 17.062-1.837 7.706-4.39 15.653-5.483 18.781l-.038.09c-.56 1.083-1.22 1.347-1.724 1.347zm-4.452-12.422l.151.622c1.314 5.417 3.316 10.269 4.287 10.387.014.023.212-.08.457-.542 3.688-10.557 9.435-31.41 6.74-34.374-.15-.165-.376-.32-.894-.193-1.95.48-19.286 14.631-18.824 19.983.113 1.295.603 2.27 1.493 2.981 2.162 1.725 5.917 1.235 5.954 1.23l.636-.094zM15.668 44.955c-.645 0-1.205-.453-1.667-1.348l-.057-.146C10.13 28.801 6.22 10.69 9.238 7.631c.349-.353.957-.725 1.885-.494 2.854.707 18.692 13.228 17.684 20.661-.283 2.068-1.155 3.66-2.596 4.73-1.993 1.484-4.522 1.55-5.714 1.479-.716 3.618-2.379 10.599-4.612 10.929a1.159 1.159 0 01-.216.019zm-.376-1.927c.245.452.405.513.405.518.857-.184 2.515-5.054 3.528-10.425l.127-.673.679.108c.028.005 3.17.466 5.341-1.154 1.122-.839 1.805-2.11 2.03-3.783.867-6.378-14.428-18.56-16.623-19.102-.316-.08-.443.02-.537.113-1.489 1.508-.947 11.34 5.05 34.398z" fill="#131741"/><path d="M26.489 65.446c-.16 0-.32-.028-.48-.085-4.65-1.677-6.157-6.36-6.219-6.557a1.418 1.418 0 01.928-1.771 1.414 1.414 0 011.767.923c.023.066 1.192 3.556 4.48 4.743a1.408 1.408 0 01.848 1.81 1.4 1.4 0 01-1.324.937zM75.107 65.446a1.412 1.412 0 01-.48-2.742c3.306-1.191 4.47-4.706 4.48-4.743a1.417 1.417 0 011.77-.919 1.414 1.414 0 01.924 1.767c-.061.198-1.569 4.88-6.218 6.557-.156.056-.316.08-.476.08z" fill="#EDA65B"/><path d="M65.964 62.059c-1.752 0-3.057-.457-3.16-.495a.706.706 0 11.48-1.328c.056.019 4.211 1.446 7.287-1.225a.708.708 0 01.928 1.07c-1.813 1.563-3.872 1.978-5.535 1.978zM34.686 62.059c-1.663 0-3.722-.41-5.53-1.983a.708.708 0 01.928-1.07c3.08 2.676 7.244 1.24 7.287 1.225a.708.708 0 01.48 1.333c-.108.038-1.413.495-3.165.495zM34.493 54.668a3.34 3.34 0 100-6.68 3.34 3.34 0 000 6.68zM67.109 54.668a3.34 3.34 0 100-6.68 3.34 3.34 0 000 6.68z" fill="#131741"/></svg>