<svg width="210" height="210" fill="none" xmlns="http://www.w3.org/2000/svg"><path fill-rule="evenodd" clip-rule="evenodd" d="M76.456 51.214c5.866 1.524 4.976-9.694 8.19-8.398 5.768 2.324 8.934 8.467 16.946 3.224 5.758-3.768 7.727 4.244 15.868-.94 4.808-3.066 9.704 6.203 17.114 2.484 11.277-5.659 41.449-50.768 60.947-38.957 15.897 9.636-10.051 85.055-13.018 94.275-2.286 7.083-3.107 23.93-8.755 38.976-4.472 11.901-13.672 22.664-22.852 26.561-21.971 9.319-28.628 17.965-43.576 17.965-12.622 0-23.366-10.219-44.832-18.014-7.598-2.76-17.57-13.919-23.465-26.522-8.21-17.569-12.277-37.957-14.7-42.398-7.934-14.503-23.317-88.627-8.567-92.08 21.12-4.965 48.611 40.678 60.7 43.824z" fill="#F05B29"/><path d="M107.322 187.868c-7.736 0-14.64-3.581-23.385-8.102-6.144-3.185-13.118-6.786-21.952-10.001-8.062-2.928-18.28-14.403-24.305-27.293-5.164-11.04-8.646-23.03-11.199-31.784-1.464-5.026-2.621-8.993-3.462-10.526-7.043-12.89-20.28-72.353-12.642-89.457 1.197-2.671 2.888-4.284 5.035-4.788 14.067-3.294 30.27 13.968 43.28 27.827 7.22 7.687 14.036 14.958 18.132 16.026 1.711.455 2.453-.702 3.68-4.184.673-1.9 1.246-3.532 2.621-4.155.455-.208 1.178-.366 2.078-.01 1.731.702 3.185 1.672 4.59 2.611 3.482 2.325 5.995 4.007 10.99.742 3.295-2.156 5.718-1.167 7.865-.287 2.285.93 4.254 1.732 8.013-.662 2.948-1.88 5.866-.307 8.448 1.088 2.829 1.533 5.5 2.977 8.804 1.316 3.185-1.603 8.28-6.876 14.186-12.99 14.166-14.67 33.585-34.761 48.196-25.907 10.644 6.45 6.707 38.046-11.693 93.918-.287.881-.524 1.583-.683 2.087-.821 2.533-1.464 6.539-2.216 11.179-1.325 8.151-2.967 18.291-6.558 27.867-4.64 12.355-14.146 23.366-23.663 27.402-8.092 3.433-14.008 6.727-19.221 9.635-8.804 4.907-15.165 8.448-24.939 8.448zM19.052 8.479c-1.009 0-1.988.109-2.958.336-1.197.277-2.206 1.326-2.997 3.107-6.984 15.63 6.015 74.895 12.534 86.816.989 1.82 2.127 5.717 3.7 11.128 2.522 8.656 5.974 20.517 11.04 31.359 5.628 12.04 15.352 23.119 22.623 25.76 9.022 3.275 16.076 6.935 22.298 10.16 8.389 4.343 15.017 7.775 22.02 7.775 9.003 0 14.76-3.215 23.485-8.072 5.283-2.948 11.268-6.282 19.508-9.774 8.814-3.739 17.668-14.067 22.04-25.71 3.492-9.299 5.115-19.28 6.411-27.293.771-4.759 1.434-8.864 2.324-11.614.168-.504.396-1.217.693-2.097 8.112-24.642 25.631-82.79 12.979-90.456-12.594-7.637-31.043 11.475-44.526 25.423-6.341 6.569-11.357 11.762-14.987 13.582-4.679 2.355-8.488.297-11.545-1.355-2.522-1.365-4.026-2.097-5.441-1.197-5.045 3.225-8.2 1.939-10.733.91-1.949-.791-3.136-1.276-5.124.03-6.628 4.343-10.684 1.632-14.265-.762-1.227-.82-2.493-1.672-3.868-2.255-.307.435-.692 1.553-.97 2.314-.959 2.72-2.571 7.281-7.23 6.065-4.927-1.286-11.377-8.162-19.548-16.867C45.02 23.515 30.904 8.479 19.052 8.479z" fill="#131741"/><path fill-rule="evenodd" clip-rule="evenodd" d="M160.048 98.698c-1.049-3.403-5.5-5.46-9.032-6.153-2.77-.692-5.678 0-8.102-.336.346-2.365 2.147-9.873-3.195-9.18-2.77 0-5.678 8.131-7.41 10.218-2.769 4.096-4.57 3.057-4.916-1.671-.693-4.798 1.731-11.258-2.147-12.227-2.77-.347-4.916 5.074-5.955 8.477-.346 1.672-2.147 3.057-1.454-8.824 0-3.056-.01-9.843-2.424-11.534-4.036-2.83-8.448 19.389-9.902 24.81-1.039-5.411-6.727-28.56-10.941-23.485-1.039 3.057-.346 4.383-.693 7.44 0 1.671-.346 13.275-1.73 11.257-.693-3.403-4.571-10.219-6.728-9.18-3.422 2.047-.692 8.131-1.73 12.93-.693 4.797-2.494 5.766-4.917 1.384-1.465-2.087-3.888-10.209-6.727-10.565-4.917-.692-3.532 6.806-3.532 9.17-2.503 0-5.273-.692-8.102-.346-3.541.693-6.272 2.621-7.42 6.114-1.562 4.728.05 27.174 23.327 27.589 3.878 0 7.38-.801 9.903-1.671 2.146-.693 7.805-2.088 9.605-.772l20.003.356c2.73-2.572 13.018 2.078 16.906 2.078 18.103 1.503 30.597-13.078 27.313-25.879zM106.699 151.158s6.796-10.763 15.185-11.624c8.399-.861 17.767-2.849 23.544 2.819 5.777 5.669-12.178 19.33-21.378 18.895-5.173-.247-14.67 1.187-17.212-1.375-1.069-1.108-.149-5.659-.139-8.715z" fill="#EDA65B"/><path fill-rule="evenodd" clip-rule="evenodd" d="M106.67 151.158s-6.796-10.763-15.185-11.624c-8.389-.861-17.767-2.849-23.544 2.819-5.777 5.659 12.178 19.33 21.377 18.895 5.669-.267 15.363 1.622 16.798-1.682.722-1.662.564-5.688.554-8.408z" fill="#EDA65B"/><path fill-rule="evenodd" clip-rule="evenodd" d="M142.34 169.339c-9.763 13.058-23.811 20.003-35.672 20.003-10.604 0-28.47-10.021-35.642-20.062" fill="#F05B29"/><path d="M106.667 190.826c-11.138 0-29.39-10.249-36.849-20.685a1.478 1.478 0 01.347-2.068 1.478 1.478 0 012.067.347c6.885 9.625 24.266 19.438 34.435 19.438 12.326 0 25.533-7.439 34.486-19.409a1.484 1.484 0 012.374 1.781c-9.497 12.702-23.623 20.596-36.86 20.596z" fill="#131741"/><path fill-rule="evenodd" clip-rule="evenodd" d="M80.136 158.428c9.17 2.533 18.29 6.975 26.422 2.82.109-1.781.129-8.28.129-10.902 0 2.553-.129 8.923-.129 10.902 8.152 4.155 17.5-.287 26.551-2.988 0 0-6.479 18.034-26.551 18.034-19.814 0-26.422-17.866-26.422-17.866z" fill="#fff"/><path fill-rule="evenodd" clip-rule="evenodd" d="M77.17 157.439s7.38 6.163 14.037 8.696c1.455.554 2.76 2.948 2.76 2.948s2.84-1.168 3.829-.95c2.75.623 5.698 1.019 8.754 1.019 2.741 0 5.382-.317 7.875-.821 1.345-.277 4.303.732 4.303.732s2.275-2.582 3.502-3.057c6.578-2.572 13.839-8.745 13.839-8.745s-9.447 21.002-29.519 21.002c-19.804.01-29.38-20.824-29.38-20.824z" fill="#A03922"/><path d="M106.563 179.757c-8.528 0-16.55-3.769-23.208-10.882-4.976-5.322-7.42-10.585-7.528-10.812a1.5 1.5 0 01.445-1.801 1.488 1.488 0 011.85.04c.07.059 7.28 6.034 13.622 8.458 1.197.455 2.206 1.612 2.839 2.512 1.187-.415 2.621-.781 3.551-.573 2.879.653 5.708.979 8.419.979 2.453 0 5.005-.267 7.577-.791 1.197-.248 2.988.158 4.145.484.891-.939 2.315-2.314 3.413-2.74 6.272-2.453 13.345-8.428 13.414-8.488a1.489 1.489 0 011.85-.059 1.49 1.49 0 01.465 1.791c-.386.9-10.06 21.882-30.854 21.882zm-24.088-16.6c4.382 5.847 12.405 13.632 24.088 13.632 7.864 0 14.977-3.354 21.14-9.962a41.993 41.993 0 003.145-3.808c-2.423 1.612-5.282 3.294-8.062 4.372-.524.208-1.958 1.563-2.928 2.661a1.502 1.502 0 01-1.593.426c-1.246-.426-2.957-.792-3.531-.683-2.77.564-5.52.851-8.171.851-2.938 0-5.985-.356-9.082-1.059-.346-.049-1.77.386-2.938.871a1.49 1.49 0 01-1.87-.663c-.444-.801-1.374-2.038-1.988-2.275-2.819-1.069-5.737-2.75-8.21-4.363z" fill="#131741"/><path d="M106.557 179.756c-8.527 0-16.55-3.769-23.207-10.881-4.976-5.322-7.42-10.585-7.529-10.813a1.49 1.49 0 01.218-1.582 1.46 1.46 0 011.523-.465c6.124 1.691 20.072 5.539 27.521 4.075.01-.811.03-1.78.05-2.799.029-1.751.069-3.621.069-4.966 0-.821.663-1.484 1.484-1.484s1.484.663 1.484 1.484c0 2.552-.01 5.737-.08 7.775 6.025 1.128 18.371-1.513 27.561-4.254a1.49 1.49 0 011.543.446c.386.435.475 1.058.238 1.582-.406.901-10.081 21.882-30.875 21.882zm-26.383-19.962c3.433 5.559 12.227 17.005 26.383 17.005 7.865 0 14.977-3.354 21.14-9.962a44.342 44.342 0 005.392-7.162c-7.044 1.919-19.933 4.906-26.532 3.126-6.311 1.642-16.55-.426-26.383-3.007z" fill="#131741"/><path fill-rule="evenodd" clip-rule="evenodd" d="M92.204 140.157c0-4.6 2.67-30.122 14.432-30.122 11.05 0 14.533 24.563 14.533 30.063l-14.473 4.778-14.492-4.719z" fill="#FF7B4F"/><path fill-rule="evenodd" clip-rule="evenodd" d="M92.204 140.157c1.305 5.105 4.639 2.879 6.261 5.115 3.245 4.481 3.651 10.199 8.419 10.189 4.995 0 4.659-5.659 7.32-10.16 1.346-2.265 6.529-.049 6.955-5.203 0 0-3.482-2.157-12.613-.178-1.098.237-2.236.217-3.344.01-10.575-2.068-12.998.227-12.998.227z" fill="#D43802"/><path d="M106.67 156.776c-4.017 0-4.907-2.809-5.689-5.282-.445-1.425-.959-3.037-2.057-4.561-.238-.326-1.069-.465-1.89-.603-2.047-.346-5.48-.93-6.301-5.926a1.48 1.48 0 011.227-1.701 1.485 1.485 0 011.701 1.227c.475 2.908 1.9 3.145 3.878 3.482 1.335.227 2.849.484 3.789 1.79 1.385 1.91 1.998 3.848 2.493 5.411.801 2.543 1.078 3.206 2.849 3.206 2.156-.02 2.512-.891 3.383-3.74.445-1.444.95-3.066 1.939-4.738.841-1.415 2.453-1.702 3.878-1.949 2.344-.416 3.581-.752 3.828-3.413a1.496 1.496 0 011.612-1.345 1.486 1.486 0 011.346 1.612c-.455 5.045-4.096 5.688-6.262 6.064-.673.119-1.692.297-1.84.544-.801 1.365-1.237 2.75-1.652 4.096-.841 2.73-1.801 5.826-6.213 5.826h-.019zM84.083 113.665a1.486 1.486 0 01-1.355-.88c-1.939-4.343-6.232-5.936-9.606-5.985h-.158c-3.858 0-7.113 1.83-8.527 4.798a1.49 1.49 0 01-1.979.702 1.489 1.489 0 01-.702-1.978c1.92-4.017 6.203-6.49 11.208-6.49h.208c5.47.069 10.18 3.037 12.276 7.746a1.479 1.479 0 01-1.365 2.087zM129.285 113.665c-.188 0-.376-.039-.564-.109a1.488 1.488 0 01-.811-1.939c2.018-4.896 6.677-7.993 12.168-8.092 5.203-.099 9.595 2.523 11.544 6.816.336.742.01 1.623-.742 1.969a1.49 1.49 0 01-1.968-.742c-1.455-3.205-4.838-5.134-8.785-5.075-3.363.059-7.617 1.731-9.477 6.252-.227.574-.781.92-1.365.92z" fill="#131741"/><path fill-rule="evenodd" clip-rule="evenodd" d="M187.224 14.504c-4.867 1.207-41.716 31.21-40.648 43.527 1.078 12.444 17.322 10.179 17.322 10.179s7.538 31.042 12.771 20.912c5.53-15.808 24.741-78.12 10.555-74.618zM22.99 16.442C27.859 17.65 61.018 43.44 59.01 58.189c-1.91 14.038-17.183 11.634-17.183 11.634s-5.877 31.201-11.11 21.07c-4.115-15.807-19.695-77.407-7.725-74.45z" fill="#fff"/><path d="M156.278 68.951c-.089 0-.178-.01-.277-.03a1.471 1.471 0 01-1.197-1.305c-2.176-20.982 18.242-29.727 18.45-29.816a1.476 1.476 0 011.938.802 1.479 1.479 0 01-.801 1.938c-.692.287-15.432 6.648-16.698 21.843 4.966-6.678 12.068-10.417 19.419-10.021.821.05 1.444.742 1.395 1.563a1.483 1.483 0 01-1.564 1.395c-7.765-.436-14.997 4.352-19.349 12.81a1.473 1.473 0 01-1.316.821zM51.303 68.952a1.491 1.491 0 01-1.316-.802c-4.353-8.458-11.584-13.246-19.35-12.81-.83.03-1.523-.584-1.563-1.395a1.476 1.476 0 011.395-1.563c7.36-.416 14.443 3.334 19.409 10.001-1.345-15.254-16.52-21.753-16.689-21.823a1.488 1.488 0 01-.8-1.939 1.488 1.488 0 011.938-.8c.208.088 20.626 8.833 18.45 29.815a1.481 1.481 0 01-1.197 1.306c-.09 0-.179.01-.277.01z" fill="#F05B29"/><path d="M174.361 92.644c-.128 0-.257-.01-.376-.02-5.005-.603-9.328-15.274-11.228-22.812-2.75.178-9.081.139-13.414-3.314-2.512-1.998-3.947-4.808-4.254-8.33-1.147-13.166 36.167-43.714 41.766-45.099 2.444-.603 3.947.366 4.788 1.286 1.267 1.395 5.125 5.629-2.067 35.83-3.858 16.185-9.22 32.873-11.515 39.442-.02.069-.049.128-.079.188-1.177 2.275-2.562 2.829-3.621 2.829zm-10.466-25.918c.673 0 1.276.465 1.444 1.137 2.76 11.377 6.965 21.566 9.002 21.813.03.04.446-.168.96-1.138 7.746-22.168 19.814-65.962 14.156-72.184-.317-.347-.791-.673-1.88-.406-4.095 1.009-40.499 30.726-39.53 41.964.238 2.72 1.266 4.768 3.146 6.262 4.56 3.63 12.415 2.581 12.494 2.572.07-.01.139-.02.208-.02zM32.893 94.405c-1.355 0-2.532-.95-3.502-2.83a1.64 1.64 0 01-.119-.306C21.26 60.484 13.05 22.447 19.39 16.027c1.048-1.059 2.414-1.415 3.957-1.039 5.995 1.484 39.253 27.788 37.136 43.389-.594 4.342-2.424 7.686-5.45 9.931-4.185 3.117-9.497 3.255-12 3.107-1.504 7.597-4.996 22.258-9.685 22.94-.158.04-.306.05-.455.05zm-.791-4.046c.514.95.85 1.078.85 1.088 1.8-.386 5.283-10.615 7.41-21.892.148-.791.9-1.316 1.691-1.187.06.01 6.658.98 11.218-2.424 2.355-1.76 3.79-4.432 4.264-7.943 1.82-13.395-30.3-38.977-34.91-40.114-.663-.159-.93.04-1.128.237-3.126 3.166-1.979 23.811 10.605 72.235z" fill="#131741"/><path d="M53.65 133.49c-.337 0-.673-.06-1.01-.178-9.763-3.522-12.928-13.355-13.057-13.771a2.977 2.977 0 011.949-3.719 2.974 2.974 0 013.71 1.939c.049.138 2.502 7.469 9.407 9.961a2.957 2.957 0 011.78 3.799 2.961 2.961 0 01-2.78 1.969zM159.703 133.49a2.965 2.965 0 01-2.79-1.959 2.974 2.974 0 011.781-3.799c6.944-2.502 9.388-9.882 9.408-9.961.504-1.553 2.166-2.424 3.719-1.929a2.969 2.969 0 011.939 3.709c-.129.416-3.294 10.249-13.058 13.771a3.231 3.231 0 01-.999.168z" fill="#EDA65B"/></svg>