<svg width="100" height="100" fill="none" xmlns="http://www.w3.org/2000/svg"><path fill-rule="evenodd" clip-rule="evenodd" d="M36.402 25.605c2.793.726 3.9-4 3.9-4s3.18 2.375 5.04 2.507c.854.061 3.42-3.17 3.42-3.17s3.557 2.996 5.432 3.08c.73.033 4.857-2.925 4.857-2.925s.316 2.68 2.553 3.123c.758.151 1.578.1 2.473-.353 2.709-1.361 18.631-16.294 18.631-16.294s.34 3.142 1.201 2.506C89.51 5.933 94.047 2.49 94.047 2.49s-4.08 24.65-3.618 26.262c.504 1.771 3.01-.73 3.01-.73S87.46 48.476 86.9 50.209c-.561 1.738-1.583 5.497 1.342 5.497-2.299 4.113-5.926 10.411-7.415 14.09-.546 1.352 1.96 1.997 1.96 1.997s-4.786 4.023-5.365 4.98c-.867 1.436 1.37 2.699 1.37 2.699s-6.844 3.65-8.361 4.296c-10.463 4.438-12.21 5.257-19.328 5.257-6.01 0-7.83-1.098-18.051-4.81-2.096-.763-12.281-8.267-12.281-8.267s2.223-1.187 1.38-2.892c-2.02-4.075-7.268-9.252-7.268-9.252s3.566.594.904-4.786c-1.597-3.227-5.681-7.08-5.681-7.08s2.337.165 1.15-4.504c-.443-1.738-4.31-13.75-4.31-13.75s1.77 2.11 1.591-.184c-.546-7.103-1.54-26.394-1.96-29.116 4.622 3.683 5.404.372 5.404.372s2.252 3.26 8.46 8.616c1.569 1.356 3.448-.316 3.448-.316s10.2 11.946 12.512 12.55z" fill="#F05B29"/><path d="M51.103 89.736H51.1c-5.182 0-7.405-.824-14.005-3.278-1.248-.462-2.662-.99-4.287-1.578-2.13-.773-11.41-7.59-12.46-8.362l-.904-.664.99-.528c.065-.033 1.605-.89 1.078-1.955-1.94-3.919-7.08-9.011-7.132-9.063L12.79 62.74l2.2.368s.655.085.914-.269c.137-.188.485-.994-.763-3.51-1.521-3.08-5.493-6.844-5.53-6.881L8.175 51.09l1.969.136c.005 0 .24-.009.429-.25.193-.244.574-1.069-.01-3.372-.433-1.696-4.258-13.586-4.296-13.708L5.16 30.462l2.318 2.765c.103.123.23.25.348.358v-.033c-.226-2.897-.513-7.707-.824-12.804-.433-7.216-.886-14.678-1.13-16.26l-.274-1.786 1.413 1.126c2.106 1.677 3.157 1.672 3.595 1.521.527-.183.683-.753.683-.758l.362-1.545.905 1.305c.023.033 2.294 3.269 8.338 8.484 1.088.937 2.459-.255 2.515-.307l.537-.48.467.546c3.886 4.55 10.627 11.923 12.158 12.319.41.103.763.056 1.121-.156 1.084-.65 1.752-2.619 1.917-3.32l.245-1.047.862.641c.83.617 3.25 2.228 4.617 2.365.433-.16 1.752-1.493 2.869-2.897l.452-.57.556.466c1.29 1.084 3.764 2.822 4.965 2.911.532-.132 2.708-1.54 4.456-2.788l.975-.698.142 1.188c.009.084.291 2.176 1.987 2.51.707.137 1.348.047 2.021-.292 2.148-1.078 14.057-12.045 18.461-16.176l1.032-.97.156 1.408c.075.669.235 1.394.386 1.785 5.394-3.994 9.78-7.32 9.822-7.358L95.025.841l-.292 1.753c-1.545 9.327-3.891 24.622-3.632 25.97.028.089.056.122.056.122.236.042 1.13-.532 1.772-1.178l1.95-1.945-.773 2.643c-.245.833-5.987 20.482-6.543 22.206-.904 2.798-.593 3.825-.33 4.187.07.095.283.387.999.387h1.206l-.589 1.05c-.316.57-.66 1.178-1.022 1.819-2.27 4.037-5.092 9.058-6.36 12.19-.042.109-.028.156 0 .208.18.358.99.716 1.484.843l1.32.349-1.042.876c-1.95 1.64-4.856 4.211-5.215 4.805a.543.543 0 00-.075.466c.137.514.858 1.065 1.187 1.249l1.121.63-1.135.608c-.283.151-6.892 3.675-8.418 4.325l-.735.31c-9.741 4.16-11.772 5.022-18.857 5.022zM21.968 75.958c3.24 2.364 9.817 7.052 11.324 7.598 1.625.589 3.043 1.116 4.292 1.583 6.595 2.45 8.587 3.189 13.515 3.189h.004c6.798 0 8.56-.75 18.31-4.89l.736-.31c1.13-.481 5.389-2.724 7.33-3.75-.377-.359-.754-.834-.9-1.4-.142-.532-.057-1.069.235-1.559.48-.791 3.114-3.109 4.612-4.39-.471-.254-.961-.617-1.21-1.117a1.621 1.621 0 01-.048-1.37c1.3-3.213 4.146-8.282 6.435-12.352.184-.325.363-.64.532-.951a2.264 2.264 0 01-1.04-.782c-1.013-1.395-.415-3.778.127-5.455.447-1.385 4.428-14.98 5.944-20.171-.461.221-.951.339-1.399.221-.287-.075-.805-.316-1.031-1.098-.43-1.498 2.138-17.641 3.311-24.825a1167.417 1167.417 0 01-8.733 6.53c-.325.24-.702.286-1.046.136-.532-.231-.858-.97-1.055-1.8-3.524 3.284-15.428 14.302-17.83 15.508-.952.476-1.908.612-2.925.414-1.701-.334-2.492-1.667-2.846-2.647-2.383 1.663-3.886 2.473-4.46 2.464-1.64-.076-4.156-1.903-5.296-2.794-1.63 1.965-2.836 2.926-3.575 2.878-1.46-.108-3.481-1.323-4.602-2.077-.363 1.003-1.08 2.52-2.262 3.232a2.766 2.766 0 01-2.204.315c-2.252-.584-10.034-9.463-12.45-12.276-.966.589-2.492 1.018-3.797-.104-4.419-3.81-6.85-6.561-7.914-7.88a2.385 2.385 0 01-.994.664c-.98.339-2.195.061-3.627-.825.259 2.978.622 8.97.975 14.801.306 5.088.598 9.893.82 12.78.028.354.108 1.428-.693 1.753-.118.047-.236.07-.353.075 1.102 3.434 3.4 10.642 3.74 11.984.556 2.186.457 3.755-.292 4.65-.09.108-.184.202-.283.282 1.286 1.31 3.83 4.056 5.05 6.515 1.164 2.35 1.37 3.98.627 4.984a1.887 1.887 0 01-.716.589c1.63 1.715 4.913 5.36 6.453 8.465.683 1.338.005 2.487-.791 3.213z" fill="#131741"/><path fill-rule="evenodd" clip-rule="evenodd" d="M76.126 42.507c-6.34 5.761-8.083 2.106-8.083 2.106l-1.522-4.226-5.87 3.938-1.022-5.629-2.835 3.905-1.852-9.374-4.715 11.419-5.21-10.811-1.154 8.606-3.203-4.225-.825 5.954-5.544-4.22-1.682 4.22s-1.597 3.302-7.961-2.134c0 2.59-2.28 17.792 11.678 17.486 1.846-.042 3.514-.367 4.715-.768 1.022-.32 3.717-.96 4.574-.353l9.525.165c1.3-1.183 6.2.956 8.05.956 16.276 2.388 12.936-14.057 12.936-17.015zM50.802 74.017s-.523-5.662 6.812-6.213c.951-.071 1.974.113 3 .49.745.273 5.667-.533 5.667-.533s-1.064 3.397-.09 4.499c.82.923 5.447 1.295 5.447 1.295s-6.869 8.767-10.223 8.545c-1.154-5.464-8.658-5.723-10.613-8.083z" fill="#EDA65B"/><path fill-rule="evenodd" clip-rule="evenodd" d="M50.788 74.017s1.163-5.191-6.812-6.214c-1.281-.165-2.775.142-4.235.782-1.135.5-5.63-.353-5.63-.353s.952 3.797.41 4.593c-.504.744-3.509-.033-3.509-.033s6.308 9.497 9.158 9.308c1.474-4.955 10.679-6.891 10.618-8.083z" fill="#EDA65B"/><path fill-rule="evenodd" clip-rule="evenodd" d="M67.406 83c-3.721 5.206-11.55 9.167-16.308 9.167-5.22 0-13.383-4.032-16.911-9.195" fill="#F05B29"/><path d="M51.098 92.874c-5.2 0-13.665-3.905-17.495-9.506a.704.704 0 111.163-.796c3.477 5.087 11.49 8.889 16.332 8.889 4.433 0 12.102-3.793 15.734-8.87a.704.704 0 01.985-.165.708.708 0 01.164.984c-3.99 5.578-12.097 9.464-16.883 9.464z" fill="#131741"/><path fill-rule="evenodd" clip-rule="evenodd" d="M61.636 82.044c-1.71-4.678-10.868-7.075-10.868-7.075s.01-2.356.01-3.227c0 1.074-.01 2.614-.01 3.227 0 0-9.143 2.397-10.707 7.047 0 0 3.834 1.884 10.73 2.04 6.897.16 10.845-2.012 10.845-2.012z" fill="#fff"/><path d="M51.508 84.776c-.24 0-.485-.005-.73-.01-6.972-.16-10.863-2.034-11.028-2.115l-.556-.273.198-.588c1.46-4.34 8.635-6.75 10.67-7.359v-.664c0-.367.004-.768.004-1.154v-.876h1.414v.876c0 .617-.005 1.333-.005 1.814 2.044.607 9.238 3.02 10.825 7.367l.207.57-.532.292c-.16.094-3.91 2.12-10.467 2.12zm-10.519-3.137c1.319.508 4.725 1.597 9.822 1.71 5.14.122 8.587-1.093 9.897-1.654-1.917-3.575-8.743-5.657-9.94-5.996-1.191.343-7.956 2.411-9.779 5.94z" fill="#131741"/><path d="M45.987 84.249l-2.237-4.17-2.224.523a.704.704 0 01-.848-.527.704.704 0 01.528-.848l3.278-.768 1.706 3.18 2.336-3.09 2.177.998 1.672-1.305 2.53 1.447 1.752-.895 3.481.73a.707.707 0 11-.292 1.385l-2.991-.627-1.988 1.018-2.37-1.357-1.601 1.253-1.922-.886-2.987 3.939z" fill="#131741"/><path fill-rule="evenodd" clip-rule="evenodd" d="M43.897 67.959c1.093-11 3.443-13.35 3.443-13.35s.236.824 1.291.546c1.376-.358 1.988-3.212 1.988-3.212s.594 2.388 2.092 2.52c1.677-.014 2.34-1.607 2.34-1.607s.11 1.922.717 2.935c.546.91 1.088.066 1.088.066s.834 7.523.834 12.074l-6.892 2.275-6.901-2.247z" fill="#FF7B4F"/><path fill-rule="evenodd" clip-rule="evenodd" d="M43.897 67.384c.622 1.819 2.21 1.027 2.982 1.823 1.545 1.597 1.738 2.596 4.013 2.591 2.38 0 2.219-.975 3.486-2.581.64-.81 3.11-.02 3.312-1.852 0 0-1.658-.767-6.006-.06a5.155 5.155 0 01-1.592 0c-5.036-.736-6.195.08-6.195.08z" fill="#D43802"/><path d="M50.783 72.448c-1.714 0-2.124-.344-2.708-1.187a5.844 5.844 0 00-.886-1.046c-.108-.103-.617-.16-.947-.198-1.036-.117-2.605-.301-3.029-2.058a.706.706 0 01.523-.853.705.705 0 01.853.523c.174.72.688.857 1.818.985.64.075 1.305.15 1.753.57.56.527.862.956 1.078 1.272.349.499.4.579 1.54.579 1.372 0 1.438-.104 1.833-.711a8.15 8.15 0 01.796-1.08c.415-.475 1.093-.555 1.81-.64 1.248-.15 1.705-.31 1.785-.923a.707.707 0 111.404.188c-.24 1.81-1.98 2.016-3.02 2.139-.32.038-.81.099-.928.184-.292.339-.485.636-.655.9-.627.965-1.07 1.356-2.996 1.356h-.024z" fill="#131741"/><path fill-rule="evenodd" clip-rule="evenodd" d="M28.252 48.268c.029 11.909 11.457 8.946 12.823 8.616-.005-8.507-8.145-7.829-12.823-8.616z" fill="#fff"/><path d="M36.802 58.151c-2.45 0-4.532-.612-6.063-1.809-2.11-1.653-3.184-4.371-3.194-8.069v-.839l.825.137c.702.118 1.493.203 2.332.292 4.673.504 11.074 1.192 11.08 9.021v.556l-.613.146c-1.55.382-3.015.565-4.367.565zm-7.82-9.058c.146 2.821 1.032 4.88 2.633 6.138 1.941 1.521 5.032 1.907 8.739 1.097-.292-6.034-5.337-6.576-9.803-7.056a56.96 56.96 0 01-1.569-.18z" fill="#131741"/><path fill-rule="evenodd" clip-rule="evenodd" d="M38.181 52.852c-.49 2.091-2.454 3.424-4.395 2.972-1.94-.452-3.119-2.515-2.629-4.607.49-2.091 2.233-2.478 4.174-2.026 1.94.453 3.335 1.57 2.85 3.66z" fill="#F05B29"/><path fill-rule="evenodd" clip-rule="evenodd" d="M33.18 48.72l.98 5.78 3.58-4.348-4.56-1.432z" fill="#131741"/><path fill-rule="evenodd" clip-rule="evenodd" d="M73.338 48.268c-.029 11.909-11.457 8.946-12.823 8.616.01-8.507 8.145-7.83 12.823-8.616z" fill="#fff"/><path d="M64.793 58.151c-1.352 0-2.822-.188-4.367-.56l-.612-.146v-.556c.004-7.83 6.406-8.517 11.08-9.021.838-.09 1.63-.175 2.331-.292l.824-.137v.839c-.01 3.697-1.083 6.416-3.194 8.069-1.53 1.192-3.613 1.804-6.062 1.804zm-3.552-1.823c3.707.81 6.797.424 8.738-1.097 1.602-1.258 2.488-3.317 2.634-6.138-.5.065-1.027.122-1.569.179-4.466.48-9.51 1.022-9.803 7.056z" fill="#131741"/><path fill-rule="evenodd" clip-rule="evenodd" d="M63.407 52.852c.49 2.091 2.455 3.424 4.395 2.972 1.941-.452 3.119-2.515 2.629-4.607-.49-2.091-2.233-2.478-4.174-2.026-1.936.453-3.335 1.57-2.85 3.66z" fill="#F05B29"/><path fill-rule="evenodd" clip-rule="evenodd" d="M68.41 48.72l-.975 5.78-3.58-4.348 4.555-1.432z" fill="#131741"/><path d="M64.793 58.151c-1.352 0-2.822-.188-4.367-.56l-.612-.146v-.556c.004-7.83 6.406-8.517 11.08-9.021.838-.09 1.63-.175 2.331-.292l.824-.137v.839c-.01 3.697-1.083 6.416-3.194 8.069-1.53 1.192-3.613 1.804-6.062 1.804zm-3.552-1.823c3.707.81 6.797.424 8.738-1.097 1.602-1.258 2.488-3.317 2.634-6.138-.5.065-1.027.122-1.569.179-4.466.48-9.51 1.022-9.803 7.056zM36.802 58.151c-2.45 0-4.532-.612-6.063-1.809-2.11-1.653-3.184-4.371-3.194-8.069v-.839l.825.137c.702.118 1.493.203 2.332.292 4.673.504 11.074 1.192 11.08 9.021v.556l-.613.146c-1.55.382-3.015.565-4.367.565zm-7.82-9.058c.146 2.821 1.032 4.88 2.633 6.138 1.941 1.521 5.032 1.907 8.739 1.097-.292-6.034-5.337-6.576-9.803-7.056a56.96 56.96 0 01-1.569-.18z" fill="#131741"/><path fill-rule="evenodd" clip-rule="evenodd" d="M89.146 11.421S69.281 22.986 69.79 28.851c.513 5.926 8.248 4.847 8.248 4.847s3.59 14.782 6.082 9.959c2.633-7.528 5.026-32.236 5.026-32.236zM10.94 10.927s18.107 10.97 17.15 17.995c-.908 6.684-8.181 5.54-8.181 5.54s-2.799 14.857-5.29 10.033c-1.965-7.528-3.68-33.568-3.68-33.568z" fill="#fff"/><path d="M82.765 19.872L75.614 34.09l-1.974-1.927 10.656-5.3-9.106 7.665c-.584.495-1.46.42-1.955-.17a1.382 1.382 0 01-.047-1.724l.023-.033 9.554-12.728zM16.07 19.872L25.623 32.6l.023.033a1.387 1.387 0 01-2.002 1.894l-9.105-7.669 10.655 5.3-1.974 1.926-7.15-14.212z" fill="#F05B29"/><path d="M83.023 45.334c-.061 0-.123-.005-.18-.01-2.378-.287-4.441-7.273-5.346-10.863-1.31.085-4.324.066-6.387-1.578-1.197-.951-1.88-2.29-2.026-3.966-.188-2.148 6.463-9.586 8.503-11.815l1.606-1.752-.386 2.346a2.809 2.809 0 00-.033.396c5.003-3.76 9.916-7.208 9.968-7.245l1.257-.881-.146 1.526c-.099 1.013-2.43 24.877-5.064 32.4l-.037.09c-.566 1.088-1.225 1.352-1.73 1.352zM78.576 32.91l.15.622c1.315 5.418 3.317 10.27 4.287 10.387.033.024.212-.08.457-.541 2.19-6.331 4.245-24.981 4.82-30.483a404.061 404.061 0 00-8.758 6.392c-.735.556-1.257.452-1.564.264a1.015 1.015 0 01-.358-.363c-3.632 4.075-7.165 8.611-7.108 9.6.113 1.296.603 2.271 1.498 2.982 2.172 1.73 5.912 1.23 5.95 1.225l.626-.085zM15.656 46.172c-.646 0-1.206-.452-1.668-1.347l-.056-.146c-.876-3.378-3.274-20.12-3.378-20.83l-.282-1.994 1.47 1.38c.037.034.07.067.108.1-.631-6.67-1.597-12.225-1.607-12.286l-.32-1.837 1.456 1.164s5.53 4.418 9.642 7.697l-.004-1.833 1.239 1.4c.716.81 6.99 8.017 6.533 11.38-.282 2.069-1.154 3.66-2.595 4.73-1.993 1.484-4.522 1.55-5.714 1.48-.716 3.617-2.38 10.598-4.612 10.928-.07.01-.141.014-.212.014zm-.377-1.927c.245.453.405.514.405.514.857-.184 2.516-5.055 3.528-10.425l.128-.674.678.109c.028.005 3.175.466 5.342-1.154 1.121-.839 1.804-2.11 2.035-3.783.25-1.847-2.897-6.336-5.384-9.313a.967.967 0 01-.274.198c-.212.104-.645.217-1.163-.198-2.883-2.299-6.628-5.285-8.64-6.892.363 2.337.98 6.661 1.409 11.443.061.692-.335.96-.504 1.045-.099.047-.302.146-.66.062.617 4.258 2.384 16.204 3.1 19.068z" fill="#131741"/><path d="M20.767 55.711l4.617 7.952-2.247-.551 2.006-1.748 1.932-1.686.339 2.294 1.116 7.673-3.792-6.76 2.266.608-2.007 1.748-1.78 1.554-.467-2.105-1.983-8.979zM80.824 55.711L78.84 64.69l-.466 2.105-1.78-1.554-2.003-1.748 2.266-.608-3.797 6.76 1.122-7.673.334-2.294 1.931 1.686 2.007 1.748-2.247.55 4.617-7.95z" fill="#EDA65B"/><path fill-rule="evenodd" clip-rule="evenodd" d="M45.79 64.27s2.61-1.239 5.092-1.983a1207.99 1207.99 0 005.092 1.983s-4.074-.692-5.177.994c-1.093-1.686-5.007-.994-5.007-.994zM46.46 60.446s2.213-.98 4.385-1.291c4.056.843 4.456 1.29 4.456 1.29s-3.297-.664-4.494.391c-1.112-1.06-4.348-.39-4.348-.39z" fill="#F05B29"/></svg>