<?xml version="1.0" encoding="utf-8"?>
<svg width="273" height="122" viewBox="0 0 273 122" xmlns="http://www.w3.org/2000/svg">
  <path fill="#fff" d="M 113.448 68.845 C 113.009 68.976 112.526 69.109 112.043 69.109 C 111.209 69.109 110.507 68.756 110.507 67.572 L 110.507 60.021 C 110.507 53.655 106.731 50.801 100.76 50.801 C 97.377 50.801 94.348 51.635 92.68 52.206 L 92.68 56.509 C 94.569 55.674 97.157 54.885 100.277 54.885 C 103.875 54.885 105.807 56.728 105.807 59.362 L 105.807 60.107 C 104.139 59.755 102.119 59.493 100.318 59.493 C 95.929 59.493 90.923 61.16 90.923 66.561 C 90.923 70.907 94.48 73.014 98.299 73.014 C 101.591 73.014 104.183 71.962 106.247 70.293 C 106.993 72.005 108.529 72.752 110.461 72.752 C 111.516 72.752 112.569 72.576 113.447 72.225 L 113.447 68.843 Z M 105.809 66.87 C 104.14 68.538 101.945 69.373 99.706 69.373 C 97.598 69.373 95.756 68.319 95.756 66.256 C 95.756 63.624 98.565 62.788 101.243 62.788 C 102.736 62.788 104.536 63.051 105.808 63.315 L 105.808 66.871 Z M 126.751 73.016 C 129.429 73.016 131.712 72.533 133.733 71.567 L 133.733 67.218 C 132.064 68.185 129.823 68.843 127.586 68.843 C 123.811 68.843 120.166 66.692 120.166 61.907 C 120.166 56.945 123.942 54.97 127.673 54.97 C 129.824 54.97 131.976 55.628 133.512 56.725 L 133.512 52.425 C 131.668 51.327 129.386 50.801 127.015 50.801 C 121.395 50.801 115.38 54.226 115.38 62.084 C 115.38 69.591 121.134 73.015 126.754 73.015 Z M 146.069 59.493 C 141.678 59.493 136.673 61.162 136.673 66.562 C 136.673 70.909 140.23 73.016 144.048 73.016 C 147.342 73.016 149.933 71.963 151.996 70.294 C 152.742 72.004 154.278 72.752 156.211 72.752 C 157.263 72.752 158.317 72.574 159.196 72.225 L 159.196 68.843 C 158.759 68.975 158.276 69.108 157.792 69.108 C 156.96 69.108 156.255 68.755 156.255 67.571 L 156.255 60.021 C 156.255 53.656 152.482 50.802 146.51 50.802 C 143.13 50.802 140.1 51.636 138.431 52.207 L 138.431 56.509 C 140.321 55.675 142.909 54.885 146.027 54.885 C 149.626 54.885 151.559 56.729 151.559 59.363 L 151.559 60.11 C 149.891 59.757 147.871 59.493 146.071 59.493 Z M 151.557 66.87 C 149.886 68.538 147.69 69.373 145.451 69.373 C 143.344 69.373 141.501 68.319 141.501 66.256 C 141.501 63.624 144.31 62.788 146.987 62.788 C 148.48 62.788 150.28 63.051 151.553 63.315 L 151.553 66.871 Z M 161.125 61.909 C 161.125 67.967 165.208 73.016 171.574 73.016 C 175.525 73.016 178.028 71.173 179.653 69.109 L 179.653 72.445 L 183.867 72.445 L 183.867 41.713 L 179.17 41.713 L 179.17 54.094 C 177.721 52.426 175.262 50.801 171.574 50.801 C 165.208 50.801 161.125 55.85 161.125 61.909 Z M 179.125 59.317 L 179.125 64.455 C 178.115 66.78 175.701 68.89 172.408 68.89 C 168.633 68.89 165.866 66.034 165.866 61.909 C 165.866 57.78 168.633 54.926 172.408 54.926 C 175.701 54.926 178.115 57.033 179.125 59.316 Z M 200.375 73.017 C 203.317 73.017 205.996 72.49 207.928 71.567 L 207.928 67.527 C 206.127 68.406 203.8 69.019 201.254 69.019 C 197.389 69.019 193.701 67.438 193.175 63.662 L 209.024 63.662 C 210.384 57.56 207.488 50.798 199.102 50.798 C 194.229 50.798 188.434 54.266 188.434 61.906 C 188.434 69.326 193.92 73.012 200.375 73.012 Z M 199.323 54.708 C 203.933 54.708 205.075 58.309 204.811 60.152 L 193.133 60.152 C 193.309 56.597 196.163 54.708 199.323 54.708 Z M 242.259 59.405 L 242.259 72.446 L 246.957 72.446 L 246.957 59.274 C 246.957 54.928 244.543 50.801 238.967 50.801 C 235.894 50.801 233.437 52.337 231.591 54.181 C 230.363 52.118 228.166 50.801 225.005 50.801 C 221.58 50.801 219.124 52.733 217.982 54.006 L 217.982 51.371 L 213.81 51.371 L 213.81 72.443 L 218.508 72.443 L 218.508 58.219 C 219.607 56.814 221.538 54.97 224.084 54.97 C 226.63 54.97 228.256 56.682 228.256 59.405 L 228.256 72.443 L 232.954 72.443 L 232.954 59.274 C 232.954 58.792 232.909 58.308 232.865 57.825 C 233.963 56.508 235.763 54.973 238.089 54.973 C 240.637 54.973 242.26 56.685 242.26 59.406 Z M 272.599 51.372 L 267.682 51.372 L 261.404 67.264 L 254.291 51.372 L 249.285 51.372 L 259.296 72.622 L 258.857 73.675 C 257.628 76.968 255.916 78.592 253.633 78.592 C 252.931 78.592 252.186 78.505 251.482 78.285 L 251.482 82.279 C 252.405 82.499 253.326 82.63 254.248 82.63 C 257.452 82.63 260.437 80.788 262.722 75.3 L 272.599 51.372 Z M 97.139 21.587 C 98.324 19.874 100.343 18.074 103.022 18.074 C 105.83 18.074 107.939 19.698 107.939 23.124 L 107.939 35.548 L 112.637 35.548 L 112.637 22.508 C 112.637 17.503 109.256 13.903 103.943 13.903 C 101.089 13.903 98.674 15.219 97.139 16.798 L 97.139 4.814 L 92.441 4.814 L 92.441 35.547 L 97.139 35.547 L 97.139 21.586 Z M 120.847 29.138 C 120.847 34.054 124.008 36.074 128.09 36.074 C 130.154 36.074 132.174 35.722 133.755 35.153 L 133.755 31.114 C 132.438 31.639 131.032 31.947 129.495 31.947 C 126.772 31.947 125.498 31.026 125.498 28.26 L 125.498 18.601 L 133.138 18.601 L 133.138 14.474 L 125.499 14.474 L 125.499 6.967 L 120.845 8.108 L 120.845 14.474 L 117.07 14.474 L 117.07 18.602 L 120.845 18.602 L 120.845 29.138 Z M 143.849 21.322 C 144.947 19.918 146.878 18.073 149.426 18.073 C 151.972 18.073 153.596 19.786 153.596 22.508 L 153.596 35.547 L 158.294 35.547 L 158.294 22.376 C 158.294 21.894 158.251 21.411 158.208 20.927 C 159.306 19.61 161.106 18.074 163.432 18.074 C 165.979 18.074 167.603 19.787 167.603 22.509 L 167.603 35.548 L 172.302 35.548 L 172.302 22.376 C 172.302 18.03 169.887 13.904 164.311 13.904 C 161.237 13.904 158.779 15.44 156.935 17.284 C 155.705 15.221 153.51 13.904 150.349 13.904 C 146.924 13.904 144.467 15.835 143.326 17.109 L 143.326 14.474 L 139.154 14.474 L 139.154 35.548 L 143.852 35.548 L 143.852 21.322 Z M 179.172 4.814 L 183.87 4.814 L 183.87 35.547 L 179.172 35.547 Z M 36.794 1.15 L 0 5.008 L 0 72.448 L 36.794 94.341 L 73.588 72.448 L 73.588 5.008 L 37.18 1.188 L 36.794 1.149 Z M 68.776 69.71 L 36.794 88.74 L 4.813 69.71 L 4.813 42.069 L 36.658 61.022 L 36.71 64.456 L 14.865 51.455 L 14.833 54.789 L 36.765 67.971 L 36.821 71.497 L 14.895 58.453 L 14.863 61.788 L 36.795 74.969 L 58.937 61.72 L 58.937 58.371 L 58.909 58.387 L 58.909 47.496 L 68.774 41.604 L 68.774 69.71 Z M 68.75 38.018 L 59.999 43.174 L 55.96 45.554 L 36.698 34.095 L 36.667 37.429 L 53.131 47.218 L 52.985 47.304 L 52.63 47.515 L 50.291 48.893 L 36.698 40.805 L 36.667 44.141 L 47.396 50.52 L 44.865 52.212 L 44.803 52.25 L 36.698 47.474 L 36.667 50.809 L 41.985 53.941 L 36.567 57.194 L 4.886 38.36 L 36.614 19.287 L 36.614 19.29 L 68.751 38.019 Z M 68.775 34.663 L 36.623 15.708 L 36.623 15.703 L 36.619 15.706 L 36.615 15.703 L 36.615 15.708 L 4.813 34.644 L 4.813 9.343 L 36.795 5.989 L 68.776 9.342 L 68.776 34.662 Z M 100.19 99.133 L 100.19 90.894 L 98.614 90.894 L 94.212 96.284 L 94.212 90.894 L 92.38 90.894 L 92.38 99.133 L 93.956 99.133 L 98.356 93.743 L 98.356 99.133 Z M 108.432 99.133 L 110.263 99.133 L 110.263 90.894 L 108.43 90.894 L 108.43 94.206 L 104.321 94.206 L 104.321 90.893 L 102.488 90.893 L 102.488 99.133 L 104.32 99.133 L 104.32 95.82 L 108.43 95.82 Z M 111.709 90.894 L 111.709 92.507 L 114.551 92.507 L 114.551 99.134 L 116.384 99.134 L 116.384 92.506 L 119.209 92.506 L 119.209 90.894 Z M 127.519 98.79 L 127.519 97.21 C 126.816 97.555 125.909 97.795 124.915 97.795 C 123.408 97.795 121.97 97.176 121.764 95.7 L 127.945 95.7 C 128.476 93.313 127.346 90.67 124.075 90.67 C 122.174 90.67 119.913 92.027 119.913 95.014 C 119.913 97.916 122.055 99.357 124.572 99.357 C 125.718 99.359 126.762 99.152 127.517 98.791 Z M 124.162 92.198 C 125.96 92.198 126.405 93.606 126.302 94.326 L 121.745 94.326 C 121.814 92.937 122.927 92.198 124.16 92.198 Z M 138.655 95.014 C 138.655 92.645 137.046 90.67 134.579 90.67 C 133.037 90.67 132.061 91.393 131.411 92.183 L 131.411 90.897 L 129.784 90.897 L 129.784 102.912 L 131.615 102.912 L 131.615 98.072 C 132.182 98.723 133.14 99.357 134.58 99.357 C 137.046 99.357 138.655 97.384 138.655 95.014 Z M 131.617 96.009 L 131.617 93.999 C 132.011 93.106 132.97 92.281 134.236 92.281 C 135.725 92.281 136.787 93.398 136.787 95.011 C 136.787 96.624 135.725 97.741 134.235 97.741 C 132.969 97.742 132.01 96.918 131.615 96.007 Z M 147.446 97.228 L 147.446 94.276 C 147.446 91.787 145.972 90.671 143.643 90.671 C 142.324 90.671 141.143 90.999 140.492 91.221 L 140.492 92.904 C 141.425 92.488 142.433 92.271 143.455 92.27 C 144.86 92.27 145.613 92.99 145.613 94.02 L 145.613 94.314 C 144.962 94.176 144.175 94.072 143.472 94.072 C 141.761 94.072 139.808 94.724 139.808 96.836 C 139.808 98.536 141.194 99.359 142.685 99.359 C 143.969 99.359 144.979 98.947 145.784 98.295 C 146.075 98.963 146.675 99.256 147.428 99.256 C 147.841 99.256 148.251 99.186 148.593 99.049 L 148.593 97.727 C 148.422 97.779 148.233 97.83 148.046 97.83 C 147.72 97.83 147.447 97.693 147.447 97.229 Z M 145.614 96.954 C 144.962 97.607 144.105 97.933 143.232 97.933 C 142.409 97.933 141.691 97.522 141.691 96.714 C 141.691 95.685 142.787 95.359 143.832 95.359 C 144.414 95.359 145.117 95.462 145.613 95.564 L 145.613 96.954 Z M 154.643 94.979 L 157.621 90.894 L 155.533 90.894 L 153.17 94.155 L 151.817 94.155 L 151.817 90.892 L 149.984 90.892 L 149.984 99.132 L 151.817 99.132 L 151.817 95.716 L 153.135 95.716 L 155.84 99.132 L 157.947 99.132 Z M 158.296 92.507 L 161.139 92.507 L 161.139 99.134 L 162.971 99.134 L 162.971 92.505 L 165.796 92.505 L 165.796 90.893 L 158.296 90.893 Z M 169.072 90.895 L 167.24 90.895 L 167.24 99.134 L 168.815 99.134 L 173.215 93.744 L 173.215 99.134 L 175.047 99.134 L 175.047 90.895 L 173.471 90.895 L 169.071 96.285 Z M 177.349 90.895 L 177.349 99.134 L 182.177 99.134 C 184.079 99.134 184.883 98.139 184.883 96.868 C 184.883 95.856 184.251 95.204 183.479 94.966 C 184.181 94.655 184.645 94.004 184.645 93.093 C 184.645 91.806 183.703 90.898 182.04 90.898 L 177.35 90.898 Z M 181.733 97.745 L 179.182 97.745 L 179.182 95.633 L 181.768 95.633 C 182.402 95.633 183.036 95.855 183.036 96.697 C 183.036 97.485 182.488 97.743 181.735 97.743 Z M 182.794 93.332 C 182.794 94.069 182.282 94.327 181.63 94.327 L 179.181 94.327 L 179.181 92.283 L 181.63 92.283 C 182.193 92.283 182.793 92.525 182.793 93.332 Z M 192.68 90.894 L 192.68 94.207 L 188.569 94.207 L 188.569 90.894 L 186.736 90.894 L 186.736 99.133 L 188.569 99.133 L 188.569 95.822 L 192.68 95.822 L 192.68 99.133 L 194.512 99.133 L 194.512 90.894 Z M 205.614 90.894 L 207.446 90.894 L 207.446 99.133 L 205.614 99.133 Z M 200.888 93.641 L 198.644 93.641 L 198.644 90.894 L 196.813 90.894 L 196.813 99.133 L 200.888 99.133 C 202.959 99.133 204.141 97.932 204.141 96.387 C 204.141 94.824 202.958 93.639 200.886 93.639 Z M 200.528 97.674 L 198.644 97.674 L 198.644 95.084 L 200.528 95.084 C 201.606 95.084 202.274 95.529 202.274 96.388 C 202.274 97.229 201.606 97.674 200.528 97.674 Z M 216.838 97.212 C 216.136 97.556 215.228 97.796 214.236 97.796 C 212.728 97.796 211.29 97.177 211.084 95.701 L 217.266 95.701 C 217.799 93.316 216.668 90.672 213.396 90.672 C 211.496 90.672 209.235 92.029 209.235 95.016 C 209.235 97.918 211.377 99.359 213.893 99.359 C 215.039 99.359 216.084 99.153 216.838 98.792 L 216.838 97.214 Z M 213.481 92.199 C 215.28 92.199 215.726 93.607 215.622 94.327 L 211.067 94.327 C 211.136 92.937 212.249 92.198 213.482 92.198 Z M 96.316 110.306 C 94.021 110.306 91.862 111.8 91.862 114.649 C 91.862 117.499 94.021 118.992 96.316 118.992 C 98.629 118.992 100.769 117.499 100.769 114.65 C 100.769 111.801 98.629 110.307 96.316 110.307 Z M 96.316 117.31 C 94.776 117.31 93.715 116.262 93.715 114.649 C 93.715 113.036 94.775 111.989 96.316 111.989 C 97.84 111.989 98.902 113.036 98.902 114.649 C 98.902 116.262 97.84 117.31 96.316 117.31 Z M 104.388 118.769 L 104.388 115.457 L 108.498 115.457 L 108.498 118.769 L 110.33 118.769 L 110.33 110.53 L 108.498 110.53 L 108.498 113.842 L 104.388 113.842 L 104.388 110.53 L 102.555 110.53 L 102.555 118.769 Z M 144.04 118.769 L 144.04 115.457 L 148.15 115.457 L 148.15 118.769 L 149.984 118.769 L 149.984 110.53 L 148.152 110.53 L 148.152 113.842 L 144.041 113.842 L 144.041 110.53 L 142.21 110.53 L 142.21 118.769 Z M 112.253 117.361 C 112.082 117.361 111.911 117.326 111.722 117.258 L 111.722 118.7 C 112.133 118.855 112.511 118.922 112.851 118.922 C 115.044 118.922 115.661 116.072 115.9 112.089 L 118.675 112.089 L 118.675 118.768 L 120.506 118.768 L 120.506 110.527 L 114.173 110.527 C 114.019 114.613 113.642 117.359 112.254 117.359 Z M 129.812 116.864 L 129.812 113.911 C 129.812 111.423 128.34 110.308 126.01 110.308 C 124.693 110.308 123.512 110.634 122.86 110.858 L 122.86 112.538 C 123.793 112.123 124.802 111.908 125.823 111.905 C 127.228 111.905 127.981 112.625 127.981 113.655 L 127.981 113.948 C 127.33 113.81 126.542 113.706 125.841 113.706 C 124.126 113.706 122.173 114.36 122.173 116.471 C 122.173 118.17 123.56 118.992 125.05 118.992 C 126.335 118.992 127.346 118.582 128.151 117.93 C 128.442 118.597 129.04 118.891 129.795 118.891 C 130.206 118.891 130.618 118.82 130.96 118.684 L 130.96 117.362 C 130.787 117.413 130.598 117.465 130.41 117.465 C 130.085 117.465 129.811 117.327 129.811 116.864 Z M 127.98 116.588 C 127.33 117.241 126.474 117.567 125.599 117.567 C 124.778 117.567 124.058 117.157 124.058 116.349 C 124.058 115.318 125.155 114.991 126.199 114.991 C 126.782 114.991 127.484 115.095 127.98 115.197 L 127.98 116.587 Z M 138.33 113.378 L 138.33 118.769 L 140.162 118.769 L 140.162 110.53 L 138.586 110.53 L 134.187 115.92 L 134.187 110.53 L 132.353 110.53 L 132.353 118.769 L 133.93 118.769 Z M 152.433 113.764 L 158.666 113.764 L 158.666 115.412 L 152.433 115.412 Z M 162.783 110.53 L 160.951 110.53 L 160.951 118.769 L 162.783 118.769 L 162.783 115.353 L 164.102 115.353 L 166.808 118.768 L 168.914 118.768 L 165.609 114.614 L 168.588 110.528 L 166.498 110.528 L 164.136 113.789 L 162.782 113.789 Z M 173.817 116.744 L 171.043 110.53 L 169.09 110.53 L 172.995 118.839 L 172.824 119.25 C 172.345 120.539 171.677 121.173 170.785 121.173 C 170.513 121.173 170.222 121.14 169.948 121.055 L 169.948 122.617 C 170.301 122.704 170.663 122.749 171.027 122.752 C 172.277 122.752 173.442 122.031 174.334 119.886 L 178.187 110.531 L 176.268 110.531 L 173.819 116.746 Z M 184.355 110.307 C 182.814 110.307 181.837 111.028 181.187 111.818 L 181.187 110.531 L 179.559 110.531 L 179.559 122.546 L 181.391 122.546 L 181.391 117.708 C 181.956 118.361 182.915 118.994 184.355 118.994 C 186.821 118.994 188.428 117.021 188.428 114.651 C 188.428 112.283 186.819 110.308 184.352 110.308 Z M 184.012 117.38 C 182.745 117.38 181.785 116.555 181.392 115.646 L 181.392 113.635 C 181.786 112.742 182.745 111.919 184.011 111.919 C 185.5 111.919 186.562 113.035 186.562 114.648 C 186.562 116.26 185.5 117.379 184.009 117.379 Z M 191.571 114.65 C 191.571 112.71 193.043 111.938 194.499 111.938 C 195.338 111.938 196.178 112.193 196.778 112.623 L 196.778 110.941 C 196.056 110.511 195.166 110.306 194.241 110.306 C 192.05 110.306 189.704 111.643 189.704 114.718 C 189.704 117.652 191.947 118.991 194.139 118.991 C 195.183 118.991 196.074 118.803 196.861 118.424 L 196.861 116.725 C 196.21 117.102 195.338 117.358 194.463 117.358 C 192.99 117.358 191.57 116.516 191.57 114.647 Z M 207.5 110.531 L 209.334 110.531 L 209.334 118.77 L 207.5 118.77 Z M 202.774 113.277 L 200.531 113.277 L 200.531 110.53 L 198.699 110.53 L 198.699 118.77 L 202.775 118.77 C 204.847 118.77 206.03 117.567 206.03 116.022 C 206.03 114.461 204.848 113.276 202.776 113.276 Z M 202.416 117.31 L 200.532 117.31 L 200.532 114.716 L 202.416 114.716 C 203.493 114.716 204.162 115.161 204.162 116.02 C 204.162 116.861 203.493 117.308 202.416 117.308 Z M 133.756 107.182 L 133.756 108.676 C 134.511 109.191 135.333 109.38 136.257 109.38 C 137.182 109.38 138.004 109.191 138.759 108.677 L 138.759 107.183 C 137.885 107.732 137.115 107.905 136.257 107.905 C 135.401 107.905 134.631 107.731 133.757 107.182 Z"/>
</svg>
