<svg width="530" height="310" fill="none" xmlns="http://www.w3.org/2000/svg"><rect width="530" height="310" rx="4" fill="url(#paint0_linear)"/><g filter="url(#filter0_d)"><path fill-rule="evenodd" clip-rule="evenodd" d="M305.711 10L140.355 195.355c-19.526 19.527-51.184 19.527-70.71 0-19.527-19.526-9.527-41.184 10-60.71L184.289 50l121.422-40z" fill="#000"/></g><path fill-rule="evenodd" clip-rule="evenodd" d="M335.711 0L140.355 195.355c-19.526 19.527-51.184 19.527-70.71 0-19.527-19.526-19.527-51.184 0-70.71L194.289 0h141.422z" fill="url(#paint1_linear)"/><g filter="url(#filter1_d)"><path fill-rule="evenodd" clip-rule="evenodd" d="M486.213 88.787c11.716 11.716 11.716 30.71 0 42.426L337.426 260l-64.853 20 171.213-171.213c11.716-11.716 30.711-31.716 42.427-20z" fill="#000"/></g><path fill-rule="evenodd" clip-rule="evenodd" d="M486.213 88.787c11.716 11.716 11.716 30.71 0 42.426L307.426 310h-84.853L443.786 88.787c11.716-11.716 30.711-11.716 42.427 0z" fill="url(#paint2_linear)"/><path fill-rule="evenodd" clip-rule="evenodd" d="M473.355 0L335.678 137.678c-9.763 9.763-25.593 9.763-35.356 0-9.763-9.763-9.763-25.593 0-35.356L402.645 0h70.71z" fill="url(#paint3_linear)"/><path fill-rule="evenodd" clip-rule="evenodd" d="M57.678 42.322c9.763 9.763 9.763 25.593 0 35.356L0 135.355v-70.71l22.323-22.323c9.763-9.763 25.592-9.763 35.355 0z" fill="url(#paint4_linear)"/><path fill-rule="evenodd" clip-rule="evenodd" d="M133.354 82.646a.5.5 0 010 .708l-50 50a.5.5 0 01-.708-.708l50-50a.501.501 0 01.708 0z" fill="url(#paint5_linear)"/><path fill-rule="evenodd" clip-rule="evenodd" d="M435.354 212.646a.502.502 0 010 .708l-40 40a.502.502 0 01-.708-.708l40-40a.502.502 0 01.708 0z" fill="url(#paint6_linear)"/><path fill-rule="evenodd" clip-rule="evenodd" d="M510.354 29.646a.5.5 0 010 .708l-20 20a.501.501 0 01-.708-.708l20-20a.501.501 0 01.708 0z" fill="url(#paint7_linear)"/><path fill-rule="evenodd" clip-rule="evenodd" d="M194.354 232.646a.502.502 0 010 .708l-60 60a.502.502 0 01-.708-.708l60-60a.502.502 0 01.708 0z" fill="url(#paint8_linear)"/><path fill-rule="evenodd" clip-rule="evenodd" d="M364.354 84.646a.5.5 0 010 .708l-40 40a.502.502 0 01-.708-.708l40-40a.501.501 0 01.708 0z" fill="url(#paint9_linear)"/><defs><linearGradient id="paint0_linear" x1="0" y1="0" x2="530" y2="310" gradientUnits="userSpaceOnUse"><stop stop-color="#2A68C4"/><stop offset="1" stop-color="#3D3999"/></linearGradient><linearGradient id="paint1_linear" x1="321.5" y1="-63.5" x2="136.414" y2="236.102" gradientUnits="userSpaceOnUse"><stop stop-color="#413DA8"/><stop offset="1" stop-color="#336FC7"/></linearGradient><linearGradient id="paint2_linear" x1="495" y1="80" x2="344.652" y2="387.683" gradientUnits="userSpaceOnUse"><stop stop-color="#336FC7"/><stop offset="1" stop-color="#413DA8"/></linearGradient><linearGradient id="paint3_linear" x1="293" y1="145" x2="447" y2="-3.5" gradientUnits="userSpaceOnUse"><stop stop-color="#413DA8" stop-opacity="0"/><stop offset="1" stop-color="#336FC7"/></linearGradient><linearGradient id="paint4_linear" x1="-11.5" y1="109.5" x2="65" y2="35" gradientUnits="userSpaceOnUse"><stop stop-color="#336FC7"/><stop offset="1" stop-color="#413DA8"/></linearGradient><linearGradient id="paint5_linear" x1="133" y1="83" x2="83" y2="133" gradientUnits="userSpaceOnUse"><stop stop-color="#3A5FE1" stop-opacity="0"/><stop offset="1" stop-color="#E48900"/></linearGradient><linearGradient id="paint6_linear" x1="435" y1="213" x2="395" y2="253" gradientUnits="userSpaceOnUse"><stop stop-color="#3A5FE1" stop-opacity="0"/><stop offset="1" stop-color="#E48900"/></linearGradient><linearGradient id="paint7_linear" x1="510" y1="30" x2="490" y2="50" gradientUnits="userSpaceOnUse"><stop stop-color="#3A5FE1" stop-opacity="0"/><stop offset="1" stop-color="#E48900"/></linearGradient><linearGradient id="paint8_linear" x1="194" y1="233" x2="134" y2="293" gradientUnits="userSpaceOnUse"><stop stop-color="#3A5FE1" stop-opacity="0"/><stop offset="1" stop-color="#E48900"/></linearGradient><linearGradient id="paint9_linear" x1="364" y1="85" x2="324" y2="125" gradientUnits="userSpaceOnUse"><stop stop-color="#3A5FE1" stop-opacity="0"/><stop offset="1" stop-color="#E48900"/></linearGradient><filter id="filter0_d" x="39.078" y="0" width="286.633" height="240" filterUnits="userSpaceOnUse" color-interpolation-filters="sRGB"><feFlood flood-opacity="0" result="BackgroundImageFix"/><feColorMatrix in="SourceAlpha" values="0 0 0 0 0 0 0 0 0 0 0 0 0 0 0 0 0 0 127 0"/><feOffset dy="10"/><feGaussianBlur stdDeviation="10"/><feColorMatrix values="0 0 0 0 0 0 0 0 0 0 0 0 0 0 0 0 0 0 0.15 0"/><feBlend in2="BackgroundImageFix" result="effect1_dropShadow"/><feBlend in="SourceGraphic" in2="effect1_dropShadow" result="shape"/></filter><filter id="filter1_d" x="252.573" y="75.231" width="262.426" height="234.769" filterUnits="userSpaceOnUse" color-interpolation-filters="sRGB"><feFlood flood-opacity="0" result="BackgroundImageFix"/><feColorMatrix in="SourceAlpha" values="0 0 0 0 0 0 0 0 0 0 0 0 0 0 0 0 0 0 127 0"/><feOffset dy="10"/><feGaussianBlur stdDeviation="10"/><feColorMatrix values="0 0 0 0 0 0 0 0 0 0 0 0 0 0 0 0 0 0 0.15 0"/><feBlend in2="BackgroundImageFix" result="effect1_dropShadow"/><feBlend in="SourceGraphic" in2="effect1_dropShadow" result="shape"/></filter></defs></svg>