<svg width="20" height="20" fill="none" xmlns="http://www.w3.org/2000/svg"><circle cx="10" cy="10" r="10" fill="#fff"/><path fill-rule="evenodd" clip-rule="evenodd" d="M5.482 7.66A1 1 0 005 8.515V13a1 1 0 001 1h8a1 1 0 001-1V8.515a1 1 0 00-.482-.855l-4-2.425a1 1 0 00-1.036 0l-4 2.425zm1.266 1.406a.5.5 0 00-.496.868l3.5 2a.5.5 0 00.496 0l3.5-2a.5.5 0 00-.496-.868L10 10.924 6.748 9.066z" fill="url(#paint0_linear)"/><defs><linearGradient id="paint0_linear" x1="5" y1="5" x2="16.727" y2="9.457" gradientUnits="userSpaceOnUse"><stop stop-color="#2A68C4"/><stop offset="1" stop-color="#3D3999"/></linearGradient></defs></svg>