<svg width="20" height="20" fill="none" xmlns="http://www.w3.org/2000/svg"><circle cx="10" cy="10" r="10" fill="#fff"/><path fill-rule="evenodd" clip-rule="evenodd" d="M5.336 9.297a2 2 0 01.25-2.524l1.478-1.478a1 1 0 011.497.093l1.296 1.666a1 1 0 01-.263 1.464l-1.591.986a8.98 8.98 0 002.486 2.492l.993-1.593a1 1 0 011.463-.26l1.668 1.297a1 1 0 01.094 1.496l-1.479 1.478a2 2 0 01-2.524.25l-1.556-1.037a10 10 0 01-2.774-2.774L5.336 9.297z" fill="url(#paint0_linear)"/><defs><linearGradient id="paint0_linear" x1="5" y1="5.002" x2="17.014" y2="9.113" gradientUnits="userSpaceOnUse"><stop stop-color="#2A68C4"/><stop offset="1" stop-color="#3D3999"/></linearGradient></defs></svg>