<svg width="100" height="100" fill="none" xmlns="http://www.w3.org/2000/svg"><path d="M0 0h100.536v100.536H0V0z" fill="#fff"/><path d="M34.394 67.405l28.06 2.316s10.276 11.575 9.88 14.083c-.395 2.508 2.372 14.469-2.766 16.977-5.138 2.508-21.342-2.701-23.91-3.28-2.57-.579-10.87 3.28-16.402-3.665-5.534-7.331-1.384-2.894-1.384-6.56-.395-3.665 6.522-19.87 6.522-19.87z" fill="#555659"/><path d="M68.87 66.952c-.797.197-1.196.395-1.196.592 0 .592.798.197 3.39 1.38a28.948 28.948 0 01-10.768.987c.451-.874.787-1.802.997-2.762.25-.49.386-1.03.4-1.578 2.79-.395 1.594-.79 4.585-1.184 0-.197 1.197-.197 1.197-.394-.399-.198 1.794-.592 1.396-.592-.414-.24-.814-.503-1.197-.79 6.516-3.403 11.5-9.107 13.958-15.98-6.38-.986-8.973-3.157-9.97-7.694a13.64 13.64 0 00-6.637.224 13.53 13.53 0 00-5.726 3.327c-.2-.986-.2-1.776-.398-2.762-2.992 4.735-3.79 5.524-5.783 5.919a37.082 37.082 0 01-3.39-10.654c-.997 4.538-.997 7.3-2.991 11.246-1.795-.395-3.39-1.973-6.381-6.511-.217.907-.35 1.831-.399 2.762a12.164 12.164 0 00-5.51-2.936 12.248 12.248 0 00-6.255.174c-.997 4.538-.997 6.313-7.377 7.497 2.592 7.102 6.181 12.035 12.761 15.586a7.114 7.114 0 01-1.794.789c-.4.197-.599.592-.997.79 0 .197-1.596-.79-1.596-.593 2.593.395 5.584 1.381 8.176 1.973.25.49.386 1.03.399 1.579.21.959.546 1.887.997 2.762-3.62.35-7.275.015-10.768-.987 3.39-.394 3.39-.789 3.39-1.38 0-.198 0-.79-.997-.987C19.02 65.57 14.035 56.495 11.642 52.55c2.393.986 3.59 1.775 3.988 1.184.399-.592.399-.79-.399-1.382-2.393-2.367-3.589-10.061-3.988-13.415 1.595.592 4.387 1.973 6.98 1.184 3.19-.987 5.782-3.749 7.577-8.287.2 0 .398.198.598.198l.598-1.184a1.662 1.662 0 000-1.381 31.629 31.629 0 01-2.193-10.456 37.39 37.39 0 01.797-4.143 15.678 15.678 0 015.583 4.537c.81.97 1.676 1.892 2.593 2.762 1.396 1.381 3.988 1.973 4.387 0 .199-.592-.4-1.184-.798-1.775a.2.2 0 01-.141-.058.196.196 0 01-.058-.14c2.193-.789 7.378-2.564 11.764-1.578h.599c.199 0 .398.197.598 0a26.068 26.068 0 0112.761.592l.998 1.578c-.4.592-1.396 1.184-1.197 1.578.598.79.798 1.184 2.194-.394a34.375 34.375 0 012.592-2.96 22.061 22.061 0 017.577-5.524c.2 1.184.598 4.933.598 5.92a24.482 24.482 0 01-2.193 9.864c-.2.394-.997.986-.798 1.578.2.592 0 0 .2.395.2 0 .797.394.997.394l-.2.395c1.795 4.537 4.188 6.51 7.378 7.497 2.63.555 5.373.207 7.777-.987-.399 3.157-2.991 11.443-5.583 14.008-.599.592-.599 1.184-.4 1.38.2.198 2.194-.788 4.786-1.775-1.794 5.524-9.371 13.416-18.743 14.797z" fill="#C3C2CE"/><path d="M86.72 45.061a5.283 5.283 0 01-2.575 2.53v-3.503c-3.565.39-9.707.779-10.499-7.394h-.198a11.567 11.567 0 00-5.15-1.751c-.595 0-1.19-.195-1.586-.195l1.387-2.335s-8.122-.389-12.48 4.281c-.595.584 0-2.919 0-2.919a17.209 17.209 0 00-5.745 2.92l-.793 2.918-.792-2.919a17.21 17.21 0 00-5.745-2.919s.594 3.308 0 2.92c-4.557-4.67-12.48-4.282-12.48-4.282l1.386 2.335a4.434 4.434 0 00-1.585.195 18.047 18.047 0 00-5.15 1.751h-.199c-.792 8.173-6.933 7.783-10.5 7.394v3.503a4.388 4.388 0 01-1.567-.99 4.292 4.292 0 01-1.008-1.54l-.198.973.198 1.168c5.35 11.48 10.896 13.231 19.415 15.177l2.575.195 3.368 1.75.396 2.336c.792 2.919 1.98 3.697 4.556 5.643l.99.778 2.972-1.557 3.17-.389 3.17.39 2.377 1.167 1.189.39a11.701 11.701 0 004.952-6.422l.396-2.335 3.368-1.751 2.576-.195c8.518-2.14 14.857-5.06 20.008-16.734l-.198-.584z" fill="#fff"/><path d="M47.818 60.287a5.24 5.24 0 014.668.211c.332.128.627.344.854.627.227.282.378.622.44.984s.03.735-.09 1.082c-.12.346-.325.653-.595.892l-.203.21c-2.436 3.374-4.06 2.53-6.292-.632a1.87 1.87 0 01-.318-.723 1.906 1.906 0 01.007-.795c.058-.262.17-.507.33-.718.158-.211.36-.384.59-.505 0-.422.203-.422.609-.633z" fill="#1E1E40"/><path d="M87.975 50.11c-.595.194-1.189.58-1.783.774a40.06 40.06 0 003.367-13.15l.198-1.74-1.386.967a10.107 10.107 0 01-7.13 1.16c-2.575-.773-4.951-3.093-6.535-7.154v-.194a.7.7 0 01.198-.58 45.257 45.257 0 002.376-6.187 15.13 15.13 0 00-.396-11.022c-1.188-2.514-1.188-2.514-3.96-1.934a21.027 21.027 0 00-10.101 6.188c-.148.17-.33.308-.534.408-.204.1-.427.158-.654.172a22.276 22.276 0 00-11.685-1.16h-.396a22.276 22.276 0 00-11.684 1.16 1.737 1.737 0 01-.655-.172 1.697 1.697 0 01-.534-.408 22.62 22.62 0 00-10.1-6.188c-2.772-.774-2.772-.58-3.96 1.934a14.72 14.72 0 00-.793 11.215c.594 2.127 1.585 3.867 2.377 6.188a.7.7 0 00.198.58v.193c-1.585 3.868-3.565 6.381-6.536 7.155a9.65 9.65 0 01-3.683.114 9.568 9.568 0 01-3.446-1.274l-1.387-.967.595 1.547a40.061 40.061 0 003.366 13.149c-.594-.194-1.188-.58-1.782-.774l-2.179-.966.99 2.127c.199.58 5.744 11.795 16.438 15.276-.99.193-1.98.193-2.97.386l-2.773.387 2.574 1.354a49.774 49.774 0 0013.071 2.32 15.747 15.747 0 003.169-.386c.423.609.96 1.133 1.584 1.546.443.29.907.548 1.387.774h.594l1.782-.967c.322.15.652.279.99.387a8.083 8.083 0 006.734 0l.99-.387 1.782.967h.595a3.429 3.429 0 001.386-.774 11.749 11.749 0 001.584-1.546c1.04.235 2.102.365 3.169.386 4.442-.21 8.837-.99 13.07-2.32l3.566-1.16-3.763-.387c-.99-.194-1.98-.194-2.97-.387 10.693-3.48 16.239-14.89 16.437-15.276l.99-2.127-1.782.773zM56.09 71.188c-2.971-1.74-4.754-2.708-6.338-2.708-1.584 0-3.169.774-6.337 2.708-4.555-2.514-4.951-10.636-2.773-14.503.352.742.618 1.52.792 2.32a46.64 46.64 0 011.98-4.64c1.387-2.514 1.783-3.094 1.783-3.094 1.584-2.32 7.328-2.32 8.714 0a12.53 12.53 0 011.782 3.093 25.431 25.431 0 011.98 4.641c.199-.773.595-1.547.793-2.32 2.377 4.06 1.98 12.182-2.376 14.503zM37.672 52.43c-2.575-.58-3.763-2.514-5.15-3.674 3.17.387 8.12 1.547 9.11 2.514a3.69 3.69 0 01-1.797 1.174 3.77 3.77 0 01-2.163-.014zm20.2-1.16c.99-.967 5.941-2.127 9.11-2.514a10.88 10.88 0 01-5.15 3.674 3.89 3.89 0 01-2.155-.009 3.812 3.812 0 01-1.805-1.151zM68.764 66.16c-.792.193-2.574.387-2.376.387.198.386 1.188.386 4.753 1.547a29.116 29.116 0 01-10.695.967c.449-.858.781-1.767.99-2.708.248-.48.384-1.009.397-1.547 2.772-.386 5.545-.966 8.318-1.353a4.3 4.3 0 01-.99-.774 12.154 12.154 0 01-1.189-.773c6.472-3.336 11.421-8.927 13.863-15.663-6.337-.967-8.912-3.094-9.902-7.541a13.72 13.72 0 00-6.592.219 13.481 13.481 0 00-5.687 3.261c-.198-.967-.198-1.74-.396-2.707-2.97 4.641-3.763 5.414-5.743 5.801a45 45 0 01-3.367-12.762c-.99 4.447-1.386 8.701-3.367 12.762-1.782-.387-2.574-1.16-5.743-5.8a14.822 14.822 0 00-.396 2.706 13.116 13.116 0 00-5.673-3.309 13.354 13.354 0 00-6.605-.171c-.99 4.447-3.565 6.574-9.903 7.541 2.491 6.708 7.427 12.285 13.863 15.663a4.15 4.15 0 01-1.188.773c-.396.194-.594.194-.99.387 2.575.387 4.951 1.74 7.526 2.32.198.387.99.58.99 1.16.21.941.542 1.85.99 2.708a29.116 29.116 0 01-10.694-.967c3.366-.387 3.366-.773 3.366-1.354 0-.193 0-.773-.99-.966-9.308-1.16-15.25-9.089-17.626-13.15 2.377.967 3.565 1.74 3.961 1.354.396-.387-.792-1.16-1.386-1.934-1.98-2.707-3.367-9.668-3.763-12.955a11.442 11.442 0 006.932.58c3.168-.967 5.743-3.674 7.525-8.122.198 0 .396.194.594.194l.595-1.16a1.61 1.61 0 000-1.354 30.651 30.651 0 01-2.179-10.249c.047-1.04.179-2.074.396-3.093a15.277 15.277 0 015.743 4.254c.801 1.014 1.66 1.982 2.575 2.9.323.33.728.573 1.175.707.448.133.923.153 1.38.055a2.757 2.757 0 001.231-.61c.35-.302.615-.687.769-1.119.198-.58-.396-1.16-.792-1.74a.2.2 0 01-.14-.057.191.191 0 01-.058-.136c2.178-.774 7.327-2.514 11.684-1.547h.99c3.966-.619 8.031-.08 11.685 1.547h-.99c-.396.58-.99 1.353-.792 1.74.149.435.411.825.761 1.13.35.307.776.52 1.235.617.459.097.936.077 1.385-.06a2.723 2.723 0 001.174-.72c.8-1.014 1.66-1.983 2.574-2.9a14.683 14.683 0 015.743-4.255c.218 1.02.35 2.054.397 3.094a26.526 26.526 0 01-2.179 10.249 1.611 1.611 0 000 1.353l.594 1.16c.198 0 .396-.193.594-.193 1.783 4.448 4.357 7.155 7.526 8.122a9.878 9.878 0 006.931-.58 41.788 41.788 0 01-3.762 12.568c-.595.967-1.585 1.934-1.387 2.127.198.194 1.387-.193 3.565-1.16-2.178 3.868-7.922 12.182-17.23 13.536z" fill="#1E1E40"/><path d="M49.554 62.676c.784 0 1.419-.212 1.419-.473 0-.262-.635-.473-1.419-.473s-1.419.212-1.419.473c0 .26.636.473 1.42.473z" fill="#fff"/><path d="M35.97 65.513l5.544 6.536a27.446 27.446 0 014.553 8.074c1.782 5.574 2.97 3.844 3.96 11.917l-.198 9.419-12.275-.768s-1.584-.77-10.296-19.607c-.594-1.346-2.771-14.225-2.771-14.225l8.711-1.153h2.772v-.193z" fill="#4A4797"/><path d="M36.221 64.568c-.191.789-.191 1.381-.383 2.17l4.794 6.118 1.15 1.777a21.204 21.204 0 013.068 6.315c.575 1.974 1.534 3.947 2.3 6.316.384.986 1.727 3.355 2.11 4.736.384-.592.384-2.368.767-2.96-.192-.592-1.15-1.58-1.342-2.171a64.523 64.523 0 01-2.301-6.118 25.336 25.336 0 00-3.26-6.908 13.86 13.86 0 01-1.15-1.776l-5.753-7.105v-.394z" fill="#1E1E40"/><path d="M102.042 90.28c.195-6.823-1.952-7.798-7.027-12.087-4.685-3.9-14.64-6.044-14.64-6.044 0-1.17.781-7.019.976-7.993 1.367-4.874.781-5.264.781-5.264-4.667.122-9.31.71-13.859 1.755-4.2.689-8.436 1.144-12.687 1.364l1.17 6.044h-4.88l.196 12.087-2.733 14.817s-.78 10.723-3.318 6.434c-2.342-3.9-2.342-3.315-4.1-6.434-4.489-7.018-2.732-3.704-9.759-14.622-1.171-1.754 5.075-4.289 4.685-6.238l-1.171-3.9.585-4.873-16.006-2.73.39 1.755c.236 1.129.562 2.237.977 3.314.585 1.56 1.366 3.12 2.147 4.874l.585 1.17s-14.834-.195-20.3 8.188A28.356 28.356 0 00-.045 89.5a22.005 22.005 0 00-.78 9.748l1.951 1.95 58.949.975 41.381-1.95c0 .195.391-5.069.586-9.943z" fill="#2E2C55"/><path d="M48.795 103.351l-50.789-2.501c-.044-4.176.152-8.351.588-12.505a20.024 20.024 0 014.315-6.927c6.667-7.31 16.471-8.658 20.001-8.85a35.992 35.992 0 01-2.157-4.81c-.392-1.154-.588-2.116-.98-3.27l-.588-3.079 18.04 3.078-.784 5.58.98 3.848c.392 1.539-1.176 2.693-2.549 3.848-.588.577-1.96 1.539-1.96 1.924.784 1.539 4.313 6.349 7.255 10.581l2.549 3.656a65.17 65.17 0 013.53 5.772c.98 1.731 2.157-.577 2.157-.577l-.197-4.81 2.746-14.622.196-12.698h4.902l-1.176-5.965h1.176c4.14-.226 8.264-.676 12.354-1.346a64.888 64.888 0 0113.923-1.732h.196l.196.192c.589.385.98 1.347-.392 6.157-.196.962-.784 5.195-.98 6.926 2.353.578 10.197 2.309 14.315 5.965 5.294 4.617 7.843 6.733 7.255 13.66-.784 12.505-.196 10.389-.196 10.389l-53.926 2.116zm4.51-34.439l-.196 10.967-2.353 19.817 23.727-.193 23.532-.192 3.529-.385v-8.465c.196-6.734-1.96-7.696-6.863-11.736-4.51-3.656-14.119-5.772-14.119-5.772l-.588-.193v-.77c0-1.346.784-7.118.98-8.272.372-1.259.634-2.546.785-3.848-4.36.172-8.694.752-12.943 1.732a117.957 117.957 0 01-11.765 1.346l1.176 5.964h-4.902zM.163 100.081l30.199.769c-.196-.385 18.629 3.463 10.981-5.964l-2.55-3.656c-3.137-4.617-6.47-9.042-7.255-10.581-.784-1.54.785-2.886 2.354-4.233.784-.577 2.157-1.732 1.96-2.116l-1.176-4.233.392-4.233-13.923-2.309.197.578c.196.962.588 2.116.784 3.078a24.428 24.428 0 002.157 4.618l1.373 2.5h-1.57c-1.372 0-11.373.385-18.04 6.542a20.596 20.596 0 00-5.49 7.888 8.316 8.316 0 00-.393 3.079 48.087 48.087 0 000 8.273z" fill="#1E1E40"/><path d="M28.81 76.048a.732.732 0 01-.597-.2 7.347 7.347 0 00-2.502-1.914 7.309 7.309 0 00-3.07-.687 1.083 1.083 0 01-.995-1 .945.945 0 01.604-.943.931.931 0 01.391-.058 9.925 9.925 0 016.766 3.002c.398.4.398 1 0 1.2-.398.2-.398.6-.597.6zM15.875 101.46c-.597 0-.995-.4-.796-1 0 0 .398-7.403.199-9.804 0-.4.199-1 .796-1s.995.2.995.8a75.735 75.735 0 01-.2 10.204 1.304 1.304 0 01-.995.8zm69.85 0a2.14 2.14 0 01-1.393-.6c-1.393-1.2-1.791-4.602-1.194-9.404 0-.4.597-.8.995-.8s.796.6.796 1c-.597 5.803.199 7.403.597 7.804.398.4.199.2.398.2s.995.2.995.6c0 .4-.199 1-.796 1-.199.2-.199.2-.398.2zM61.248 80.45a.733.733 0 01-.597-.2c-.398-.4-.398-1 0-1.2 10.149-9.204 20.099-8.804 20.497-8.804a.896.896 0 01.766.648.908.908 0 01-.615 1.122.896.896 0 01-.35.03 29.59 29.59 0 00-19.303 8.204c0 .2-.2.2-.398.2z" fill="#1E1E40"/><path d="M60.33 75.919c-.39 0-.782-.21-.782-.628a1.002 1.002 0 01.031-.768.933.933 0 01.23-.307.858.858 0 01.326-.18 48.345 48.345 0 0120.321-3.767.872.872 0 01.593.35.996.996 0 01-.138 1.332.844.844 0 01-.65.202 51.83 51.83 0 00-19.54 3.557.592.592 0 01-.39.209z" fill="#1E1E40"/></svg>