<svg width="808" height="180" viewBox="0 0 808 180" fill="none" xmlns="http://www.w3.org/2000/svg">
<path fill-rule="evenodd" clip-rule="evenodd" d="M125 0H245L75 180H0V132.353L125 0ZM0 0H100L0 105.882V0ZM808 0H688L518 180H638L808 0Z" fill="#057905"/>
<path fill-rule="evenodd" clip-rule="evenodd" d="M194 12C194 10.8954 193.105 10 192 10C190.895 10 190 10.8954 190 12C190 13.1046 190.895 14 192 14C193.105 14 194 13.1046 194 12ZM194 24C194 22.8954 193.105 22 192 22C190.895 22 190 22.8954 190 24C190 25.1046 190.895 26 192 26C193.105 26 194 25.1046 194 24ZM192 34C193.105 34 194 34.8954 194 36C194 37.1046 193.105 38 192 38C190.895 38 190 37.1046 190 36C190 34.8954 190.895 34 192 34ZM206 12C206 10.8954 205.105 10 204 10C202.895 10 202 10.8954 202 12C202 13.1046 202.895 14 204 14C205.105 14 206 13.1046 206 12ZM204 22C205.105 22 206 22.8954 206 24C206 25.1046 205.105 26 204 26C202.895 26 202 25.1046 202 24C202 22.8954 202.895 22 204 22ZM206 36C206 34.8954 205.105 34 204 34C202.895 34 202 34.8954 202 36C202 37.1046 202.895 38 204 38C205.105 38 206 37.1046 206 36ZM216 10C217.105 10 218 10.8954 218 12C218 13.1046 217.105 14 216 14C214.895 14 214 13.1046 214 12C214 10.8954 214.895 10 216 10ZM218 24C218 22.8954 217.105 22 216 22C214.895 22 214 22.8954 214 24C214 25.1046 214.895 26 216 26C217.105 26 218 25.1046 218 24ZM216 34C217.105 34 218 34.8954 218 36C218 37.1046 217.105 38 216 38C214.895 38 214 37.1046 214 36C214 34.8954 214.895 34 216 34ZM230 12C230 10.8954 229.105 10 228 10C226.895 10 226 10.8954 226 12C226 13.1046 226.895 14 228 14C229.105 14 230 13.1046 230 12ZM228 22C229.105 22 230 22.8954 230 24C230 25.1046 229.105 26 228 26C226.895 26 226 25.1046 226 24C226 22.8954 226.895 22 228 22ZM522 22C523.105 22 524 22.8954 524 24C524 25.1046 523.105 26 522 26C520.895 26 520 25.1046 520 24C520 22.8954 520.895 22 522 22ZM534 22C535.105 22 536 22.8954 536 24C536 25.1046 535.105 26 534 26C532.895 26 532 25.1046 532 24C532 22.8954 532.895 22 534 22ZM536 36C536 34.8954 535.105 34 534 34C532.895 34 532 34.8954 532 36C532 37.1046 532.895 38 534 38C535.105 38 536 37.1046 536 36ZM546 22C547.105 22 548 22.8954 548 24C548 25.1046 547.105 26 546 26C544.895 26 544 25.1046 544 24C544 22.8954 544.895 22 546 22ZM548 36C548 34.8954 547.105 34 546 34C544.895 34 544 34.8954 544 36C544 37.1046 544.895 38 546 38C547.105 38 548 37.1046 548 36ZM546 46C547.105 46 548 46.8954 548 48C548 49.1046 547.105 50 546 50C544.895 50 544 49.1046 544 48C544 46.8954 544.895 46 546 46ZM570 154C571.105 154 572 154.895 572 156C572 157.105 571.105 158 570 158C568.895 158 568 157.105 568 156C568 154.895 568.895 154 570 154ZM570 166C571.105 166 572 166.895 572 168C572 169.105 571.105 170 570 170C568.895 170 568 169.105 568 168C568 166.895 568.895 166 570 166ZM560 168C560 166.895 559.105 166 558 166C556.895 166 556 166.895 556 168C556 169.105 556.895 170 558 170C559.105 170 560 169.105 560 168ZM582 154C583.105 154 584 154.895 584 156C584 157.105 583.105 158 582 158C580.895 158 580 157.105 580 156C580 154.895 580.895 154 582 154ZM584 168C584 166.895 583.105 166 582 166C580.895 166 580 166.895 580 168C580 169.105 580.895 170 582 170C583.105 170 584 169.105 584 168ZM594 154C595.105 154 596 154.895 596 156C596 157.105 595.105 158 594 158C592.895 158 592 157.105 592 156C592 154.895 592.895 154 594 154ZM608 156C608 154.895 607.105 154 606 154C604.895 154 604 154.895 604 156C604 157.105 604.895 158 606 158C607.105 158 608 157.105 608 156ZM606 166C607.105 166 608 166.895 608 168C608 169.105 607.105 170 606 170C604.895 170 604 169.105 604 168C604 166.895 604.895 166 606 166ZM596 168C596 166.895 595.105 166 594 166C592.895 166 592 166.895 592 168C592 169.105 592.895 170 594 170C595.105 170 596 169.105 596 168Z" fill="white"/>
</svg>
