<svg width="160" height="160" viewBox="0 0 160 160" fill="none" xmlns="http://www.w3.org/2000/svg">
<circle cx="80" cy="80" r="80" fill="white"/>
<path fill-rule="evenodd" clip-rule="evenodd" d="M118.708 21.6672C110.051 17.3983 100.305 15 90 15C54.1015 15 25 44.1015 25 80C25 115.899 54.1015 145 90 145C100.305 145 110.051 142.602 118.708 138.333C107.621 145.705 94.3123 150 80 150C41.3401 150 10 118.66 10 80C10 41.3401 41.3401 10 80 10C94.3123 10 107.621 14.2953 118.708 21.6672Z" fill="#0C9E0C"/>
<path fill-rule="evenodd" clip-rule="evenodd" d="M117.893 133.136C136.982 123.095 150 103.068 150 80C150 46.8629 123.137 20 90 20C56.8629 20 30 46.8629 30 80C30 103.85 43.9156 124.45 64.0704 134.123L65.4403 97.591C56.5917 95.9345 50 89.1941 50 76.4C50 61.4883 58.9543 44 70 44C81.0457 44 90 61.4883 90 76.4C90 89.1967 83.4057 95.9373 74.5543 97.592L75.9436 138.344C80.4524 139.427 85.1592 140 90 140C95.5678 140 100.958 139.242 106.074 137.823L107.449 97.4921C99.7114 95.6788 94 88.9534 94 76.4C94 70.0163 95.7205 55.7265 96.4146 50.2213C96.5632 49.0423 97.7223 48.2841 98.8673 48.6021C99.7139 48.8373 100.29 49.6072 100.225 50.4834C100.18 51.0972 100.07 52.0916 99.9328 53.3328C99.1901 60.0504 97.6478 74 101.2 74C104.951 74 105.227 61.8765 105.407 53.9927C105.444 52.3588 105.477 50.9071 105.536 49.783C105.59 48.7437 106.459 48 107.5 48C108.541 48 109.405 48.745 109.425 49.7855C109.451 51.1988 109.397 53.1297 109.336 55.289C109.114 63.1363 108.808 74 112 74C115.192 74 114.885 63.1355 114.664 55.2881C114.603 53.1292 114.549 51.1987 114.575 49.7856C114.595 48.745 115.459 48 116.5 48C117.541 48 118.409 48.7436 118.464 49.7829C118.523 50.9072 118.556 52.3594 118.593 53.9938C118.773 61.8776 119.049 74 122.8 74C125.892 74 124.727 61.1487 124.05 53.6815C123.94 52.4652 123.842 51.3918 123.779 50.54C123.71 49.6285 124.309 48.8307 125.19 48.5861C126.329 48.2696 127.49 48.9819 127.689 50.1476C128.437 54.5302 130 65.053 130 76.4C130 88.9507 124.291 95.6759 116.556 97.4909L117.893 133.136Z" fill="#86C500"/>
</svg>
