<svg width="62" height="14" fill="none" xmlns="http://www.w3.org/2000/svg"><path fill-rule="evenodd" clip-rule="evenodd" d="M16 0L0 14l16-1 6 1 3-1 7 1 2-.5 6 .5-6-6-1 1-8-7-3 3-6-5zm24 14l-6-1.5-2 .5-7-1.5-3 1-6-1.5-16 3L16 3l4.632 3.368L17 10l8-5 8 6 1-1 6 4zm21.128-8.126c.376-.137.666-.329.872-.575V3.086h-2.182v.842h1.04v.956c-.183.183-.49.274-.918.274-.427 0-.75-.148-.972-.445-.22-.297-.331-.737-.331-1.318V3.04c.002-.577.105-1.01.309-1.303.203-.292.498-.438.887-.438.305 0 .543.074.716.221.175.147.288.38.339.697H62c-.069-.6-.288-1.055-.659-1.367-.37-.315-.885-.473-1.542-.473-.473 0-.885.108-1.238.324-.35.213-.62.523-.808.93-.185.403-.278.882-.278 1.435v.377c.005.539.106 1.007.301 1.406.198.398.478.703.838.914.363.208.785.312 1.265.312.457 0 .873-.067 1.249-.202zM38.505 6h1.142V.455h-1.142v2.247h-2.228V.455h-1.143V6h1.143V3.623h2.228V6zm2.606 0h1.143V.455h-1.143V6zm4.332-2.224l-.594.64V6h-1.142V.455h1.142v2.513l.503-.69L46.765.456h1.405l-1.969 2.464 2.026 3.08h-1.36l-1.424-2.223zM49.12 6h1.143V.455H49.12V6zm7.105 0h-1.143L52.858 2.35V6h-1.143V.455h1.143l2.228 3.656V.455h1.139V6zm-9.602 6.077c-.043.596-.264 1.066-.663 1.409-.396.343-.919.514-1.569.514-.71 0-1.27-.239-1.68-.716-.406-.48-.609-1.138-.609-1.973v-.339c0-.533.094-1.003.282-1.409.188-.406.456-.717.804-.933.35-.218.756-.328 1.218-.328.64 0 1.156.172 1.547.514.39.343.617.824.677 1.444h-1.142c-.028-.358-.128-.617-.3-.777-.171-.162-.431-.244-.782-.244-.38 0-.666.137-.857.412-.188.271-.284.694-.29 1.268v.419c0 .599.091 1.037.271 1.314.183.277.47.415.861.415.353 0 .616-.08.788-.24.176-.162.276-.413.301-.75h1.143zm4.709.929h-2.426V8.379h-1.143v5.545h3.569v-.918zm5.154-4.627v3.652c0 .607-.19 1.087-.57 1.44-.38.352-.897.529-1.555.529-.647 0-1.161-.171-1.542-.514-.381-.343-.575-.814-.583-1.413V8.379h1.143v3.66c0 .363.086.628.259.796.175.165.416.247.723.247.643 0 .969-.338.979-1.013v-3.69h1.146zm1.327 0v5.545h2.156c.63-.005 1.115-.145 1.455-.42.34-.273.51-.677.51-1.21 0-.313-.082-.577-.247-.792a1.162 1.162 0 00-.67-.43c.248-.097.442-.248.582-.454.14-.208.21-.448.21-.72 0-.498-.174-.875-.522-1.131-.348-.259-.858-.388-1.531-.388h-1.943zm1.143 4.627v-1.497h1.047c.526.008.789.265.789.773a.662.662 0 01-.229.534c-.15.127-.36.19-.628.19h-.98zm.845-2.304h-.845V9.304h.8c.315 0 .544.056.69.168.146.109.22.289.22.54 0 .45-.288.68-.865.69z" fill="#fff"/></svg>